%TF.GenerationSoftware,KiCad,Pcbnew,(5.0.2)-1*%
%TF.CreationDate,2021-04-08T12:32:07+02:00*%
%TF.ProjectId,trackerGPS,74726163-6b65-4724-9750-532e6b696361,rev?*%
%TF.SameCoordinates,Original*%
%TF.FileFunction,Legend,Bot*%
%TF.FilePolarity,Positive*%
%FSLAX46Y46*%
G04 Gerber Fmt 4.6, Leading zero omitted, Abs format (unit mm)*
G04 Created by KiCad (PCBNEW (5.0.2)-1) date 08/04/2021 12:32:07*
%MOMM*%
%LPD*%
G01*
G04 APERTURE LIST*
%ADD10C,0.300000*%
%ADD11C,0.200000*%
%ADD12C,0.120000*%
%ADD13C,0.150000*%
%ADD14C,0.250000*%
%ADD15C,0.254000*%
%ADD16C,0.100000*%
%ADD17C,0.075000*%
G04 APERTURE END LIST*
D10*
X151500457Y-69042057D02*
X151500457Y-69542057D01*
X152286171Y-69756342D02*
X152286171Y-69042057D01*
X150786171Y-69042057D01*
X150786171Y-69756342D01*
X152286171Y-70399200D02*
X151286171Y-70399200D01*
X151429028Y-70399200D02*
X151357600Y-70470628D01*
X151286171Y-70613485D01*
X151286171Y-70827771D01*
X151357600Y-70970628D01*
X151500457Y-71042057D01*
X152286171Y-71042057D01*
X151500457Y-71042057D02*
X151357600Y-71113485D01*
X151286171Y-71256342D01*
X151286171Y-71470628D01*
X151357600Y-71613485D01*
X151500457Y-71684914D01*
X152286171Y-71684914D01*
X151286171Y-72399200D02*
X152786171Y-72399200D01*
X151357600Y-72399200D02*
X151286171Y-72542057D01*
X151286171Y-72827771D01*
X151357600Y-72970628D01*
X151429028Y-73042057D01*
X151571885Y-73113485D01*
X152000457Y-73113485D01*
X152143314Y-73042057D01*
X152214742Y-72970628D01*
X152286171Y-72827771D01*
X152286171Y-72542057D01*
X152214742Y-72399200D01*
X152286171Y-73970628D02*
X152214742Y-73827771D01*
X152071885Y-73756342D01*
X150786171Y-73756342D01*
X152286171Y-75184914D02*
X151500457Y-75184914D01*
X151357600Y-75113485D01*
X151286171Y-74970628D01*
X151286171Y-74684914D01*
X151357600Y-74542057D01*
X152214742Y-75184914D02*
X152286171Y-75042057D01*
X152286171Y-74684914D01*
X152214742Y-74542057D01*
X152071885Y-74470628D01*
X151929028Y-74470628D01*
X151786171Y-74542057D01*
X151714742Y-74684914D01*
X151714742Y-75042057D01*
X151643314Y-75184914D01*
X152214742Y-76542057D02*
X152286171Y-76399200D01*
X152286171Y-76113485D01*
X152214742Y-75970628D01*
X152143314Y-75899200D01*
X152000457Y-75827771D01*
X151571885Y-75827771D01*
X151429028Y-75899200D01*
X151357600Y-75970628D01*
X151286171Y-76113485D01*
X151286171Y-76399200D01*
X151357600Y-76542057D01*
X152214742Y-77756342D02*
X152286171Y-77613485D01*
X152286171Y-77327771D01*
X152214742Y-77184914D01*
X152071885Y-77113485D01*
X151500457Y-77113485D01*
X151357600Y-77184914D01*
X151286171Y-77327771D01*
X151286171Y-77613485D01*
X151357600Y-77756342D01*
X151500457Y-77827771D01*
X151643314Y-77827771D01*
X151786171Y-77113485D01*
X152286171Y-78470628D02*
X151286171Y-78470628D01*
X151429028Y-78470628D02*
X151357600Y-78542057D01*
X151286171Y-78684914D01*
X151286171Y-78899200D01*
X151357600Y-79042057D01*
X151500457Y-79113485D01*
X152286171Y-79113485D01*
X151500457Y-79113485D02*
X151357600Y-79184914D01*
X151286171Y-79327771D01*
X151286171Y-79542057D01*
X151357600Y-79684914D01*
X151500457Y-79756342D01*
X152286171Y-79756342D01*
X152214742Y-81042057D02*
X152286171Y-80899200D01*
X152286171Y-80613485D01*
X152214742Y-80470628D01*
X152071885Y-80399200D01*
X151500457Y-80399200D01*
X151357600Y-80470628D01*
X151286171Y-80613485D01*
X151286171Y-80899200D01*
X151357600Y-81042057D01*
X151500457Y-81113485D01*
X151643314Y-81113485D01*
X151786171Y-80399200D01*
X151286171Y-81756342D02*
X152286171Y-81756342D01*
X151429028Y-81756342D02*
X151357600Y-81827771D01*
X151286171Y-81970628D01*
X151286171Y-82184914D01*
X151357600Y-82327771D01*
X151500457Y-82399200D01*
X152286171Y-82399200D01*
X151286171Y-82899200D02*
X151286171Y-83470628D01*
X150786171Y-83113485D02*
X152071885Y-83113485D01*
X152214742Y-83184914D01*
X152286171Y-83327771D01*
X152286171Y-83470628D01*
X154050457Y-72613485D02*
X154121885Y-72827771D01*
X154193314Y-72899200D01*
X154336171Y-72970628D01*
X154550457Y-72970628D01*
X154693314Y-72899200D01*
X154764742Y-72827771D01*
X154836171Y-72684914D01*
X154836171Y-72113485D01*
X153336171Y-72113485D01*
X153336171Y-72613485D01*
X153407600Y-72756342D01*
X153479028Y-72827771D01*
X153621885Y-72899200D01*
X153764742Y-72899200D01*
X153907600Y-72827771D01*
X153979028Y-72756342D01*
X154050457Y-72613485D01*
X154050457Y-72113485D01*
X154836171Y-74256342D02*
X154050457Y-74256342D01*
X153907600Y-74184914D01*
X153836171Y-74042057D01*
X153836171Y-73756342D01*
X153907600Y-73613485D01*
X154764742Y-74256342D02*
X154836171Y-74113485D01*
X154836171Y-73756342D01*
X154764742Y-73613485D01*
X154621885Y-73542057D01*
X154479028Y-73542057D01*
X154336171Y-73613485D01*
X154264742Y-73756342D01*
X154264742Y-74113485D01*
X154193314Y-74256342D01*
X153836171Y-74756342D02*
X153836171Y-75327771D01*
X153336171Y-74970628D02*
X154621885Y-74970628D01*
X154764742Y-75042057D01*
X154836171Y-75184914D01*
X154836171Y-75327771D01*
X153836171Y-75613485D02*
X153836171Y-76184914D01*
X153336171Y-75827771D02*
X154621885Y-75827771D01*
X154764742Y-75899200D01*
X154836171Y-76042057D01*
X154836171Y-76184914D01*
X154764742Y-77256342D02*
X154836171Y-77113485D01*
X154836171Y-76827771D01*
X154764742Y-76684914D01*
X154621885Y-76613485D01*
X154050457Y-76613485D01*
X153907600Y-76684914D01*
X153836171Y-76827771D01*
X153836171Y-77113485D01*
X153907600Y-77256342D01*
X154050457Y-77327771D01*
X154193314Y-77327771D01*
X154336171Y-76613485D01*
X154836171Y-77970628D02*
X153836171Y-77970628D01*
X154121885Y-77970628D02*
X153979028Y-78042057D01*
X153907600Y-78113485D01*
X153836171Y-78256342D01*
X153836171Y-78399200D01*
X154836171Y-78899200D02*
X153836171Y-78899200D01*
X153336171Y-78899200D02*
X153407600Y-78827771D01*
X153479028Y-78899200D01*
X153407600Y-78970628D01*
X153336171Y-78899200D01*
X153479028Y-78899200D01*
X154764742Y-80184914D02*
X154836171Y-80042057D01*
X154836171Y-79756342D01*
X154764742Y-79613485D01*
X154621885Y-79542057D01*
X154050457Y-79542057D01*
X153907600Y-79613485D01*
X153836171Y-79756342D01*
X153836171Y-80042057D01*
X153907600Y-80184914D01*
X154050457Y-80256342D01*
X154193314Y-80256342D01*
X154336171Y-79542057D01*
D11*
X146151600Y-95859600D02*
X146202400Y-62382400D01*
X159588200Y-95834200D02*
X146151600Y-95859600D01*
X159486600Y-62357000D02*
X159588200Y-95834200D01*
X146202400Y-62382400D02*
X159486600Y-62357000D01*
D10*
X123573544Y-53607334D02*
X123287831Y-53608050D01*
X123145153Y-53679837D01*
X123073904Y-53751444D01*
X122931585Y-53966087D01*
X122860873Y-54251980D01*
X122862305Y-54823407D01*
X122934092Y-54966084D01*
X123005699Y-55037333D01*
X123148735Y-55108404D01*
X123434448Y-55107687D01*
X123577126Y-55035901D01*
X123648375Y-54964293D01*
X123719445Y-54821257D01*
X123718550Y-54464116D01*
X123646763Y-54321438D01*
X123575156Y-54250189D01*
X123432120Y-54179119D01*
X123146407Y-54179835D01*
X123003729Y-54251622D01*
X122932480Y-54323229D01*
X122861410Y-54466265D01*
X124644969Y-53604647D02*
X124787826Y-53604289D01*
X124930862Y-53675359D01*
X125002469Y-53746609D01*
X125074256Y-53889286D01*
X125146401Y-54174820D01*
X125147296Y-54531962D01*
X125076584Y-54817855D01*
X125005514Y-54960890D01*
X124934265Y-55032498D01*
X124791587Y-55104284D01*
X124648730Y-55104643D01*
X124505695Y-55033572D01*
X124434087Y-54962323D01*
X124362301Y-54819646D01*
X124290156Y-54534111D01*
X124289260Y-54176970D01*
X124359972Y-53891077D01*
X124431043Y-53748041D01*
X124502292Y-53676434D01*
X124644969Y-53604647D01*
X125862833Y-55030170D02*
X125863012Y-55101598D01*
X125791942Y-55244634D01*
X125720693Y-55316241D01*
X126359250Y-53600349D02*
X127359247Y-53597842D01*
X126720152Y-55099449D01*
X128146570Y-54238727D02*
X128003534Y-54167657D01*
X127931927Y-54096407D01*
X127860140Y-53953730D01*
X127859961Y-53882301D01*
X127931032Y-53739266D01*
X128002281Y-53667658D01*
X128144958Y-53595872D01*
X128430672Y-53595155D01*
X128573708Y-53666226D01*
X128645315Y-53737475D01*
X128717102Y-53880152D01*
X128717281Y-53951581D01*
X128646210Y-54094616D01*
X128574961Y-54166224D01*
X128432284Y-54238010D01*
X128146570Y-54238727D01*
X128003893Y-54310513D01*
X127932643Y-54382121D01*
X127861573Y-54525157D01*
X127862290Y-54810870D01*
X127934076Y-54953548D01*
X128005684Y-55024797D01*
X128148719Y-55095867D01*
X128434433Y-55095151D01*
X128577110Y-55023364D01*
X128648360Y-54951757D01*
X128719430Y-54808721D01*
X128718713Y-54523007D01*
X128646927Y-54380330D01*
X128575319Y-54309081D01*
X128432284Y-54238010D01*
X129288170Y-53735863D02*
X129359419Y-53664255D01*
X129502097Y-53592469D01*
X129859239Y-53591573D01*
X130002275Y-53662644D01*
X130073882Y-53733893D01*
X130145669Y-53876570D01*
X130146027Y-54019427D01*
X130075136Y-54233891D01*
X129220145Y-55093181D01*
X130148713Y-55090852D01*
X131934422Y-55086375D02*
X131931914Y-54086378D01*
X131932273Y-54229235D02*
X132003522Y-54157627D01*
X132146199Y-54085841D01*
X132360485Y-54085304D01*
X132503520Y-54156374D01*
X132575307Y-54299051D01*
X132577277Y-55084763D01*
X132575307Y-54299051D02*
X132646377Y-54156016D01*
X132789055Y-54084229D01*
X133003340Y-54083692D01*
X133146375Y-54154762D01*
X133218162Y-54297440D01*
X133220132Y-55083151D01*
X133934415Y-55081360D02*
X133931908Y-54081364D01*
X133932266Y-54224220D02*
X134003516Y-54152613D01*
X134146193Y-54080826D01*
X134360478Y-54080289D01*
X134503514Y-54151359D01*
X134575301Y-54294037D01*
X134577271Y-55079749D01*
X134575301Y-54294037D02*
X134646371Y-54151001D01*
X134789048Y-54079214D01*
X135003333Y-54078677D01*
X135146369Y-54149747D01*
X135218156Y-54292425D01*
X135220126Y-55078137D01*
X98689752Y-56591163D02*
X159471952Y-56438763D01*
X98704400Y-62433200D02*
X98688282Y-56004744D01*
X159486600Y-62280800D02*
X159470482Y-55852344D01*
X159471952Y-56438763D02*
X158346922Y-57028006D01*
X159471952Y-56438763D02*
X158343981Y-55855169D01*
X98689752Y-56591163D02*
X99817723Y-57174757D01*
X98689752Y-56591163D02*
X99814782Y-56001920D01*
D12*
X106287800Y-90055700D02*
G75*
G03X106287800Y-90055700I-700000J0D01*
G01*
X125795000Y-88265000D02*
G75*
G03X125795000Y-88265000I-700000J0D01*
G01*
X107976600Y-91508948D02*
X107976600Y-92031452D01*
X109396600Y-91508948D02*
X109396600Y-92031452D01*
D13*
X113801053Y-93975280D02*
X111001053Y-93975280D01*
X113801053Y-90575280D02*
X111001053Y-90575280D01*
D14*
X115429153Y-91300280D02*
G75*
G03X115429153Y-91300280I-125000J0D01*
G01*
D12*
X130106052Y-87402600D02*
X129583548Y-87402600D01*
X130106052Y-88822600D02*
X129583548Y-88822600D01*
X130316200Y-91186000D02*
G75*
G03X130316200Y-91186000I-700000J0D01*
G01*
X140222200Y-90652600D02*
G75*
G03X140222200Y-90652600I-700000J0D01*
G01*
X132907000Y-85318600D02*
G75*
G03X132907000Y-85318600I-700000J0D01*
G01*
X126465400Y-73973948D02*
X126465400Y-74496452D01*
X125045400Y-73973948D02*
X125045400Y-74496452D01*
X124639000Y-77945348D02*
X124639000Y-78467852D01*
X126059000Y-77945348D02*
X126059000Y-78467852D01*
X112636905Y-89683280D02*
X112114401Y-89683280D01*
X112636905Y-88263280D02*
X112114401Y-88263280D01*
D15*
X106527600Y-66656000D02*
X106527600Y-61656000D01*
X106527600Y-61656000D02*
X113947600Y-61656000D01*
X113947600Y-61656000D02*
X113947600Y-66656000D01*
X108943660Y-67792000D02*
G75*
G03X108943660Y-67792000I-63060J0D01*
G01*
X118809801Y-70826440D02*
G75*
G03X118809801Y-70826440I-162500J0D01*
G01*
D12*
X112056800Y-84270600D02*
X112716800Y-84270600D01*
X110396800Y-84270600D02*
X111056800Y-84270600D01*
X110396800Y-84270600D02*
X110396800Y-82240600D01*
X112716800Y-82860600D02*
X112716800Y-84270600D01*
X109650600Y-81822548D02*
X109650600Y-82345052D01*
X108230600Y-81822548D02*
X108230600Y-82345052D01*
D11*
X127026400Y-64310800D02*
X127026400Y-80310800D01*
X143026400Y-64310800D02*
X143026400Y-80310800D01*
X129516400Y-64310800D02*
X130376400Y-64310800D01*
X132056400Y-64310800D02*
X132916400Y-64310800D01*
X134596400Y-64310800D02*
X135456400Y-64310800D01*
X137136400Y-64310800D02*
X137996400Y-64310800D01*
X139676400Y-64310800D02*
X140536400Y-64310800D01*
X129516400Y-80310800D02*
X130376400Y-80310800D01*
X132056400Y-80310800D02*
X132916400Y-80310800D01*
X134596400Y-80310800D02*
X135456400Y-80310800D01*
X137136400Y-80310800D02*
X137996400Y-80310800D01*
X139676400Y-80310800D02*
X140536400Y-80310800D01*
D15*
X142553700Y-82071800D02*
G75*
G03X142553700Y-82071800I-142300J0D01*
G01*
D16*
X123754200Y-75339600D02*
X123754200Y-75739600D01*
X121254200Y-75339600D02*
X121254200Y-75739600D01*
D11*
X124304200Y-74339600D02*
X124304200Y-74339600D01*
X124304200Y-74539600D02*
X124304200Y-74539600D01*
X124304200Y-74539600D02*
G75*
G03X124304200Y-74339600I0J100000D01*
G01*
X124304200Y-74339600D02*
G75*
G03X124304200Y-74539600I0J-100000D01*
G01*
D12*
X122832652Y-73100000D02*
X122310148Y-73100000D01*
X122832652Y-71680000D02*
X122310148Y-71680000D01*
X122226548Y-79399200D02*
X122749052Y-79399200D01*
X122226548Y-77979200D02*
X122749052Y-77979200D01*
X104392800Y-71609852D02*
X104392800Y-71087348D01*
X102972800Y-71609852D02*
X102972800Y-71087348D01*
X102295000Y-71399400D02*
X99635000Y-71399400D01*
X102295000Y-71399400D02*
X102295000Y-81619400D01*
X102295000Y-81619400D02*
X99635000Y-81619400D01*
X99635000Y-71399400D02*
X99635000Y-81619400D01*
X99635000Y-68799400D02*
X99635000Y-70129400D01*
X100965000Y-68799400D02*
X99635000Y-68799400D01*
X104596000Y-77157948D02*
X104596000Y-77680452D01*
X103176000Y-77157948D02*
X103176000Y-77680452D01*
X116078349Y-69483040D02*
X116600853Y-69483040D01*
X116078349Y-68063040D02*
X116600853Y-68063040D01*
X116078349Y-66031040D02*
X116600853Y-66031040D01*
X116078349Y-67451040D02*
X116600853Y-67451040D01*
X115139400Y-81323548D02*
X115139400Y-81846052D01*
X116559400Y-81323548D02*
X116559400Y-81846052D01*
X117222200Y-82237948D02*
X117222200Y-82760452D01*
X118642200Y-82237948D02*
X118642200Y-82760452D01*
X131934852Y-83488600D02*
X131412348Y-83488600D01*
X131934852Y-82068600D02*
X131412348Y-82068600D01*
X138482000Y-85378548D02*
X138482000Y-85901052D01*
X139902000Y-85378548D02*
X139902000Y-85901052D01*
X136269252Y-90067200D02*
X135746748Y-90067200D01*
X136269252Y-88647200D02*
X135746748Y-88647200D01*
D13*
X134342400Y-86591600D02*
X134342400Y-83791600D01*
X137742400Y-86591600D02*
X137742400Y-83791600D01*
D14*
X137142400Y-88094700D02*
G75*
G03X137142400Y-88094700I-125000J0D01*
G01*
D17*
X106853752Y-88448390D02*
X106568038Y-88448390D01*
X106710895Y-88948390D02*
X106710895Y-88448390D01*
X106401371Y-88948390D02*
X106401371Y-88448390D01*
X106210895Y-88448390D01*
X106163276Y-88472200D01*
X106139466Y-88496009D01*
X106115657Y-88543628D01*
X106115657Y-88615057D01*
X106139466Y-88662676D01*
X106163276Y-88686485D01*
X106210895Y-88710295D01*
X106401371Y-88710295D01*
X105877561Y-88948390D02*
X105782323Y-88948390D01*
X105734704Y-88924580D01*
X105710895Y-88900771D01*
X105663276Y-88829342D01*
X105639466Y-88734104D01*
X105639466Y-88543628D01*
X105663276Y-88496009D01*
X105687085Y-88472200D01*
X105734704Y-88448390D01*
X105829942Y-88448390D01*
X105877561Y-88472200D01*
X105901371Y-88496009D01*
X105925180Y-88543628D01*
X105925180Y-88662676D01*
X105901371Y-88710295D01*
X105877561Y-88734104D01*
X105829942Y-88757914D01*
X105734704Y-88757914D01*
X105687085Y-88734104D01*
X105663276Y-88710295D01*
X105639466Y-88662676D01*
X125725952Y-89439190D02*
X125440238Y-89439190D01*
X125583095Y-89939190D02*
X125583095Y-89439190D01*
X125273571Y-89939190D02*
X125273571Y-89439190D01*
X125083095Y-89439190D01*
X125035476Y-89463000D01*
X125011666Y-89486809D01*
X124987857Y-89534428D01*
X124987857Y-89605857D01*
X125011666Y-89653476D01*
X125035476Y-89677285D01*
X125083095Y-89701095D01*
X125273571Y-89701095D01*
X124702142Y-89653476D02*
X124749761Y-89629666D01*
X124773571Y-89605857D01*
X124797380Y-89558238D01*
X124797380Y-89534428D01*
X124773571Y-89486809D01*
X124749761Y-89463000D01*
X124702142Y-89439190D01*
X124606904Y-89439190D01*
X124559285Y-89463000D01*
X124535476Y-89486809D01*
X124511666Y-89534428D01*
X124511666Y-89558238D01*
X124535476Y-89605857D01*
X124559285Y-89629666D01*
X124606904Y-89653476D01*
X124702142Y-89653476D01*
X124749761Y-89677285D01*
X124773571Y-89701095D01*
X124797380Y-89748714D01*
X124797380Y-89843952D01*
X124773571Y-89891571D01*
X124749761Y-89915380D01*
X124702142Y-89939190D01*
X124606904Y-89939190D01*
X124559285Y-89915380D01*
X124535476Y-89891571D01*
X124511666Y-89843952D01*
X124511666Y-89748714D01*
X124535476Y-89701095D01*
X124559285Y-89677285D01*
X124606904Y-89653476D01*
X125475952Y-86465000D02*
X125523571Y-86441190D01*
X125595000Y-86441190D01*
X125666428Y-86465000D01*
X125714047Y-86512619D01*
X125737857Y-86560238D01*
X125761666Y-86655476D01*
X125761666Y-86726904D01*
X125737857Y-86822142D01*
X125714047Y-86869761D01*
X125666428Y-86917380D01*
X125595000Y-86941190D01*
X125547380Y-86941190D01*
X125475952Y-86917380D01*
X125452142Y-86893571D01*
X125452142Y-86726904D01*
X125547380Y-86726904D01*
X125237857Y-86941190D02*
X125237857Y-86441190D01*
X124952142Y-86941190D01*
X124952142Y-86441190D01*
X124714047Y-86941190D02*
X124714047Y-86441190D01*
X124595000Y-86441190D01*
X124523571Y-86465000D01*
X124475952Y-86512619D01*
X124452142Y-86560238D01*
X124428333Y-86655476D01*
X124428333Y-86726904D01*
X124452142Y-86822142D01*
X124475952Y-86869761D01*
X124523571Y-86917380D01*
X124595000Y-86941190D01*
X124714047Y-86941190D01*
X108969928Y-94222071D02*
X108993738Y-94245880D01*
X109065166Y-94269690D01*
X109112785Y-94269690D01*
X109184214Y-94245880D01*
X109231833Y-94198261D01*
X109255642Y-94150642D01*
X109279452Y-94055404D01*
X109279452Y-93983976D01*
X109255642Y-93888738D01*
X109231833Y-93841119D01*
X109184214Y-93793500D01*
X109112785Y-93769690D01*
X109065166Y-93769690D01*
X108993738Y-93793500D01*
X108969928Y-93817309D01*
X108493738Y-94269690D02*
X108779452Y-94269690D01*
X108636595Y-94269690D02*
X108636595Y-93769690D01*
X108684214Y-93841119D01*
X108731833Y-93888738D01*
X108779452Y-93912547D01*
X108255642Y-94269690D02*
X108160404Y-94269690D01*
X108112785Y-94245880D01*
X108088976Y-94222071D01*
X108041357Y-94150642D01*
X108017547Y-94055404D01*
X108017547Y-93864928D01*
X108041357Y-93817309D01*
X108065166Y-93793500D01*
X108112785Y-93769690D01*
X108208023Y-93769690D01*
X108255642Y-93793500D01*
X108279452Y-93817309D01*
X108303261Y-93864928D01*
X108303261Y-93983976D01*
X108279452Y-94031595D01*
X108255642Y-94055404D01*
X108208023Y-94079214D01*
X108112785Y-94079214D01*
X108065166Y-94055404D01*
X108041357Y-94031595D01*
X108017547Y-93983976D01*
X115130496Y-93506957D02*
X115535258Y-93506957D01*
X115582877Y-93530767D01*
X115606686Y-93554576D01*
X115630496Y-93602195D01*
X115630496Y-93697433D01*
X115606686Y-93745052D01*
X115582877Y-93768862D01*
X115535258Y-93792671D01*
X115130496Y-93792671D01*
X115178115Y-94006957D02*
X115154306Y-94030767D01*
X115130496Y-94078386D01*
X115130496Y-94197433D01*
X115154306Y-94245052D01*
X115178115Y-94268862D01*
X115225734Y-94292671D01*
X115273353Y-94292671D01*
X115344782Y-94268862D01*
X115630496Y-93983148D01*
X115630496Y-94292671D01*
X132226833Y-88846790D02*
X132393500Y-88608695D01*
X132512547Y-88846790D02*
X132512547Y-88346790D01*
X132322071Y-88346790D01*
X132274452Y-88370600D01*
X132250642Y-88394409D01*
X132226833Y-88442028D01*
X132226833Y-88513457D01*
X132250642Y-88561076D01*
X132274452Y-88584885D01*
X132322071Y-88608695D01*
X132512547Y-88608695D01*
X131798261Y-88346790D02*
X131893500Y-88346790D01*
X131941119Y-88370600D01*
X131964928Y-88394409D01*
X132012547Y-88465838D01*
X132036357Y-88561076D01*
X132036357Y-88751552D01*
X132012547Y-88799171D01*
X131988738Y-88822980D01*
X131941119Y-88846790D01*
X131845880Y-88846790D01*
X131798261Y-88822980D01*
X131774452Y-88799171D01*
X131750642Y-88751552D01*
X131750642Y-88632504D01*
X131774452Y-88584885D01*
X131798261Y-88561076D01*
X131845880Y-88537266D01*
X131941119Y-88537266D01*
X131988738Y-88561076D01*
X132012547Y-88584885D01*
X132036357Y-88632504D01*
X130247152Y-92360190D02*
X129961438Y-92360190D01*
X130104295Y-92860190D02*
X130104295Y-92360190D01*
X129794771Y-92860190D02*
X129794771Y-92360190D01*
X129604295Y-92360190D01*
X129556676Y-92384000D01*
X129532866Y-92407809D01*
X129509057Y-92455428D01*
X129509057Y-92526857D01*
X129532866Y-92574476D01*
X129556676Y-92598285D01*
X129604295Y-92622095D01*
X129794771Y-92622095D01*
X129342390Y-92360190D02*
X129032866Y-92360190D01*
X129199533Y-92550666D01*
X129128104Y-92550666D01*
X129080485Y-92574476D01*
X129056676Y-92598285D01*
X129032866Y-92645904D01*
X129032866Y-92764952D01*
X129056676Y-92812571D01*
X129080485Y-92836380D01*
X129128104Y-92860190D01*
X129270961Y-92860190D01*
X129318580Y-92836380D01*
X129342390Y-92812571D01*
X131544771Y-89862190D02*
X131782866Y-89862190D01*
X131782866Y-89362190D01*
X131378104Y-89862190D02*
X131378104Y-89362190D01*
X131259057Y-89362190D01*
X131187628Y-89386000D01*
X131140009Y-89433619D01*
X131116200Y-89481238D01*
X131092390Y-89576476D01*
X131092390Y-89647904D01*
X131116200Y-89743142D01*
X131140009Y-89790761D01*
X131187628Y-89838380D01*
X131259057Y-89862190D01*
X131378104Y-89862190D01*
X130782866Y-89362190D02*
X130687628Y-89362190D01*
X130640009Y-89386000D01*
X130592390Y-89433619D01*
X130568580Y-89528857D01*
X130568580Y-89695523D01*
X130592390Y-89790761D01*
X130640009Y-89838380D01*
X130687628Y-89862190D01*
X130782866Y-89862190D01*
X130830485Y-89838380D01*
X130878104Y-89790761D01*
X130901914Y-89695523D01*
X130901914Y-89528857D01*
X130878104Y-89433619D01*
X130830485Y-89386000D01*
X130782866Y-89362190D01*
X130473342Y-89909809D02*
X130092390Y-89909809D01*
X129973342Y-89600285D02*
X129806676Y-89600285D01*
X129735247Y-89862190D02*
X129973342Y-89862190D01*
X129973342Y-89362190D01*
X129735247Y-89362190D01*
X129520961Y-89862190D02*
X129520961Y-89362190D01*
X129235247Y-89862190D01*
X129235247Y-89362190D01*
X129020961Y-89719333D02*
X128782866Y-89719333D01*
X129068580Y-89862190D02*
X128901914Y-89362190D01*
X128735247Y-89862190D01*
X128401914Y-89600285D02*
X128330485Y-89624095D01*
X128306676Y-89647904D01*
X128282866Y-89695523D01*
X128282866Y-89766952D01*
X128306676Y-89814571D01*
X128330485Y-89838380D01*
X128378104Y-89862190D01*
X128568580Y-89862190D01*
X128568580Y-89362190D01*
X128401914Y-89362190D01*
X128354295Y-89386000D01*
X128330485Y-89409809D01*
X128306676Y-89457428D01*
X128306676Y-89505047D01*
X128330485Y-89552666D01*
X128354295Y-89576476D01*
X128401914Y-89600285D01*
X128568580Y-89600285D01*
X127830485Y-89862190D02*
X128068580Y-89862190D01*
X128068580Y-89362190D01*
X127663819Y-89600285D02*
X127497152Y-89600285D01*
X127425723Y-89862190D02*
X127663819Y-89862190D01*
X127663819Y-89362190D01*
X127425723Y-89362190D01*
X140153152Y-91826790D02*
X139867438Y-91826790D01*
X140010295Y-92326790D02*
X140010295Y-91826790D01*
X139700771Y-92326790D02*
X139700771Y-91826790D01*
X139510295Y-91826790D01*
X139462676Y-91850600D01*
X139438866Y-91874409D01*
X139415057Y-91922028D01*
X139415057Y-91993457D01*
X139438866Y-92041076D01*
X139462676Y-92064885D01*
X139510295Y-92088695D01*
X139700771Y-92088695D01*
X138986485Y-91993457D02*
X138986485Y-92326790D01*
X139105533Y-91802980D02*
X139224580Y-92160123D01*
X138915057Y-92160123D01*
X143007400Y-89654890D02*
X142721685Y-89654890D01*
X142864542Y-90154890D02*
X142864542Y-89654890D01*
X142555019Y-90154890D02*
X142555019Y-89654890D01*
X142364542Y-89654890D01*
X142316923Y-89678700D01*
X142293114Y-89702509D01*
X142269304Y-89750128D01*
X142269304Y-89821557D01*
X142293114Y-89869176D01*
X142316923Y-89892985D01*
X142364542Y-89916795D01*
X142555019Y-89916795D01*
X142174066Y-90202509D02*
X141793114Y-90202509D01*
X141459780Y-90131080D02*
X141507400Y-90154890D01*
X141602638Y-90154890D01*
X141650257Y-90131080D01*
X141674066Y-90107271D01*
X141697876Y-90059652D01*
X141697876Y-89916795D01*
X141674066Y-89869176D01*
X141650257Y-89845366D01*
X141602638Y-89821557D01*
X141507400Y-89821557D01*
X141459780Y-89845366D01*
X141245495Y-90154890D02*
X141245495Y-89654890D01*
X141031209Y-90154890D02*
X141031209Y-89892985D01*
X141055019Y-89845366D01*
X141102638Y-89821557D01*
X141174066Y-89821557D01*
X141221685Y-89845366D01*
X141245495Y-89869176D01*
X140578828Y-89821557D02*
X140578828Y-90226319D01*
X140602638Y-90273938D01*
X140626447Y-90297747D01*
X140674066Y-90321557D01*
X140745495Y-90321557D01*
X140793114Y-90297747D01*
X140578828Y-90131080D02*
X140626447Y-90154890D01*
X140721685Y-90154890D01*
X140769304Y-90131080D01*
X140793114Y-90107271D01*
X140816923Y-90059652D01*
X140816923Y-89916795D01*
X140793114Y-89869176D01*
X140769304Y-89845366D01*
X140721685Y-89821557D01*
X140626447Y-89821557D01*
X140578828Y-89845366D01*
X131085352Y-85146390D02*
X130799638Y-85146390D01*
X130942495Y-85646390D02*
X130942495Y-85146390D01*
X130632971Y-85646390D02*
X130632971Y-85146390D01*
X130442495Y-85146390D01*
X130394876Y-85170200D01*
X130371066Y-85194009D01*
X130347257Y-85241628D01*
X130347257Y-85313057D01*
X130371066Y-85360676D01*
X130394876Y-85384485D01*
X130442495Y-85408295D01*
X130632971Y-85408295D01*
X129894876Y-85146390D02*
X130132971Y-85146390D01*
X130156780Y-85384485D01*
X130132971Y-85360676D01*
X130085352Y-85336866D01*
X129966304Y-85336866D01*
X129918685Y-85360676D01*
X129894876Y-85384485D01*
X129871066Y-85432104D01*
X129871066Y-85551152D01*
X129894876Y-85598771D01*
X129918685Y-85622580D01*
X129966304Y-85646390D01*
X130085352Y-85646390D01*
X130132971Y-85622580D01*
X130156780Y-85598771D01*
X133648971Y-86225890D02*
X133363257Y-86225890D01*
X133506114Y-86725890D02*
X133506114Y-86225890D01*
X133196590Y-86725890D02*
X133196590Y-86225890D01*
X133006114Y-86225890D01*
X132958495Y-86249700D01*
X132934685Y-86273509D01*
X132910876Y-86321128D01*
X132910876Y-86392557D01*
X132934685Y-86440176D01*
X132958495Y-86463985D01*
X133006114Y-86487795D01*
X133196590Y-86487795D01*
X132815638Y-86773509D02*
X132434685Y-86773509D01*
X132363257Y-86225890D02*
X132053733Y-86225890D01*
X132220400Y-86416366D01*
X132148971Y-86416366D01*
X132101352Y-86440176D01*
X132077542Y-86463985D01*
X132053733Y-86511604D01*
X132053733Y-86630652D01*
X132077542Y-86678271D01*
X132101352Y-86702080D01*
X132148971Y-86725890D01*
X132291828Y-86725890D01*
X132339447Y-86702080D01*
X132363257Y-86678271D01*
X131887066Y-86392557D02*
X131768019Y-86725890D01*
X131648971Y-86392557D01*
X131506114Y-86225890D02*
X131196590Y-86225890D01*
X131363257Y-86416366D01*
X131291828Y-86416366D01*
X131244209Y-86440176D01*
X131220400Y-86463985D01*
X131196590Y-86511604D01*
X131196590Y-86630652D01*
X131220400Y-86678271D01*
X131244209Y-86702080D01*
X131291828Y-86725890D01*
X131434685Y-86725890D01*
X131482304Y-86702080D01*
X131506114Y-86678271D01*
X131101352Y-86773509D02*
X130720400Y-86773509D01*
X130339447Y-86249700D02*
X130387066Y-86225890D01*
X130458495Y-86225890D01*
X130529923Y-86249700D01*
X130577542Y-86297319D01*
X130601352Y-86344938D01*
X130625161Y-86440176D01*
X130625161Y-86511604D01*
X130601352Y-86606842D01*
X130577542Y-86654461D01*
X130529923Y-86702080D01*
X130458495Y-86725890D01*
X130410876Y-86725890D01*
X130339447Y-86702080D01*
X130315638Y-86678271D01*
X130315638Y-86511604D01*
X130410876Y-86511604D01*
X130101352Y-86725890D02*
X130101352Y-86225890D01*
X129910876Y-86225890D01*
X129863257Y-86249700D01*
X129839447Y-86273509D01*
X129815638Y-86321128D01*
X129815638Y-86392557D01*
X129839447Y-86440176D01*
X129863257Y-86463985D01*
X129910876Y-86487795D01*
X130101352Y-86487795D01*
X129625161Y-86702080D02*
X129553733Y-86725890D01*
X129434685Y-86725890D01*
X129387066Y-86702080D01*
X129363257Y-86678271D01*
X129339447Y-86630652D01*
X129339447Y-86583033D01*
X129363257Y-86535414D01*
X129387066Y-86511604D01*
X129434685Y-86487795D01*
X129529923Y-86463985D01*
X129577542Y-86440176D01*
X129601352Y-86416366D01*
X129625161Y-86368747D01*
X129625161Y-86321128D01*
X129601352Y-86273509D01*
X129577542Y-86249700D01*
X129529923Y-86225890D01*
X129410876Y-86225890D01*
X129339447Y-86249700D01*
X127708790Y-73973571D02*
X127470695Y-73806904D01*
X127708790Y-73687857D02*
X127208790Y-73687857D01*
X127208790Y-73878333D01*
X127232600Y-73925952D01*
X127256409Y-73949761D01*
X127304028Y-73973571D01*
X127375457Y-73973571D01*
X127423076Y-73949761D01*
X127446885Y-73925952D01*
X127470695Y-73878333D01*
X127470695Y-73687857D01*
X127256409Y-74164047D02*
X127232600Y-74187857D01*
X127208790Y-74235476D01*
X127208790Y-74354523D01*
X127232600Y-74402142D01*
X127256409Y-74425952D01*
X127304028Y-74449761D01*
X127351647Y-74449761D01*
X127423076Y-74425952D01*
X127708790Y-74140238D01*
X127708790Y-74449761D01*
X127208790Y-74759285D02*
X127208790Y-74806904D01*
X127232600Y-74854523D01*
X127256409Y-74878333D01*
X127304028Y-74902142D01*
X127399266Y-74925952D01*
X127518314Y-74925952D01*
X127613552Y-74902142D01*
X127661171Y-74878333D01*
X127684980Y-74854523D01*
X127708790Y-74806904D01*
X127708790Y-74759285D01*
X127684980Y-74711666D01*
X127661171Y-74687857D01*
X127613552Y-74664047D01*
X127518314Y-74640238D01*
X127399266Y-74640238D01*
X127304028Y-74664047D01*
X127256409Y-74687857D01*
X127232600Y-74711666D01*
X127208790Y-74759285D01*
X125568828Y-80753190D02*
X125735495Y-80515095D01*
X125854542Y-80753190D02*
X125854542Y-80253190D01*
X125664066Y-80253190D01*
X125616447Y-80277000D01*
X125592638Y-80300809D01*
X125568828Y-80348428D01*
X125568828Y-80419857D01*
X125592638Y-80467476D01*
X125616447Y-80491285D01*
X125664066Y-80515095D01*
X125854542Y-80515095D01*
X125092638Y-80753190D02*
X125378352Y-80753190D01*
X125235495Y-80753190D02*
X125235495Y-80253190D01*
X125283114Y-80324619D01*
X125330733Y-80372238D01*
X125378352Y-80396047D01*
X124854542Y-80753190D02*
X124759304Y-80753190D01*
X124711685Y-80729380D01*
X124687876Y-80705571D01*
X124640257Y-80634142D01*
X124616447Y-80538904D01*
X124616447Y-80348428D01*
X124640257Y-80300809D01*
X124664066Y-80277000D01*
X124711685Y-80253190D01*
X124806923Y-80253190D01*
X124854542Y-80277000D01*
X124878352Y-80300809D01*
X124902161Y-80348428D01*
X124902161Y-80467476D01*
X124878352Y-80515095D01*
X124854542Y-80538904D01*
X124806923Y-80562714D01*
X124711685Y-80562714D01*
X124664066Y-80538904D01*
X124640257Y-80515095D01*
X124616447Y-80467476D01*
X114494428Y-87783171D02*
X114518238Y-87806980D01*
X114589666Y-87830790D01*
X114637285Y-87830790D01*
X114708714Y-87806980D01*
X114756333Y-87759361D01*
X114780142Y-87711742D01*
X114803952Y-87616504D01*
X114803952Y-87545076D01*
X114780142Y-87449838D01*
X114756333Y-87402219D01*
X114708714Y-87354600D01*
X114637285Y-87330790D01*
X114589666Y-87330790D01*
X114518238Y-87354600D01*
X114494428Y-87378409D01*
X114018238Y-87830790D02*
X114303952Y-87830790D01*
X114161095Y-87830790D02*
X114161095Y-87330790D01*
X114208714Y-87402219D01*
X114256333Y-87449838D01*
X114303952Y-87473647D01*
X113732523Y-87545076D02*
X113780142Y-87521266D01*
X113803952Y-87497457D01*
X113827761Y-87449838D01*
X113827761Y-87426028D01*
X113803952Y-87378409D01*
X113780142Y-87354600D01*
X113732523Y-87330790D01*
X113637285Y-87330790D01*
X113589666Y-87354600D01*
X113565857Y-87378409D01*
X113542047Y-87426028D01*
X113542047Y-87449838D01*
X113565857Y-87497457D01*
X113589666Y-87521266D01*
X113637285Y-87545076D01*
X113732523Y-87545076D01*
X113780142Y-87568885D01*
X113803952Y-87592695D01*
X113827761Y-87640314D01*
X113827761Y-87735552D01*
X113803952Y-87783171D01*
X113780142Y-87806980D01*
X113732523Y-87830790D01*
X113637285Y-87830790D01*
X113589666Y-87806980D01*
X113565857Y-87783171D01*
X113542047Y-87735552D01*
X113542047Y-87640314D01*
X113565857Y-87592695D01*
X113589666Y-87568885D01*
X113637285Y-87545076D01*
X106084666Y-65080390D02*
X106084666Y-65437533D01*
X106108476Y-65508961D01*
X106156095Y-65556580D01*
X106227523Y-65580390D01*
X106275142Y-65580390D01*
X105632285Y-65247057D02*
X105632285Y-65580390D01*
X105751333Y-65056580D02*
X105870380Y-65413723D01*
X105560857Y-65413723D01*
X115760896Y-73977630D02*
X115760896Y-73477630D01*
X115237086Y-73930011D02*
X115260896Y-73953820D01*
X115332324Y-73977630D01*
X115379943Y-73977630D01*
X115451372Y-73953820D01*
X115498991Y-73906201D01*
X115522801Y-73858582D01*
X115546610Y-73763344D01*
X115546610Y-73691916D01*
X115522801Y-73596678D01*
X115498991Y-73549059D01*
X115451372Y-73501440D01*
X115379943Y-73477630D01*
X115332324Y-73477630D01*
X115260896Y-73501440D01*
X115237086Y-73525249D01*
X114760896Y-73977630D02*
X115046610Y-73977630D01*
X114903753Y-73977630D02*
X114903753Y-73477630D01*
X114951372Y-73549059D01*
X114998991Y-73596678D01*
X115046610Y-73620487D01*
X111393618Y-83875369D02*
X111441237Y-83851560D01*
X111488856Y-83803940D01*
X111560284Y-83732512D01*
X111607903Y-83708702D01*
X111655522Y-83708702D01*
X111631713Y-83827750D02*
X111679332Y-83803940D01*
X111726951Y-83756321D01*
X111750760Y-83661083D01*
X111750760Y-83494417D01*
X111726951Y-83399179D01*
X111679332Y-83351560D01*
X111631713Y-83327750D01*
X111536475Y-83327750D01*
X111488856Y-83351560D01*
X111441237Y-83399179D01*
X111417427Y-83494417D01*
X111417427Y-83661083D01*
X111441237Y-83756321D01*
X111488856Y-83803940D01*
X111536475Y-83827750D01*
X111631713Y-83827750D01*
X111226951Y-83375369D02*
X111203141Y-83351560D01*
X111155522Y-83327750D01*
X111036475Y-83327750D01*
X110988856Y-83351560D01*
X110965046Y-83375369D01*
X110941237Y-83422988D01*
X110941237Y-83470607D01*
X110965046Y-83542036D01*
X111250760Y-83827750D01*
X110941237Y-83827750D01*
X110639990Y-82102066D02*
X110401895Y-81935400D01*
X110639990Y-81816352D02*
X110139990Y-81816352D01*
X110139990Y-82006828D01*
X110163800Y-82054447D01*
X110187609Y-82078257D01*
X110235228Y-82102066D01*
X110306657Y-82102066D01*
X110354276Y-82078257D01*
X110378085Y-82054447D01*
X110401895Y-82006828D01*
X110401895Y-81816352D01*
X110639990Y-82340161D02*
X110639990Y-82435400D01*
X110616180Y-82483019D01*
X110592371Y-82506828D01*
X110520942Y-82554447D01*
X110425704Y-82578257D01*
X110235228Y-82578257D01*
X110187609Y-82554447D01*
X110163800Y-82530638D01*
X110139990Y-82483019D01*
X110139990Y-82387780D01*
X110163800Y-82340161D01*
X110187609Y-82316352D01*
X110235228Y-82292542D01*
X110354276Y-82292542D01*
X110401895Y-82316352D01*
X110425704Y-82340161D01*
X110449514Y-82387780D01*
X110449514Y-82483019D01*
X110425704Y-82530638D01*
X110401895Y-82554447D01*
X110354276Y-82578257D01*
X126565790Y-65088704D02*
X126065790Y-65088704D01*
X126518171Y-65612514D02*
X126541980Y-65588704D01*
X126565790Y-65517276D01*
X126565790Y-65469657D01*
X126541980Y-65398228D01*
X126494361Y-65350609D01*
X126446742Y-65326800D01*
X126351504Y-65302990D01*
X126280076Y-65302990D01*
X126184838Y-65326800D01*
X126137219Y-65350609D01*
X126089600Y-65398228D01*
X126065790Y-65469657D01*
X126065790Y-65517276D01*
X126089600Y-65588704D01*
X126113409Y-65612514D01*
X126065790Y-66064895D02*
X126065790Y-65826800D01*
X126303885Y-65802990D01*
X126280076Y-65826800D01*
X126256266Y-65874419D01*
X126256266Y-65993466D01*
X126280076Y-66041085D01*
X126303885Y-66064895D01*
X126351504Y-66088704D01*
X126470552Y-66088704D01*
X126518171Y-66064895D01*
X126541980Y-66041085D01*
X126565790Y-65993466D01*
X126565790Y-65874419D01*
X126541980Y-65826800D01*
X126518171Y-65802990D01*
X125096894Y-75639455D02*
X125096894Y-75877550D01*
X125263560Y-75377550D02*
X125096894Y-75639455D01*
X124930227Y-75377550D01*
X124501656Y-75877550D02*
X124787370Y-75877550D01*
X124644513Y-75877550D02*
X124644513Y-75377550D01*
X124692132Y-75448979D01*
X124739751Y-75496598D01*
X124787370Y-75520407D01*
X120683028Y-71019171D02*
X120706838Y-71042980D01*
X120778266Y-71066790D01*
X120825885Y-71066790D01*
X120897314Y-71042980D01*
X120944933Y-70995361D01*
X120968742Y-70947742D01*
X120992552Y-70852504D01*
X120992552Y-70781076D01*
X120968742Y-70685838D01*
X120944933Y-70638219D01*
X120897314Y-70590600D01*
X120825885Y-70566790D01*
X120778266Y-70566790D01*
X120706838Y-70590600D01*
X120683028Y-70614409D01*
X120492552Y-70614409D02*
X120468742Y-70590600D01*
X120421123Y-70566790D01*
X120302076Y-70566790D01*
X120254457Y-70590600D01*
X120230647Y-70614409D01*
X120206838Y-70662028D01*
X120206838Y-70709647D01*
X120230647Y-70781076D01*
X120516361Y-71066790D01*
X120206838Y-71066790D01*
X119754457Y-70566790D02*
X119992552Y-70566790D01*
X120016361Y-70804885D01*
X119992552Y-70781076D01*
X119944933Y-70757266D01*
X119825885Y-70757266D01*
X119778266Y-70781076D01*
X119754457Y-70804885D01*
X119730647Y-70852504D01*
X119730647Y-70971552D01*
X119754457Y-71019171D01*
X119778266Y-71042980D01*
X119825885Y-71066790D01*
X119944933Y-71066790D01*
X119992552Y-71042980D01*
X120016361Y-71019171D01*
X122640428Y-80645771D02*
X122664238Y-80669580D01*
X122735666Y-80693390D01*
X122783285Y-80693390D01*
X122854714Y-80669580D01*
X122902333Y-80621961D01*
X122926142Y-80574342D01*
X122949952Y-80479104D01*
X122949952Y-80407676D01*
X122926142Y-80312438D01*
X122902333Y-80264819D01*
X122854714Y-80217200D01*
X122783285Y-80193390D01*
X122735666Y-80193390D01*
X122664238Y-80217200D01*
X122640428Y-80241009D01*
X122449952Y-80241009D02*
X122426142Y-80217200D01*
X122378523Y-80193390D01*
X122259476Y-80193390D01*
X122211857Y-80217200D01*
X122188047Y-80241009D01*
X122164238Y-80288628D01*
X122164238Y-80336247D01*
X122188047Y-80407676D01*
X122473761Y-80693390D01*
X122164238Y-80693390D01*
X121735666Y-80193390D02*
X121830904Y-80193390D01*
X121878523Y-80217200D01*
X121902333Y-80241009D01*
X121949952Y-80312438D01*
X121973761Y-80407676D01*
X121973761Y-80598152D01*
X121949952Y-80645771D01*
X121926142Y-80669580D01*
X121878523Y-80693390D01*
X121783285Y-80693390D01*
X121735666Y-80669580D01*
X121711857Y-80645771D01*
X121688047Y-80598152D01*
X121688047Y-80479104D01*
X121711857Y-80431485D01*
X121735666Y-80407676D01*
X121783285Y-80383866D01*
X121878523Y-80383866D01*
X121926142Y-80407676D01*
X121949952Y-80431485D01*
X121973761Y-80479104D01*
X102413571Y-70976371D02*
X102437380Y-70952561D01*
X102461190Y-70881133D01*
X102461190Y-70833514D01*
X102437380Y-70762085D01*
X102389761Y-70714466D01*
X102342142Y-70690657D01*
X102246904Y-70666847D01*
X102175476Y-70666847D01*
X102080238Y-70690657D01*
X102032619Y-70714466D01*
X101985000Y-70762085D01*
X101961190Y-70833514D01*
X101961190Y-70881133D01*
X101985000Y-70952561D01*
X102008809Y-70976371D01*
X102008809Y-71166847D02*
X101985000Y-71190657D01*
X101961190Y-71238276D01*
X101961190Y-71357323D01*
X101985000Y-71404942D01*
X102008809Y-71428752D01*
X102056428Y-71452561D01*
X102104047Y-71452561D01*
X102175476Y-71428752D01*
X102461190Y-71143038D01*
X102461190Y-71452561D01*
X102127857Y-71881133D02*
X102461190Y-71881133D01*
X101937380Y-71762085D02*
X102294523Y-71643038D01*
X102294523Y-71952561D01*
X101030066Y-67442590D02*
X101030066Y-67799733D01*
X101053876Y-67871161D01*
X101101495Y-67918780D01*
X101172923Y-67942590D01*
X101220542Y-67942590D01*
X100815780Y-67490209D02*
X100791971Y-67466400D01*
X100744352Y-67442590D01*
X100625304Y-67442590D01*
X100577685Y-67466400D01*
X100553876Y-67490209D01*
X100530066Y-67537828D01*
X100530066Y-67585447D01*
X100553876Y-67656876D01*
X100839590Y-67942590D01*
X100530066Y-67942590D01*
X103639133Y-75486390D02*
X103805800Y-75248295D01*
X103924847Y-75486390D02*
X103924847Y-74986390D01*
X103734371Y-74986390D01*
X103686752Y-75010200D01*
X103662942Y-75034009D01*
X103639133Y-75081628D01*
X103639133Y-75153057D01*
X103662942Y-75200676D01*
X103686752Y-75224485D01*
X103734371Y-75248295D01*
X103924847Y-75248295D01*
X103210561Y-75153057D02*
X103210561Y-75486390D01*
X103329609Y-74962580D02*
X103448657Y-75319723D01*
X103139133Y-75319723D01*
X114088028Y-68479171D02*
X114111838Y-68502980D01*
X114183266Y-68526790D01*
X114230885Y-68526790D01*
X114302314Y-68502980D01*
X114349933Y-68455361D01*
X114373742Y-68407742D01*
X114397552Y-68312504D01*
X114397552Y-68241076D01*
X114373742Y-68145838D01*
X114349933Y-68098219D01*
X114302314Y-68050600D01*
X114230885Y-68026790D01*
X114183266Y-68026790D01*
X114111838Y-68050600D01*
X114088028Y-68074409D01*
X113611838Y-68526790D02*
X113897552Y-68526790D01*
X113754695Y-68526790D02*
X113754695Y-68026790D01*
X113802314Y-68098219D01*
X113849933Y-68145838D01*
X113897552Y-68169647D01*
X113183266Y-68193457D02*
X113183266Y-68526790D01*
X113302314Y-68002980D02*
X113421361Y-68360123D01*
X113111838Y-68360123D01*
X116704228Y-65634371D02*
X116728038Y-65658180D01*
X116799466Y-65681990D01*
X116847085Y-65681990D01*
X116918514Y-65658180D01*
X116966133Y-65610561D01*
X116989942Y-65562942D01*
X117013752Y-65467704D01*
X117013752Y-65396276D01*
X116989942Y-65301038D01*
X116966133Y-65253419D01*
X116918514Y-65205800D01*
X116847085Y-65181990D01*
X116799466Y-65181990D01*
X116728038Y-65205800D01*
X116704228Y-65229609D01*
X116228038Y-65681990D02*
X116513752Y-65681990D01*
X116370895Y-65681990D02*
X116370895Y-65181990D01*
X116418514Y-65253419D01*
X116466133Y-65301038D01*
X116513752Y-65324847D01*
X116061371Y-65181990D02*
X115751847Y-65181990D01*
X115918514Y-65372466D01*
X115847085Y-65372466D01*
X115799466Y-65396276D01*
X115775657Y-65420085D01*
X115751847Y-65467704D01*
X115751847Y-65586752D01*
X115775657Y-65634371D01*
X115799466Y-65658180D01*
X115847085Y-65681990D01*
X115989942Y-65681990D01*
X116037561Y-65658180D01*
X116061371Y-65634371D01*
X114519828Y-81839571D02*
X114543638Y-81863380D01*
X114615066Y-81887190D01*
X114662685Y-81887190D01*
X114734114Y-81863380D01*
X114781733Y-81815761D01*
X114805542Y-81768142D01*
X114829352Y-81672904D01*
X114829352Y-81601476D01*
X114805542Y-81506238D01*
X114781733Y-81458619D01*
X114734114Y-81411000D01*
X114662685Y-81387190D01*
X114615066Y-81387190D01*
X114543638Y-81411000D01*
X114519828Y-81434809D01*
X114043638Y-81887190D02*
X114329352Y-81887190D01*
X114186495Y-81887190D02*
X114186495Y-81387190D01*
X114234114Y-81458619D01*
X114281733Y-81506238D01*
X114329352Y-81530047D01*
X113853161Y-81434809D02*
X113829352Y-81411000D01*
X113781733Y-81387190D01*
X113662685Y-81387190D01*
X113615066Y-81411000D01*
X113591257Y-81434809D01*
X113567447Y-81482428D01*
X113567447Y-81530047D01*
X113591257Y-81601476D01*
X113876971Y-81887190D01*
X113567447Y-81887190D01*
X118228228Y-80188571D02*
X118252038Y-80212380D01*
X118323466Y-80236190D01*
X118371085Y-80236190D01*
X118442514Y-80212380D01*
X118490133Y-80164761D01*
X118513942Y-80117142D01*
X118537752Y-80021904D01*
X118537752Y-79950476D01*
X118513942Y-79855238D01*
X118490133Y-79807619D01*
X118442514Y-79760000D01*
X118371085Y-79736190D01*
X118323466Y-79736190D01*
X118252038Y-79760000D01*
X118228228Y-79783809D01*
X117752038Y-80236190D02*
X118037752Y-80236190D01*
X117894895Y-80236190D02*
X117894895Y-79736190D01*
X117942514Y-79807619D01*
X117990133Y-79855238D01*
X118037752Y-79879047D01*
X117442514Y-79736190D02*
X117394895Y-79736190D01*
X117347276Y-79760000D01*
X117323466Y-79783809D01*
X117299657Y-79831428D01*
X117275847Y-79926666D01*
X117275847Y-80045714D01*
X117299657Y-80140952D01*
X117323466Y-80188571D01*
X117347276Y-80212380D01*
X117394895Y-80236190D01*
X117442514Y-80236190D01*
X117490133Y-80212380D01*
X117513942Y-80188571D01*
X117537752Y-80140952D01*
X117561561Y-80045714D01*
X117561561Y-79926666D01*
X117537752Y-79831428D01*
X117513942Y-79783809D01*
X117490133Y-79760000D01*
X117442514Y-79736190D01*
X133230133Y-84328771D02*
X133253942Y-84352580D01*
X133325371Y-84376390D01*
X133372990Y-84376390D01*
X133444419Y-84352580D01*
X133492038Y-84304961D01*
X133515847Y-84257342D01*
X133539657Y-84162104D01*
X133539657Y-84090676D01*
X133515847Y-83995438D01*
X133492038Y-83947819D01*
X133444419Y-83900200D01*
X133372990Y-83876390D01*
X133325371Y-83876390D01*
X133253942Y-83900200D01*
X133230133Y-83924009D01*
X132801561Y-83876390D02*
X132896800Y-83876390D01*
X132944419Y-83900200D01*
X132968228Y-83924009D01*
X133015847Y-83995438D01*
X133039657Y-84090676D01*
X133039657Y-84281152D01*
X133015847Y-84328771D01*
X132992038Y-84352580D01*
X132944419Y-84376390D01*
X132849180Y-84376390D01*
X132801561Y-84352580D01*
X132777752Y-84328771D01*
X132753942Y-84281152D01*
X132753942Y-84162104D01*
X132777752Y-84114485D01*
X132801561Y-84090676D01*
X132849180Y-84066866D01*
X132944419Y-84066866D01*
X132992038Y-84090676D01*
X133015847Y-84114485D01*
X133039657Y-84162104D01*
X138995933Y-82998971D02*
X139019742Y-83022780D01*
X139091171Y-83046590D01*
X139138790Y-83046590D01*
X139210219Y-83022780D01*
X139257838Y-82975161D01*
X139281647Y-82927542D01*
X139305457Y-82832304D01*
X139305457Y-82760876D01*
X139281647Y-82665638D01*
X139257838Y-82618019D01*
X139210219Y-82570400D01*
X139138790Y-82546590D01*
X139091171Y-82546590D01*
X139019742Y-82570400D01*
X138995933Y-82594209D01*
X138757838Y-83046590D02*
X138662600Y-83046590D01*
X138614980Y-83022780D01*
X138591171Y-82998971D01*
X138543552Y-82927542D01*
X138519742Y-82832304D01*
X138519742Y-82641828D01*
X138543552Y-82594209D01*
X138567361Y-82570400D01*
X138614980Y-82546590D01*
X138710219Y-82546590D01*
X138757838Y-82570400D01*
X138781647Y-82594209D01*
X138805457Y-82641828D01*
X138805457Y-82760876D01*
X138781647Y-82808495D01*
X138757838Y-82832304D01*
X138710219Y-82856114D01*
X138614980Y-82856114D01*
X138567361Y-82832304D01*
X138543552Y-82808495D01*
X138519742Y-82760876D01*
X139012333Y-89307171D02*
X139036142Y-89330980D01*
X139107571Y-89354790D01*
X139155190Y-89354790D01*
X139226619Y-89330980D01*
X139274238Y-89283361D01*
X139298047Y-89235742D01*
X139321857Y-89140504D01*
X139321857Y-89069076D01*
X139298047Y-88973838D01*
X139274238Y-88926219D01*
X139226619Y-88878600D01*
X139155190Y-88854790D01*
X139107571Y-88854790D01*
X139036142Y-88878600D01*
X139012333Y-88902409D01*
X138726619Y-89069076D02*
X138774238Y-89045266D01*
X138798047Y-89021457D01*
X138821857Y-88973838D01*
X138821857Y-88950028D01*
X138798047Y-88902409D01*
X138774238Y-88878600D01*
X138726619Y-88854790D01*
X138631380Y-88854790D01*
X138583761Y-88878600D01*
X138559952Y-88902409D01*
X138536142Y-88950028D01*
X138536142Y-88973838D01*
X138559952Y-89021457D01*
X138583761Y-89045266D01*
X138631380Y-89069076D01*
X138726619Y-89069076D01*
X138774238Y-89092885D01*
X138798047Y-89116695D01*
X138821857Y-89164314D01*
X138821857Y-89259552D01*
X138798047Y-89307171D01*
X138774238Y-89330980D01*
X138726619Y-89354790D01*
X138631380Y-89354790D01*
X138583761Y-89330980D01*
X138559952Y-89307171D01*
X138536142Y-89259552D01*
X138536142Y-89164314D01*
X138559952Y-89116695D01*
X138583761Y-89092885D01*
X138631380Y-89069076D01*
X134858602Y-81564990D02*
X134858602Y-81969752D01*
X134834792Y-82017371D01*
X134810983Y-82041180D01*
X134763364Y-82064990D01*
X134668126Y-82064990D01*
X134620507Y-82041180D01*
X134596697Y-82017371D01*
X134572888Y-81969752D01*
X134572888Y-81564990D01*
X134072888Y-82064990D02*
X134358602Y-82064990D01*
X134215745Y-82064990D02*
X134215745Y-81564990D01*
X134263364Y-81636419D01*
X134310983Y-81684038D01*
X134358602Y-81707847D01*
M02*
