%TF.GenerationSoftware,KiCad,Pcbnew,(5.0.2)-1*%
%TF.CreationDate,2021-04-08T12:32:07+02:00*%
%TF.ProjectId,trackerGPS,74726163-6b65-4724-9750-532e6b696361,rev?*%
%TF.SameCoordinates,Original*%
%TF.FileFunction,Soldermask,Top*%
%TF.FilePolarity,Negative*%
%FSLAX46Y46*%
G04 Gerber Fmt 4.6, Leading zero omitted, Abs format (unit mm)*
G04 Created by KiCad (PCBNEW (5.0.2)-1) date 08/04/2021 12:32:07*
%MOMM*%
%LPD*%
G01*
G04 APERTURE LIST*
%ADD10C,0.100000*%
G04 APERTURE END LIST*
D10*
G36*
X102928296Y-90206233D02*
X102928298Y-90206234D01*
X102928299Y-90206234D01*
X103392552Y-90398533D01*
X103808484Y-90676450D01*
X103810371Y-90677711D01*
X104165689Y-91033029D01*
X104165691Y-91033032D01*
X104444867Y-91450848D01*
X104611277Y-91852600D01*
X104637167Y-91915104D01*
X104735200Y-92407947D01*
X104735200Y-92910453D01*
X104649374Y-93341929D01*
X104637166Y-93403299D01*
X104444867Y-93867552D01*
X104191525Y-94246704D01*
X104165689Y-94285371D01*
X103810371Y-94640689D01*
X103810368Y-94640691D01*
X103392552Y-94919867D01*
X102928299Y-95112166D01*
X102928298Y-95112166D01*
X102928296Y-95112167D01*
X102435453Y-95210200D01*
X101932947Y-95210200D01*
X101440104Y-95112167D01*
X101440102Y-95112166D01*
X101440101Y-95112166D01*
X100975848Y-94919867D01*
X100558032Y-94640691D01*
X100558029Y-94640689D01*
X100202711Y-94285371D01*
X100176875Y-94246704D01*
X99923533Y-93867552D01*
X99731234Y-93403299D01*
X99719027Y-93341929D01*
X99633200Y-92910453D01*
X99633200Y-92407947D01*
X99731233Y-91915104D01*
X99757123Y-91852600D01*
X99923533Y-91450848D01*
X100202709Y-91033032D01*
X100202711Y-91033029D01*
X100558029Y-90677711D01*
X100559916Y-90676450D01*
X100975848Y-90398533D01*
X101440101Y-90206234D01*
X101440102Y-90206234D01*
X101440104Y-90206233D01*
X101932947Y-90108200D01*
X102435453Y-90108200D01*
X102928296Y-90206233D01*
X102928296Y-90206233D01*
G37*
G36*
X157004896Y-89850633D02*
X157004898Y-89850634D01*
X157004899Y-89850634D01*
X157469152Y-90042933D01*
X157885084Y-90320850D01*
X157886971Y-90322111D01*
X158242289Y-90677429D01*
X158242291Y-90677432D01*
X158521467Y-91095248D01*
X158713766Y-91559501D01*
X158713767Y-91559504D01*
X158811800Y-92052347D01*
X158811800Y-92554853D01*
X158741067Y-92910452D01*
X158713766Y-93047699D01*
X158521467Y-93511952D01*
X158348112Y-93771396D01*
X158242289Y-93929771D01*
X157886971Y-94285089D01*
X157886968Y-94285091D01*
X157469152Y-94564267D01*
X157004899Y-94756566D01*
X157004898Y-94756566D01*
X157004896Y-94756567D01*
X156512053Y-94854600D01*
X156009547Y-94854600D01*
X155516704Y-94756567D01*
X155516702Y-94756566D01*
X155516701Y-94756566D01*
X155052448Y-94564267D01*
X154634632Y-94285091D01*
X154634629Y-94285089D01*
X154279311Y-93929771D01*
X154173488Y-93771396D01*
X154000133Y-93511952D01*
X153807834Y-93047699D01*
X153780534Y-92910452D01*
X153709800Y-92554853D01*
X153709800Y-92052347D01*
X153807833Y-91559504D01*
X153807834Y-91559501D01*
X154000133Y-91095248D01*
X154279309Y-90677432D01*
X154279311Y-90677429D01*
X154634629Y-90322111D01*
X154636516Y-90320850D01*
X155052448Y-90042933D01*
X155516701Y-89850634D01*
X155516702Y-89850634D01*
X155516704Y-89850633D01*
X156009547Y-89752600D01*
X156512053Y-89752600D01*
X157004896Y-89850633D01*
X157004896Y-89850633D01*
G37*
G36*
X149447960Y-94853200D02*
X147345960Y-94853200D01*
X147345960Y-92751200D01*
X149447960Y-92751200D01*
X149447960Y-94853200D01*
X149447960Y-94853200D01*
G37*
G36*
X152567080Y-94853200D02*
X150465080Y-94853200D01*
X150465080Y-92751200D01*
X152567080Y-92751200D01*
X152567080Y-94853200D01*
X152567080Y-94853200D01*
G37*
G36*
X137048910Y-90724164D02*
X137100389Y-90739780D01*
X137129212Y-90748523D01*
X137158440Y-90764146D01*
X137203217Y-90788080D01*
X137268085Y-90841315D01*
X137321320Y-90906182D01*
X137360877Y-90980188D01*
X137385236Y-91060489D01*
X137391400Y-91123074D01*
X137391400Y-92814926D01*
X137385236Y-92877511D01*
X137360877Y-92957812D01*
X137321320Y-93031818D01*
X137268085Y-93096685D01*
X137203218Y-93149920D01*
X137129212Y-93189477D01*
X137048911Y-93213836D01*
X136965400Y-93222061D01*
X136881890Y-93213836D01*
X136801589Y-93189477D01*
X136727583Y-93149920D01*
X136662716Y-93096685D01*
X136609481Y-93031818D01*
X136569924Y-92957812D01*
X136545565Y-92877511D01*
X136539798Y-92818959D01*
X136535019Y-92794930D01*
X136525641Y-92772291D01*
X136512028Y-92751916D01*
X136494700Y-92734589D01*
X136474326Y-92720975D01*
X136451687Y-92711598D01*
X136427653Y-92706817D01*
X136403149Y-92706817D01*
X136379116Y-92711597D01*
X136356477Y-92720975D01*
X136336102Y-92734588D01*
X136318775Y-92751916D01*
X136305161Y-92772290D01*
X136295784Y-92794929D01*
X136291003Y-92818961D01*
X136286359Y-92866111D01*
X136285236Y-92877511D01*
X136260877Y-92957812D01*
X136221320Y-93031818D01*
X136168085Y-93096685D01*
X136103218Y-93149920D01*
X136029212Y-93189477D01*
X135948911Y-93213836D01*
X135865400Y-93222061D01*
X135781890Y-93213836D01*
X135701589Y-93189477D01*
X135627583Y-93149920D01*
X135562716Y-93096685D01*
X135509481Y-93031818D01*
X135469924Y-92957812D01*
X135445565Y-92877511D01*
X135439798Y-92818959D01*
X135435019Y-92794930D01*
X135425641Y-92772291D01*
X135412028Y-92751916D01*
X135394700Y-92734589D01*
X135374326Y-92720975D01*
X135351687Y-92711598D01*
X135327653Y-92706817D01*
X135303149Y-92706817D01*
X135279116Y-92711597D01*
X135256477Y-92720975D01*
X135236102Y-92734588D01*
X135218775Y-92751916D01*
X135205161Y-92772290D01*
X135195784Y-92794929D01*
X135191003Y-92818961D01*
X135186359Y-92866111D01*
X135185236Y-92877511D01*
X135160877Y-92957812D01*
X135121320Y-93031818D01*
X135068085Y-93096685D01*
X135003218Y-93149920D01*
X134929212Y-93189477D01*
X134848911Y-93213836D01*
X134765400Y-93222061D01*
X134681890Y-93213836D01*
X134601589Y-93189477D01*
X134527583Y-93149920D01*
X134462716Y-93096685D01*
X134409481Y-93031818D01*
X134369924Y-92957812D01*
X134345565Y-92877511D01*
X134339798Y-92818959D01*
X134335019Y-92794930D01*
X134325641Y-92772291D01*
X134312028Y-92751916D01*
X134294700Y-92734589D01*
X134274326Y-92720975D01*
X134251687Y-92711598D01*
X134227653Y-92706817D01*
X134203149Y-92706817D01*
X134179116Y-92711597D01*
X134156477Y-92720975D01*
X134136102Y-92734588D01*
X134118775Y-92751916D01*
X134105161Y-92772290D01*
X134095784Y-92794929D01*
X134091003Y-92818961D01*
X134086359Y-92866111D01*
X134085236Y-92877511D01*
X134060877Y-92957812D01*
X134021320Y-93031818D01*
X133968085Y-93096685D01*
X133903218Y-93149920D01*
X133829212Y-93189477D01*
X133748911Y-93213836D01*
X133665400Y-93222061D01*
X133581890Y-93213836D01*
X133501589Y-93189477D01*
X133427583Y-93149920D01*
X133362716Y-93096685D01*
X133309481Y-93031818D01*
X133269924Y-92957812D01*
X133245565Y-92877511D01*
X133239798Y-92818959D01*
X133235019Y-92794930D01*
X133225641Y-92772291D01*
X133212028Y-92751916D01*
X133194700Y-92734589D01*
X133174326Y-92720975D01*
X133151687Y-92711598D01*
X133127653Y-92706817D01*
X133103149Y-92706817D01*
X133079116Y-92711597D01*
X133056477Y-92720975D01*
X133036102Y-92734588D01*
X133018775Y-92751916D01*
X133005161Y-92772290D01*
X132995784Y-92794929D01*
X132991003Y-92818961D01*
X132986359Y-92866111D01*
X132985236Y-92877511D01*
X132960877Y-92957812D01*
X132921320Y-93031818D01*
X132868085Y-93096685D01*
X132803218Y-93149920D01*
X132729212Y-93189477D01*
X132648911Y-93213836D01*
X132565400Y-93222061D01*
X132481890Y-93213836D01*
X132401589Y-93189477D01*
X132327583Y-93149920D01*
X132262716Y-93096685D01*
X132209481Y-93031818D01*
X132169924Y-92957812D01*
X132145565Y-92877511D01*
X132139798Y-92818959D01*
X132135019Y-92794930D01*
X132125641Y-92772291D01*
X132112028Y-92751916D01*
X132094700Y-92734589D01*
X132074326Y-92720975D01*
X132051687Y-92711598D01*
X132027653Y-92706817D01*
X132003149Y-92706817D01*
X131979116Y-92711597D01*
X131956477Y-92720975D01*
X131936102Y-92734588D01*
X131918775Y-92751916D01*
X131905161Y-92772290D01*
X131895784Y-92794929D01*
X131891003Y-92818961D01*
X131886359Y-92866111D01*
X131885236Y-92877511D01*
X131860877Y-92957812D01*
X131821320Y-93031818D01*
X131768085Y-93096685D01*
X131703218Y-93149920D01*
X131629212Y-93189477D01*
X131548911Y-93213836D01*
X131465400Y-93222061D01*
X131381890Y-93213836D01*
X131301589Y-93189477D01*
X131227583Y-93149920D01*
X131162716Y-93096685D01*
X131109481Y-93031818D01*
X131069924Y-92957812D01*
X131045565Y-92877511D01*
X131039401Y-92814926D01*
X131039400Y-91123075D01*
X131045564Y-91060490D01*
X131069923Y-90980189D01*
X131069923Y-90980188D01*
X131094956Y-90933355D01*
X131109480Y-90906183D01*
X131162715Y-90841315D01*
X131227582Y-90788080D01*
X131301588Y-90748523D01*
X131381889Y-90724164D01*
X131465400Y-90715939D01*
X131548910Y-90724164D01*
X131600389Y-90739780D01*
X131629212Y-90748523D01*
X131658440Y-90764146D01*
X131703217Y-90788080D01*
X131768085Y-90841315D01*
X131821320Y-90906182D01*
X131860877Y-90980188D01*
X131885236Y-91060489D01*
X131885236Y-91060491D01*
X131891002Y-91119033D01*
X131895783Y-91143067D01*
X131905160Y-91165706D01*
X131918774Y-91186080D01*
X131936101Y-91203408D01*
X131956476Y-91217021D01*
X131979115Y-91226399D01*
X132003148Y-91231179D01*
X132027652Y-91231179D01*
X132051686Y-91226398D01*
X132074325Y-91217021D01*
X132094699Y-91203407D01*
X132112027Y-91186080D01*
X132125640Y-91165705D01*
X132135018Y-91143066D01*
X132139798Y-91119034D01*
X132145564Y-91060491D01*
X132145565Y-91060489D01*
X132169923Y-90980189D01*
X132169923Y-90980188D01*
X132194956Y-90933355D01*
X132209480Y-90906183D01*
X132262715Y-90841315D01*
X132327582Y-90788080D01*
X132401588Y-90748523D01*
X132481889Y-90724164D01*
X132565400Y-90715939D01*
X132648910Y-90724164D01*
X132700389Y-90739780D01*
X132729212Y-90748523D01*
X132758440Y-90764146D01*
X132803217Y-90788080D01*
X132868085Y-90841315D01*
X132921320Y-90906182D01*
X132960877Y-90980188D01*
X132985236Y-91060489D01*
X132985236Y-91060491D01*
X132991002Y-91119033D01*
X132995783Y-91143067D01*
X133005160Y-91165706D01*
X133018774Y-91186080D01*
X133036101Y-91203408D01*
X133056476Y-91217021D01*
X133079115Y-91226399D01*
X133103148Y-91231179D01*
X133127652Y-91231179D01*
X133151686Y-91226398D01*
X133174325Y-91217021D01*
X133194699Y-91203407D01*
X133212027Y-91186080D01*
X133225640Y-91165705D01*
X133235018Y-91143066D01*
X133239798Y-91119034D01*
X133245564Y-91060491D01*
X133245565Y-91060489D01*
X133269923Y-90980189D01*
X133269923Y-90980188D01*
X133294956Y-90933355D01*
X133309480Y-90906183D01*
X133362715Y-90841315D01*
X133427582Y-90788080D01*
X133501588Y-90748523D01*
X133581889Y-90724164D01*
X133665400Y-90715939D01*
X133748910Y-90724164D01*
X133800389Y-90739780D01*
X133829212Y-90748523D01*
X133858440Y-90764146D01*
X133903217Y-90788080D01*
X133968085Y-90841315D01*
X134021320Y-90906182D01*
X134060877Y-90980188D01*
X134085236Y-91060489D01*
X134085236Y-91060491D01*
X134091002Y-91119033D01*
X134095783Y-91143067D01*
X134105160Y-91165706D01*
X134118774Y-91186080D01*
X134136101Y-91203408D01*
X134156476Y-91217021D01*
X134179115Y-91226399D01*
X134203148Y-91231179D01*
X134227652Y-91231179D01*
X134251686Y-91226398D01*
X134274325Y-91217021D01*
X134294699Y-91203407D01*
X134312027Y-91186080D01*
X134325640Y-91165705D01*
X134335018Y-91143066D01*
X134339798Y-91119034D01*
X134345564Y-91060491D01*
X134345565Y-91060489D01*
X134369923Y-90980189D01*
X134369923Y-90980188D01*
X134394956Y-90933355D01*
X134409480Y-90906183D01*
X134462715Y-90841315D01*
X134527582Y-90788080D01*
X134601588Y-90748523D01*
X134681889Y-90724164D01*
X134765400Y-90715939D01*
X134848910Y-90724164D01*
X134900389Y-90739780D01*
X134929212Y-90748523D01*
X134958440Y-90764146D01*
X135003217Y-90788080D01*
X135068085Y-90841315D01*
X135121320Y-90906182D01*
X135160877Y-90980188D01*
X135185236Y-91060489D01*
X135185236Y-91060491D01*
X135191002Y-91119033D01*
X135195783Y-91143067D01*
X135205160Y-91165706D01*
X135218774Y-91186080D01*
X135236101Y-91203408D01*
X135256476Y-91217021D01*
X135279115Y-91226399D01*
X135303148Y-91231179D01*
X135327652Y-91231179D01*
X135351686Y-91226398D01*
X135374325Y-91217021D01*
X135394699Y-91203407D01*
X135412027Y-91186080D01*
X135425640Y-91165705D01*
X135435018Y-91143066D01*
X135439798Y-91119034D01*
X135445564Y-91060491D01*
X135445565Y-91060489D01*
X135469923Y-90980189D01*
X135469923Y-90980188D01*
X135494956Y-90933355D01*
X135509480Y-90906183D01*
X135562715Y-90841315D01*
X135627582Y-90788080D01*
X135701588Y-90748523D01*
X135781889Y-90724164D01*
X135865400Y-90715939D01*
X135948910Y-90724164D01*
X136000389Y-90739780D01*
X136029212Y-90748523D01*
X136058440Y-90764146D01*
X136103217Y-90788080D01*
X136168085Y-90841315D01*
X136221320Y-90906182D01*
X136260877Y-90980188D01*
X136285236Y-91060489D01*
X136285236Y-91060491D01*
X136291002Y-91119033D01*
X136295783Y-91143067D01*
X136305160Y-91165706D01*
X136318774Y-91186080D01*
X136336101Y-91203408D01*
X136356476Y-91217021D01*
X136379115Y-91226399D01*
X136403148Y-91231179D01*
X136427652Y-91231179D01*
X136451686Y-91226398D01*
X136474325Y-91217021D01*
X136494699Y-91203407D01*
X136512027Y-91186080D01*
X136525640Y-91165705D01*
X136535018Y-91143066D01*
X136539798Y-91119034D01*
X136545564Y-91060491D01*
X136545565Y-91060489D01*
X136569923Y-90980189D01*
X136569923Y-90980188D01*
X136594956Y-90933355D01*
X136609480Y-90906183D01*
X136662715Y-90841315D01*
X136727582Y-90788080D01*
X136801588Y-90748523D01*
X136881889Y-90724164D01*
X136965400Y-90715939D01*
X137048910Y-90724164D01*
X137048910Y-90724164D01*
G37*
G36*
X126548910Y-90724164D02*
X126600389Y-90739780D01*
X126629212Y-90748523D01*
X126658440Y-90764146D01*
X126703217Y-90788080D01*
X126768085Y-90841315D01*
X126821320Y-90906182D01*
X126860877Y-90980188D01*
X126885236Y-91060489D01*
X126891400Y-91123074D01*
X126891400Y-92814926D01*
X126885236Y-92877511D01*
X126860877Y-92957812D01*
X126821320Y-93031818D01*
X126768085Y-93096685D01*
X126703218Y-93149920D01*
X126629212Y-93189477D01*
X126548911Y-93213836D01*
X126465400Y-93222061D01*
X126381890Y-93213836D01*
X126301589Y-93189477D01*
X126227583Y-93149920D01*
X126162716Y-93096685D01*
X126109481Y-93031818D01*
X126069924Y-92957812D01*
X126045565Y-92877511D01*
X126039798Y-92818959D01*
X126035019Y-92794930D01*
X126025641Y-92772291D01*
X126012028Y-92751916D01*
X125994700Y-92734589D01*
X125974326Y-92720975D01*
X125951687Y-92711598D01*
X125927653Y-92706817D01*
X125903149Y-92706817D01*
X125879116Y-92711597D01*
X125856477Y-92720975D01*
X125836102Y-92734588D01*
X125818775Y-92751916D01*
X125805161Y-92772290D01*
X125795784Y-92794929D01*
X125791003Y-92818961D01*
X125786359Y-92866111D01*
X125785236Y-92877511D01*
X125760877Y-92957812D01*
X125721320Y-93031818D01*
X125668085Y-93096685D01*
X125603218Y-93149920D01*
X125529212Y-93189477D01*
X125448911Y-93213836D01*
X125365400Y-93222061D01*
X125281890Y-93213836D01*
X125201589Y-93189477D01*
X125127583Y-93149920D01*
X125062716Y-93096685D01*
X125009481Y-93031818D01*
X124969924Y-92957812D01*
X124945565Y-92877511D01*
X124939798Y-92818959D01*
X124935019Y-92794930D01*
X124925641Y-92772291D01*
X124912028Y-92751916D01*
X124894700Y-92734589D01*
X124874326Y-92720975D01*
X124851687Y-92711598D01*
X124827653Y-92706817D01*
X124803149Y-92706817D01*
X124779116Y-92711597D01*
X124756477Y-92720975D01*
X124736102Y-92734588D01*
X124718775Y-92751916D01*
X124705161Y-92772290D01*
X124695784Y-92794929D01*
X124691003Y-92818961D01*
X124686359Y-92866111D01*
X124685236Y-92877511D01*
X124660877Y-92957812D01*
X124621320Y-93031818D01*
X124568085Y-93096685D01*
X124503218Y-93149920D01*
X124429212Y-93189477D01*
X124348911Y-93213836D01*
X124265400Y-93222061D01*
X124181890Y-93213836D01*
X124101589Y-93189477D01*
X124027583Y-93149920D01*
X123962716Y-93096685D01*
X123909481Y-93031818D01*
X123869924Y-92957812D01*
X123845565Y-92877511D01*
X123839798Y-92818959D01*
X123835019Y-92794930D01*
X123825641Y-92772291D01*
X123812028Y-92751916D01*
X123794700Y-92734589D01*
X123774326Y-92720975D01*
X123751687Y-92711598D01*
X123727653Y-92706817D01*
X123703149Y-92706817D01*
X123679116Y-92711597D01*
X123656477Y-92720975D01*
X123636102Y-92734588D01*
X123618775Y-92751916D01*
X123605161Y-92772290D01*
X123595784Y-92794929D01*
X123591003Y-92818961D01*
X123586359Y-92866111D01*
X123585236Y-92877511D01*
X123560877Y-92957812D01*
X123521320Y-93031818D01*
X123468085Y-93096685D01*
X123403218Y-93149920D01*
X123329212Y-93189477D01*
X123248911Y-93213836D01*
X123165400Y-93222061D01*
X123081890Y-93213836D01*
X123001589Y-93189477D01*
X122927583Y-93149920D01*
X122862716Y-93096685D01*
X122809481Y-93031818D01*
X122769924Y-92957812D01*
X122745565Y-92877511D01*
X122739798Y-92818959D01*
X122735019Y-92794930D01*
X122725641Y-92772291D01*
X122712028Y-92751916D01*
X122694700Y-92734589D01*
X122674326Y-92720975D01*
X122651687Y-92711598D01*
X122627653Y-92706817D01*
X122603149Y-92706817D01*
X122579116Y-92711597D01*
X122556477Y-92720975D01*
X122536102Y-92734588D01*
X122518775Y-92751916D01*
X122505161Y-92772290D01*
X122495784Y-92794929D01*
X122491003Y-92818961D01*
X122486359Y-92866111D01*
X122485236Y-92877511D01*
X122460877Y-92957812D01*
X122421320Y-93031818D01*
X122368085Y-93096685D01*
X122303218Y-93149920D01*
X122229212Y-93189477D01*
X122148911Y-93213836D01*
X122065400Y-93222061D01*
X121981890Y-93213836D01*
X121901589Y-93189477D01*
X121827583Y-93149920D01*
X121762716Y-93096685D01*
X121709481Y-93031818D01*
X121669924Y-92957812D01*
X121645565Y-92877511D01*
X121639401Y-92814926D01*
X121639400Y-91123075D01*
X121645564Y-91060490D01*
X121669923Y-90980189D01*
X121669923Y-90980188D01*
X121694956Y-90933355D01*
X121709480Y-90906183D01*
X121762715Y-90841315D01*
X121827582Y-90788080D01*
X121901588Y-90748523D01*
X121981889Y-90724164D01*
X122065400Y-90715939D01*
X122148910Y-90724164D01*
X122200389Y-90739780D01*
X122229212Y-90748523D01*
X122258440Y-90764146D01*
X122303217Y-90788080D01*
X122368085Y-90841315D01*
X122421320Y-90906182D01*
X122460877Y-90980188D01*
X122485236Y-91060489D01*
X122485236Y-91060491D01*
X122491002Y-91119033D01*
X122495783Y-91143067D01*
X122505160Y-91165706D01*
X122518774Y-91186080D01*
X122536101Y-91203408D01*
X122556476Y-91217021D01*
X122579115Y-91226399D01*
X122603148Y-91231179D01*
X122627652Y-91231179D01*
X122651686Y-91226398D01*
X122674325Y-91217021D01*
X122694699Y-91203407D01*
X122712027Y-91186080D01*
X122725640Y-91165705D01*
X122735018Y-91143066D01*
X122739798Y-91119034D01*
X122745564Y-91060491D01*
X122745565Y-91060489D01*
X122769923Y-90980189D01*
X122769923Y-90980188D01*
X122794956Y-90933355D01*
X122809480Y-90906183D01*
X122862715Y-90841315D01*
X122927582Y-90788080D01*
X123001588Y-90748523D01*
X123081889Y-90724164D01*
X123165400Y-90715939D01*
X123248910Y-90724164D01*
X123300389Y-90739780D01*
X123329212Y-90748523D01*
X123358440Y-90764146D01*
X123403217Y-90788080D01*
X123468085Y-90841315D01*
X123521320Y-90906182D01*
X123560877Y-90980188D01*
X123585236Y-91060489D01*
X123585236Y-91060491D01*
X123591002Y-91119033D01*
X123595783Y-91143067D01*
X123605160Y-91165706D01*
X123618774Y-91186080D01*
X123636101Y-91203408D01*
X123656476Y-91217021D01*
X123679115Y-91226399D01*
X123703148Y-91231179D01*
X123727652Y-91231179D01*
X123751686Y-91226398D01*
X123774325Y-91217021D01*
X123794699Y-91203407D01*
X123812027Y-91186080D01*
X123825640Y-91165705D01*
X123835018Y-91143066D01*
X123839798Y-91119034D01*
X123845564Y-91060491D01*
X123845565Y-91060489D01*
X123869923Y-90980189D01*
X123869923Y-90980188D01*
X123894956Y-90933355D01*
X123909480Y-90906183D01*
X123962715Y-90841315D01*
X124027582Y-90788080D01*
X124101588Y-90748523D01*
X124181889Y-90724164D01*
X124265400Y-90715939D01*
X124348910Y-90724164D01*
X124400389Y-90739780D01*
X124429212Y-90748523D01*
X124458440Y-90764146D01*
X124503217Y-90788080D01*
X124568085Y-90841315D01*
X124621320Y-90906182D01*
X124660877Y-90980188D01*
X124685236Y-91060489D01*
X124685236Y-91060491D01*
X124691002Y-91119033D01*
X124695783Y-91143067D01*
X124705160Y-91165706D01*
X124718774Y-91186080D01*
X124736101Y-91203408D01*
X124756476Y-91217021D01*
X124779115Y-91226399D01*
X124803148Y-91231179D01*
X124827652Y-91231179D01*
X124851686Y-91226398D01*
X124874325Y-91217021D01*
X124894699Y-91203407D01*
X124912027Y-91186080D01*
X124925640Y-91165705D01*
X124935018Y-91143066D01*
X124939798Y-91119034D01*
X124945564Y-91060491D01*
X124945565Y-91060489D01*
X124969923Y-90980189D01*
X124969923Y-90980188D01*
X124994956Y-90933355D01*
X125009480Y-90906183D01*
X125062715Y-90841315D01*
X125127582Y-90788080D01*
X125201588Y-90748523D01*
X125281889Y-90724164D01*
X125365400Y-90715939D01*
X125448910Y-90724164D01*
X125500389Y-90739780D01*
X125529212Y-90748523D01*
X125558440Y-90764146D01*
X125603217Y-90788080D01*
X125668085Y-90841315D01*
X125721320Y-90906182D01*
X125760877Y-90980188D01*
X125785236Y-91060489D01*
X125785236Y-91060491D01*
X125791002Y-91119033D01*
X125795783Y-91143067D01*
X125805160Y-91165706D01*
X125818774Y-91186080D01*
X125836101Y-91203408D01*
X125856476Y-91217021D01*
X125879115Y-91226399D01*
X125903148Y-91231179D01*
X125927652Y-91231179D01*
X125951686Y-91226398D01*
X125974325Y-91217021D01*
X125994699Y-91203407D01*
X126012027Y-91186080D01*
X126025640Y-91165705D01*
X126035018Y-91143066D01*
X126039798Y-91119034D01*
X126045564Y-91060491D01*
X126045565Y-91060489D01*
X126069923Y-90980189D01*
X126069923Y-90980188D01*
X126094956Y-90933355D01*
X126109480Y-90906183D01*
X126162715Y-90841315D01*
X126227582Y-90788080D01*
X126301588Y-90748523D01*
X126381889Y-90724164D01*
X126465400Y-90715939D01*
X126548910Y-90724164D01*
X126548910Y-90724164D01*
G37*
G36*
X158654752Y-87656978D02*
X158782329Y-87709822D01*
X158897145Y-87786540D01*
X158994780Y-87884175D01*
X159071498Y-87998991D01*
X159124342Y-88126568D01*
X159151280Y-88261996D01*
X159151280Y-88400084D01*
X159124342Y-88535512D01*
X159071498Y-88663089D01*
X158994780Y-88777905D01*
X158897145Y-88875540D01*
X158782329Y-88952258D01*
X158654752Y-89005102D01*
X158519324Y-89032040D01*
X158381236Y-89032040D01*
X158245808Y-89005102D01*
X158118231Y-88952258D01*
X158003415Y-88875540D01*
X157905780Y-88777905D01*
X157829062Y-88663089D01*
X157776218Y-88535512D01*
X157749280Y-88400084D01*
X157749280Y-88261996D01*
X157776218Y-88126568D01*
X157829062Y-87998991D01*
X157905780Y-87884175D01*
X158003415Y-87786540D01*
X158118231Y-87709822D01*
X158245808Y-87656978D01*
X158381236Y-87630040D01*
X158519324Y-87630040D01*
X158654752Y-87656978D01*
X158654752Y-87656978D01*
G37*
G36*
X142123911Y-84799164D02*
X142204212Y-84823523D01*
X142278218Y-84863080D01*
X142343085Y-84916315D01*
X142396320Y-84981182D01*
X142435877Y-85055188D01*
X142460236Y-85135489D01*
X142468461Y-85219000D01*
X142460236Y-85302511D01*
X142435877Y-85382812D01*
X142396320Y-85456818D01*
X142343085Y-85521685D01*
X142278218Y-85574920D01*
X142204212Y-85614477D01*
X142123911Y-85638836D01*
X142065367Y-85644602D01*
X142041334Y-85649383D01*
X142018695Y-85658760D01*
X141998320Y-85672374D01*
X141980993Y-85689701D01*
X141967380Y-85710076D01*
X141958002Y-85732715D01*
X141953222Y-85756748D01*
X141953222Y-85781253D01*
X141958003Y-85805286D01*
X141967380Y-85827925D01*
X141980994Y-85848300D01*
X141998321Y-85865627D01*
X142018696Y-85879240D01*
X142041335Y-85888618D01*
X142065367Y-85893398D01*
X142123911Y-85899164D01*
X142204212Y-85923523D01*
X142278218Y-85963080D01*
X142343085Y-86016315D01*
X142396320Y-86081182D01*
X142435877Y-86155188D01*
X142460236Y-86235489D01*
X142468461Y-86319000D01*
X142460236Y-86402511D01*
X142435877Y-86482812D01*
X142396320Y-86556818D01*
X142343085Y-86621685D01*
X142278218Y-86674920D01*
X142204212Y-86714477D01*
X142123911Y-86738836D01*
X142065367Y-86744602D01*
X142041334Y-86749383D01*
X142018695Y-86758760D01*
X141998320Y-86772374D01*
X141980993Y-86789701D01*
X141967380Y-86810076D01*
X141958002Y-86832715D01*
X141953222Y-86856748D01*
X141953222Y-86881253D01*
X141958003Y-86905286D01*
X141967380Y-86927925D01*
X141980994Y-86948300D01*
X141998321Y-86965627D01*
X142018696Y-86979240D01*
X142041335Y-86988618D01*
X142065367Y-86993398D01*
X142123911Y-86999164D01*
X142204212Y-87023523D01*
X142278218Y-87063080D01*
X142343085Y-87116315D01*
X142396320Y-87181182D01*
X142435877Y-87255188D01*
X142460236Y-87335489D01*
X142468461Y-87419000D01*
X142460236Y-87502511D01*
X142435877Y-87582812D01*
X142396320Y-87656818D01*
X142343085Y-87721685D01*
X142278218Y-87774920D01*
X142204212Y-87814477D01*
X142123911Y-87838836D01*
X142065367Y-87844602D01*
X142041334Y-87849383D01*
X142018695Y-87858760D01*
X141998320Y-87872374D01*
X141980993Y-87889701D01*
X141967380Y-87910076D01*
X141958002Y-87932715D01*
X141953222Y-87956748D01*
X141953222Y-87981253D01*
X141958003Y-88005286D01*
X141967380Y-88027925D01*
X141980994Y-88048300D01*
X141998321Y-88065627D01*
X142018696Y-88079240D01*
X142041335Y-88088618D01*
X142065367Y-88093398D01*
X142123911Y-88099164D01*
X142204212Y-88123523D01*
X142278218Y-88163080D01*
X142343085Y-88216315D01*
X142396320Y-88281182D01*
X142435877Y-88355188D01*
X142460236Y-88435489D01*
X142468461Y-88519000D01*
X142460236Y-88602511D01*
X142435877Y-88682812D01*
X142396320Y-88756818D01*
X142343085Y-88821685D01*
X142278218Y-88874920D01*
X142204212Y-88914477D01*
X142123911Y-88938836D01*
X142061326Y-88945000D01*
X140369474Y-88945000D01*
X140306889Y-88938836D01*
X140226588Y-88914477D01*
X140152582Y-88874920D01*
X140087715Y-88821685D01*
X140034480Y-88756818D01*
X139994923Y-88682812D01*
X139970564Y-88602511D01*
X139962339Y-88519000D01*
X139970564Y-88435489D01*
X139994923Y-88355188D01*
X140034480Y-88281182D01*
X140087715Y-88216315D01*
X140152582Y-88163080D01*
X140226588Y-88123523D01*
X140306889Y-88099164D01*
X140365433Y-88093398D01*
X140389466Y-88088617D01*
X140412105Y-88079240D01*
X140432480Y-88065626D01*
X140449807Y-88048299D01*
X140463420Y-88027924D01*
X140472798Y-88005285D01*
X140477578Y-87981252D01*
X140477578Y-87956747D01*
X140472797Y-87932714D01*
X140463420Y-87910075D01*
X140449806Y-87889700D01*
X140432479Y-87872373D01*
X140412104Y-87858760D01*
X140389465Y-87849382D01*
X140365433Y-87844602D01*
X140306889Y-87838836D01*
X140226588Y-87814477D01*
X140152582Y-87774920D01*
X140087715Y-87721685D01*
X140034480Y-87656818D01*
X139994923Y-87582812D01*
X139970564Y-87502511D01*
X139962339Y-87419000D01*
X139970564Y-87335489D01*
X139994923Y-87255188D01*
X140034480Y-87181182D01*
X140087715Y-87116315D01*
X140152582Y-87063080D01*
X140226588Y-87023523D01*
X140306889Y-86999164D01*
X140365433Y-86993398D01*
X140389466Y-86988617D01*
X140412105Y-86979240D01*
X140432480Y-86965626D01*
X140449807Y-86948299D01*
X140463420Y-86927924D01*
X140472798Y-86905285D01*
X140477578Y-86881252D01*
X140477578Y-86856747D01*
X140472797Y-86832714D01*
X140463420Y-86810075D01*
X140449806Y-86789700D01*
X140432479Y-86772373D01*
X140412104Y-86758760D01*
X140389465Y-86749382D01*
X140365433Y-86744602D01*
X140306889Y-86738836D01*
X140226588Y-86714477D01*
X140152582Y-86674920D01*
X140087715Y-86621685D01*
X140034480Y-86556818D01*
X139994923Y-86482812D01*
X139970564Y-86402511D01*
X139962339Y-86319000D01*
X139970564Y-86235489D01*
X139994923Y-86155188D01*
X140034480Y-86081182D01*
X140087715Y-86016315D01*
X140152582Y-85963080D01*
X140226588Y-85923523D01*
X140306889Y-85899164D01*
X140365433Y-85893398D01*
X140389466Y-85888617D01*
X140412105Y-85879240D01*
X140432480Y-85865626D01*
X140449807Y-85848299D01*
X140463420Y-85827924D01*
X140472798Y-85805285D01*
X140477578Y-85781252D01*
X140477578Y-85756747D01*
X140472797Y-85732714D01*
X140463420Y-85710075D01*
X140449806Y-85689700D01*
X140432479Y-85672373D01*
X140412104Y-85658760D01*
X140389465Y-85649382D01*
X140365433Y-85644602D01*
X140306889Y-85638836D01*
X140226588Y-85614477D01*
X140152582Y-85574920D01*
X140087715Y-85521685D01*
X140034480Y-85456818D01*
X139994923Y-85382812D01*
X139970564Y-85302511D01*
X139962339Y-85219000D01*
X139970564Y-85135489D01*
X139994923Y-85055188D01*
X140034480Y-84981182D01*
X140087715Y-84916315D01*
X140152582Y-84863080D01*
X140226588Y-84823523D01*
X140306889Y-84799164D01*
X140369474Y-84793000D01*
X142061326Y-84793000D01*
X142123911Y-84799164D01*
X142123911Y-84799164D01*
G37*
G36*
X118823911Y-84799164D02*
X118904212Y-84823523D01*
X118978218Y-84863080D01*
X119043085Y-84916315D01*
X119096320Y-84981182D01*
X119135877Y-85055188D01*
X119160236Y-85135489D01*
X119168461Y-85219000D01*
X119160236Y-85302511D01*
X119135877Y-85382812D01*
X119096320Y-85456818D01*
X119043085Y-85521685D01*
X118978218Y-85574920D01*
X118904212Y-85614477D01*
X118823911Y-85638836D01*
X118765367Y-85644602D01*
X118741334Y-85649383D01*
X118718695Y-85658760D01*
X118698320Y-85672374D01*
X118680993Y-85689701D01*
X118667380Y-85710076D01*
X118658002Y-85732715D01*
X118653222Y-85756748D01*
X118653222Y-85781253D01*
X118658003Y-85805286D01*
X118667380Y-85827925D01*
X118680994Y-85848300D01*
X118698321Y-85865627D01*
X118718696Y-85879240D01*
X118741335Y-85888618D01*
X118765367Y-85893398D01*
X118823911Y-85899164D01*
X118904212Y-85923523D01*
X118978218Y-85963080D01*
X119043085Y-86016315D01*
X119096320Y-86081182D01*
X119135877Y-86155188D01*
X119160236Y-86235489D01*
X119168461Y-86319000D01*
X119160236Y-86402511D01*
X119135877Y-86482812D01*
X119096320Y-86556818D01*
X119043085Y-86621685D01*
X118978218Y-86674920D01*
X118904212Y-86714477D01*
X118823911Y-86738836D01*
X118765367Y-86744602D01*
X118741334Y-86749383D01*
X118718695Y-86758760D01*
X118698320Y-86772374D01*
X118680993Y-86789701D01*
X118667380Y-86810076D01*
X118658002Y-86832715D01*
X118653222Y-86856748D01*
X118653222Y-86881253D01*
X118658003Y-86905286D01*
X118667380Y-86927925D01*
X118680994Y-86948300D01*
X118698321Y-86965627D01*
X118718696Y-86979240D01*
X118741335Y-86988618D01*
X118765367Y-86993398D01*
X118823911Y-86999164D01*
X118904212Y-87023523D01*
X118978218Y-87063080D01*
X119043085Y-87116315D01*
X119096320Y-87181182D01*
X119135877Y-87255188D01*
X119160236Y-87335489D01*
X119168461Y-87419000D01*
X119160236Y-87502511D01*
X119135877Y-87582812D01*
X119096320Y-87656818D01*
X119043085Y-87721685D01*
X118978218Y-87774920D01*
X118904212Y-87814477D01*
X118823911Y-87838836D01*
X118765367Y-87844602D01*
X118741334Y-87849383D01*
X118718695Y-87858760D01*
X118698320Y-87872374D01*
X118680993Y-87889701D01*
X118667380Y-87910076D01*
X118658002Y-87932715D01*
X118653222Y-87956748D01*
X118653222Y-87981253D01*
X118658003Y-88005286D01*
X118667380Y-88027925D01*
X118680994Y-88048300D01*
X118698321Y-88065627D01*
X118718696Y-88079240D01*
X118741335Y-88088618D01*
X118765367Y-88093398D01*
X118823911Y-88099164D01*
X118904212Y-88123523D01*
X118978218Y-88163080D01*
X119043085Y-88216315D01*
X119096320Y-88281182D01*
X119135877Y-88355188D01*
X119160236Y-88435489D01*
X119168461Y-88519000D01*
X119160236Y-88602511D01*
X119135877Y-88682812D01*
X119096320Y-88756818D01*
X119043085Y-88821685D01*
X118978218Y-88874920D01*
X118904212Y-88914477D01*
X118823911Y-88938836D01*
X118761326Y-88945000D01*
X117069474Y-88945000D01*
X117006889Y-88938836D01*
X116926588Y-88914477D01*
X116852582Y-88874920D01*
X116787715Y-88821685D01*
X116734480Y-88756818D01*
X116694923Y-88682812D01*
X116670564Y-88602511D01*
X116662339Y-88519000D01*
X116670564Y-88435489D01*
X116694923Y-88355188D01*
X116734480Y-88281182D01*
X116787715Y-88216315D01*
X116852582Y-88163080D01*
X116926588Y-88123523D01*
X117006889Y-88099164D01*
X117065433Y-88093398D01*
X117089466Y-88088617D01*
X117112105Y-88079240D01*
X117132480Y-88065626D01*
X117149807Y-88048299D01*
X117163420Y-88027924D01*
X117172798Y-88005285D01*
X117177578Y-87981252D01*
X117177578Y-87956747D01*
X117172797Y-87932714D01*
X117163420Y-87910075D01*
X117149806Y-87889700D01*
X117132479Y-87872373D01*
X117112104Y-87858760D01*
X117089465Y-87849382D01*
X117065433Y-87844602D01*
X117006889Y-87838836D01*
X116926588Y-87814477D01*
X116852582Y-87774920D01*
X116787715Y-87721685D01*
X116734480Y-87656818D01*
X116694923Y-87582812D01*
X116670564Y-87502511D01*
X116662339Y-87419000D01*
X116670564Y-87335489D01*
X116694923Y-87255188D01*
X116734480Y-87181182D01*
X116787715Y-87116315D01*
X116852582Y-87063080D01*
X116926588Y-87023523D01*
X117006889Y-86999164D01*
X117065433Y-86993398D01*
X117089466Y-86988617D01*
X117112105Y-86979240D01*
X117132480Y-86965626D01*
X117149807Y-86948299D01*
X117163420Y-86927924D01*
X117172798Y-86905285D01*
X117177578Y-86881252D01*
X117177578Y-86856747D01*
X117172797Y-86832714D01*
X117163420Y-86810075D01*
X117149806Y-86789700D01*
X117132479Y-86772373D01*
X117112104Y-86758760D01*
X117089465Y-86749382D01*
X117065433Y-86744602D01*
X117006889Y-86738836D01*
X116926588Y-86714477D01*
X116852582Y-86674920D01*
X116787715Y-86621685D01*
X116734480Y-86556818D01*
X116694923Y-86482812D01*
X116670564Y-86402511D01*
X116662339Y-86319000D01*
X116670564Y-86235489D01*
X116694923Y-86155188D01*
X116734480Y-86081182D01*
X116787715Y-86016315D01*
X116852582Y-85963080D01*
X116926588Y-85923523D01*
X117006889Y-85899164D01*
X117065433Y-85893398D01*
X117089466Y-85888617D01*
X117112105Y-85879240D01*
X117132480Y-85865626D01*
X117149807Y-85848299D01*
X117163420Y-85827924D01*
X117172798Y-85805285D01*
X117177578Y-85781252D01*
X117177578Y-85756747D01*
X117172797Y-85732714D01*
X117163420Y-85710075D01*
X117149806Y-85689700D01*
X117132479Y-85672373D01*
X117112104Y-85658760D01*
X117089465Y-85649382D01*
X117065433Y-85644602D01*
X117006889Y-85638836D01*
X116926588Y-85614477D01*
X116852582Y-85574920D01*
X116787715Y-85521685D01*
X116734480Y-85456818D01*
X116694923Y-85382812D01*
X116670564Y-85302511D01*
X116662339Y-85219000D01*
X116670564Y-85135489D01*
X116694923Y-85055188D01*
X116734480Y-84981182D01*
X116787715Y-84916315D01*
X116852582Y-84863080D01*
X116926588Y-84823523D01*
X117006889Y-84799164D01*
X117069474Y-84793000D01*
X118761326Y-84793000D01*
X118823911Y-84799164D01*
X118823911Y-84799164D01*
G37*
G36*
X110011877Y-87347665D02*
X110049564Y-87359098D01*
X110084303Y-87377666D01*
X110114748Y-87402652D01*
X110139734Y-87433097D01*
X110158302Y-87467836D01*
X110169735Y-87505523D01*
X110174200Y-87550861D01*
X110174200Y-88387539D01*
X110169735Y-88432877D01*
X110158302Y-88470564D01*
X110139734Y-88505303D01*
X110114748Y-88535748D01*
X110084303Y-88560734D01*
X110049564Y-88579302D01*
X110011877Y-88590735D01*
X109966539Y-88595200D01*
X108879861Y-88595200D01*
X108834523Y-88590735D01*
X108796836Y-88579302D01*
X108762097Y-88560734D01*
X108731652Y-88535748D01*
X108706666Y-88505303D01*
X108688098Y-88470564D01*
X108676665Y-88432877D01*
X108672200Y-88387539D01*
X108672200Y-87550861D01*
X108676665Y-87505523D01*
X108688098Y-87467836D01*
X108706666Y-87433097D01*
X108731652Y-87402652D01*
X108762097Y-87377666D01*
X108796836Y-87359098D01*
X108834523Y-87347665D01*
X108879861Y-87343200D01*
X109966539Y-87343200D01*
X110011877Y-87347665D01*
X110011877Y-87347665D01*
G37*
G36*
X103966677Y-87169865D02*
X104004364Y-87181298D01*
X104039103Y-87199866D01*
X104069548Y-87224852D01*
X104094534Y-87255297D01*
X104113102Y-87290036D01*
X104124535Y-87327723D01*
X104129000Y-87373061D01*
X104129000Y-88209739D01*
X104124535Y-88255077D01*
X104113102Y-88292764D01*
X104094534Y-88327503D01*
X104069548Y-88357948D01*
X104039103Y-88382934D01*
X104004364Y-88401502D01*
X103966677Y-88412935D01*
X103921339Y-88417400D01*
X102834661Y-88417400D01*
X102789323Y-88412935D01*
X102751636Y-88401502D01*
X102716897Y-88382934D01*
X102686452Y-88357948D01*
X102661466Y-88327503D01*
X102642898Y-88292764D01*
X102631465Y-88255077D01*
X102627000Y-88209739D01*
X102627000Y-87373061D01*
X102631465Y-87327723D01*
X102642898Y-87290036D01*
X102661466Y-87255297D01*
X102686452Y-87224852D01*
X102716897Y-87199866D01*
X102751636Y-87181298D01*
X102789323Y-87169865D01*
X102834661Y-87165400D01*
X103921339Y-87165400D01*
X103966677Y-87169865D01*
X103966677Y-87169865D01*
G37*
G36*
X156554266Y-86908965D02*
X156592937Y-86920696D01*
X156628579Y-86939748D01*
X156659817Y-86965383D01*
X156685452Y-86996621D01*
X156704504Y-87032263D01*
X156716235Y-87070934D01*
X156720800Y-87117288D01*
X156720800Y-88193512D01*
X156716235Y-88239866D01*
X156704504Y-88278537D01*
X156685452Y-88314179D01*
X156659817Y-88345417D01*
X156628579Y-88371052D01*
X156592937Y-88390104D01*
X156554266Y-88401835D01*
X156507912Y-88406400D01*
X155856688Y-88406400D01*
X155810334Y-88401835D01*
X155771663Y-88390104D01*
X155736021Y-88371052D01*
X155704783Y-88345417D01*
X155679148Y-88314179D01*
X155660096Y-88278537D01*
X155648365Y-88239866D01*
X155643800Y-88193512D01*
X155643800Y-87117288D01*
X155648365Y-87070934D01*
X155660096Y-87032263D01*
X155679148Y-86996621D01*
X155704783Y-86965383D01*
X155736021Y-86939748D01*
X155771663Y-86920696D01*
X155810334Y-86908965D01*
X155856688Y-86904400D01*
X156507912Y-86904400D01*
X156554266Y-86908965D01*
X156554266Y-86908965D01*
G37*
G36*
X154679266Y-86908965D02*
X154717937Y-86920696D01*
X154753579Y-86939748D01*
X154784817Y-86965383D01*
X154810452Y-86996621D01*
X154829504Y-87032263D01*
X154841235Y-87070934D01*
X154845800Y-87117288D01*
X154845800Y-88193512D01*
X154841235Y-88239866D01*
X154829504Y-88278537D01*
X154810452Y-88314179D01*
X154784817Y-88345417D01*
X154753579Y-88371052D01*
X154717937Y-88390104D01*
X154679266Y-88401835D01*
X154632912Y-88406400D01*
X153981688Y-88406400D01*
X153935334Y-88401835D01*
X153896663Y-88390104D01*
X153861021Y-88371052D01*
X153829783Y-88345417D01*
X153804148Y-88314179D01*
X153785096Y-88278537D01*
X153773365Y-88239866D01*
X153768800Y-88193512D01*
X153768800Y-87117288D01*
X153773365Y-87070934D01*
X153785096Y-87032263D01*
X153804148Y-86996621D01*
X153829783Y-86965383D01*
X153861021Y-86939748D01*
X153896663Y-86920696D01*
X153935334Y-86908965D01*
X153981688Y-86904400D01*
X154632912Y-86904400D01*
X154679266Y-86908965D01*
X154679266Y-86908965D01*
G37*
G36*
X152161477Y-86273865D02*
X152199164Y-86285298D01*
X152233903Y-86303866D01*
X152264348Y-86328852D01*
X152289334Y-86359297D01*
X152307902Y-86394036D01*
X152319335Y-86431723D01*
X152323800Y-86477061D01*
X152323800Y-87563739D01*
X152319335Y-87609077D01*
X152307902Y-87646764D01*
X152289334Y-87681503D01*
X152264348Y-87711948D01*
X152233903Y-87736934D01*
X152199164Y-87755502D01*
X152161477Y-87766935D01*
X152116139Y-87771400D01*
X151279461Y-87771400D01*
X151234123Y-87766935D01*
X151196436Y-87755502D01*
X151161697Y-87736934D01*
X151131252Y-87711948D01*
X151106266Y-87681503D01*
X151087698Y-87646764D01*
X151076265Y-87609077D01*
X151071800Y-87563739D01*
X151071800Y-86477061D01*
X151076265Y-86431723D01*
X151087698Y-86394036D01*
X151106266Y-86359297D01*
X151131252Y-86328852D01*
X151161697Y-86303866D01*
X151196436Y-86285298D01*
X151234123Y-86273865D01*
X151279461Y-86269400D01*
X152116139Y-86269400D01*
X152161477Y-86273865D01*
X152161477Y-86273865D01*
G37*
G36*
X150111477Y-86273865D02*
X150149164Y-86285298D01*
X150183903Y-86303866D01*
X150214348Y-86328852D01*
X150239334Y-86359297D01*
X150257902Y-86394036D01*
X150269335Y-86431723D01*
X150273800Y-86477061D01*
X150273800Y-87563739D01*
X150269335Y-87609077D01*
X150257902Y-87646764D01*
X150239334Y-87681503D01*
X150214348Y-87711948D01*
X150183903Y-87736934D01*
X150149164Y-87755502D01*
X150111477Y-87766935D01*
X150066139Y-87771400D01*
X149229461Y-87771400D01*
X149184123Y-87766935D01*
X149146436Y-87755502D01*
X149111697Y-87736934D01*
X149081252Y-87711948D01*
X149056266Y-87681503D01*
X149037698Y-87646764D01*
X149026265Y-87609077D01*
X149021800Y-87563739D01*
X149021800Y-86477061D01*
X149026265Y-86431723D01*
X149037698Y-86394036D01*
X149056266Y-86359297D01*
X149081252Y-86328852D01*
X149111697Y-86303866D01*
X149146436Y-86285298D01*
X149184123Y-86273865D01*
X149229461Y-86269400D01*
X150066139Y-86269400D01*
X150111477Y-86273865D01*
X150111477Y-86273865D01*
G37*
G36*
X114594840Y-87159160D02*
X111842840Y-87159160D01*
X111842840Y-86257160D01*
X114594840Y-86257160D01*
X114594840Y-87159160D01*
X114594840Y-87159160D01*
G37*
G36*
X110011877Y-85297665D02*
X110049564Y-85309098D01*
X110084303Y-85327666D01*
X110114748Y-85352652D01*
X110139734Y-85383097D01*
X110158302Y-85417836D01*
X110169735Y-85455523D01*
X110174200Y-85500861D01*
X110174200Y-86337539D01*
X110169735Y-86382877D01*
X110158302Y-86420564D01*
X110139734Y-86455303D01*
X110114748Y-86485748D01*
X110084303Y-86510734D01*
X110049564Y-86529302D01*
X110011877Y-86540735D01*
X109966539Y-86545200D01*
X108879861Y-86545200D01*
X108834523Y-86540735D01*
X108796836Y-86529302D01*
X108762097Y-86510734D01*
X108731652Y-86485748D01*
X108706666Y-86455303D01*
X108688098Y-86420564D01*
X108676665Y-86382877D01*
X108672200Y-86337539D01*
X108672200Y-85500861D01*
X108676665Y-85455523D01*
X108688098Y-85417836D01*
X108706666Y-85383097D01*
X108731652Y-85352652D01*
X108762097Y-85327666D01*
X108796836Y-85309098D01*
X108834523Y-85297665D01*
X108879861Y-85293200D01*
X109966539Y-85293200D01*
X110011877Y-85297665D01*
X110011877Y-85297665D01*
G37*
G36*
X107863877Y-85003865D02*
X107901564Y-85015298D01*
X107936303Y-85033866D01*
X107966748Y-85058852D01*
X107991734Y-85089297D01*
X108010302Y-85124036D01*
X108021735Y-85161723D01*
X108026200Y-85207061D01*
X108026200Y-86293739D01*
X108021735Y-86339077D01*
X108010302Y-86376764D01*
X107991734Y-86411503D01*
X107966748Y-86441948D01*
X107936303Y-86466934D01*
X107901564Y-86485502D01*
X107863877Y-86496935D01*
X107818539Y-86501400D01*
X106981861Y-86501400D01*
X106936523Y-86496935D01*
X106898836Y-86485502D01*
X106864097Y-86466934D01*
X106833652Y-86441948D01*
X106808666Y-86411503D01*
X106790098Y-86376764D01*
X106778665Y-86339077D01*
X106774200Y-86293739D01*
X106774200Y-85207061D01*
X106778665Y-85161723D01*
X106790098Y-85124036D01*
X106808666Y-85089297D01*
X106833652Y-85058852D01*
X106864097Y-85033866D01*
X106898836Y-85015298D01*
X106936523Y-85003865D01*
X106981861Y-84999400D01*
X107818539Y-84999400D01*
X107863877Y-85003865D01*
X107863877Y-85003865D01*
G37*
G36*
X105813877Y-85003865D02*
X105851564Y-85015298D01*
X105886303Y-85033866D01*
X105916748Y-85058852D01*
X105941734Y-85089297D01*
X105960302Y-85124036D01*
X105971735Y-85161723D01*
X105976200Y-85207061D01*
X105976200Y-86293739D01*
X105971735Y-86339077D01*
X105960302Y-86376764D01*
X105941734Y-86411503D01*
X105916748Y-86441948D01*
X105886303Y-86466934D01*
X105851564Y-86485502D01*
X105813877Y-86496935D01*
X105768539Y-86501400D01*
X104931861Y-86501400D01*
X104886523Y-86496935D01*
X104848836Y-86485502D01*
X104814097Y-86466934D01*
X104783652Y-86441948D01*
X104758666Y-86411503D01*
X104740098Y-86376764D01*
X104728665Y-86339077D01*
X104724200Y-86293739D01*
X104724200Y-85207061D01*
X104728665Y-85161723D01*
X104740098Y-85124036D01*
X104758666Y-85089297D01*
X104783652Y-85058852D01*
X104814097Y-85033866D01*
X104848836Y-85015298D01*
X104886523Y-85003865D01*
X104931861Y-84999400D01*
X105768539Y-84999400D01*
X105813877Y-85003865D01*
X105813877Y-85003865D01*
G37*
G36*
X158654752Y-85116978D02*
X158782329Y-85169822D01*
X158897145Y-85246540D01*
X158994780Y-85344175D01*
X159071498Y-85458991D01*
X159124342Y-85586568D01*
X159151280Y-85721996D01*
X159151280Y-85860084D01*
X159124342Y-85995512D01*
X159071498Y-86123089D01*
X158994780Y-86237905D01*
X158897145Y-86335540D01*
X158782329Y-86412258D01*
X158654752Y-86465102D01*
X158519324Y-86492040D01*
X158381236Y-86492040D01*
X158245808Y-86465102D01*
X158118231Y-86412258D01*
X158003415Y-86335540D01*
X157905780Y-86237905D01*
X157829062Y-86123089D01*
X157776218Y-85995512D01*
X157749280Y-85860084D01*
X157749280Y-85721996D01*
X157776218Y-85586568D01*
X157829062Y-85458991D01*
X157905780Y-85344175D01*
X158003415Y-85246540D01*
X158118231Y-85169822D01*
X158245808Y-85116978D01*
X158381236Y-85090040D01*
X158519324Y-85090040D01*
X158654752Y-85116978D01*
X158654752Y-85116978D01*
G37*
G36*
X103966677Y-85119865D02*
X104004364Y-85131298D01*
X104039103Y-85149866D01*
X104069548Y-85174852D01*
X104094534Y-85205297D01*
X104113102Y-85240036D01*
X104124535Y-85277723D01*
X104129000Y-85323061D01*
X104129000Y-86159739D01*
X104124535Y-86205077D01*
X104113102Y-86242764D01*
X104094534Y-86277503D01*
X104069548Y-86307948D01*
X104039103Y-86332934D01*
X104004364Y-86351502D01*
X103966677Y-86362935D01*
X103921339Y-86367400D01*
X102834661Y-86367400D01*
X102789323Y-86362935D01*
X102751636Y-86351502D01*
X102716897Y-86332934D01*
X102686452Y-86307948D01*
X102661466Y-86277503D01*
X102642898Y-86242764D01*
X102631465Y-86205077D01*
X102627000Y-86159739D01*
X102627000Y-85323061D01*
X102631465Y-85277723D01*
X102642898Y-85240036D01*
X102661466Y-85205297D01*
X102686452Y-85174852D01*
X102716897Y-85149866D01*
X102751636Y-85131298D01*
X102789323Y-85119865D01*
X102834661Y-85115400D01*
X103921339Y-85115400D01*
X103966677Y-85119865D01*
X103966677Y-85119865D01*
G37*
G36*
X157165277Y-84754945D02*
X157202964Y-84766378D01*
X157237703Y-84784946D01*
X157268148Y-84809932D01*
X157293134Y-84840377D01*
X157311702Y-84875116D01*
X157323135Y-84912803D01*
X157327600Y-84958141D01*
X157327600Y-86044819D01*
X157323135Y-86090157D01*
X157311702Y-86127844D01*
X157293134Y-86162583D01*
X157268148Y-86193028D01*
X157237703Y-86218014D01*
X157202964Y-86236582D01*
X157165277Y-86248015D01*
X157119939Y-86252480D01*
X156283261Y-86252480D01*
X156237923Y-86248015D01*
X156200236Y-86236582D01*
X156165497Y-86218014D01*
X156135052Y-86193028D01*
X156110066Y-86162583D01*
X156091498Y-86127844D01*
X156080065Y-86090157D01*
X156075600Y-86044819D01*
X156075600Y-84958141D01*
X156080065Y-84912803D01*
X156091498Y-84875116D01*
X156110066Y-84840377D01*
X156135052Y-84809932D01*
X156165497Y-84784946D01*
X156200236Y-84766378D01*
X156237923Y-84754945D01*
X156283261Y-84750480D01*
X157119939Y-84750480D01*
X157165277Y-84754945D01*
X157165277Y-84754945D01*
G37*
G36*
X155115277Y-84754945D02*
X155152964Y-84766378D01*
X155187703Y-84784946D01*
X155218148Y-84809932D01*
X155243134Y-84840377D01*
X155261702Y-84875116D01*
X155273135Y-84912803D01*
X155277600Y-84958141D01*
X155277600Y-86044819D01*
X155273135Y-86090157D01*
X155261702Y-86127844D01*
X155243134Y-86162583D01*
X155218148Y-86193028D01*
X155187703Y-86218014D01*
X155152964Y-86236582D01*
X155115277Y-86248015D01*
X155069939Y-86252480D01*
X154233261Y-86252480D01*
X154187923Y-86248015D01*
X154150236Y-86236582D01*
X154115497Y-86218014D01*
X154085052Y-86193028D01*
X154060066Y-86162583D01*
X154041498Y-86127844D01*
X154030065Y-86090157D01*
X154025600Y-86044819D01*
X154025600Y-84958141D01*
X154030065Y-84912803D01*
X154041498Y-84875116D01*
X154060066Y-84840377D01*
X154085052Y-84809932D01*
X154115497Y-84784946D01*
X154150236Y-84766378D01*
X154187923Y-84754945D01*
X154233261Y-84750480D01*
X155069939Y-84750480D01*
X155115277Y-84754945D01*
X155115277Y-84754945D01*
G37*
G36*
X114944840Y-85934160D02*
X114142840Y-85934160D01*
X114142840Y-85282160D01*
X114944840Y-85282160D01*
X114944840Y-85934160D01*
X114944840Y-85934160D01*
G37*
G36*
X112094840Y-85934160D02*
X111442840Y-85934160D01*
X111442840Y-85282160D01*
X112094840Y-85282160D01*
X112094840Y-85934160D01*
X112094840Y-85934160D01*
G37*
G36*
X151982266Y-84140365D02*
X152020937Y-84152096D01*
X152056579Y-84171148D01*
X152087817Y-84196783D01*
X152113452Y-84228021D01*
X152132504Y-84263663D01*
X152144235Y-84302334D01*
X152148800Y-84348688D01*
X152148800Y-85424912D01*
X152144235Y-85471266D01*
X152132504Y-85509937D01*
X152113452Y-85545579D01*
X152087817Y-85576817D01*
X152056579Y-85602452D01*
X152020937Y-85621504D01*
X151982266Y-85633235D01*
X151935912Y-85637800D01*
X151284688Y-85637800D01*
X151238334Y-85633235D01*
X151199663Y-85621504D01*
X151164021Y-85602452D01*
X151132783Y-85576817D01*
X151107148Y-85545579D01*
X151088096Y-85509937D01*
X151076365Y-85471266D01*
X151071800Y-85424912D01*
X151071800Y-84348688D01*
X151076365Y-84302334D01*
X151088096Y-84263663D01*
X151107148Y-84228021D01*
X151132783Y-84196783D01*
X151164021Y-84171148D01*
X151199663Y-84152096D01*
X151238334Y-84140365D01*
X151284688Y-84135800D01*
X151935912Y-84135800D01*
X151982266Y-84140365D01*
X151982266Y-84140365D01*
G37*
G36*
X150107266Y-84140365D02*
X150145937Y-84152096D01*
X150181579Y-84171148D01*
X150212817Y-84196783D01*
X150238452Y-84228021D01*
X150257504Y-84263663D01*
X150269235Y-84302334D01*
X150273800Y-84348688D01*
X150273800Y-85424912D01*
X150269235Y-85471266D01*
X150257504Y-85509937D01*
X150238452Y-85545579D01*
X150212817Y-85576817D01*
X150181579Y-85602452D01*
X150145937Y-85621504D01*
X150107266Y-85633235D01*
X150060912Y-85637800D01*
X149409688Y-85637800D01*
X149363334Y-85633235D01*
X149324663Y-85621504D01*
X149289021Y-85602452D01*
X149257783Y-85576817D01*
X149232148Y-85545579D01*
X149213096Y-85509937D01*
X149201365Y-85471266D01*
X149196800Y-85424912D01*
X149196800Y-84348688D01*
X149201365Y-84302334D01*
X149213096Y-84263663D01*
X149232148Y-84228021D01*
X149257783Y-84196783D01*
X149289021Y-84171148D01*
X149324663Y-84152096D01*
X149363334Y-84140365D01*
X149409688Y-84135800D01*
X150060912Y-84135800D01*
X150107266Y-84140365D01*
X150107266Y-84140365D01*
G37*
G36*
X114594840Y-84959160D02*
X111842840Y-84959160D01*
X111842840Y-84057160D01*
X114594840Y-84057160D01*
X114594840Y-84959160D01*
X114594840Y-84959160D01*
G37*
G36*
X106832800Y-84220000D02*
X104530800Y-84220000D01*
X104530800Y-83068000D01*
X106832800Y-83068000D01*
X106832800Y-84220000D01*
X106832800Y-84220000D01*
G37*
G36*
X158654752Y-82576978D02*
X158782329Y-82629822D01*
X158897145Y-82706540D01*
X158994780Y-82804175D01*
X159071498Y-82918991D01*
X159124342Y-83046568D01*
X159151280Y-83181996D01*
X159151280Y-83320084D01*
X159124342Y-83455512D01*
X159071498Y-83583089D01*
X158994780Y-83697905D01*
X158897145Y-83795540D01*
X158782329Y-83872258D01*
X158654752Y-83925102D01*
X158519324Y-83952040D01*
X158381236Y-83952040D01*
X158245808Y-83925102D01*
X158118231Y-83872258D01*
X158003415Y-83795540D01*
X157905780Y-83697905D01*
X157829062Y-83583089D01*
X157776218Y-83455512D01*
X157749280Y-83320084D01*
X157749280Y-83181996D01*
X157776218Y-83046568D01*
X157829062Y-82918991D01*
X157905780Y-82804175D01*
X158003415Y-82706540D01*
X158118231Y-82629822D01*
X158245808Y-82576978D01*
X158381236Y-82550040D01*
X158519324Y-82550040D01*
X158654752Y-82576978D01*
X158654752Y-82576978D01*
G37*
G36*
X142123911Y-83099164D02*
X142204212Y-83123523D01*
X142278218Y-83163080D01*
X142343085Y-83216315D01*
X142396320Y-83281182D01*
X142435877Y-83355188D01*
X142460236Y-83435489D01*
X142468461Y-83519000D01*
X142460236Y-83602511D01*
X142435877Y-83682812D01*
X142396320Y-83756818D01*
X142343085Y-83821685D01*
X142278218Y-83874920D01*
X142204212Y-83914477D01*
X142123911Y-83938836D01*
X142061326Y-83945000D01*
X140369474Y-83945000D01*
X140306889Y-83938836D01*
X140226588Y-83914477D01*
X140152582Y-83874920D01*
X140087715Y-83821685D01*
X140034480Y-83756818D01*
X139994923Y-83682812D01*
X139970564Y-83602511D01*
X139962339Y-83519000D01*
X139970564Y-83435489D01*
X139994923Y-83355188D01*
X140034480Y-83281182D01*
X140087715Y-83216315D01*
X140152582Y-83163080D01*
X140226588Y-83123523D01*
X140306889Y-83099164D01*
X140369474Y-83093000D01*
X142061326Y-83093000D01*
X142123911Y-83099164D01*
X142123911Y-83099164D01*
G37*
G36*
X155249277Y-82369265D02*
X155286964Y-82380698D01*
X155321703Y-82399266D01*
X155352148Y-82424252D01*
X155377134Y-82454697D01*
X155395702Y-82489436D01*
X155407135Y-82527123D01*
X155411600Y-82572461D01*
X155411600Y-83409139D01*
X155407135Y-83454477D01*
X155395702Y-83492164D01*
X155377134Y-83526903D01*
X155352148Y-83557348D01*
X155321703Y-83582334D01*
X155286964Y-83600902D01*
X155249277Y-83612335D01*
X155203939Y-83616800D01*
X154117261Y-83616800D01*
X154071923Y-83612335D01*
X154034236Y-83600902D01*
X153999497Y-83582334D01*
X153969052Y-83557348D01*
X153944066Y-83526903D01*
X153925498Y-83492164D01*
X153914065Y-83454477D01*
X153909600Y-83409139D01*
X153909600Y-82572461D01*
X153914065Y-82527123D01*
X153925498Y-82489436D01*
X153944066Y-82454697D01*
X153969052Y-82424252D01*
X153999497Y-82399266D01*
X154034236Y-82380698D01*
X154071923Y-82369265D01*
X154117261Y-82364800D01*
X155203939Y-82364800D01*
X155249277Y-82369265D01*
X155249277Y-82369265D01*
G37*
G36*
X148594477Y-82166065D02*
X148632164Y-82177498D01*
X148666903Y-82196066D01*
X148697348Y-82221052D01*
X148722334Y-82251497D01*
X148740902Y-82286236D01*
X148752335Y-82323923D01*
X148756800Y-82369261D01*
X148756800Y-83205939D01*
X148752335Y-83251277D01*
X148740902Y-83288964D01*
X148722334Y-83323703D01*
X148697348Y-83354148D01*
X148666903Y-83379134D01*
X148632164Y-83397702D01*
X148594477Y-83409135D01*
X148549139Y-83413600D01*
X147462461Y-83413600D01*
X147417123Y-83409135D01*
X147379436Y-83397702D01*
X147344697Y-83379134D01*
X147314252Y-83354148D01*
X147289266Y-83323703D01*
X147270698Y-83288964D01*
X147259265Y-83251277D01*
X147254800Y-83205939D01*
X147254800Y-82369261D01*
X147259265Y-82323923D01*
X147270698Y-82286236D01*
X147289266Y-82251497D01*
X147314252Y-82221052D01*
X147344697Y-82196066D01*
X147379436Y-82177498D01*
X147417123Y-82166065D01*
X147462461Y-82161600D01*
X148549139Y-82161600D01*
X148594477Y-82166065D01*
X148594477Y-82166065D01*
G37*
G36*
X109503877Y-81810465D02*
X109541564Y-81821898D01*
X109576303Y-81840466D01*
X109606748Y-81865452D01*
X109631734Y-81895897D01*
X109650302Y-81930636D01*
X109661735Y-81968323D01*
X109666200Y-82013661D01*
X109666200Y-82850339D01*
X109661735Y-82895677D01*
X109650302Y-82933364D01*
X109631734Y-82968103D01*
X109606748Y-82998548D01*
X109576303Y-83023534D01*
X109541564Y-83042102D01*
X109503877Y-83053535D01*
X109458539Y-83058000D01*
X108371861Y-83058000D01*
X108326523Y-83053535D01*
X108288836Y-83042102D01*
X108254097Y-83023534D01*
X108223652Y-82998548D01*
X108198666Y-82968103D01*
X108180098Y-82933364D01*
X108168665Y-82895677D01*
X108164200Y-82850339D01*
X108164200Y-82013661D01*
X108168665Y-81968323D01*
X108180098Y-81930636D01*
X108198666Y-81895897D01*
X108223652Y-81865452D01*
X108254097Y-81840466D01*
X108288836Y-81821898D01*
X108326523Y-81810465D01*
X108371861Y-81806000D01*
X109458539Y-81806000D01*
X109503877Y-81810465D01*
X109503877Y-81810465D01*
G37*
G36*
X104732800Y-82720000D02*
X103580800Y-82720000D01*
X103580800Y-81618000D01*
X104732800Y-81618000D01*
X104732800Y-82720000D01*
X104732800Y-82720000D01*
G37*
G36*
X142123911Y-81749164D02*
X142204212Y-81773523D01*
X142278218Y-81813080D01*
X142343085Y-81866315D01*
X142396320Y-81931182D01*
X142435877Y-82005188D01*
X142460236Y-82085489D01*
X142468461Y-82169000D01*
X142460236Y-82252511D01*
X142435877Y-82332812D01*
X142396320Y-82406818D01*
X142343085Y-82471685D01*
X142278218Y-82524920D01*
X142204212Y-82564477D01*
X142123911Y-82588836D01*
X142061326Y-82595000D01*
X140369474Y-82595000D01*
X140306889Y-82588836D01*
X140226588Y-82564477D01*
X140152582Y-82524920D01*
X140087715Y-82471685D01*
X140034480Y-82406818D01*
X139994923Y-82332812D01*
X139970564Y-82252511D01*
X139962339Y-82169000D01*
X139970564Y-82085489D01*
X139994923Y-82005188D01*
X140034480Y-81931182D01*
X140087715Y-81866315D01*
X140152582Y-81813080D01*
X140226588Y-81773523D01*
X140306889Y-81749164D01*
X140369474Y-81743000D01*
X142061326Y-81743000D01*
X142123911Y-81749164D01*
X142123911Y-81749164D01*
G37*
G36*
X152120798Y-78455508D02*
X152120801Y-78455509D01*
X152120802Y-78455509D01*
X152158690Y-78467002D01*
X152193609Y-78485666D01*
X152224216Y-78510784D01*
X152249334Y-78541390D01*
X152267998Y-78576309D01*
X152277352Y-78607145D01*
X152279492Y-78614200D01*
X152282400Y-78643727D01*
X152282400Y-79113473D01*
X152279492Y-79143000D01*
X152279491Y-79143003D01*
X152275160Y-79157282D01*
X152267997Y-79180893D01*
X152267778Y-79181302D01*
X152249334Y-79215810D01*
X152249332Y-79215812D01*
X152247802Y-79218675D01*
X152238425Y-79241314D01*
X152233644Y-79265347D01*
X152233644Y-79289852D01*
X152238424Y-79313885D01*
X152247802Y-79336524D01*
X152261415Y-79356899D01*
X152278742Y-79374226D01*
X152298762Y-79387603D01*
X152303466Y-79396404D01*
X152319012Y-79415346D01*
X152337954Y-79430892D01*
X152359565Y-79442443D01*
X152383014Y-79449556D01*
X152407400Y-79451958D01*
X152431786Y-79449556D01*
X152455235Y-79442443D01*
X152466325Y-79437198D01*
X152469188Y-79435668D01*
X152469190Y-79435666D01*
X152504109Y-79417002D01*
X152541997Y-79405509D01*
X152542000Y-79405508D01*
X152571527Y-79402600D01*
X153041273Y-79402600D01*
X153070800Y-79405508D01*
X153070803Y-79405509D01*
X153108691Y-79417002D01*
X153143610Y-79435666D01*
X153174216Y-79460784D01*
X153199334Y-79491390D01*
X153216866Y-79524190D01*
X153217997Y-79526307D01*
X153229492Y-79564200D01*
X153233372Y-79603600D01*
X153229492Y-79643000D01*
X153229491Y-79643003D01*
X153217998Y-79680891D01*
X153199334Y-79715810D01*
X153178265Y-79741482D01*
X153174214Y-79746418D01*
X153161352Y-79756973D01*
X153144025Y-79774300D01*
X153130411Y-79794674D01*
X153121033Y-79817313D01*
X153116252Y-79841346D01*
X153116252Y-79865851D01*
X153121032Y-79889884D01*
X153130409Y-79912523D01*
X153144023Y-79932898D01*
X153161350Y-79950225D01*
X153174216Y-79960784D01*
X153199334Y-79991390D01*
X153206761Y-80005286D01*
X153217997Y-80026307D01*
X153229492Y-80064200D01*
X153233372Y-80103600D01*
X153229492Y-80143000D01*
X153229491Y-80143003D01*
X153217998Y-80180891D01*
X153199334Y-80215810D01*
X153174216Y-80246416D01*
X153174214Y-80246418D01*
X153161352Y-80256973D01*
X153144025Y-80274300D01*
X153130411Y-80294674D01*
X153121033Y-80317313D01*
X153116252Y-80341346D01*
X153116252Y-80365851D01*
X153121032Y-80389884D01*
X153130409Y-80412523D01*
X153144023Y-80432898D01*
X153161350Y-80450225D01*
X153174216Y-80460784D01*
X153199334Y-80491390D01*
X153214091Y-80519000D01*
X153217997Y-80526307D01*
X153229492Y-80564200D01*
X153233372Y-80603600D01*
X153229492Y-80643000D01*
X153229491Y-80643003D01*
X153217998Y-80680891D01*
X153199334Y-80715810D01*
X153174216Y-80746416D01*
X153174214Y-80746418D01*
X153161352Y-80756973D01*
X153144025Y-80774300D01*
X153130411Y-80794674D01*
X153121033Y-80817313D01*
X153116252Y-80841346D01*
X153116252Y-80865851D01*
X153121032Y-80889884D01*
X153130409Y-80912523D01*
X153144023Y-80932898D01*
X153161350Y-80950225D01*
X153174216Y-80960784D01*
X153199334Y-80991390D01*
X153216866Y-81024190D01*
X153217997Y-81026307D01*
X153229492Y-81064200D01*
X153233372Y-81103600D01*
X153229492Y-81143000D01*
X153229491Y-81143003D01*
X153217998Y-81180891D01*
X153199334Y-81215810D01*
X153174216Y-81246416D01*
X153143610Y-81271534D01*
X153108691Y-81290198D01*
X153094090Y-81294627D01*
X153070800Y-81301692D01*
X153041273Y-81304600D01*
X152571527Y-81304600D01*
X152542000Y-81301692D01*
X152518710Y-81294627D01*
X152504109Y-81290198D01*
X152469190Y-81271534D01*
X152469188Y-81271532D01*
X152466325Y-81270002D01*
X152443686Y-81260625D01*
X152419653Y-81255844D01*
X152395148Y-81255844D01*
X152371115Y-81260624D01*
X152348476Y-81270002D01*
X152328101Y-81283615D01*
X152310774Y-81300942D01*
X152297397Y-81320962D01*
X152288596Y-81325666D01*
X152269654Y-81341212D01*
X152254108Y-81360154D01*
X152242557Y-81381765D01*
X152235444Y-81405214D01*
X152233042Y-81429600D01*
X152235444Y-81453986D01*
X152242557Y-81477435D01*
X152247802Y-81488525D01*
X152249332Y-81491388D01*
X152249334Y-81491390D01*
X152267998Y-81526309D01*
X152273996Y-81546082D01*
X152279492Y-81564200D01*
X152282400Y-81593727D01*
X152282400Y-82063473D01*
X152279492Y-82093000D01*
X152279491Y-82093003D01*
X152267998Y-82130891D01*
X152249334Y-82165810D01*
X152224216Y-82196416D01*
X152193610Y-82221534D01*
X152158691Y-82240198D01*
X152127855Y-82249552D01*
X152120800Y-82251692D01*
X152081400Y-82255572D01*
X152042002Y-82251692D01*
X152041999Y-82251691D01*
X152041998Y-82251691D01*
X152004110Y-82240198D01*
X151969191Y-82221534D01*
X151938585Y-82196416D01*
X151938298Y-82196066D01*
X151928028Y-82183552D01*
X151910701Y-82166225D01*
X151890327Y-82152611D01*
X151867688Y-82143233D01*
X151843655Y-82138452D01*
X151819150Y-82138452D01*
X151795117Y-82143232D01*
X151772478Y-82152609D01*
X151752103Y-82166223D01*
X151734776Y-82183549D01*
X151724504Y-82196066D01*
X151724216Y-82196416D01*
X151693610Y-82221534D01*
X151658691Y-82240198D01*
X151627855Y-82249552D01*
X151620800Y-82251692D01*
X151581400Y-82255572D01*
X151542002Y-82251692D01*
X151541999Y-82251691D01*
X151541998Y-82251691D01*
X151504110Y-82240198D01*
X151469191Y-82221534D01*
X151438585Y-82196416D01*
X151438298Y-82196066D01*
X151428028Y-82183552D01*
X151410701Y-82166225D01*
X151390327Y-82152611D01*
X151367688Y-82143233D01*
X151343655Y-82138452D01*
X151319150Y-82138452D01*
X151295117Y-82143232D01*
X151272478Y-82152609D01*
X151252103Y-82166223D01*
X151234776Y-82183549D01*
X151224504Y-82196066D01*
X151224216Y-82196416D01*
X151193610Y-82221534D01*
X151158691Y-82240198D01*
X151127855Y-82249552D01*
X151120800Y-82251692D01*
X151081400Y-82255572D01*
X151042002Y-82251692D01*
X151041999Y-82251691D01*
X151041998Y-82251691D01*
X151004110Y-82240198D01*
X150969191Y-82221534D01*
X150938585Y-82196416D01*
X150938298Y-82196066D01*
X150928028Y-82183552D01*
X150910701Y-82166225D01*
X150890327Y-82152611D01*
X150867688Y-82143233D01*
X150843655Y-82138452D01*
X150819150Y-82138452D01*
X150795117Y-82143232D01*
X150772478Y-82152609D01*
X150752103Y-82166223D01*
X150734776Y-82183549D01*
X150724504Y-82196066D01*
X150724216Y-82196416D01*
X150693610Y-82221534D01*
X150658691Y-82240198D01*
X150627855Y-82249552D01*
X150620800Y-82251692D01*
X150581400Y-82255572D01*
X150542002Y-82251692D01*
X150541999Y-82251691D01*
X150541998Y-82251691D01*
X150504110Y-82240198D01*
X150469191Y-82221534D01*
X150438585Y-82196416D01*
X150413467Y-82165810D01*
X150394803Y-82130891D01*
X150383310Y-82093003D01*
X150383310Y-82093002D01*
X150383309Y-82092999D01*
X150380400Y-82063469D01*
X150380400Y-81593728D01*
X150383308Y-81564201D01*
X150394803Y-81526306D01*
X150407484Y-81502584D01*
X150413466Y-81491391D01*
X150413468Y-81491389D01*
X150414998Y-81488526D01*
X150424376Y-81465887D01*
X150429157Y-81441854D01*
X150429157Y-81417349D01*
X150424377Y-81393316D01*
X150415000Y-81370677D01*
X150401386Y-81350302D01*
X150384059Y-81332975D01*
X150364038Y-81319597D01*
X150359334Y-81310796D01*
X150343788Y-81291854D01*
X150324846Y-81276308D01*
X150303235Y-81264757D01*
X150279786Y-81257644D01*
X150255400Y-81255242D01*
X150231014Y-81257644D01*
X150207565Y-81264757D01*
X150196475Y-81270002D01*
X150193612Y-81271532D01*
X150193610Y-81271534D01*
X150158691Y-81290198D01*
X150144090Y-81294627D01*
X150120800Y-81301692D01*
X150091273Y-81304600D01*
X149621527Y-81304600D01*
X149592000Y-81301692D01*
X149568710Y-81294627D01*
X149554109Y-81290198D01*
X149519190Y-81271534D01*
X149488584Y-81246416D01*
X149463466Y-81215810D01*
X149444802Y-81180891D01*
X149433309Y-81143003D01*
X149433308Y-81143000D01*
X149429428Y-81103600D01*
X149433308Y-81064200D01*
X149444803Y-81026307D01*
X149445934Y-81024190D01*
X149463466Y-80991390D01*
X149488584Y-80960784D01*
X149501450Y-80950225D01*
X149518775Y-80932900D01*
X149532389Y-80912526D01*
X149541767Y-80889887D01*
X149546548Y-80865854D01*
X149546548Y-80841349D01*
X149541768Y-80817316D01*
X149532391Y-80794677D01*
X149518777Y-80774302D01*
X149501448Y-80756973D01*
X149488586Y-80746418D01*
X149488584Y-80746416D01*
X149463466Y-80715810D01*
X149444802Y-80680891D01*
X149433309Y-80643003D01*
X149433308Y-80643000D01*
X149429428Y-80603600D01*
X149433308Y-80564200D01*
X149444803Y-80526307D01*
X149448709Y-80519000D01*
X149463466Y-80491390D01*
X149488584Y-80460784D01*
X149501450Y-80450225D01*
X149518775Y-80432900D01*
X149532389Y-80412526D01*
X149541767Y-80389887D01*
X149546548Y-80365854D01*
X149546548Y-80341349D01*
X149541768Y-80317316D01*
X149532391Y-80294677D01*
X149518777Y-80274302D01*
X149501448Y-80256973D01*
X149488586Y-80246418D01*
X149488584Y-80246416D01*
X149463466Y-80215810D01*
X149444802Y-80180891D01*
X149433309Y-80143003D01*
X149433308Y-80143000D01*
X149429428Y-80103600D01*
X149433308Y-80064200D01*
X149444803Y-80026307D01*
X149456039Y-80005286D01*
X149463466Y-79991390D01*
X149488584Y-79960784D01*
X149501450Y-79950225D01*
X149518775Y-79932900D01*
X149532389Y-79912526D01*
X149541767Y-79889887D01*
X149546548Y-79865854D01*
X149546548Y-79841349D01*
X149541768Y-79817316D01*
X149532391Y-79794677D01*
X149518777Y-79774302D01*
X149501448Y-79756973D01*
X149488586Y-79746418D01*
X149484535Y-79741482D01*
X149463466Y-79715810D01*
X149444802Y-79680891D01*
X149433309Y-79643003D01*
X149433308Y-79643000D01*
X149429428Y-79603600D01*
X149433308Y-79564200D01*
X149444803Y-79526307D01*
X149445934Y-79524190D01*
X149463466Y-79491390D01*
X149488584Y-79460784D01*
X149519190Y-79435666D01*
X149554109Y-79417002D01*
X149591997Y-79405509D01*
X149592000Y-79405508D01*
X149621527Y-79402600D01*
X150091273Y-79402600D01*
X150120800Y-79405508D01*
X150120803Y-79405509D01*
X150158691Y-79417002D01*
X150193610Y-79435666D01*
X150193612Y-79435668D01*
X150196475Y-79437198D01*
X150219114Y-79446575D01*
X150243147Y-79451356D01*
X150267652Y-79451356D01*
X150291685Y-79446576D01*
X150314324Y-79437198D01*
X150334699Y-79423585D01*
X150352026Y-79406258D01*
X150365402Y-79386239D01*
X150374205Y-79381534D01*
X150393147Y-79365988D01*
X150408693Y-79347046D01*
X150420244Y-79325435D01*
X150427357Y-79301986D01*
X150429759Y-79277600D01*
X150427357Y-79253214D01*
X150420244Y-79229765D01*
X150414999Y-79218675D01*
X150413469Y-79215812D01*
X150413467Y-79215810D01*
X150395023Y-79181302D01*
X150394804Y-79180893D01*
X150389296Y-79162734D01*
X150383310Y-79143003D01*
X150383310Y-79143002D01*
X150383309Y-79142999D01*
X150380400Y-79113469D01*
X150380400Y-78643728D01*
X150383308Y-78614201D01*
X150390233Y-78591373D01*
X150394802Y-78576310D01*
X150413466Y-78541391D01*
X150438584Y-78510784D01*
X150469190Y-78485666D01*
X150504109Y-78467002D01*
X150541997Y-78455509D01*
X150542000Y-78455508D01*
X150581400Y-78451628D01*
X150620798Y-78455508D01*
X150620801Y-78455509D01*
X150620802Y-78455509D01*
X150658690Y-78467002D01*
X150693609Y-78485666D01*
X150724216Y-78510784D01*
X150724219Y-78510787D01*
X150734773Y-78523648D01*
X150752100Y-78540975D01*
X150772474Y-78554589D01*
X150795113Y-78563967D01*
X150819146Y-78568748D01*
X150843651Y-78568748D01*
X150867684Y-78563968D01*
X150890323Y-78554591D01*
X150910698Y-78540977D01*
X150928027Y-78523648D01*
X150938582Y-78510786D01*
X150938584Y-78510784D01*
X150969190Y-78485666D01*
X151004109Y-78467002D01*
X151041997Y-78455509D01*
X151042000Y-78455508D01*
X151081400Y-78451628D01*
X151120798Y-78455508D01*
X151120801Y-78455509D01*
X151120802Y-78455509D01*
X151158690Y-78467002D01*
X151193609Y-78485666D01*
X151224216Y-78510784D01*
X151224219Y-78510787D01*
X151234773Y-78523648D01*
X151252100Y-78540975D01*
X151272474Y-78554589D01*
X151295113Y-78563967D01*
X151319146Y-78568748D01*
X151343651Y-78568748D01*
X151367684Y-78563968D01*
X151390323Y-78554591D01*
X151410698Y-78540977D01*
X151428027Y-78523648D01*
X151438582Y-78510786D01*
X151438584Y-78510784D01*
X151469190Y-78485666D01*
X151504109Y-78467002D01*
X151541997Y-78455509D01*
X151542000Y-78455508D01*
X151581400Y-78451628D01*
X151620798Y-78455508D01*
X151620801Y-78455509D01*
X151620802Y-78455509D01*
X151658690Y-78467002D01*
X151693609Y-78485666D01*
X151724216Y-78510784D01*
X151724219Y-78510787D01*
X151734773Y-78523648D01*
X151752100Y-78540975D01*
X151772474Y-78554589D01*
X151795113Y-78563967D01*
X151819146Y-78568748D01*
X151843651Y-78568748D01*
X151867684Y-78563968D01*
X151890323Y-78554591D01*
X151910698Y-78540977D01*
X151928027Y-78523648D01*
X151938582Y-78510786D01*
X151938584Y-78510784D01*
X151969190Y-78485666D01*
X152004109Y-78467002D01*
X152041997Y-78455509D01*
X152042000Y-78455508D01*
X152081400Y-78451628D01*
X152120798Y-78455508D01*
X152120798Y-78455508D01*
G37*
G36*
X155249277Y-80319265D02*
X155286964Y-80330698D01*
X155321703Y-80349266D01*
X155352148Y-80374252D01*
X155377134Y-80404697D01*
X155395702Y-80439436D01*
X155407135Y-80477123D01*
X155411600Y-80522461D01*
X155411600Y-81359139D01*
X155407135Y-81404477D01*
X155395702Y-81442164D01*
X155377134Y-81476903D01*
X155352148Y-81507348D01*
X155321703Y-81532334D01*
X155286964Y-81550902D01*
X155249277Y-81562335D01*
X155203939Y-81566800D01*
X154117261Y-81566800D01*
X154071923Y-81562335D01*
X154034236Y-81550902D01*
X153999497Y-81532334D01*
X153969052Y-81507348D01*
X153944066Y-81476903D01*
X153925498Y-81442164D01*
X153914065Y-81404477D01*
X153909600Y-81359139D01*
X153909600Y-80522461D01*
X153914065Y-80477123D01*
X153925498Y-80439436D01*
X153944066Y-80404697D01*
X153969052Y-80374252D01*
X153999497Y-80349266D01*
X154034236Y-80330698D01*
X154071923Y-80319265D01*
X154117261Y-80314800D01*
X155203939Y-80314800D01*
X155249277Y-80319265D01*
X155249277Y-80319265D01*
G37*
G36*
X148594477Y-80116065D02*
X148632164Y-80127498D01*
X148666903Y-80146066D01*
X148697348Y-80171052D01*
X148722334Y-80201497D01*
X148740902Y-80236236D01*
X148752335Y-80273923D01*
X148756800Y-80319261D01*
X148756800Y-81155939D01*
X148752335Y-81201277D01*
X148740902Y-81238964D01*
X148722334Y-81273703D01*
X148697348Y-81304148D01*
X148666903Y-81329134D01*
X148632164Y-81347702D01*
X148594477Y-81359135D01*
X148549139Y-81363600D01*
X147462461Y-81363600D01*
X147417123Y-81359135D01*
X147379436Y-81347702D01*
X147344697Y-81329134D01*
X147314252Y-81304148D01*
X147289266Y-81273703D01*
X147270698Y-81238964D01*
X147259265Y-81201277D01*
X147254800Y-81155939D01*
X147254800Y-80319261D01*
X147259265Y-80273923D01*
X147270698Y-80236236D01*
X147289266Y-80201497D01*
X147314252Y-80171052D01*
X147344697Y-80146066D01*
X147379436Y-80127498D01*
X147417123Y-80116065D01*
X147462461Y-80111600D01*
X148549139Y-80111600D01*
X148594477Y-80116065D01*
X148594477Y-80116065D01*
G37*
G36*
X106832800Y-81270000D02*
X104530800Y-81270000D01*
X104530800Y-80118000D01*
X106832800Y-80118000D01*
X106832800Y-81270000D01*
X106832800Y-81270000D01*
G37*
G36*
X101075443Y-79394919D02*
X101141627Y-79401437D01*
X101214639Y-79423585D01*
X101311467Y-79452957D01*
X101448693Y-79526307D01*
X101467991Y-79536622D01*
X101483106Y-79549027D01*
X101605186Y-79649214D01*
X101680907Y-79741482D01*
X101717778Y-79786409D01*
X101722196Y-79794674D01*
X101801443Y-79942933D01*
X101811193Y-79975075D01*
X101852963Y-80112773D01*
X101870359Y-80289400D01*
X101852963Y-80466027D01*
X101823183Y-80564200D01*
X101801443Y-80635867D01*
X101728926Y-80771534D01*
X101717778Y-80792391D01*
X101707758Y-80804600D01*
X101605186Y-80929586D01*
X101509637Y-81008000D01*
X101467991Y-81042178D01*
X101467989Y-81042179D01*
X101311467Y-81125843D01*
X101254907Y-81143000D01*
X101141627Y-81177363D01*
X101075442Y-81183882D01*
X101009260Y-81190400D01*
X100920740Y-81190400D01*
X100854558Y-81183882D01*
X100788373Y-81177363D01*
X100675093Y-81143000D01*
X100618533Y-81125843D01*
X100462011Y-81042179D01*
X100462009Y-81042178D01*
X100420363Y-81008000D01*
X100324814Y-80929586D01*
X100222242Y-80804600D01*
X100212222Y-80792391D01*
X100201074Y-80771534D01*
X100128557Y-80635867D01*
X100106817Y-80564200D01*
X100077037Y-80466027D01*
X100059641Y-80289400D01*
X100077037Y-80112773D01*
X100118807Y-79975075D01*
X100128557Y-79942933D01*
X100207804Y-79794674D01*
X100212222Y-79786409D01*
X100249093Y-79741482D01*
X100324814Y-79649214D01*
X100446894Y-79549027D01*
X100462009Y-79536622D01*
X100481307Y-79526307D01*
X100618533Y-79452957D01*
X100715361Y-79423585D01*
X100788373Y-79401437D01*
X100854557Y-79394919D01*
X100920740Y-79388400D01*
X101009260Y-79388400D01*
X101075443Y-79394919D01*
X101075443Y-79394919D01*
G37*
G36*
X109503877Y-79760465D02*
X109541564Y-79771898D01*
X109576303Y-79790466D01*
X109606748Y-79815452D01*
X109631734Y-79845897D01*
X109650302Y-79880636D01*
X109661735Y-79918323D01*
X109666200Y-79963661D01*
X109666200Y-80800339D01*
X109661735Y-80845677D01*
X109650302Y-80883364D01*
X109631734Y-80918103D01*
X109606748Y-80948548D01*
X109576303Y-80973534D01*
X109541564Y-80992102D01*
X109503877Y-81003535D01*
X109458539Y-81008000D01*
X108371861Y-81008000D01*
X108326523Y-81003535D01*
X108288836Y-80992102D01*
X108254097Y-80973534D01*
X108223652Y-80948548D01*
X108198666Y-80918103D01*
X108180098Y-80883364D01*
X108168665Y-80845677D01*
X108164200Y-80800339D01*
X108164200Y-79963661D01*
X108168665Y-79918323D01*
X108180098Y-79880636D01*
X108198666Y-79845897D01*
X108223652Y-79815452D01*
X108254097Y-79790466D01*
X108288836Y-79771898D01*
X108326523Y-79760465D01*
X108371861Y-79756000D01*
X109458539Y-79756000D01*
X109503877Y-79760465D01*
X109503877Y-79760465D01*
G37*
G36*
X142123911Y-75699164D02*
X142204212Y-75723523D01*
X142278218Y-75763080D01*
X142343085Y-75816315D01*
X142396320Y-75881182D01*
X142435877Y-75955188D01*
X142460236Y-76035489D01*
X142468461Y-76119000D01*
X142460236Y-76202511D01*
X142435877Y-76282812D01*
X142396320Y-76356818D01*
X142343085Y-76421685D01*
X142278218Y-76474920D01*
X142204212Y-76514477D01*
X142123911Y-76538836D01*
X142065367Y-76544602D01*
X142041334Y-76549383D01*
X142018695Y-76558760D01*
X141998320Y-76572374D01*
X141980993Y-76589701D01*
X141967380Y-76610076D01*
X141958002Y-76632715D01*
X141953222Y-76656748D01*
X141953222Y-76681253D01*
X141958003Y-76705286D01*
X141967380Y-76727925D01*
X141980994Y-76748300D01*
X141998321Y-76765627D01*
X142018696Y-76779240D01*
X142041335Y-76788618D01*
X142065367Y-76793398D01*
X142123911Y-76799164D01*
X142204212Y-76823523D01*
X142278218Y-76863080D01*
X142343085Y-76916315D01*
X142396320Y-76981182D01*
X142435877Y-77055188D01*
X142460236Y-77135489D01*
X142468461Y-77219000D01*
X142460236Y-77302511D01*
X142435877Y-77382812D01*
X142396320Y-77456818D01*
X142343085Y-77521685D01*
X142278218Y-77574920D01*
X142204212Y-77614477D01*
X142123911Y-77638836D01*
X142065367Y-77644602D01*
X142041334Y-77649383D01*
X142018695Y-77658760D01*
X141998320Y-77672374D01*
X141980993Y-77689701D01*
X141967380Y-77710076D01*
X141958002Y-77732715D01*
X141953222Y-77756748D01*
X141953222Y-77781253D01*
X141958003Y-77805286D01*
X141967380Y-77827925D01*
X141980994Y-77848300D01*
X141998321Y-77865627D01*
X142018696Y-77879240D01*
X142041335Y-77888618D01*
X142065367Y-77893398D01*
X142123911Y-77899164D01*
X142204212Y-77923523D01*
X142278218Y-77963080D01*
X142343085Y-78016315D01*
X142396320Y-78081182D01*
X142435877Y-78155188D01*
X142460236Y-78235489D01*
X142468461Y-78319000D01*
X142460236Y-78402511D01*
X142435877Y-78482812D01*
X142396320Y-78556818D01*
X142343085Y-78621685D01*
X142278218Y-78674920D01*
X142204212Y-78714477D01*
X142123911Y-78738836D01*
X142065367Y-78744602D01*
X142041334Y-78749383D01*
X142018695Y-78758760D01*
X141998320Y-78772374D01*
X141980993Y-78789701D01*
X141967380Y-78810076D01*
X141958002Y-78832715D01*
X141953222Y-78856748D01*
X141953222Y-78881253D01*
X141958003Y-78905286D01*
X141967380Y-78927925D01*
X141980994Y-78948300D01*
X141998321Y-78965627D01*
X142018696Y-78979240D01*
X142041335Y-78988618D01*
X142065367Y-78993398D01*
X142123911Y-78999164D01*
X142204212Y-79023523D01*
X142278218Y-79063080D01*
X142343085Y-79116315D01*
X142396320Y-79181182D01*
X142435877Y-79255188D01*
X142460236Y-79335489D01*
X142468461Y-79419000D01*
X142460236Y-79502511D01*
X142435877Y-79582812D01*
X142396320Y-79656818D01*
X142343085Y-79721685D01*
X142278218Y-79774920D01*
X142204212Y-79814477D01*
X142123911Y-79838836D01*
X142065367Y-79844602D01*
X142041334Y-79849383D01*
X142018695Y-79858760D01*
X141998320Y-79872374D01*
X141980993Y-79889701D01*
X141967380Y-79910076D01*
X141958002Y-79932715D01*
X141953222Y-79956748D01*
X141953222Y-79981253D01*
X141958003Y-80005286D01*
X141967380Y-80027925D01*
X141980994Y-80048300D01*
X141998321Y-80065627D01*
X142018696Y-80079240D01*
X142041335Y-80088618D01*
X142065367Y-80093398D01*
X142123911Y-80099164D01*
X142204212Y-80123523D01*
X142278218Y-80163080D01*
X142343085Y-80216315D01*
X142396320Y-80281182D01*
X142435877Y-80355188D01*
X142460236Y-80435489D01*
X142468461Y-80519000D01*
X142460236Y-80602511D01*
X142435877Y-80682812D01*
X142396320Y-80756818D01*
X142343085Y-80821685D01*
X142278218Y-80874920D01*
X142204212Y-80914477D01*
X142123911Y-80938836D01*
X142061326Y-80945000D01*
X140369474Y-80945000D01*
X140306889Y-80938836D01*
X140226588Y-80914477D01*
X140152582Y-80874920D01*
X140087715Y-80821685D01*
X140034480Y-80756818D01*
X139994923Y-80682812D01*
X139970564Y-80602511D01*
X139962339Y-80519000D01*
X139970564Y-80435489D01*
X139994923Y-80355188D01*
X140034480Y-80281182D01*
X140087715Y-80216315D01*
X140152582Y-80163080D01*
X140226588Y-80123523D01*
X140306889Y-80099164D01*
X140365433Y-80093398D01*
X140389466Y-80088617D01*
X140412105Y-80079240D01*
X140432480Y-80065626D01*
X140449807Y-80048299D01*
X140463420Y-80027924D01*
X140472798Y-80005285D01*
X140477578Y-79981252D01*
X140477578Y-79956747D01*
X140472797Y-79932714D01*
X140463420Y-79910075D01*
X140449806Y-79889700D01*
X140432479Y-79872373D01*
X140412104Y-79858760D01*
X140389465Y-79849382D01*
X140365433Y-79844602D01*
X140306889Y-79838836D01*
X140226588Y-79814477D01*
X140152582Y-79774920D01*
X140087715Y-79721685D01*
X140034480Y-79656818D01*
X139994923Y-79582812D01*
X139970564Y-79502511D01*
X139962339Y-79419000D01*
X139970564Y-79335489D01*
X139994923Y-79255188D01*
X140034480Y-79181182D01*
X140087715Y-79116315D01*
X140152582Y-79063080D01*
X140226588Y-79023523D01*
X140306889Y-78999164D01*
X140365433Y-78993398D01*
X140389466Y-78988617D01*
X140412105Y-78979240D01*
X140432480Y-78965626D01*
X140449807Y-78948299D01*
X140463420Y-78927924D01*
X140472798Y-78905285D01*
X140477578Y-78881252D01*
X140477578Y-78856747D01*
X140472797Y-78832714D01*
X140463420Y-78810075D01*
X140449806Y-78789700D01*
X140432479Y-78772373D01*
X140412104Y-78758760D01*
X140389465Y-78749382D01*
X140365433Y-78744602D01*
X140306889Y-78738836D01*
X140226588Y-78714477D01*
X140152582Y-78674920D01*
X140087715Y-78621685D01*
X140034480Y-78556818D01*
X139994923Y-78482812D01*
X139970564Y-78402511D01*
X139962339Y-78319000D01*
X139970564Y-78235489D01*
X139994923Y-78155188D01*
X140034480Y-78081182D01*
X140087715Y-78016315D01*
X140152582Y-77963080D01*
X140226588Y-77923523D01*
X140306889Y-77899164D01*
X140365433Y-77893398D01*
X140389466Y-77888617D01*
X140412105Y-77879240D01*
X140432480Y-77865626D01*
X140449807Y-77848299D01*
X140463420Y-77827924D01*
X140472798Y-77805285D01*
X140477578Y-77781252D01*
X140477578Y-77756747D01*
X140472797Y-77732714D01*
X140463420Y-77710075D01*
X140449806Y-77689700D01*
X140432479Y-77672373D01*
X140412104Y-77658760D01*
X140389465Y-77649382D01*
X140365433Y-77644602D01*
X140306889Y-77638836D01*
X140226588Y-77614477D01*
X140152582Y-77574920D01*
X140087715Y-77521685D01*
X140034480Y-77456818D01*
X139994923Y-77382812D01*
X139970564Y-77302511D01*
X139962339Y-77219000D01*
X139970564Y-77135489D01*
X139994923Y-77055188D01*
X140034480Y-76981182D01*
X140087715Y-76916315D01*
X140152582Y-76863080D01*
X140226588Y-76823523D01*
X140306889Y-76799164D01*
X140365433Y-76793398D01*
X140389466Y-76788617D01*
X140412105Y-76779240D01*
X140432480Y-76765626D01*
X140449807Y-76748299D01*
X140463420Y-76727924D01*
X140472798Y-76705285D01*
X140477578Y-76681252D01*
X140477578Y-76656747D01*
X140472797Y-76632714D01*
X140463420Y-76610075D01*
X140449806Y-76589700D01*
X140432479Y-76572373D01*
X140412104Y-76558760D01*
X140389465Y-76549382D01*
X140365433Y-76544602D01*
X140306889Y-76538836D01*
X140226588Y-76514477D01*
X140152582Y-76474920D01*
X140087715Y-76421685D01*
X140034480Y-76356818D01*
X139994923Y-76282812D01*
X139970564Y-76202511D01*
X139962339Y-76119000D01*
X139970564Y-76035489D01*
X139994923Y-75955188D01*
X140034480Y-75881182D01*
X140087715Y-75816315D01*
X140152582Y-75763080D01*
X140226588Y-75723523D01*
X140306889Y-75699164D01*
X140369474Y-75693000D01*
X142061326Y-75693000D01*
X142123911Y-75699164D01*
X142123911Y-75699164D01*
G37*
G36*
X118823911Y-75699164D02*
X118904212Y-75723523D01*
X118978218Y-75763080D01*
X119043085Y-75816315D01*
X119096320Y-75881182D01*
X119135877Y-75955188D01*
X119160236Y-76035489D01*
X119168461Y-76119000D01*
X119160236Y-76202511D01*
X119135877Y-76282812D01*
X119096320Y-76356818D01*
X119043085Y-76421685D01*
X118978218Y-76474920D01*
X118904212Y-76514477D01*
X118823911Y-76538836D01*
X118765367Y-76544602D01*
X118741334Y-76549383D01*
X118718695Y-76558760D01*
X118698320Y-76572374D01*
X118680993Y-76589701D01*
X118667380Y-76610076D01*
X118658002Y-76632715D01*
X118653222Y-76656748D01*
X118653222Y-76681253D01*
X118658003Y-76705286D01*
X118667380Y-76727925D01*
X118680994Y-76748300D01*
X118698321Y-76765627D01*
X118718696Y-76779240D01*
X118741335Y-76788618D01*
X118765367Y-76793398D01*
X118823911Y-76799164D01*
X118904212Y-76823523D01*
X118978218Y-76863080D01*
X119043085Y-76916315D01*
X119096320Y-76981182D01*
X119135877Y-77055188D01*
X119160236Y-77135489D01*
X119168461Y-77219000D01*
X119160236Y-77302511D01*
X119135877Y-77382812D01*
X119096320Y-77456818D01*
X119043085Y-77521685D01*
X118978218Y-77574920D01*
X118904212Y-77614477D01*
X118823911Y-77638836D01*
X118765367Y-77644602D01*
X118741334Y-77649383D01*
X118718695Y-77658760D01*
X118698320Y-77672374D01*
X118680993Y-77689701D01*
X118667380Y-77710076D01*
X118658002Y-77732715D01*
X118653222Y-77756748D01*
X118653222Y-77781253D01*
X118658003Y-77805286D01*
X118667380Y-77827925D01*
X118680994Y-77848300D01*
X118698321Y-77865627D01*
X118718696Y-77879240D01*
X118741335Y-77888618D01*
X118765367Y-77893398D01*
X118823911Y-77899164D01*
X118904212Y-77923523D01*
X118978218Y-77963080D01*
X119043085Y-78016315D01*
X119096320Y-78081182D01*
X119135877Y-78155188D01*
X119160236Y-78235489D01*
X119168461Y-78319000D01*
X119160236Y-78402511D01*
X119135877Y-78482812D01*
X119096320Y-78556818D01*
X119043085Y-78621685D01*
X118978218Y-78674920D01*
X118904212Y-78714477D01*
X118823911Y-78738836D01*
X118765367Y-78744602D01*
X118741334Y-78749383D01*
X118718695Y-78758760D01*
X118698320Y-78772374D01*
X118680993Y-78789701D01*
X118667380Y-78810076D01*
X118658002Y-78832715D01*
X118653222Y-78856748D01*
X118653222Y-78881253D01*
X118658003Y-78905286D01*
X118667380Y-78927925D01*
X118680994Y-78948300D01*
X118698321Y-78965627D01*
X118718696Y-78979240D01*
X118741335Y-78988618D01*
X118765367Y-78993398D01*
X118823911Y-78999164D01*
X118904212Y-79023523D01*
X118978218Y-79063080D01*
X119043085Y-79116315D01*
X119096320Y-79181182D01*
X119135877Y-79255188D01*
X119160236Y-79335489D01*
X119168461Y-79419000D01*
X119160236Y-79502511D01*
X119135877Y-79582812D01*
X119096320Y-79656818D01*
X119043085Y-79721685D01*
X118978218Y-79774920D01*
X118904212Y-79814477D01*
X118823911Y-79838836D01*
X118765367Y-79844602D01*
X118741334Y-79849383D01*
X118718695Y-79858760D01*
X118698320Y-79872374D01*
X118680993Y-79889701D01*
X118667380Y-79910076D01*
X118658002Y-79932715D01*
X118653222Y-79956748D01*
X118653222Y-79981253D01*
X118658003Y-80005286D01*
X118667380Y-80027925D01*
X118680994Y-80048300D01*
X118698321Y-80065627D01*
X118718696Y-80079240D01*
X118741335Y-80088618D01*
X118765367Y-80093398D01*
X118823911Y-80099164D01*
X118904212Y-80123523D01*
X118978218Y-80163080D01*
X119043085Y-80216315D01*
X119096320Y-80281182D01*
X119135877Y-80355188D01*
X119160236Y-80435489D01*
X119168461Y-80519000D01*
X119160236Y-80602511D01*
X119135877Y-80682812D01*
X119096320Y-80756818D01*
X119043085Y-80821685D01*
X118978218Y-80874920D01*
X118904212Y-80914477D01*
X118823911Y-80938836D01*
X118761326Y-80945000D01*
X117069474Y-80945000D01*
X117006889Y-80938836D01*
X116926588Y-80914477D01*
X116852582Y-80874920D01*
X116787715Y-80821685D01*
X116734480Y-80756818D01*
X116694923Y-80682812D01*
X116670564Y-80602511D01*
X116662339Y-80519000D01*
X116670564Y-80435489D01*
X116694923Y-80355188D01*
X116734480Y-80281182D01*
X116787715Y-80216315D01*
X116852582Y-80163080D01*
X116926588Y-80123523D01*
X117006889Y-80099164D01*
X117065433Y-80093398D01*
X117089466Y-80088617D01*
X117112105Y-80079240D01*
X117132480Y-80065626D01*
X117149807Y-80048299D01*
X117163420Y-80027924D01*
X117172798Y-80005285D01*
X117177578Y-79981252D01*
X117177578Y-79956747D01*
X117172797Y-79932714D01*
X117163420Y-79910075D01*
X117149806Y-79889700D01*
X117132479Y-79872373D01*
X117112104Y-79858760D01*
X117089465Y-79849382D01*
X117065433Y-79844602D01*
X117006889Y-79838836D01*
X116926588Y-79814477D01*
X116852582Y-79774920D01*
X116787715Y-79721685D01*
X116734480Y-79656818D01*
X116694923Y-79582812D01*
X116670564Y-79502511D01*
X116662339Y-79419000D01*
X116670564Y-79335489D01*
X116694923Y-79255188D01*
X116734480Y-79181182D01*
X116787715Y-79116315D01*
X116852582Y-79063080D01*
X116926588Y-79023523D01*
X117006889Y-78999164D01*
X117065433Y-78993398D01*
X117089466Y-78988617D01*
X117112105Y-78979240D01*
X117132480Y-78965626D01*
X117149807Y-78948299D01*
X117163420Y-78927924D01*
X117172798Y-78905285D01*
X117177578Y-78881252D01*
X117177578Y-78856747D01*
X117172797Y-78832714D01*
X117163420Y-78810075D01*
X117149806Y-78789700D01*
X117132479Y-78772373D01*
X117112104Y-78758760D01*
X117089465Y-78749382D01*
X117065433Y-78744602D01*
X117006889Y-78738836D01*
X116926588Y-78714477D01*
X116852582Y-78674920D01*
X116787715Y-78621685D01*
X116734480Y-78556818D01*
X116694923Y-78482812D01*
X116670564Y-78402511D01*
X116662339Y-78319000D01*
X116670564Y-78235489D01*
X116694923Y-78155188D01*
X116734480Y-78081182D01*
X116787715Y-78016315D01*
X116852582Y-77963080D01*
X116926588Y-77923523D01*
X117006889Y-77899164D01*
X117065433Y-77893398D01*
X117089466Y-77888617D01*
X117112105Y-77879240D01*
X117132480Y-77865626D01*
X117149807Y-77848299D01*
X117163420Y-77827924D01*
X117172798Y-77805285D01*
X117177578Y-77781252D01*
X117177578Y-77756747D01*
X117172797Y-77732714D01*
X117163420Y-77710075D01*
X117149806Y-77689700D01*
X117132479Y-77672373D01*
X117112104Y-77658760D01*
X117089465Y-77649382D01*
X117065433Y-77644602D01*
X117006889Y-77638836D01*
X116926588Y-77614477D01*
X116852582Y-77574920D01*
X116787715Y-77521685D01*
X116734480Y-77456818D01*
X116694923Y-77382812D01*
X116670564Y-77302511D01*
X116662339Y-77219000D01*
X116670564Y-77135489D01*
X116694923Y-77055188D01*
X116734480Y-76981182D01*
X116787715Y-76916315D01*
X116852582Y-76863080D01*
X116926588Y-76823523D01*
X117006889Y-76799164D01*
X117065433Y-76793398D01*
X117089466Y-76788617D01*
X117112105Y-76779240D01*
X117132480Y-76765626D01*
X117149807Y-76748299D01*
X117163420Y-76727924D01*
X117172798Y-76705285D01*
X117177578Y-76681252D01*
X117177578Y-76656747D01*
X117172797Y-76632714D01*
X117163420Y-76610075D01*
X117149806Y-76589700D01*
X117132479Y-76572373D01*
X117112104Y-76558760D01*
X117089465Y-76549382D01*
X117065433Y-76544602D01*
X117006889Y-76538836D01*
X116926588Y-76514477D01*
X116852582Y-76474920D01*
X116787715Y-76421685D01*
X116734480Y-76356818D01*
X116694923Y-76282812D01*
X116670564Y-76202511D01*
X116662339Y-76119000D01*
X116670564Y-76035489D01*
X116694923Y-75955188D01*
X116734480Y-75881182D01*
X116787715Y-75816315D01*
X116852582Y-75763080D01*
X116926588Y-75723523D01*
X117006889Y-75699164D01*
X117069474Y-75693000D01*
X118761326Y-75693000D01*
X118823911Y-75699164D01*
X118823911Y-75699164D01*
G37*
G36*
X157774877Y-78323665D02*
X157812564Y-78335098D01*
X157847303Y-78353666D01*
X157877748Y-78378652D01*
X157902734Y-78409097D01*
X157921302Y-78443836D01*
X157932735Y-78481523D01*
X157937200Y-78526861D01*
X157937200Y-79613539D01*
X157932735Y-79658877D01*
X157921302Y-79696564D01*
X157902734Y-79731303D01*
X157877748Y-79761748D01*
X157847303Y-79786734D01*
X157812564Y-79805302D01*
X157774877Y-79816735D01*
X157729539Y-79821200D01*
X156892861Y-79821200D01*
X156847523Y-79816735D01*
X156809836Y-79805302D01*
X156775097Y-79786734D01*
X156744652Y-79761748D01*
X156719666Y-79731303D01*
X156701098Y-79696564D01*
X156689665Y-79658877D01*
X156685200Y-79613539D01*
X156685200Y-78526861D01*
X156689665Y-78481523D01*
X156701098Y-78443836D01*
X156719666Y-78409097D01*
X156744652Y-78378652D01*
X156775097Y-78353666D01*
X156809836Y-78335098D01*
X156847523Y-78323665D01*
X156892861Y-78319200D01*
X157729539Y-78319200D01*
X157774877Y-78323665D01*
X157774877Y-78323665D01*
G37*
G36*
X155724877Y-78323665D02*
X155762564Y-78335098D01*
X155797303Y-78353666D01*
X155827748Y-78378652D01*
X155852734Y-78409097D01*
X155871302Y-78443836D01*
X155882735Y-78481523D01*
X155887200Y-78526861D01*
X155887200Y-79613539D01*
X155882735Y-79658877D01*
X155871302Y-79696564D01*
X155852734Y-79731303D01*
X155827748Y-79761748D01*
X155797303Y-79786734D01*
X155762564Y-79805302D01*
X155724877Y-79816735D01*
X155679539Y-79821200D01*
X154842861Y-79821200D01*
X154797523Y-79816735D01*
X154759836Y-79805302D01*
X154725097Y-79786734D01*
X154694652Y-79761748D01*
X154669666Y-79731303D01*
X154651098Y-79696564D01*
X154639665Y-79658877D01*
X154635200Y-79613539D01*
X154635200Y-78526861D01*
X154639665Y-78481523D01*
X154651098Y-78443836D01*
X154669666Y-78409097D01*
X154694652Y-78378652D01*
X154725097Y-78353666D01*
X154759836Y-78335098D01*
X154797523Y-78323665D01*
X154842861Y-78319200D01*
X155679539Y-78319200D01*
X155724877Y-78323665D01*
X155724877Y-78323665D01*
G37*
G36*
X107557597Y-77793847D02*
X107593167Y-77804637D01*
X107625939Y-77822154D01*
X107654669Y-77845731D01*
X107678246Y-77874461D01*
X107695763Y-77907233D01*
X107706553Y-77942803D01*
X107710800Y-77985924D01*
X107710800Y-79270276D01*
X107706553Y-79313397D01*
X107695763Y-79348967D01*
X107678246Y-79381739D01*
X107654669Y-79410469D01*
X107625939Y-79434046D01*
X107593167Y-79451563D01*
X107557597Y-79462353D01*
X107514476Y-79466600D01*
X106455124Y-79466600D01*
X106412003Y-79462353D01*
X106376433Y-79451563D01*
X106343661Y-79434046D01*
X106314931Y-79410469D01*
X106291354Y-79381739D01*
X106273837Y-79348967D01*
X106263047Y-79313397D01*
X106258800Y-79270276D01*
X106258800Y-77985924D01*
X106263047Y-77942803D01*
X106273837Y-77907233D01*
X106291354Y-77874461D01*
X106314931Y-77845731D01*
X106343661Y-77822154D01*
X106376433Y-77804637D01*
X106412003Y-77793847D01*
X106455124Y-77789600D01*
X107514476Y-77789600D01*
X107557597Y-77793847D01*
X107557597Y-77793847D01*
G37*
G36*
X146979877Y-77739465D02*
X147017564Y-77750898D01*
X147052303Y-77769466D01*
X147082748Y-77794452D01*
X147107734Y-77824897D01*
X147126302Y-77859636D01*
X147137735Y-77897323D01*
X147142200Y-77942661D01*
X147142200Y-79029339D01*
X147137735Y-79074677D01*
X147126302Y-79112364D01*
X147107734Y-79147103D01*
X147082748Y-79177548D01*
X147052303Y-79202534D01*
X147017564Y-79221102D01*
X146979877Y-79232535D01*
X146934539Y-79237000D01*
X146097861Y-79237000D01*
X146052523Y-79232535D01*
X146014836Y-79221102D01*
X145980097Y-79202534D01*
X145949652Y-79177548D01*
X145924666Y-79147103D01*
X145906098Y-79112364D01*
X145894665Y-79074677D01*
X145890200Y-79029339D01*
X145890200Y-77942661D01*
X145894665Y-77897323D01*
X145906098Y-77859636D01*
X145924666Y-77824897D01*
X145949652Y-77794452D01*
X145980097Y-77769466D01*
X146014836Y-77750898D01*
X146052523Y-77739465D01*
X146097861Y-77735000D01*
X146934539Y-77735000D01*
X146979877Y-77739465D01*
X146979877Y-77739465D01*
G37*
G36*
X144929877Y-77739465D02*
X144967564Y-77750898D01*
X145002303Y-77769466D01*
X145032748Y-77794452D01*
X145057734Y-77824897D01*
X145076302Y-77859636D01*
X145087735Y-77897323D01*
X145092200Y-77942661D01*
X145092200Y-79029339D01*
X145087735Y-79074677D01*
X145076302Y-79112364D01*
X145057734Y-79147103D01*
X145032748Y-79177548D01*
X145002303Y-79202534D01*
X144967564Y-79221102D01*
X144929877Y-79232535D01*
X144884539Y-79237000D01*
X144047861Y-79237000D01*
X144002523Y-79232535D01*
X143964836Y-79221102D01*
X143930097Y-79202534D01*
X143899652Y-79177548D01*
X143874666Y-79147103D01*
X143856098Y-79112364D01*
X143844665Y-79074677D01*
X143840200Y-79029339D01*
X143840200Y-77942661D01*
X143844665Y-77897323D01*
X143856098Y-77859636D01*
X143874666Y-77824897D01*
X143899652Y-77794452D01*
X143930097Y-77769466D01*
X143964836Y-77750898D01*
X144002523Y-77739465D01*
X144047861Y-77735000D01*
X144884539Y-77735000D01*
X144929877Y-77739465D01*
X144929877Y-77739465D01*
G37*
G36*
X113085277Y-77966065D02*
X113122964Y-77977498D01*
X113157703Y-77996066D01*
X113188148Y-78021052D01*
X113213134Y-78051497D01*
X113231702Y-78086236D01*
X113243135Y-78123923D01*
X113247600Y-78169261D01*
X113247600Y-79005939D01*
X113243135Y-79051277D01*
X113231702Y-79088964D01*
X113213134Y-79123703D01*
X113188148Y-79154148D01*
X113157703Y-79179134D01*
X113122964Y-79197702D01*
X113085277Y-79209135D01*
X113039939Y-79213600D01*
X111953261Y-79213600D01*
X111907923Y-79209135D01*
X111870236Y-79197702D01*
X111835497Y-79179134D01*
X111805052Y-79154148D01*
X111780066Y-79123703D01*
X111761498Y-79088964D01*
X111750065Y-79051277D01*
X111745600Y-79005939D01*
X111745600Y-78169261D01*
X111750065Y-78123923D01*
X111761498Y-78086236D01*
X111780066Y-78051497D01*
X111805052Y-78021052D01*
X111835497Y-77996066D01*
X111870236Y-77977498D01*
X111907923Y-77966065D01*
X111953261Y-77961600D01*
X113039939Y-77961600D01*
X113085277Y-77966065D01*
X113085277Y-77966065D01*
G37*
G36*
X111027877Y-77966065D02*
X111065564Y-77977498D01*
X111100303Y-77996066D01*
X111130748Y-78021052D01*
X111155734Y-78051497D01*
X111174302Y-78086236D01*
X111185735Y-78123923D01*
X111190200Y-78169261D01*
X111190200Y-79005939D01*
X111185735Y-79051277D01*
X111174302Y-79088964D01*
X111155734Y-79123703D01*
X111130748Y-79154148D01*
X111100303Y-79179134D01*
X111065564Y-79197702D01*
X111027877Y-79209135D01*
X110982539Y-79213600D01*
X109895861Y-79213600D01*
X109850523Y-79209135D01*
X109812836Y-79197702D01*
X109778097Y-79179134D01*
X109747652Y-79154148D01*
X109722666Y-79123703D01*
X109704098Y-79088964D01*
X109692665Y-79051277D01*
X109688200Y-79005939D01*
X109688200Y-78169261D01*
X109692665Y-78123923D01*
X109704098Y-78086236D01*
X109722666Y-78051497D01*
X109747652Y-78021052D01*
X109778097Y-77996066D01*
X109812836Y-77977498D01*
X109850523Y-77966065D01*
X109895861Y-77961600D01*
X110982539Y-77961600D01*
X111027877Y-77966065D01*
X111027877Y-77966065D01*
G37*
G36*
X115142677Y-77949665D02*
X115180364Y-77961098D01*
X115215103Y-77979666D01*
X115245548Y-78004652D01*
X115270534Y-78035097D01*
X115289102Y-78069836D01*
X115300535Y-78107523D01*
X115305000Y-78152861D01*
X115305000Y-78989539D01*
X115300535Y-79034877D01*
X115289102Y-79072564D01*
X115270534Y-79107303D01*
X115245548Y-79137748D01*
X115215103Y-79162734D01*
X115180364Y-79181302D01*
X115142677Y-79192735D01*
X115097339Y-79197200D01*
X114010661Y-79197200D01*
X113965323Y-79192735D01*
X113927636Y-79181302D01*
X113892897Y-79162734D01*
X113862452Y-79137748D01*
X113837466Y-79107303D01*
X113818898Y-79072564D01*
X113807465Y-79034877D01*
X113803000Y-78989539D01*
X113803000Y-78152861D01*
X113807465Y-78107523D01*
X113818898Y-78069836D01*
X113837466Y-78035097D01*
X113862452Y-78004652D01*
X113892897Y-77979666D01*
X113927636Y-77961098D01*
X113965323Y-77949665D01*
X114010661Y-77945200D01*
X115097339Y-77945200D01*
X115142677Y-77949665D01*
X115142677Y-77949665D01*
G37*
G36*
X101075442Y-76854918D02*
X101141627Y-76861437D01*
X101240491Y-76891427D01*
X101311467Y-76912957D01*
X101391879Y-76955939D01*
X101467991Y-76996622D01*
X101486221Y-77011583D01*
X101605186Y-77109214D01*
X101649902Y-77163702D01*
X101717778Y-77246409D01*
X101717779Y-77246411D01*
X101801443Y-77402933D01*
X101801443Y-77402934D01*
X101852963Y-77572773D01*
X101870359Y-77749400D01*
X101852963Y-77926027D01*
X101822965Y-78024918D01*
X101801443Y-78095867D01*
X101751968Y-78188427D01*
X101717778Y-78252391D01*
X101717328Y-78252939D01*
X101605186Y-78389586D01*
X101518654Y-78460600D01*
X101467991Y-78502178D01*
X101467989Y-78502179D01*
X101311467Y-78585843D01*
X101254853Y-78603016D01*
X101141627Y-78637363D01*
X101077011Y-78643727D01*
X101009260Y-78650400D01*
X100920740Y-78650400D01*
X100852989Y-78643727D01*
X100788373Y-78637363D01*
X100675147Y-78603016D01*
X100618533Y-78585843D01*
X100462011Y-78502179D01*
X100462009Y-78502178D01*
X100411346Y-78460600D01*
X100324814Y-78389586D01*
X100212672Y-78252939D01*
X100212222Y-78252391D01*
X100178032Y-78188427D01*
X100128557Y-78095867D01*
X100107035Y-78024918D01*
X100077037Y-77926027D01*
X100059641Y-77749400D01*
X100077037Y-77572773D01*
X100128557Y-77402934D01*
X100128557Y-77402933D01*
X100212221Y-77246411D01*
X100212222Y-77246409D01*
X100280098Y-77163702D01*
X100324814Y-77109214D01*
X100443779Y-77011583D01*
X100462009Y-76996622D01*
X100538121Y-76955939D01*
X100618533Y-76912957D01*
X100689509Y-76891427D01*
X100788373Y-76861437D01*
X100854558Y-76854918D01*
X100920740Y-76848400D01*
X101009260Y-76848400D01*
X101075442Y-76854918D01*
X101075442Y-76854918D01*
G37*
G36*
X104500077Y-77213065D02*
X104537764Y-77224498D01*
X104572503Y-77243066D01*
X104602948Y-77268052D01*
X104627934Y-77298497D01*
X104646502Y-77333236D01*
X104657935Y-77370923D01*
X104662400Y-77416261D01*
X104662400Y-78252939D01*
X104657935Y-78298277D01*
X104646502Y-78335964D01*
X104627934Y-78370703D01*
X104602948Y-78401148D01*
X104572503Y-78426134D01*
X104537764Y-78444702D01*
X104500077Y-78456135D01*
X104454739Y-78460600D01*
X103368061Y-78460600D01*
X103322723Y-78456135D01*
X103285036Y-78444702D01*
X103250297Y-78426134D01*
X103219852Y-78401148D01*
X103194866Y-78370703D01*
X103176298Y-78335964D01*
X103164865Y-78298277D01*
X103160400Y-78252939D01*
X103160400Y-77416261D01*
X103164865Y-77370923D01*
X103176298Y-77333236D01*
X103194866Y-77298497D01*
X103219852Y-77268052D01*
X103250297Y-77243066D01*
X103285036Y-77224498D01*
X103322723Y-77213065D01*
X103368061Y-77208600D01*
X104454739Y-77208600D01*
X104500077Y-77213065D01*
X104500077Y-77213065D01*
G37*
G36*
X155133277Y-76317065D02*
X155170964Y-76328498D01*
X155205703Y-76347066D01*
X155236148Y-76372052D01*
X155261134Y-76402497D01*
X155279702Y-76437236D01*
X155291135Y-76474923D01*
X155295600Y-76520261D01*
X155295600Y-77606939D01*
X155291135Y-77652277D01*
X155279702Y-77689964D01*
X155261134Y-77724703D01*
X155236148Y-77755148D01*
X155205703Y-77780134D01*
X155170964Y-77798702D01*
X155133277Y-77810135D01*
X155087939Y-77814600D01*
X154251261Y-77814600D01*
X154205923Y-77810135D01*
X154168236Y-77798702D01*
X154133497Y-77780134D01*
X154103052Y-77755148D01*
X154078066Y-77724703D01*
X154059498Y-77689964D01*
X154048065Y-77652277D01*
X154043600Y-77606939D01*
X154043600Y-76520261D01*
X154048065Y-76474923D01*
X154059498Y-76437236D01*
X154078066Y-76402497D01*
X154103052Y-76372052D01*
X154133497Y-76347066D01*
X154168236Y-76328498D01*
X154205923Y-76317065D01*
X154251261Y-76312600D01*
X155087939Y-76312600D01*
X155133277Y-76317065D01*
X155133277Y-76317065D01*
G37*
G36*
X153083277Y-76317065D02*
X153120964Y-76328498D01*
X153155703Y-76347066D01*
X153186148Y-76372052D01*
X153211134Y-76402497D01*
X153229702Y-76437236D01*
X153241135Y-76474923D01*
X153245600Y-76520261D01*
X153245600Y-77606939D01*
X153241135Y-77652277D01*
X153229702Y-77689964D01*
X153211134Y-77724703D01*
X153186148Y-77755148D01*
X153155703Y-77780134D01*
X153120964Y-77798702D01*
X153083277Y-77810135D01*
X153037939Y-77814600D01*
X152201261Y-77814600D01*
X152155923Y-77810135D01*
X152118236Y-77798702D01*
X152083497Y-77780134D01*
X152053052Y-77755148D01*
X152028066Y-77724703D01*
X152009498Y-77689964D01*
X151998065Y-77652277D01*
X151993600Y-77606939D01*
X151993600Y-76520261D01*
X151998065Y-76474923D01*
X152009498Y-76437236D01*
X152028066Y-76402497D01*
X152053052Y-76372052D01*
X152083497Y-76347066D01*
X152118236Y-76328498D01*
X152155923Y-76317065D01*
X152201261Y-76312600D01*
X153037939Y-76312600D01*
X153083277Y-76317065D01*
X153083277Y-76317065D01*
G37*
G36*
X146979877Y-75682065D02*
X147017564Y-75693498D01*
X147052303Y-75712066D01*
X147082748Y-75737052D01*
X147107734Y-75767497D01*
X147126302Y-75802236D01*
X147137735Y-75839923D01*
X147142200Y-75885261D01*
X147142200Y-76971939D01*
X147137735Y-77017277D01*
X147126302Y-77054964D01*
X147107734Y-77089703D01*
X147082748Y-77120148D01*
X147052303Y-77145134D01*
X147017564Y-77163702D01*
X146979877Y-77175135D01*
X146934539Y-77179600D01*
X146097861Y-77179600D01*
X146052523Y-77175135D01*
X146014836Y-77163702D01*
X145980097Y-77145134D01*
X145949652Y-77120148D01*
X145924666Y-77089703D01*
X145906098Y-77054964D01*
X145894665Y-77017277D01*
X145890200Y-76971939D01*
X145890200Y-75885261D01*
X145894665Y-75839923D01*
X145906098Y-75802236D01*
X145924666Y-75767497D01*
X145949652Y-75737052D01*
X145980097Y-75712066D01*
X146014836Y-75693498D01*
X146052523Y-75682065D01*
X146097861Y-75677600D01*
X146934539Y-75677600D01*
X146979877Y-75682065D01*
X146979877Y-75682065D01*
G37*
G36*
X144929877Y-75682065D02*
X144967564Y-75693498D01*
X145002303Y-75712066D01*
X145032748Y-75737052D01*
X145057734Y-75767497D01*
X145076302Y-75802236D01*
X145087735Y-75839923D01*
X145092200Y-75885261D01*
X145092200Y-76971939D01*
X145087735Y-77017277D01*
X145076302Y-77054964D01*
X145057734Y-77089703D01*
X145032748Y-77120148D01*
X145002303Y-77145134D01*
X144967564Y-77163702D01*
X144929877Y-77175135D01*
X144884539Y-77179600D01*
X144047861Y-77179600D01*
X144002523Y-77175135D01*
X143964836Y-77163702D01*
X143930097Y-77145134D01*
X143899652Y-77120148D01*
X143874666Y-77089703D01*
X143856098Y-77054964D01*
X143844665Y-77017277D01*
X143840200Y-76971939D01*
X143840200Y-75885261D01*
X143844665Y-75839923D01*
X143856098Y-75802236D01*
X143874666Y-75767497D01*
X143899652Y-75737052D01*
X143930097Y-75712066D01*
X143964836Y-75693498D01*
X144002523Y-75682065D01*
X144047861Y-75677600D01*
X144884539Y-75677600D01*
X144929877Y-75682065D01*
X144929877Y-75682065D01*
G37*
G36*
X111027877Y-75916065D02*
X111065564Y-75927498D01*
X111100303Y-75946066D01*
X111130748Y-75971052D01*
X111155734Y-76001497D01*
X111174302Y-76036236D01*
X111185735Y-76073923D01*
X111190200Y-76119261D01*
X111190200Y-76955939D01*
X111185735Y-77001277D01*
X111174302Y-77038964D01*
X111155734Y-77073703D01*
X111130748Y-77104148D01*
X111100303Y-77129134D01*
X111065564Y-77147702D01*
X111027877Y-77159135D01*
X110982539Y-77163600D01*
X109895861Y-77163600D01*
X109850523Y-77159135D01*
X109812836Y-77147702D01*
X109778097Y-77129134D01*
X109747652Y-77104148D01*
X109722666Y-77073703D01*
X109704098Y-77038964D01*
X109692665Y-77001277D01*
X109688200Y-76955939D01*
X109688200Y-76119261D01*
X109692665Y-76073923D01*
X109704098Y-76036236D01*
X109722666Y-76001497D01*
X109747652Y-75971052D01*
X109778097Y-75946066D01*
X109812836Y-75927498D01*
X109850523Y-75916065D01*
X109895861Y-75911600D01*
X110982539Y-75911600D01*
X111027877Y-75916065D01*
X111027877Y-75916065D01*
G37*
G36*
X113085277Y-75916065D02*
X113122964Y-75927498D01*
X113157703Y-75946066D01*
X113188148Y-75971052D01*
X113213134Y-76001497D01*
X113231702Y-76036236D01*
X113243135Y-76073923D01*
X113247600Y-76119261D01*
X113247600Y-76955939D01*
X113243135Y-77001277D01*
X113231702Y-77038964D01*
X113213134Y-77073703D01*
X113188148Y-77104148D01*
X113157703Y-77129134D01*
X113122964Y-77147702D01*
X113085277Y-77159135D01*
X113039939Y-77163600D01*
X111953261Y-77163600D01*
X111907923Y-77159135D01*
X111870236Y-77147702D01*
X111835497Y-77129134D01*
X111805052Y-77104148D01*
X111780066Y-77073703D01*
X111761498Y-77038964D01*
X111750065Y-77001277D01*
X111745600Y-76955939D01*
X111745600Y-76119261D01*
X111750065Y-76073923D01*
X111761498Y-76036236D01*
X111780066Y-76001497D01*
X111805052Y-75971052D01*
X111835497Y-75946066D01*
X111870236Y-75927498D01*
X111907923Y-75916065D01*
X111953261Y-75911600D01*
X113039939Y-75911600D01*
X113085277Y-75916065D01*
X113085277Y-75916065D01*
G37*
G36*
X115142677Y-75899665D02*
X115180364Y-75911098D01*
X115215103Y-75929666D01*
X115245548Y-75954652D01*
X115270534Y-75985097D01*
X115289102Y-76019836D01*
X115300535Y-76057523D01*
X115305000Y-76102861D01*
X115305000Y-76939539D01*
X115300535Y-76984877D01*
X115289102Y-77022564D01*
X115270534Y-77057303D01*
X115245548Y-77087748D01*
X115215103Y-77112734D01*
X115180364Y-77131302D01*
X115142677Y-77142735D01*
X115097339Y-77147200D01*
X114010661Y-77147200D01*
X113965323Y-77142735D01*
X113927636Y-77131302D01*
X113892897Y-77112734D01*
X113862452Y-77087748D01*
X113837466Y-77057303D01*
X113818898Y-77022564D01*
X113807465Y-76984877D01*
X113803000Y-76939539D01*
X113803000Y-76102861D01*
X113807465Y-76057523D01*
X113818898Y-76019836D01*
X113837466Y-75985097D01*
X113862452Y-75954652D01*
X113892897Y-75929666D01*
X113927636Y-75911098D01*
X113965323Y-75899665D01*
X114010661Y-75895200D01*
X115097339Y-75895200D01*
X115142677Y-75899665D01*
X115142677Y-75899665D01*
G37*
G36*
X151109077Y-75400665D02*
X151146764Y-75412098D01*
X151181503Y-75430666D01*
X151211948Y-75455652D01*
X151236934Y-75486097D01*
X151255502Y-75520836D01*
X151266935Y-75558523D01*
X151271400Y-75603861D01*
X151271400Y-76440539D01*
X151266935Y-76485877D01*
X151255502Y-76523564D01*
X151236934Y-76558303D01*
X151211948Y-76588748D01*
X151181503Y-76613734D01*
X151146764Y-76632302D01*
X151109077Y-76643735D01*
X151063739Y-76648200D01*
X149977061Y-76648200D01*
X149931723Y-76643735D01*
X149894036Y-76632302D01*
X149859297Y-76613734D01*
X149828852Y-76588748D01*
X149803866Y-76558303D01*
X149785298Y-76523564D01*
X149773865Y-76485877D01*
X149769400Y-76440539D01*
X149769400Y-75603861D01*
X149773865Y-75558523D01*
X149785298Y-75520836D01*
X149803866Y-75486097D01*
X149828852Y-75455652D01*
X149859297Y-75430666D01*
X149894036Y-75412098D01*
X149931723Y-75400665D01*
X149977061Y-75396200D01*
X151063739Y-75396200D01*
X151109077Y-75400665D01*
X151109077Y-75400665D01*
G37*
G36*
X149026277Y-75349865D02*
X149063964Y-75361298D01*
X149098703Y-75379866D01*
X149129148Y-75404852D01*
X149154134Y-75435297D01*
X149172702Y-75470036D01*
X149184135Y-75507723D01*
X149188600Y-75553061D01*
X149188600Y-76389739D01*
X149184135Y-76435077D01*
X149172702Y-76472764D01*
X149154134Y-76507503D01*
X149129148Y-76537948D01*
X149098703Y-76562934D01*
X149063964Y-76581502D01*
X149026277Y-76592935D01*
X148980939Y-76597400D01*
X147894261Y-76597400D01*
X147848923Y-76592935D01*
X147811236Y-76581502D01*
X147776497Y-76562934D01*
X147746052Y-76537948D01*
X147721066Y-76507503D01*
X147702498Y-76472764D01*
X147691065Y-76435077D01*
X147686600Y-76389739D01*
X147686600Y-75553061D01*
X147691065Y-75507723D01*
X147702498Y-75470036D01*
X147721066Y-75435297D01*
X147746052Y-75404852D01*
X147776497Y-75379866D01*
X147811236Y-75361298D01*
X147848923Y-75349865D01*
X147894261Y-75345400D01*
X148980939Y-75345400D01*
X149026277Y-75349865D01*
X149026277Y-75349865D01*
G37*
G36*
X107557597Y-74918847D02*
X107593167Y-74929637D01*
X107625939Y-74947154D01*
X107654669Y-74970731D01*
X107678246Y-74999461D01*
X107695763Y-75032233D01*
X107706553Y-75067803D01*
X107710800Y-75110924D01*
X107710800Y-76395276D01*
X107706553Y-76438397D01*
X107695763Y-76473967D01*
X107678246Y-76506739D01*
X107654669Y-76535469D01*
X107625939Y-76559046D01*
X107593167Y-76576563D01*
X107557597Y-76587353D01*
X107514476Y-76591600D01*
X106455124Y-76591600D01*
X106412003Y-76587353D01*
X106376433Y-76576563D01*
X106343661Y-76559046D01*
X106314931Y-76535469D01*
X106291354Y-76506739D01*
X106273837Y-76473967D01*
X106263047Y-76438397D01*
X106258800Y-76395276D01*
X106258800Y-75110924D01*
X106263047Y-75067803D01*
X106273837Y-75032233D01*
X106291354Y-74999461D01*
X106314931Y-74970731D01*
X106343661Y-74947154D01*
X106376433Y-74929637D01*
X106412003Y-74918847D01*
X106455124Y-74914600D01*
X107514476Y-74914600D01*
X107557597Y-74918847D01*
X107557597Y-74918847D01*
G37*
G36*
X104500077Y-75163065D02*
X104537764Y-75174498D01*
X104572503Y-75193066D01*
X104602948Y-75218052D01*
X104627934Y-75248497D01*
X104646502Y-75283236D01*
X104657935Y-75320923D01*
X104662400Y-75366261D01*
X104662400Y-76202939D01*
X104657935Y-76248277D01*
X104646502Y-76285964D01*
X104627934Y-76320703D01*
X104602948Y-76351148D01*
X104572503Y-76376134D01*
X104537764Y-76394702D01*
X104500077Y-76406135D01*
X104454739Y-76410600D01*
X103368061Y-76410600D01*
X103322723Y-76406135D01*
X103285036Y-76394702D01*
X103250297Y-76376134D01*
X103219852Y-76351148D01*
X103194866Y-76320703D01*
X103176298Y-76285964D01*
X103164865Y-76248277D01*
X103160400Y-76202939D01*
X103160400Y-75366261D01*
X103164865Y-75320923D01*
X103176298Y-75283236D01*
X103194866Y-75248497D01*
X103219852Y-75218052D01*
X103250297Y-75193066D01*
X103285036Y-75174498D01*
X103322723Y-75163065D01*
X103368061Y-75158600D01*
X104454739Y-75158600D01*
X104500077Y-75163065D01*
X104500077Y-75163065D01*
G37*
G36*
X158102566Y-75267765D02*
X158141237Y-75279496D01*
X158176879Y-75298548D01*
X158208117Y-75324183D01*
X158233752Y-75355421D01*
X158252804Y-75391063D01*
X158264535Y-75429734D01*
X158269100Y-75476088D01*
X158269100Y-76127312D01*
X158264535Y-76173666D01*
X158252804Y-76212337D01*
X158233752Y-76247979D01*
X158208117Y-76279217D01*
X158176879Y-76304852D01*
X158141237Y-76323904D01*
X158102566Y-76335635D01*
X158056212Y-76340200D01*
X156979988Y-76340200D01*
X156933634Y-76335635D01*
X156894963Y-76323904D01*
X156859321Y-76304852D01*
X156828083Y-76279217D01*
X156802448Y-76247979D01*
X156783396Y-76212337D01*
X156771665Y-76173666D01*
X156767100Y-76127312D01*
X156767100Y-75476088D01*
X156771665Y-75429734D01*
X156783396Y-75391063D01*
X156802448Y-75355421D01*
X156828083Y-75324183D01*
X156859321Y-75298548D01*
X156894963Y-75279496D01*
X156933634Y-75267765D01*
X156979988Y-75263200D01*
X158056212Y-75263200D01*
X158102566Y-75267765D01*
X158102566Y-75267765D01*
G37*
G36*
X101075442Y-74314918D02*
X101141627Y-74321437D01*
X101221074Y-74345537D01*
X101311467Y-74372957D01*
X101429180Y-74435877D01*
X101467991Y-74456622D01*
X101493111Y-74477238D01*
X101605186Y-74569214D01*
X101688448Y-74670671D01*
X101717778Y-74706409D01*
X101717779Y-74706411D01*
X101801443Y-74862933D01*
X101801443Y-74862934D01*
X101852963Y-75032773D01*
X101870359Y-75209400D01*
X101852963Y-75386027D01*
X101828594Y-75466362D01*
X101801443Y-75555867D01*
X101775789Y-75603861D01*
X101717778Y-75712391D01*
X101708686Y-75723469D01*
X101605186Y-75849586D01*
X101507607Y-75929666D01*
X101467991Y-75962178D01*
X101467989Y-75962179D01*
X101311467Y-76045843D01*
X101272962Y-76057523D01*
X101141627Y-76097363D01*
X101085804Y-76102861D01*
X101009260Y-76110400D01*
X100920740Y-76110400D01*
X100844196Y-76102861D01*
X100788373Y-76097363D01*
X100657038Y-76057523D01*
X100618533Y-76045843D01*
X100462011Y-75962179D01*
X100462009Y-75962178D01*
X100422393Y-75929666D01*
X100324814Y-75849586D01*
X100221314Y-75723469D01*
X100212222Y-75712391D01*
X100154211Y-75603861D01*
X100128557Y-75555867D01*
X100101406Y-75466362D01*
X100077037Y-75386027D01*
X100059641Y-75209400D01*
X100077037Y-75032773D01*
X100128557Y-74862934D01*
X100128557Y-74862933D01*
X100212221Y-74706411D01*
X100212222Y-74706409D01*
X100241552Y-74670671D01*
X100324814Y-74569214D01*
X100436889Y-74477238D01*
X100462009Y-74456622D01*
X100500820Y-74435877D01*
X100618533Y-74372957D01*
X100708926Y-74345537D01*
X100788373Y-74321437D01*
X100854558Y-74314918D01*
X100920740Y-74308400D01*
X101009260Y-74308400D01*
X101075442Y-74314918D01*
X101075442Y-74314918D01*
G37*
G36*
X151109077Y-73350665D02*
X151146764Y-73362098D01*
X151181503Y-73380666D01*
X151211948Y-73405652D01*
X151236934Y-73436097D01*
X151255502Y-73470836D01*
X151266935Y-73508523D01*
X151271400Y-73553861D01*
X151271400Y-74390539D01*
X151266935Y-74435877D01*
X151255502Y-74473564D01*
X151236934Y-74508303D01*
X151211948Y-74538748D01*
X151181503Y-74563734D01*
X151146764Y-74582302D01*
X151109077Y-74593735D01*
X151063739Y-74598200D01*
X149977061Y-74598200D01*
X149931723Y-74593735D01*
X149894036Y-74582302D01*
X149859297Y-74563734D01*
X149828852Y-74538748D01*
X149803866Y-74508303D01*
X149785298Y-74473564D01*
X149773865Y-74435877D01*
X149769400Y-74390539D01*
X149769400Y-73553861D01*
X149773865Y-73508523D01*
X149785298Y-73470836D01*
X149803866Y-73436097D01*
X149828852Y-73405652D01*
X149859297Y-73380666D01*
X149894036Y-73362098D01*
X149931723Y-73350665D01*
X149977061Y-73346200D01*
X151063739Y-73346200D01*
X151109077Y-73350665D01*
X151109077Y-73350665D01*
G37*
G36*
X149026277Y-73299865D02*
X149063964Y-73311298D01*
X149098703Y-73329866D01*
X149129148Y-73354852D01*
X149154134Y-73385297D01*
X149172702Y-73420036D01*
X149184135Y-73457723D01*
X149188600Y-73503061D01*
X149188600Y-74339739D01*
X149184135Y-74385077D01*
X149172702Y-74422764D01*
X149154134Y-74457503D01*
X149129148Y-74487948D01*
X149098703Y-74512934D01*
X149063964Y-74531502D01*
X149026277Y-74542935D01*
X148980939Y-74547400D01*
X147894261Y-74547400D01*
X147848923Y-74542935D01*
X147811236Y-74531502D01*
X147776497Y-74512934D01*
X147746052Y-74487948D01*
X147721066Y-74457503D01*
X147702498Y-74422764D01*
X147691065Y-74385077D01*
X147686600Y-74339739D01*
X147686600Y-73503061D01*
X147691065Y-73457723D01*
X147702498Y-73420036D01*
X147721066Y-73385297D01*
X147746052Y-73354852D01*
X147776497Y-73329866D01*
X147811236Y-73311298D01*
X147848923Y-73299865D01*
X147894261Y-73295400D01*
X148980939Y-73295400D01*
X149026277Y-73299865D01*
X149026277Y-73299865D01*
G37*
G36*
X158102566Y-73392765D02*
X158141237Y-73404496D01*
X158176879Y-73423548D01*
X158208117Y-73449183D01*
X158233752Y-73480421D01*
X158252804Y-73516063D01*
X158264535Y-73554734D01*
X158269100Y-73601088D01*
X158269100Y-74252312D01*
X158264535Y-74298666D01*
X158252804Y-74337337D01*
X158233752Y-74372979D01*
X158208117Y-74404217D01*
X158176879Y-74429852D01*
X158141237Y-74448904D01*
X158102566Y-74460635D01*
X158056212Y-74465200D01*
X156979988Y-74465200D01*
X156933634Y-74460635D01*
X156894963Y-74448904D01*
X156859321Y-74429852D01*
X156828083Y-74404217D01*
X156802448Y-74372979D01*
X156783396Y-74337337D01*
X156771665Y-74298666D01*
X156767100Y-74252312D01*
X156767100Y-73601088D01*
X156771665Y-73554734D01*
X156783396Y-73516063D01*
X156802448Y-73480421D01*
X156828083Y-73449183D01*
X156859321Y-73423548D01*
X156894963Y-73404496D01*
X156933634Y-73392765D01*
X156979988Y-73388200D01*
X158056212Y-73388200D01*
X158102566Y-73392765D01*
X158102566Y-73392765D01*
G37*
G36*
X111013477Y-72710265D02*
X111051164Y-72721698D01*
X111085903Y-72740266D01*
X111116348Y-72765252D01*
X111141334Y-72795697D01*
X111159902Y-72830436D01*
X111171335Y-72868123D01*
X111175800Y-72913461D01*
X111175800Y-74000139D01*
X111171335Y-74045477D01*
X111159902Y-74083164D01*
X111141334Y-74117903D01*
X111116348Y-74148348D01*
X111085903Y-74173334D01*
X111051164Y-74191902D01*
X111013477Y-74203335D01*
X110968139Y-74207800D01*
X110131461Y-74207800D01*
X110086123Y-74203335D01*
X110048436Y-74191902D01*
X110013697Y-74173334D01*
X109983252Y-74148348D01*
X109958266Y-74117903D01*
X109939698Y-74083164D01*
X109928265Y-74045477D01*
X109923800Y-74000139D01*
X109923800Y-72913461D01*
X109928265Y-72868123D01*
X109939698Y-72830436D01*
X109958266Y-72795697D01*
X109983252Y-72765252D01*
X110013697Y-72740266D01*
X110048436Y-72721698D01*
X110086123Y-72710265D01*
X110131461Y-72705800D01*
X110968139Y-72705800D01*
X111013477Y-72710265D01*
X111013477Y-72710265D01*
G37*
G36*
X108963477Y-72710265D02*
X109001164Y-72721698D01*
X109035903Y-72740266D01*
X109066348Y-72765252D01*
X109091334Y-72795697D01*
X109109902Y-72830436D01*
X109121335Y-72868123D01*
X109125800Y-72913461D01*
X109125800Y-74000139D01*
X109121335Y-74045477D01*
X109109902Y-74083164D01*
X109091334Y-74117903D01*
X109066348Y-74148348D01*
X109035903Y-74173334D01*
X109001164Y-74191902D01*
X108963477Y-74203335D01*
X108918139Y-74207800D01*
X108081461Y-74207800D01*
X108036123Y-74203335D01*
X107998436Y-74191902D01*
X107963697Y-74173334D01*
X107933252Y-74148348D01*
X107908266Y-74117903D01*
X107889698Y-74083164D01*
X107878265Y-74045477D01*
X107873800Y-74000139D01*
X107873800Y-72913461D01*
X107878265Y-72868123D01*
X107889698Y-72830436D01*
X107908266Y-72795697D01*
X107933252Y-72765252D01*
X107963697Y-72740266D01*
X107998436Y-72721698D01*
X108036123Y-72710265D01*
X108081461Y-72705800D01*
X108918139Y-72705800D01*
X108963477Y-72710265D01*
X108963477Y-72710265D01*
G37*
G36*
X137048910Y-71124164D02*
X137102444Y-71140403D01*
X137129212Y-71148523D01*
X137166214Y-71168302D01*
X137203217Y-71188080D01*
X137268085Y-71241315D01*
X137321320Y-71306182D01*
X137360877Y-71380188D01*
X137385236Y-71460489D01*
X137391400Y-71523074D01*
X137391400Y-73214926D01*
X137385236Y-73277511D01*
X137360877Y-73357812D01*
X137321320Y-73431818D01*
X137268085Y-73496685D01*
X137203218Y-73549920D01*
X137129212Y-73589477D01*
X137048911Y-73613836D01*
X136965400Y-73622061D01*
X136881890Y-73613836D01*
X136801589Y-73589477D01*
X136727583Y-73549920D01*
X136662716Y-73496685D01*
X136609481Y-73431818D01*
X136569924Y-73357812D01*
X136545565Y-73277511D01*
X136539798Y-73218959D01*
X136535019Y-73194930D01*
X136525641Y-73172291D01*
X136512028Y-73151916D01*
X136494700Y-73134589D01*
X136474326Y-73120975D01*
X136451687Y-73111598D01*
X136427653Y-73106817D01*
X136403149Y-73106817D01*
X136379116Y-73111597D01*
X136356477Y-73120975D01*
X136336102Y-73134588D01*
X136318775Y-73151916D01*
X136305161Y-73172290D01*
X136295784Y-73194929D01*
X136291003Y-73218961D01*
X136286359Y-73266111D01*
X136285236Y-73277511D01*
X136260877Y-73357812D01*
X136221320Y-73431818D01*
X136168085Y-73496685D01*
X136103218Y-73549920D01*
X136029212Y-73589477D01*
X135948911Y-73613836D01*
X135865400Y-73622061D01*
X135781890Y-73613836D01*
X135701589Y-73589477D01*
X135627583Y-73549920D01*
X135562716Y-73496685D01*
X135509481Y-73431818D01*
X135469924Y-73357812D01*
X135445565Y-73277511D01*
X135439798Y-73218959D01*
X135435019Y-73194930D01*
X135425641Y-73172291D01*
X135412028Y-73151916D01*
X135394700Y-73134589D01*
X135374326Y-73120975D01*
X135351687Y-73111598D01*
X135327653Y-73106817D01*
X135303149Y-73106817D01*
X135279116Y-73111597D01*
X135256477Y-73120975D01*
X135236102Y-73134588D01*
X135218775Y-73151916D01*
X135205161Y-73172290D01*
X135195784Y-73194929D01*
X135191003Y-73218961D01*
X135186359Y-73266111D01*
X135185236Y-73277511D01*
X135160877Y-73357812D01*
X135121320Y-73431818D01*
X135068085Y-73496685D01*
X135003218Y-73549920D01*
X134929212Y-73589477D01*
X134848911Y-73613836D01*
X134765400Y-73622061D01*
X134681890Y-73613836D01*
X134601589Y-73589477D01*
X134527583Y-73549920D01*
X134462716Y-73496685D01*
X134409481Y-73431818D01*
X134369924Y-73357812D01*
X134345565Y-73277511D01*
X134339798Y-73218959D01*
X134335019Y-73194930D01*
X134325641Y-73172291D01*
X134312028Y-73151916D01*
X134294700Y-73134589D01*
X134274326Y-73120975D01*
X134251687Y-73111598D01*
X134227653Y-73106817D01*
X134203149Y-73106817D01*
X134179116Y-73111597D01*
X134156477Y-73120975D01*
X134136102Y-73134588D01*
X134118775Y-73151916D01*
X134105161Y-73172290D01*
X134095784Y-73194929D01*
X134091003Y-73218961D01*
X134086359Y-73266111D01*
X134085236Y-73277511D01*
X134060877Y-73357812D01*
X134021320Y-73431818D01*
X133968085Y-73496685D01*
X133903218Y-73549920D01*
X133829212Y-73589477D01*
X133748911Y-73613836D01*
X133665400Y-73622061D01*
X133581890Y-73613836D01*
X133501589Y-73589477D01*
X133427583Y-73549920D01*
X133362716Y-73496685D01*
X133309481Y-73431818D01*
X133269924Y-73357812D01*
X133245565Y-73277511D01*
X133239798Y-73218959D01*
X133235019Y-73194930D01*
X133225641Y-73172291D01*
X133212028Y-73151916D01*
X133194700Y-73134589D01*
X133174326Y-73120975D01*
X133151687Y-73111598D01*
X133127653Y-73106817D01*
X133103149Y-73106817D01*
X133079116Y-73111597D01*
X133056477Y-73120975D01*
X133036102Y-73134588D01*
X133018775Y-73151916D01*
X133005161Y-73172290D01*
X132995784Y-73194929D01*
X132991003Y-73218961D01*
X132986359Y-73266111D01*
X132985236Y-73277511D01*
X132960877Y-73357812D01*
X132921320Y-73431818D01*
X132868085Y-73496685D01*
X132803218Y-73549920D01*
X132729212Y-73589477D01*
X132648911Y-73613836D01*
X132565400Y-73622061D01*
X132481890Y-73613836D01*
X132401589Y-73589477D01*
X132327583Y-73549920D01*
X132262716Y-73496685D01*
X132209481Y-73431818D01*
X132169924Y-73357812D01*
X132145565Y-73277511D01*
X132139798Y-73218959D01*
X132135019Y-73194930D01*
X132125641Y-73172291D01*
X132112028Y-73151916D01*
X132094700Y-73134589D01*
X132074326Y-73120975D01*
X132051687Y-73111598D01*
X132027653Y-73106817D01*
X132003149Y-73106817D01*
X131979116Y-73111597D01*
X131956477Y-73120975D01*
X131936102Y-73134588D01*
X131918775Y-73151916D01*
X131905161Y-73172290D01*
X131895784Y-73194929D01*
X131891003Y-73218961D01*
X131886359Y-73266111D01*
X131885236Y-73277511D01*
X131860877Y-73357812D01*
X131821320Y-73431818D01*
X131768085Y-73496685D01*
X131703218Y-73549920D01*
X131629212Y-73589477D01*
X131548911Y-73613836D01*
X131465400Y-73622061D01*
X131381890Y-73613836D01*
X131301589Y-73589477D01*
X131227583Y-73549920D01*
X131162716Y-73496685D01*
X131109481Y-73431818D01*
X131069924Y-73357812D01*
X131045565Y-73277511D01*
X131039401Y-73214926D01*
X131039400Y-71523075D01*
X131045564Y-71460490D01*
X131069923Y-71380189D01*
X131069923Y-71380188D01*
X131089702Y-71343186D01*
X131109480Y-71306183D01*
X131162715Y-71241315D01*
X131227582Y-71188080D01*
X131301588Y-71148523D01*
X131381889Y-71124164D01*
X131465400Y-71115939D01*
X131548910Y-71124164D01*
X131602444Y-71140403D01*
X131629212Y-71148523D01*
X131666214Y-71168302D01*
X131703217Y-71188080D01*
X131768085Y-71241315D01*
X131821320Y-71306182D01*
X131860877Y-71380188D01*
X131885236Y-71460489D01*
X131885236Y-71460491D01*
X131891002Y-71519033D01*
X131895783Y-71543067D01*
X131905160Y-71565706D01*
X131918774Y-71586080D01*
X131936101Y-71603408D01*
X131956476Y-71617021D01*
X131979115Y-71626399D01*
X132003148Y-71631179D01*
X132027652Y-71631179D01*
X132051686Y-71626398D01*
X132074325Y-71617021D01*
X132094699Y-71603407D01*
X132112027Y-71586080D01*
X132125640Y-71565705D01*
X132135018Y-71543066D01*
X132139798Y-71519034D01*
X132145564Y-71460491D01*
X132145565Y-71460489D01*
X132169923Y-71380189D01*
X132169923Y-71380188D01*
X132189702Y-71343186D01*
X132209480Y-71306183D01*
X132262715Y-71241315D01*
X132327582Y-71188080D01*
X132401588Y-71148523D01*
X132481889Y-71124164D01*
X132565400Y-71115939D01*
X132648910Y-71124164D01*
X132702444Y-71140403D01*
X132729212Y-71148523D01*
X132766214Y-71168302D01*
X132803217Y-71188080D01*
X132868085Y-71241315D01*
X132921320Y-71306182D01*
X132960877Y-71380188D01*
X132985236Y-71460489D01*
X132985236Y-71460491D01*
X132991002Y-71519033D01*
X132995783Y-71543067D01*
X133005160Y-71565706D01*
X133018774Y-71586080D01*
X133036101Y-71603408D01*
X133056476Y-71617021D01*
X133079115Y-71626399D01*
X133103148Y-71631179D01*
X133127652Y-71631179D01*
X133151686Y-71626398D01*
X133174325Y-71617021D01*
X133194699Y-71603407D01*
X133212027Y-71586080D01*
X133225640Y-71565705D01*
X133235018Y-71543066D01*
X133239798Y-71519034D01*
X133245564Y-71460491D01*
X133245565Y-71460489D01*
X133269923Y-71380189D01*
X133269923Y-71380188D01*
X133289702Y-71343186D01*
X133309480Y-71306183D01*
X133362715Y-71241315D01*
X133427582Y-71188080D01*
X133501588Y-71148523D01*
X133581889Y-71124164D01*
X133665400Y-71115939D01*
X133748910Y-71124164D01*
X133802444Y-71140403D01*
X133829212Y-71148523D01*
X133866214Y-71168302D01*
X133903217Y-71188080D01*
X133968085Y-71241315D01*
X134021320Y-71306182D01*
X134060877Y-71380188D01*
X134085236Y-71460489D01*
X134085236Y-71460491D01*
X134091002Y-71519033D01*
X134095783Y-71543067D01*
X134105160Y-71565706D01*
X134118774Y-71586080D01*
X134136101Y-71603408D01*
X134156476Y-71617021D01*
X134179115Y-71626399D01*
X134203148Y-71631179D01*
X134227652Y-71631179D01*
X134251686Y-71626398D01*
X134274325Y-71617021D01*
X134294699Y-71603407D01*
X134312027Y-71586080D01*
X134325640Y-71565705D01*
X134335018Y-71543066D01*
X134339798Y-71519034D01*
X134345564Y-71460491D01*
X134345565Y-71460489D01*
X134369923Y-71380189D01*
X134369923Y-71380188D01*
X134389702Y-71343186D01*
X134409480Y-71306183D01*
X134462715Y-71241315D01*
X134527582Y-71188080D01*
X134601588Y-71148523D01*
X134681889Y-71124164D01*
X134765400Y-71115939D01*
X134848910Y-71124164D01*
X134902444Y-71140403D01*
X134929212Y-71148523D01*
X134966214Y-71168302D01*
X135003217Y-71188080D01*
X135068085Y-71241315D01*
X135121320Y-71306182D01*
X135160877Y-71380188D01*
X135185236Y-71460489D01*
X135185236Y-71460491D01*
X135191002Y-71519033D01*
X135195783Y-71543067D01*
X135205160Y-71565706D01*
X135218774Y-71586080D01*
X135236101Y-71603408D01*
X135256476Y-71617021D01*
X135279115Y-71626399D01*
X135303148Y-71631179D01*
X135327652Y-71631179D01*
X135351686Y-71626398D01*
X135374325Y-71617021D01*
X135394699Y-71603407D01*
X135412027Y-71586080D01*
X135425640Y-71565705D01*
X135435018Y-71543066D01*
X135439798Y-71519034D01*
X135445564Y-71460491D01*
X135445565Y-71460489D01*
X135469923Y-71380189D01*
X135469923Y-71380188D01*
X135489702Y-71343186D01*
X135509480Y-71306183D01*
X135562715Y-71241315D01*
X135627582Y-71188080D01*
X135701588Y-71148523D01*
X135781889Y-71124164D01*
X135865400Y-71115939D01*
X135948910Y-71124164D01*
X136002444Y-71140403D01*
X136029212Y-71148523D01*
X136066214Y-71168302D01*
X136103217Y-71188080D01*
X136168085Y-71241315D01*
X136221320Y-71306182D01*
X136260877Y-71380188D01*
X136285236Y-71460489D01*
X136285236Y-71460491D01*
X136291002Y-71519033D01*
X136295783Y-71543067D01*
X136305160Y-71565706D01*
X136318774Y-71586080D01*
X136336101Y-71603408D01*
X136356476Y-71617021D01*
X136379115Y-71626399D01*
X136403148Y-71631179D01*
X136427652Y-71631179D01*
X136451686Y-71626398D01*
X136474325Y-71617021D01*
X136494699Y-71603407D01*
X136512027Y-71586080D01*
X136525640Y-71565705D01*
X136535018Y-71543066D01*
X136539798Y-71519034D01*
X136545564Y-71460491D01*
X136545565Y-71460489D01*
X136569923Y-71380189D01*
X136569923Y-71380188D01*
X136589702Y-71343186D01*
X136609480Y-71306183D01*
X136662715Y-71241315D01*
X136727582Y-71188080D01*
X136801588Y-71148523D01*
X136881889Y-71124164D01*
X136965400Y-71115939D01*
X137048910Y-71124164D01*
X137048910Y-71124164D01*
G37*
G36*
X126548910Y-71124164D02*
X126602444Y-71140403D01*
X126629212Y-71148523D01*
X126666214Y-71168302D01*
X126703217Y-71188080D01*
X126768085Y-71241315D01*
X126821320Y-71306182D01*
X126860877Y-71380188D01*
X126885236Y-71460489D01*
X126891400Y-71523074D01*
X126891400Y-73214926D01*
X126885236Y-73277511D01*
X126860877Y-73357812D01*
X126821320Y-73431818D01*
X126768085Y-73496685D01*
X126703218Y-73549920D01*
X126629212Y-73589477D01*
X126548911Y-73613836D01*
X126465400Y-73622061D01*
X126381890Y-73613836D01*
X126301589Y-73589477D01*
X126227583Y-73549920D01*
X126162716Y-73496685D01*
X126109481Y-73431818D01*
X126069924Y-73357812D01*
X126045565Y-73277511D01*
X126039798Y-73218959D01*
X126035019Y-73194930D01*
X126025641Y-73172291D01*
X126012028Y-73151916D01*
X125994700Y-73134589D01*
X125974326Y-73120975D01*
X125951687Y-73111598D01*
X125927653Y-73106817D01*
X125903149Y-73106817D01*
X125879116Y-73111597D01*
X125856477Y-73120975D01*
X125836102Y-73134588D01*
X125818775Y-73151916D01*
X125805161Y-73172290D01*
X125795784Y-73194929D01*
X125791003Y-73218961D01*
X125786359Y-73266111D01*
X125785236Y-73277511D01*
X125760877Y-73357812D01*
X125721320Y-73431818D01*
X125668085Y-73496685D01*
X125603218Y-73549920D01*
X125529212Y-73589477D01*
X125448911Y-73613836D01*
X125365400Y-73622061D01*
X125281890Y-73613836D01*
X125201589Y-73589477D01*
X125127583Y-73549920D01*
X125062716Y-73496685D01*
X125009481Y-73431818D01*
X124969924Y-73357812D01*
X124945565Y-73277511D01*
X124939798Y-73218959D01*
X124935019Y-73194930D01*
X124925641Y-73172291D01*
X124912028Y-73151916D01*
X124894700Y-73134589D01*
X124874326Y-73120975D01*
X124851687Y-73111598D01*
X124827653Y-73106817D01*
X124803149Y-73106817D01*
X124779116Y-73111597D01*
X124756477Y-73120975D01*
X124736102Y-73134588D01*
X124718775Y-73151916D01*
X124705161Y-73172290D01*
X124695784Y-73194929D01*
X124691003Y-73218961D01*
X124686359Y-73266111D01*
X124685236Y-73277511D01*
X124660877Y-73357812D01*
X124621320Y-73431818D01*
X124568085Y-73496685D01*
X124503218Y-73549920D01*
X124429212Y-73589477D01*
X124348911Y-73613836D01*
X124265400Y-73622061D01*
X124181890Y-73613836D01*
X124101589Y-73589477D01*
X124027583Y-73549920D01*
X123962716Y-73496685D01*
X123909481Y-73431818D01*
X123869924Y-73357812D01*
X123845565Y-73277511D01*
X123839798Y-73218959D01*
X123835019Y-73194930D01*
X123825641Y-73172291D01*
X123812028Y-73151916D01*
X123794700Y-73134589D01*
X123774326Y-73120975D01*
X123751687Y-73111598D01*
X123727653Y-73106817D01*
X123703149Y-73106817D01*
X123679116Y-73111597D01*
X123656477Y-73120975D01*
X123636102Y-73134588D01*
X123618775Y-73151916D01*
X123605161Y-73172290D01*
X123595784Y-73194929D01*
X123591003Y-73218961D01*
X123586359Y-73266111D01*
X123585236Y-73277511D01*
X123560877Y-73357812D01*
X123521320Y-73431818D01*
X123468085Y-73496685D01*
X123403218Y-73549920D01*
X123329212Y-73589477D01*
X123248911Y-73613836D01*
X123165400Y-73622061D01*
X123081890Y-73613836D01*
X123001589Y-73589477D01*
X122927583Y-73549920D01*
X122862716Y-73496685D01*
X122809481Y-73431818D01*
X122769924Y-73357812D01*
X122745565Y-73277511D01*
X122739798Y-73218959D01*
X122735019Y-73194930D01*
X122725641Y-73172291D01*
X122712028Y-73151916D01*
X122694700Y-73134589D01*
X122674326Y-73120975D01*
X122651687Y-73111598D01*
X122627653Y-73106817D01*
X122603149Y-73106817D01*
X122579116Y-73111597D01*
X122556477Y-73120975D01*
X122536102Y-73134588D01*
X122518775Y-73151916D01*
X122505161Y-73172290D01*
X122495784Y-73194929D01*
X122491003Y-73218961D01*
X122486359Y-73266111D01*
X122485236Y-73277511D01*
X122460877Y-73357812D01*
X122421320Y-73431818D01*
X122368085Y-73496685D01*
X122303218Y-73549920D01*
X122229212Y-73589477D01*
X122148911Y-73613836D01*
X122065400Y-73622061D01*
X121981890Y-73613836D01*
X121901589Y-73589477D01*
X121827583Y-73549920D01*
X121762716Y-73496685D01*
X121709481Y-73431818D01*
X121669924Y-73357812D01*
X121645565Y-73277511D01*
X121639401Y-73214926D01*
X121639400Y-71523075D01*
X121645564Y-71460490D01*
X121669923Y-71380189D01*
X121669923Y-71380188D01*
X121689702Y-71343186D01*
X121709480Y-71306183D01*
X121762715Y-71241315D01*
X121827582Y-71188080D01*
X121901588Y-71148523D01*
X121981889Y-71124164D01*
X122065400Y-71115939D01*
X122148910Y-71124164D01*
X122202444Y-71140403D01*
X122229212Y-71148523D01*
X122266214Y-71168302D01*
X122303217Y-71188080D01*
X122368085Y-71241315D01*
X122421320Y-71306182D01*
X122460877Y-71380188D01*
X122485236Y-71460489D01*
X122485236Y-71460491D01*
X122491002Y-71519033D01*
X122495783Y-71543067D01*
X122505160Y-71565706D01*
X122518774Y-71586080D01*
X122536101Y-71603408D01*
X122556476Y-71617021D01*
X122579115Y-71626399D01*
X122603148Y-71631179D01*
X122627652Y-71631179D01*
X122651686Y-71626398D01*
X122674325Y-71617021D01*
X122694699Y-71603407D01*
X122712027Y-71586080D01*
X122725640Y-71565705D01*
X122735018Y-71543066D01*
X122739798Y-71519034D01*
X122745564Y-71460491D01*
X122745565Y-71460489D01*
X122769923Y-71380189D01*
X122769923Y-71380188D01*
X122789702Y-71343186D01*
X122809480Y-71306183D01*
X122862715Y-71241315D01*
X122927582Y-71188080D01*
X123001588Y-71148523D01*
X123081889Y-71124164D01*
X123165400Y-71115939D01*
X123248910Y-71124164D01*
X123302444Y-71140403D01*
X123329212Y-71148523D01*
X123366214Y-71168302D01*
X123403217Y-71188080D01*
X123468085Y-71241315D01*
X123521320Y-71306182D01*
X123560877Y-71380188D01*
X123585236Y-71460489D01*
X123585236Y-71460491D01*
X123591002Y-71519033D01*
X123595783Y-71543067D01*
X123605160Y-71565706D01*
X123618774Y-71586080D01*
X123636101Y-71603408D01*
X123656476Y-71617021D01*
X123679115Y-71626399D01*
X123703148Y-71631179D01*
X123727652Y-71631179D01*
X123751686Y-71626398D01*
X123774325Y-71617021D01*
X123794699Y-71603407D01*
X123812027Y-71586080D01*
X123825640Y-71565705D01*
X123835018Y-71543066D01*
X123839798Y-71519034D01*
X123845564Y-71460491D01*
X123845565Y-71460489D01*
X123869923Y-71380189D01*
X123869923Y-71380188D01*
X123889702Y-71343186D01*
X123909480Y-71306183D01*
X123962715Y-71241315D01*
X124027582Y-71188080D01*
X124101588Y-71148523D01*
X124181889Y-71124164D01*
X124265400Y-71115939D01*
X124348910Y-71124164D01*
X124402444Y-71140403D01*
X124429212Y-71148523D01*
X124466214Y-71168302D01*
X124503217Y-71188080D01*
X124568085Y-71241315D01*
X124621320Y-71306182D01*
X124660877Y-71380188D01*
X124685236Y-71460489D01*
X124685236Y-71460491D01*
X124691002Y-71519033D01*
X124695783Y-71543067D01*
X124705160Y-71565706D01*
X124718774Y-71586080D01*
X124736101Y-71603408D01*
X124756476Y-71617021D01*
X124779115Y-71626399D01*
X124803148Y-71631179D01*
X124827652Y-71631179D01*
X124851686Y-71626398D01*
X124874325Y-71617021D01*
X124894699Y-71603407D01*
X124912027Y-71586080D01*
X124925640Y-71565705D01*
X124935018Y-71543066D01*
X124939798Y-71519034D01*
X124945564Y-71460491D01*
X124945565Y-71460489D01*
X124969923Y-71380189D01*
X124969923Y-71380188D01*
X124989702Y-71343186D01*
X125009480Y-71306183D01*
X125062715Y-71241315D01*
X125127582Y-71188080D01*
X125201588Y-71148523D01*
X125281889Y-71124164D01*
X125365400Y-71115939D01*
X125448910Y-71124164D01*
X125502444Y-71140403D01*
X125529212Y-71148523D01*
X125566214Y-71168302D01*
X125603217Y-71188080D01*
X125668085Y-71241315D01*
X125721320Y-71306182D01*
X125760877Y-71380188D01*
X125785236Y-71460489D01*
X125785236Y-71460491D01*
X125791002Y-71519033D01*
X125795783Y-71543067D01*
X125805160Y-71565706D01*
X125818774Y-71586080D01*
X125836101Y-71603408D01*
X125856476Y-71617021D01*
X125879115Y-71626399D01*
X125903148Y-71631179D01*
X125927652Y-71631179D01*
X125951686Y-71626398D01*
X125974325Y-71617021D01*
X125994699Y-71603407D01*
X126012027Y-71586080D01*
X126025640Y-71565705D01*
X126035018Y-71543066D01*
X126039798Y-71519034D01*
X126045564Y-71460491D01*
X126045565Y-71460489D01*
X126069923Y-71380189D01*
X126069923Y-71380188D01*
X126089702Y-71343186D01*
X126109480Y-71306183D01*
X126162715Y-71241315D01*
X126227582Y-71188080D01*
X126301588Y-71148523D01*
X126381889Y-71124164D01*
X126465400Y-71115939D01*
X126548910Y-71124164D01*
X126548910Y-71124164D01*
G37*
G36*
X101075443Y-71774919D02*
X101141627Y-71781437D01*
X101239525Y-71811134D01*
X101311467Y-71832957D01*
X101450087Y-71907052D01*
X101467991Y-71916622D01*
X101503729Y-71945952D01*
X101605186Y-72029214D01*
X101688448Y-72130671D01*
X101717778Y-72166409D01*
X101717779Y-72166411D01*
X101801443Y-72322933D01*
X101801443Y-72322934D01*
X101852963Y-72492773D01*
X101870359Y-72669400D01*
X101852963Y-72846027D01*
X101846260Y-72868123D01*
X101801443Y-73015867D01*
X101752828Y-73106817D01*
X101717778Y-73172391D01*
X101688448Y-73208129D01*
X101605186Y-73309586D01*
X101509393Y-73388200D01*
X101467991Y-73422178D01*
X101467989Y-73422179D01*
X101311467Y-73505843D01*
X101254853Y-73523016D01*
X101141627Y-73557363D01*
X101075443Y-73563881D01*
X101009260Y-73570400D01*
X100920740Y-73570400D01*
X100854557Y-73563881D01*
X100788373Y-73557363D01*
X100675147Y-73523016D01*
X100618533Y-73505843D01*
X100462011Y-73422179D01*
X100462009Y-73422178D01*
X100420607Y-73388200D01*
X100324814Y-73309586D01*
X100241552Y-73208129D01*
X100212222Y-73172391D01*
X100177172Y-73106817D01*
X100128557Y-73015867D01*
X100083740Y-72868123D01*
X100077037Y-72846027D01*
X100059641Y-72669400D01*
X100077037Y-72492773D01*
X100128557Y-72322934D01*
X100128557Y-72322933D01*
X100212221Y-72166411D01*
X100212222Y-72166409D01*
X100241552Y-72130671D01*
X100324814Y-72029214D01*
X100426271Y-71945952D01*
X100462009Y-71916622D01*
X100479913Y-71907052D01*
X100618533Y-71832957D01*
X100690475Y-71811134D01*
X100788373Y-71781437D01*
X100854557Y-71774919D01*
X100920740Y-71768400D01*
X101009260Y-71768400D01*
X101075443Y-71774919D01*
X101075443Y-71774919D01*
G37*
G36*
X158081377Y-71519765D02*
X158119064Y-71531198D01*
X158153803Y-71549766D01*
X158184248Y-71574752D01*
X158209234Y-71605197D01*
X158227802Y-71639936D01*
X158239235Y-71677623D01*
X158243700Y-71722961D01*
X158243700Y-72559639D01*
X158239235Y-72604977D01*
X158227802Y-72642664D01*
X158209234Y-72677403D01*
X158184248Y-72707848D01*
X158153803Y-72732834D01*
X158119064Y-72751402D01*
X158081377Y-72762835D01*
X158036039Y-72767300D01*
X156949361Y-72767300D01*
X156904023Y-72762835D01*
X156866336Y-72751402D01*
X156831597Y-72732834D01*
X156801152Y-72707848D01*
X156776166Y-72677403D01*
X156757598Y-72642664D01*
X156746165Y-72604977D01*
X156741700Y-72559639D01*
X156741700Y-71722961D01*
X156746165Y-71677623D01*
X156757598Y-71639936D01*
X156776166Y-71605197D01*
X156801152Y-71574752D01*
X156831597Y-71549766D01*
X156866336Y-71531198D01*
X156904023Y-71519765D01*
X156949361Y-71515300D01*
X158036039Y-71515300D01*
X158081377Y-71519765D01*
X158081377Y-71519765D01*
G37*
G36*
X144802877Y-70348065D02*
X144840564Y-70359498D01*
X144875303Y-70378066D01*
X144905748Y-70403052D01*
X144930734Y-70433497D01*
X144949302Y-70468236D01*
X144960735Y-70505923D01*
X144965200Y-70551261D01*
X144965200Y-71637939D01*
X144960735Y-71683277D01*
X144949302Y-71720964D01*
X144930734Y-71755703D01*
X144905748Y-71786148D01*
X144875303Y-71811134D01*
X144840564Y-71829702D01*
X144802877Y-71841135D01*
X144757539Y-71845600D01*
X143920861Y-71845600D01*
X143875523Y-71841135D01*
X143837836Y-71829702D01*
X143803097Y-71811134D01*
X143772652Y-71786148D01*
X143747666Y-71755703D01*
X143729098Y-71720964D01*
X143717665Y-71683277D01*
X143713200Y-71637939D01*
X143713200Y-70551261D01*
X143717665Y-70505923D01*
X143729098Y-70468236D01*
X143747666Y-70433497D01*
X143772652Y-70403052D01*
X143803097Y-70378066D01*
X143837836Y-70359498D01*
X143875523Y-70348065D01*
X143920861Y-70343600D01*
X144757539Y-70343600D01*
X144802877Y-70348065D01*
X144802877Y-70348065D01*
G37*
G36*
X146852877Y-70348065D02*
X146890564Y-70359498D01*
X146925303Y-70378066D01*
X146955748Y-70403052D01*
X146980734Y-70433497D01*
X146999302Y-70468236D01*
X147010735Y-70505923D01*
X147015200Y-70551261D01*
X147015200Y-71637939D01*
X147010735Y-71683277D01*
X146999302Y-71720964D01*
X146980734Y-71755703D01*
X146955748Y-71786148D01*
X146925303Y-71811134D01*
X146890564Y-71829702D01*
X146852877Y-71841135D01*
X146807539Y-71845600D01*
X145970861Y-71845600D01*
X145925523Y-71841135D01*
X145887836Y-71829702D01*
X145853097Y-71811134D01*
X145822652Y-71786148D01*
X145797666Y-71755703D01*
X145779098Y-71720964D01*
X145767665Y-71683277D01*
X145763200Y-71637939D01*
X145763200Y-70551261D01*
X145767665Y-70505923D01*
X145779098Y-70468236D01*
X145797666Y-70433497D01*
X145822652Y-70403052D01*
X145853097Y-70378066D01*
X145887836Y-70359498D01*
X145925523Y-70348065D01*
X145970861Y-70343600D01*
X146807539Y-70343600D01*
X146852877Y-70348065D01*
X146852877Y-70348065D01*
G37*
G36*
X107152677Y-70221065D02*
X107190364Y-70232498D01*
X107225103Y-70251066D01*
X107255548Y-70276052D01*
X107280534Y-70306497D01*
X107299102Y-70341236D01*
X107310535Y-70378923D01*
X107315000Y-70424261D01*
X107315000Y-71510939D01*
X107310535Y-71556277D01*
X107299102Y-71593964D01*
X107280534Y-71628703D01*
X107255548Y-71659148D01*
X107225103Y-71684134D01*
X107190364Y-71702702D01*
X107152677Y-71714135D01*
X107107339Y-71718600D01*
X106270661Y-71718600D01*
X106225323Y-71714135D01*
X106187636Y-71702702D01*
X106152897Y-71684134D01*
X106122452Y-71659148D01*
X106097466Y-71628703D01*
X106078898Y-71593964D01*
X106067465Y-71556277D01*
X106063000Y-71510939D01*
X106063000Y-70424261D01*
X106067465Y-70378923D01*
X106078898Y-70341236D01*
X106097466Y-70306497D01*
X106122452Y-70276052D01*
X106152897Y-70251066D01*
X106187636Y-70232498D01*
X106225323Y-70221065D01*
X106270661Y-70216600D01*
X107107339Y-70216600D01*
X107152677Y-70221065D01*
X107152677Y-70221065D01*
G37*
G36*
X105102677Y-70221065D02*
X105140364Y-70232498D01*
X105175103Y-70251066D01*
X105205548Y-70276052D01*
X105230534Y-70306497D01*
X105249102Y-70341236D01*
X105260535Y-70378923D01*
X105265000Y-70424261D01*
X105265000Y-71510939D01*
X105260535Y-71556277D01*
X105249102Y-71593964D01*
X105230534Y-71628703D01*
X105205548Y-71659148D01*
X105175103Y-71684134D01*
X105140364Y-71702702D01*
X105102677Y-71714135D01*
X105057339Y-71718600D01*
X104220661Y-71718600D01*
X104175323Y-71714135D01*
X104137636Y-71702702D01*
X104102897Y-71684134D01*
X104072452Y-71659148D01*
X104047466Y-71628703D01*
X104028898Y-71593964D01*
X104017465Y-71556277D01*
X104013000Y-71510939D01*
X104013000Y-70424261D01*
X104017465Y-70378923D01*
X104028898Y-70341236D01*
X104047466Y-70306497D01*
X104072452Y-70276052D01*
X104102897Y-70251066D01*
X104137636Y-70232498D01*
X104175323Y-70221065D01*
X104220661Y-70216600D01*
X105057339Y-70216600D01*
X105102677Y-70221065D01*
X105102677Y-70221065D01*
G37*
G36*
X101866000Y-71030400D02*
X100064000Y-71030400D01*
X100064000Y-69228400D01*
X101866000Y-69228400D01*
X101866000Y-71030400D01*
X101866000Y-71030400D01*
G37*
G36*
X158081377Y-69469765D02*
X158119064Y-69481198D01*
X158153803Y-69499766D01*
X158184248Y-69524752D01*
X158209234Y-69555197D01*
X158227802Y-69589936D01*
X158239235Y-69627623D01*
X158243700Y-69672961D01*
X158243700Y-70509639D01*
X158239235Y-70554977D01*
X158227802Y-70592664D01*
X158209234Y-70627403D01*
X158184248Y-70657848D01*
X158153803Y-70682834D01*
X158119064Y-70701402D01*
X158081377Y-70712835D01*
X158036039Y-70717300D01*
X156949361Y-70717300D01*
X156904023Y-70712835D01*
X156866336Y-70701402D01*
X156831597Y-70682834D01*
X156801152Y-70657848D01*
X156776166Y-70627403D01*
X156757598Y-70592664D01*
X156746165Y-70554977D01*
X156741700Y-70509639D01*
X156741700Y-69672961D01*
X156746165Y-69627623D01*
X156757598Y-69589936D01*
X156776166Y-69555197D01*
X156801152Y-69524752D01*
X156831597Y-69499766D01*
X156866336Y-69481198D01*
X156904023Y-69469765D01*
X156949361Y-69465300D01*
X158036039Y-69465300D01*
X158081377Y-69469765D01*
X158081377Y-69469765D01*
G37*
G36*
X129165477Y-68773265D02*
X129203164Y-68784698D01*
X129237903Y-68803266D01*
X129268348Y-68828252D01*
X129293334Y-68858697D01*
X129311902Y-68893436D01*
X129323335Y-68931123D01*
X129327800Y-68976461D01*
X129327800Y-70063139D01*
X129323335Y-70108477D01*
X129311902Y-70146164D01*
X129293334Y-70180903D01*
X129268348Y-70211348D01*
X129237903Y-70236334D01*
X129203164Y-70254902D01*
X129165477Y-70266335D01*
X129120139Y-70270800D01*
X128283461Y-70270800D01*
X128238123Y-70266335D01*
X128200436Y-70254902D01*
X128165697Y-70236334D01*
X128135252Y-70211348D01*
X128110266Y-70180903D01*
X128091698Y-70146164D01*
X128080265Y-70108477D01*
X128075800Y-70063139D01*
X128075800Y-68976461D01*
X128080265Y-68931123D01*
X128091698Y-68893436D01*
X128110266Y-68858697D01*
X128135252Y-68828252D01*
X128165697Y-68803266D01*
X128200436Y-68784698D01*
X128238123Y-68773265D01*
X128283461Y-68768800D01*
X129120139Y-68768800D01*
X129165477Y-68773265D01*
X129165477Y-68773265D01*
G37*
G36*
X127115477Y-68773265D02*
X127153164Y-68784698D01*
X127187903Y-68803266D01*
X127218348Y-68828252D01*
X127243334Y-68858697D01*
X127261902Y-68893436D01*
X127273335Y-68931123D01*
X127277800Y-68976461D01*
X127277800Y-70063139D01*
X127273335Y-70108477D01*
X127261902Y-70146164D01*
X127243334Y-70180903D01*
X127218348Y-70211348D01*
X127187903Y-70236334D01*
X127153164Y-70254902D01*
X127115477Y-70266335D01*
X127070139Y-70270800D01*
X126233461Y-70270800D01*
X126188123Y-70266335D01*
X126150436Y-70254902D01*
X126115697Y-70236334D01*
X126085252Y-70211348D01*
X126060266Y-70180903D01*
X126041698Y-70146164D01*
X126030265Y-70108477D01*
X126025800Y-70063139D01*
X126025800Y-68976461D01*
X126030265Y-68931123D01*
X126041698Y-68893436D01*
X126060266Y-68858697D01*
X126085252Y-68828252D01*
X126115697Y-68803266D01*
X126150436Y-68784698D01*
X126188123Y-68773265D01*
X126233461Y-68768800D01*
X127070139Y-68768800D01*
X127115477Y-68773265D01*
X127115477Y-68773265D01*
G37*
G36*
X140172677Y-68722465D02*
X140210364Y-68733898D01*
X140245103Y-68752466D01*
X140275548Y-68777452D01*
X140300534Y-68807897D01*
X140319102Y-68842636D01*
X140330535Y-68880323D01*
X140335000Y-68925661D01*
X140335000Y-70012339D01*
X140330535Y-70057677D01*
X140319102Y-70095364D01*
X140300534Y-70130103D01*
X140275548Y-70160548D01*
X140245103Y-70185534D01*
X140210364Y-70204102D01*
X140172677Y-70215535D01*
X140127339Y-70220000D01*
X139290661Y-70220000D01*
X139245323Y-70215535D01*
X139207636Y-70204102D01*
X139172897Y-70185534D01*
X139142452Y-70160548D01*
X139117466Y-70130103D01*
X139098898Y-70095364D01*
X139087465Y-70057677D01*
X139083000Y-70012339D01*
X139083000Y-68925661D01*
X139087465Y-68880323D01*
X139098898Y-68842636D01*
X139117466Y-68807897D01*
X139142452Y-68777452D01*
X139172897Y-68752466D01*
X139207636Y-68733898D01*
X139245323Y-68722465D01*
X139290661Y-68718000D01*
X140127339Y-68718000D01*
X140172677Y-68722465D01*
X140172677Y-68722465D01*
G37*
G36*
X138122677Y-68722465D02*
X138160364Y-68733898D01*
X138195103Y-68752466D01*
X138225548Y-68777452D01*
X138250534Y-68807897D01*
X138269102Y-68842636D01*
X138280535Y-68880323D01*
X138285000Y-68925661D01*
X138285000Y-70012339D01*
X138280535Y-70057677D01*
X138269102Y-70095364D01*
X138250534Y-70130103D01*
X138225548Y-70160548D01*
X138195103Y-70185534D01*
X138160364Y-70204102D01*
X138122677Y-70215535D01*
X138077339Y-70220000D01*
X137240661Y-70220000D01*
X137195323Y-70215535D01*
X137157636Y-70204102D01*
X137122897Y-70185534D01*
X137092452Y-70160548D01*
X137067466Y-70130103D01*
X137048898Y-70095364D01*
X137037465Y-70057677D01*
X137033000Y-70012339D01*
X137033000Y-68925661D01*
X137037465Y-68880323D01*
X137048898Y-68842636D01*
X137067466Y-68807897D01*
X137092452Y-68777452D01*
X137122897Y-68752466D01*
X137157636Y-68733898D01*
X137195323Y-68722465D01*
X137240661Y-68718000D01*
X138077339Y-68718000D01*
X138122677Y-68722465D01*
X138122677Y-68722465D01*
G37*
G36*
X134211077Y-68671665D02*
X134248764Y-68683098D01*
X134283503Y-68701666D01*
X134313948Y-68726652D01*
X134338934Y-68757097D01*
X134357502Y-68791836D01*
X134368935Y-68829523D01*
X134373400Y-68874861D01*
X134373400Y-69961539D01*
X134368935Y-70006877D01*
X134357502Y-70044564D01*
X134338934Y-70079303D01*
X134313948Y-70109748D01*
X134283503Y-70134734D01*
X134248764Y-70153302D01*
X134211077Y-70164735D01*
X134165739Y-70169200D01*
X133329061Y-70169200D01*
X133283723Y-70164735D01*
X133246036Y-70153302D01*
X133211297Y-70134734D01*
X133180852Y-70109748D01*
X133155866Y-70079303D01*
X133137298Y-70044564D01*
X133125865Y-70006877D01*
X133121400Y-69961539D01*
X133121400Y-68874861D01*
X133125865Y-68829523D01*
X133137298Y-68791836D01*
X133155866Y-68757097D01*
X133180852Y-68726652D01*
X133211297Y-68701666D01*
X133246036Y-68683098D01*
X133283723Y-68671665D01*
X133329061Y-68667200D01*
X134165739Y-68667200D01*
X134211077Y-68671665D01*
X134211077Y-68671665D01*
G37*
G36*
X136261077Y-68671665D02*
X136298764Y-68683098D01*
X136333503Y-68701666D01*
X136363948Y-68726652D01*
X136388934Y-68757097D01*
X136407502Y-68791836D01*
X136418935Y-68829523D01*
X136423400Y-68874861D01*
X136423400Y-69961539D01*
X136418935Y-70006877D01*
X136407502Y-70044564D01*
X136388934Y-70079303D01*
X136363948Y-70109748D01*
X136333503Y-70134734D01*
X136298764Y-70153302D01*
X136261077Y-70164735D01*
X136215739Y-70169200D01*
X135379061Y-70169200D01*
X135333723Y-70164735D01*
X135296036Y-70153302D01*
X135261297Y-70134734D01*
X135230852Y-70109748D01*
X135205866Y-70079303D01*
X135187298Y-70044564D01*
X135175865Y-70006877D01*
X135171400Y-69961539D01*
X135171400Y-68874861D01*
X135175865Y-68829523D01*
X135187298Y-68791836D01*
X135205866Y-68757097D01*
X135230852Y-68726652D01*
X135261297Y-68701666D01*
X135296036Y-68683098D01*
X135333723Y-68671665D01*
X135379061Y-68667200D01*
X136215739Y-68667200D01*
X136261077Y-68671665D01*
X136261077Y-68671665D01*
G37*
G36*
X146409261Y-67615325D02*
X146476244Y-67635644D01*
X146537976Y-67668640D01*
X146592085Y-67713046D01*
X146636491Y-67767155D01*
X146669487Y-67828887D01*
X146689806Y-67895870D01*
X146696667Y-67965530D01*
X146696667Y-69158634D01*
X146689806Y-69228294D01*
X146669487Y-69295277D01*
X146636491Y-69357009D01*
X146592085Y-69411118D01*
X146537976Y-69455524D01*
X146476244Y-69488520D01*
X146409261Y-69508839D01*
X146339601Y-69515700D01*
X146339599Y-69515700D01*
X146269939Y-69508839D01*
X146202956Y-69488520D01*
X146141224Y-69455524D01*
X146087115Y-69411118D01*
X146042709Y-69357009D01*
X146009713Y-69295277D01*
X145989394Y-69228294D01*
X145982533Y-69158634D01*
X145982533Y-67965530D01*
X145989394Y-67895870D01*
X146009713Y-67828887D01*
X146042709Y-67767155D01*
X146087115Y-67713046D01*
X146141224Y-67668640D01*
X146202956Y-67635644D01*
X146269939Y-67615325D01*
X146339599Y-67608464D01*
X146339601Y-67608464D01*
X146409261Y-67615325D01*
X146409261Y-67615325D01*
G37*
G36*
X144509261Y-67615325D02*
X144576244Y-67635644D01*
X144637976Y-67668640D01*
X144692085Y-67713046D01*
X144736491Y-67767155D01*
X144769487Y-67828887D01*
X144789806Y-67895870D01*
X144796667Y-67965530D01*
X144796667Y-69158634D01*
X144789806Y-69228294D01*
X144769487Y-69295277D01*
X144736491Y-69357009D01*
X144692085Y-69411118D01*
X144637976Y-69455524D01*
X144576244Y-69488520D01*
X144509261Y-69508839D01*
X144439601Y-69515700D01*
X144439599Y-69515700D01*
X144369939Y-69508839D01*
X144302956Y-69488520D01*
X144241224Y-69455524D01*
X144187115Y-69411118D01*
X144142709Y-69357009D01*
X144109713Y-69295277D01*
X144089394Y-69228294D01*
X144082533Y-69158634D01*
X144082533Y-67965530D01*
X144089394Y-67895870D01*
X144109713Y-67828887D01*
X144142709Y-67767155D01*
X144187115Y-67713046D01*
X144241224Y-67668640D01*
X144302956Y-67635644D01*
X144369939Y-67615325D01*
X144439599Y-67608464D01*
X144439601Y-67608464D01*
X144509261Y-67615325D01*
X144509261Y-67615325D01*
G37*
G36*
X142676277Y-68161665D02*
X142713964Y-68173098D01*
X142748703Y-68191666D01*
X142779148Y-68216652D01*
X142804134Y-68247097D01*
X142822702Y-68281836D01*
X142834135Y-68319523D01*
X142838600Y-68364861D01*
X142838600Y-69201539D01*
X142834135Y-69246877D01*
X142822702Y-69284564D01*
X142804134Y-69319303D01*
X142779148Y-69349748D01*
X142748703Y-69374734D01*
X142713964Y-69393302D01*
X142676277Y-69404735D01*
X142630939Y-69409200D01*
X141544261Y-69409200D01*
X141498923Y-69404735D01*
X141461236Y-69393302D01*
X141426497Y-69374734D01*
X141396052Y-69349748D01*
X141371066Y-69319303D01*
X141352498Y-69284564D01*
X141341065Y-69246877D01*
X141336600Y-69201539D01*
X141336600Y-68364861D01*
X141341065Y-68319523D01*
X141352498Y-68281836D01*
X141371066Y-68247097D01*
X141396052Y-68216652D01*
X141426497Y-68191666D01*
X141461236Y-68173098D01*
X141498923Y-68161665D01*
X141544261Y-68157200D01*
X142630939Y-68157200D01*
X142676277Y-68161665D01*
X142676277Y-68161665D01*
G37*
G36*
X115933921Y-67859674D02*
X116034195Y-67901209D01*
X116124445Y-67961512D01*
X116201188Y-68038255D01*
X116261491Y-68128505D01*
X116303026Y-68228779D01*
X116324200Y-68335230D01*
X116324200Y-68443770D01*
X116303026Y-68550221D01*
X116261491Y-68650495D01*
X116201188Y-68740745D01*
X116124445Y-68817488D01*
X116034195Y-68877791D01*
X115933921Y-68919326D01*
X115827470Y-68940500D01*
X115718930Y-68940500D01*
X115612479Y-68919326D01*
X115512205Y-68877791D01*
X115421955Y-68817488D01*
X115345212Y-68740745D01*
X115284909Y-68650495D01*
X115243374Y-68550221D01*
X115222200Y-68443770D01*
X115222200Y-68335230D01*
X115243374Y-68228779D01*
X115284909Y-68128505D01*
X115345212Y-68038255D01*
X115421955Y-67961512D01*
X115512205Y-67901209D01*
X115612479Y-67859674D01*
X115718930Y-67838500D01*
X115827470Y-67838500D01*
X115933921Y-67859674D01*
X115933921Y-67859674D01*
G37*
G36*
X149461921Y-67796174D02*
X149562195Y-67837709D01*
X149652445Y-67898012D01*
X149729188Y-67974755D01*
X149789491Y-68065005D01*
X149831026Y-68165279D01*
X149852200Y-68271730D01*
X149852200Y-68380270D01*
X149831026Y-68486721D01*
X149789491Y-68586995D01*
X149729188Y-68677245D01*
X149652445Y-68753988D01*
X149562195Y-68814291D01*
X149461921Y-68855826D01*
X149355470Y-68877000D01*
X149246930Y-68877000D01*
X149140479Y-68855826D01*
X149040205Y-68814291D01*
X148949955Y-68753988D01*
X148873212Y-68677245D01*
X148812909Y-68586995D01*
X148771374Y-68486721D01*
X148750200Y-68380270D01*
X148750200Y-68271730D01*
X148771374Y-68165279D01*
X148812909Y-68065005D01*
X148873212Y-67974755D01*
X148949955Y-67898012D01*
X149040205Y-67837709D01*
X149140479Y-67796174D01*
X149246930Y-67775000D01*
X149355470Y-67775000D01*
X149461921Y-67796174D01*
X149461921Y-67796174D01*
G37*
G36*
X124085477Y-66995265D02*
X124123164Y-67006698D01*
X124157903Y-67025266D01*
X124188348Y-67050252D01*
X124213334Y-67080697D01*
X124231902Y-67115436D01*
X124243335Y-67153123D01*
X124247800Y-67198461D01*
X124247800Y-68285139D01*
X124243335Y-68330477D01*
X124231902Y-68368164D01*
X124213334Y-68402903D01*
X124188348Y-68433348D01*
X124157903Y-68458334D01*
X124123164Y-68476902D01*
X124085477Y-68488335D01*
X124040139Y-68492800D01*
X123203461Y-68492800D01*
X123158123Y-68488335D01*
X123120436Y-68476902D01*
X123085697Y-68458334D01*
X123055252Y-68433348D01*
X123030266Y-68402903D01*
X123011698Y-68368164D01*
X123000265Y-68330477D01*
X122995800Y-68285139D01*
X122995800Y-67198461D01*
X123000265Y-67153123D01*
X123011698Y-67115436D01*
X123030266Y-67080697D01*
X123055252Y-67050252D01*
X123085697Y-67025266D01*
X123120436Y-67006698D01*
X123158123Y-66995265D01*
X123203461Y-66990800D01*
X124040139Y-66990800D01*
X124085477Y-66995265D01*
X124085477Y-66995265D01*
G37*
G36*
X122035477Y-66995265D02*
X122073164Y-67006698D01*
X122107903Y-67025266D01*
X122138348Y-67050252D01*
X122163334Y-67080697D01*
X122181902Y-67115436D01*
X122193335Y-67153123D01*
X122197800Y-67198461D01*
X122197800Y-68285139D01*
X122193335Y-68330477D01*
X122181902Y-68368164D01*
X122163334Y-68402903D01*
X122138348Y-68433348D01*
X122107903Y-68458334D01*
X122073164Y-68476902D01*
X122035477Y-68488335D01*
X121990139Y-68492800D01*
X121153461Y-68492800D01*
X121108123Y-68488335D01*
X121070436Y-68476902D01*
X121035697Y-68458334D01*
X121005252Y-68433348D01*
X120980266Y-68402903D01*
X120961698Y-68368164D01*
X120950265Y-68330477D01*
X120945800Y-68285139D01*
X120945800Y-67198461D01*
X120950265Y-67153123D01*
X120961698Y-67115436D01*
X120980266Y-67080697D01*
X121005252Y-67050252D01*
X121035697Y-67025266D01*
X121070436Y-67006698D01*
X121108123Y-66995265D01*
X121153461Y-66990800D01*
X121990139Y-66990800D01*
X122035477Y-66995265D01*
X122035477Y-66995265D01*
G37*
G36*
X156877896Y-63206033D02*
X156877898Y-63206034D01*
X156877899Y-63206034D01*
X157342152Y-63398333D01*
X157758084Y-63676250D01*
X157759971Y-63677511D01*
X158115289Y-64032829D01*
X158115291Y-64032832D01*
X158394467Y-64450648D01*
X158586766Y-64914901D01*
X158586767Y-64914904D01*
X158684800Y-65407747D01*
X158684800Y-65910253D01*
X158591486Y-66379373D01*
X158586766Y-66403099D01*
X158394467Y-66867352D01*
X158146649Y-67238238D01*
X158115289Y-67285171D01*
X157759971Y-67640489D01*
X157759968Y-67640491D01*
X157342152Y-67919667D01*
X156877899Y-68111966D01*
X156877898Y-68111966D01*
X156877896Y-68111967D01*
X156385053Y-68210000D01*
X155882547Y-68210000D01*
X155389704Y-68111967D01*
X155389702Y-68111966D01*
X155389701Y-68111966D01*
X154925448Y-67919667D01*
X154507632Y-67640491D01*
X154507629Y-67640489D01*
X154152311Y-67285171D01*
X154120951Y-67238238D01*
X153873133Y-66867352D01*
X153680834Y-66403099D01*
X153676115Y-66379373D01*
X153582800Y-65910253D01*
X153582800Y-65407747D01*
X153680833Y-64914904D01*
X153680834Y-64914901D01*
X153873133Y-64450648D01*
X154152309Y-64032832D01*
X154152311Y-64032829D01*
X154507629Y-63677511D01*
X154509516Y-63676250D01*
X154925448Y-63398333D01*
X155389701Y-63206034D01*
X155389702Y-63206034D01*
X155389704Y-63206033D01*
X155882547Y-63108000D01*
X156385053Y-63108000D01*
X156877896Y-63206033D01*
X156877896Y-63206033D01*
G37*
G36*
X102928296Y-63155233D02*
X102928298Y-63155234D01*
X102928299Y-63155234D01*
X103392552Y-63347533D01*
X103808484Y-63625450D01*
X103810371Y-63626711D01*
X104165689Y-63982029D01*
X104165691Y-63982032D01*
X104444867Y-64399848D01*
X104625289Y-64835427D01*
X104637167Y-64864104D01*
X104735200Y-65356947D01*
X104735200Y-65859453D01*
X104650737Y-66284077D01*
X104637166Y-66352299D01*
X104444867Y-66816552D01*
X104199556Y-67183686D01*
X104165689Y-67234371D01*
X103810371Y-67589689D01*
X103810368Y-67589691D01*
X103392552Y-67868867D01*
X102928299Y-68061166D01*
X102928298Y-68061166D01*
X102928296Y-68061167D01*
X102435453Y-68159200D01*
X101932947Y-68159200D01*
X101440104Y-68061167D01*
X101440102Y-68061166D01*
X101440101Y-68061166D01*
X100975848Y-67868867D01*
X100558032Y-67589691D01*
X100558029Y-67589689D01*
X100202711Y-67234371D01*
X100168844Y-67183686D01*
X99923533Y-66816552D01*
X99731234Y-66352299D01*
X99717664Y-66284077D01*
X99633200Y-65859453D01*
X99633200Y-65356947D01*
X99731233Y-64864104D01*
X99743111Y-64835427D01*
X99923533Y-64399848D01*
X100202709Y-63982032D01*
X100202711Y-63982029D01*
X100558029Y-63626711D01*
X100559916Y-63625450D01*
X100975848Y-63347533D01*
X101440101Y-63155234D01*
X101440102Y-63155234D01*
X101440104Y-63155233D01*
X101932947Y-63057200D01*
X102435453Y-63057200D01*
X102928296Y-63155233D01*
X102928296Y-63155233D01*
G37*
G36*
X126045800Y-63348000D02*
X126048202Y-63372386D01*
X126055315Y-63395835D01*
X126066866Y-63417446D01*
X126082412Y-63436388D01*
X126101354Y-63451934D01*
X126122965Y-63463485D01*
X126146414Y-63470598D01*
X126170800Y-63473000D01*
X130518800Y-63473000D01*
X130543186Y-63470598D01*
X130566635Y-63463485D01*
X130588246Y-63451934D01*
X130607188Y-63436388D01*
X130622734Y-63417446D01*
X130634285Y-63395835D01*
X130641398Y-63372386D01*
X130643800Y-63348000D01*
X130643800Y-63318000D01*
X131845800Y-63318000D01*
X131845800Y-63920000D01*
X130520800Y-63920000D01*
X130496414Y-63922402D01*
X130472965Y-63929515D01*
X130451354Y-63941066D01*
X130432412Y-63956612D01*
X130416866Y-63975554D01*
X130405315Y-63997165D01*
X130398202Y-64020614D01*
X130395800Y-64045000D01*
X130395800Y-64463000D01*
X130398202Y-64487386D01*
X130405315Y-64510835D01*
X130416866Y-64532446D01*
X130432412Y-64551388D01*
X130451354Y-64566934D01*
X130472965Y-64578485D01*
X130496414Y-64585598D01*
X130520800Y-64588000D01*
X131845800Y-64588000D01*
X131845800Y-65190000D01*
X130520800Y-65190000D01*
X130496414Y-65192402D01*
X130472965Y-65199515D01*
X130451354Y-65211066D01*
X130432412Y-65226612D01*
X130416866Y-65245554D01*
X130405315Y-65267165D01*
X130398202Y-65290614D01*
X130395800Y-65315000D01*
X130395800Y-65733000D01*
X130398202Y-65757386D01*
X130405315Y-65780835D01*
X130416866Y-65802446D01*
X130432412Y-65821388D01*
X130451354Y-65836934D01*
X130472965Y-65848485D01*
X130496414Y-65855598D01*
X130520800Y-65858000D01*
X131845800Y-65858000D01*
X131845800Y-66460000D01*
X130520800Y-66460000D01*
X130496414Y-66462402D01*
X130472965Y-66469515D01*
X130451354Y-66481066D01*
X130432412Y-66496612D01*
X130416866Y-66515554D01*
X130405315Y-66537165D01*
X130398202Y-66560614D01*
X130395800Y-66585000D01*
X130395800Y-67003000D01*
X130398202Y-67027386D01*
X130405315Y-67050835D01*
X130416866Y-67072446D01*
X130432412Y-67091388D01*
X130451354Y-67106934D01*
X130472965Y-67118485D01*
X130496414Y-67125598D01*
X130520800Y-67128000D01*
X131845800Y-67128000D01*
X131845800Y-67730000D01*
X130643800Y-67730000D01*
X130643800Y-67700000D01*
X130641398Y-67675614D01*
X130634285Y-67652165D01*
X130622734Y-67630554D01*
X130607188Y-67611612D01*
X130588246Y-67596066D01*
X130566635Y-67584515D01*
X130543186Y-67577402D01*
X130518800Y-67575000D01*
X126170800Y-67575000D01*
X126146414Y-67577402D01*
X126122965Y-67584515D01*
X126101354Y-67596066D01*
X126082412Y-67611612D01*
X126066866Y-67630554D01*
X126055315Y-67652165D01*
X126048202Y-67675614D01*
X126045800Y-67700000D01*
X126045800Y-67730000D01*
X124843800Y-67730000D01*
X124843800Y-67128000D01*
X126168800Y-67128000D01*
X126193186Y-67125598D01*
X126216635Y-67118485D01*
X126238246Y-67106934D01*
X126257188Y-67091388D01*
X126272734Y-67072446D01*
X126284285Y-67050835D01*
X126291398Y-67027386D01*
X126293800Y-67003000D01*
X126293800Y-66585000D01*
X126291398Y-66560614D01*
X126284285Y-66537165D01*
X126272734Y-66515554D01*
X126257188Y-66496612D01*
X126238246Y-66481066D01*
X126216635Y-66469515D01*
X126193186Y-66462402D01*
X126168800Y-66460000D01*
X124843800Y-66460000D01*
X124843800Y-65858000D01*
X126168800Y-65858000D01*
X126193186Y-65855598D01*
X126216635Y-65848485D01*
X126238246Y-65836934D01*
X126257188Y-65821388D01*
X126272734Y-65802446D01*
X126284285Y-65780835D01*
X126291398Y-65757386D01*
X126293800Y-65733000D01*
X126293800Y-65315000D01*
X126291398Y-65290614D01*
X126284285Y-65267165D01*
X126272734Y-65245554D01*
X126257188Y-65226612D01*
X126238246Y-65211066D01*
X126216635Y-65199515D01*
X126193186Y-65192402D01*
X126168800Y-65190000D01*
X124843800Y-65190000D01*
X124843800Y-64588000D01*
X126168800Y-64588000D01*
X126193186Y-64585598D01*
X126216635Y-64578485D01*
X126238246Y-64566934D01*
X126257188Y-64551388D01*
X126272734Y-64532446D01*
X126284285Y-64510835D01*
X126291398Y-64487386D01*
X126293800Y-64463000D01*
X126293800Y-64045000D01*
X126291398Y-64020614D01*
X126284285Y-63997165D01*
X126272734Y-63975554D01*
X126257188Y-63956612D01*
X126238246Y-63941066D01*
X126216635Y-63929515D01*
X126193186Y-63922402D01*
X126168800Y-63920000D01*
X124843800Y-63920000D01*
X124843800Y-63318000D01*
X126045800Y-63318000D01*
X126045800Y-63348000D01*
X126045800Y-63348000D01*
G37*
G36*
X142676277Y-66111665D02*
X142713964Y-66123098D01*
X142748703Y-66141666D01*
X142779148Y-66166652D01*
X142804134Y-66197097D01*
X142822702Y-66231836D01*
X142834135Y-66269523D01*
X142838600Y-66314861D01*
X142838600Y-67151539D01*
X142834135Y-67196877D01*
X142822702Y-67234564D01*
X142804134Y-67269303D01*
X142779148Y-67299748D01*
X142748703Y-67324734D01*
X142713964Y-67343302D01*
X142676277Y-67354735D01*
X142630939Y-67359200D01*
X141544261Y-67359200D01*
X141498923Y-67354735D01*
X141461236Y-67343302D01*
X141426497Y-67324734D01*
X141396052Y-67299748D01*
X141371066Y-67269303D01*
X141352498Y-67234564D01*
X141341065Y-67196877D01*
X141336600Y-67151539D01*
X141336600Y-66314861D01*
X141341065Y-66269523D01*
X141352498Y-66231836D01*
X141371066Y-66197097D01*
X141396052Y-66166652D01*
X141426497Y-66141666D01*
X141461236Y-66123098D01*
X141498923Y-66111665D01*
X141544261Y-66107200D01*
X142630939Y-66107200D01*
X142676277Y-66111665D01*
X142676277Y-66111665D01*
G37*
G36*
X144509261Y-65314361D02*
X144576244Y-65334680D01*
X144637976Y-65367676D01*
X144692085Y-65412082D01*
X144736491Y-65466191D01*
X144769487Y-65527923D01*
X144789806Y-65594906D01*
X144791400Y-65611091D01*
X144794983Y-65629102D01*
X144804360Y-65651741D01*
X144817974Y-65672115D01*
X144835301Y-65689442D01*
X144855676Y-65703056D01*
X144878315Y-65712434D01*
X144902348Y-65717214D01*
X144926852Y-65717214D01*
X144950886Y-65712433D01*
X144973525Y-65703056D01*
X144993899Y-65689442D01*
X145011226Y-65672115D01*
X145024840Y-65651740D01*
X145034218Y-65629101D01*
X145037800Y-65611093D01*
X145039394Y-65594906D01*
X145059713Y-65527923D01*
X145092709Y-65466191D01*
X145137115Y-65412082D01*
X145191224Y-65367676D01*
X145252956Y-65334680D01*
X145319939Y-65314361D01*
X145389599Y-65307500D01*
X145389601Y-65307500D01*
X145459261Y-65314361D01*
X145526244Y-65334680D01*
X145587976Y-65367676D01*
X145642085Y-65412082D01*
X145686491Y-65466191D01*
X145719487Y-65527923D01*
X145739806Y-65594906D01*
X145739859Y-65595439D01*
X145747294Y-65613389D01*
X145760907Y-65633764D01*
X145778234Y-65651091D01*
X145798609Y-65664705D01*
X145821248Y-65674082D01*
X145845281Y-65678863D01*
X145869786Y-65678863D01*
X145893819Y-65674083D01*
X145916458Y-65664705D01*
X145936833Y-65651092D01*
X145954160Y-65633765D01*
X145967774Y-65613390D01*
X145977151Y-65590751D01*
X145981932Y-65566718D01*
X145982534Y-65554465D01*
X145982534Y-65307500D01*
X146696666Y-65307500D01*
X146696666Y-67214736D01*
X145982534Y-67214736D01*
X145982534Y-66967771D01*
X145980132Y-66943385D01*
X145973019Y-66919936D01*
X145961468Y-66898325D01*
X145945922Y-66879383D01*
X145926980Y-66863837D01*
X145905369Y-66852286D01*
X145881920Y-66845173D01*
X145857534Y-66842771D01*
X145833148Y-66845173D01*
X145809699Y-66852286D01*
X145788088Y-66863837D01*
X145769146Y-66879383D01*
X145753600Y-66898325D01*
X145742049Y-66919936D01*
X145739959Y-66925777D01*
X145739806Y-66927330D01*
X145719487Y-66994313D01*
X145686491Y-67056045D01*
X145642085Y-67110154D01*
X145587976Y-67154560D01*
X145526244Y-67187556D01*
X145459261Y-67207875D01*
X145389601Y-67214736D01*
X145389599Y-67214736D01*
X145319939Y-67207875D01*
X145252956Y-67187556D01*
X145191224Y-67154560D01*
X145137115Y-67110154D01*
X145092709Y-67056045D01*
X145059713Y-66994313D01*
X145039394Y-66927330D01*
X145037800Y-66911145D01*
X145034217Y-66893134D01*
X145024840Y-66870495D01*
X145011226Y-66850121D01*
X144993899Y-66832794D01*
X144973524Y-66819180D01*
X144950885Y-66809802D01*
X144926852Y-66805022D01*
X144902348Y-66805022D01*
X144878314Y-66809803D01*
X144855675Y-66819180D01*
X144835301Y-66832794D01*
X144817974Y-66850121D01*
X144804360Y-66870496D01*
X144794982Y-66893135D01*
X144791400Y-66911143D01*
X144789806Y-66927330D01*
X144769487Y-66994313D01*
X144736491Y-67056045D01*
X144692085Y-67110154D01*
X144637976Y-67154560D01*
X144576244Y-67187556D01*
X144509261Y-67207875D01*
X144439601Y-67214736D01*
X144439599Y-67214736D01*
X144369939Y-67207875D01*
X144302956Y-67187556D01*
X144241224Y-67154560D01*
X144187115Y-67110154D01*
X144142709Y-67056045D01*
X144109713Y-66994313D01*
X144089394Y-66927330D01*
X144082533Y-66857670D01*
X144082533Y-65664566D01*
X144089394Y-65594906D01*
X144109713Y-65527923D01*
X144142709Y-65466191D01*
X144187115Y-65412082D01*
X144241224Y-65367676D01*
X144302956Y-65334680D01*
X144369939Y-65314361D01*
X144439599Y-65307500D01*
X144439601Y-65307500D01*
X144509261Y-65314361D01*
X144509261Y-65314361D01*
G37*
G36*
X134167277Y-65910065D02*
X134204964Y-65921498D01*
X134239703Y-65940066D01*
X134270148Y-65965052D01*
X134295134Y-65995497D01*
X134313702Y-66030236D01*
X134325135Y-66067923D01*
X134329600Y-66113261D01*
X134329600Y-66949939D01*
X134325135Y-66995277D01*
X134313702Y-67032964D01*
X134295134Y-67067703D01*
X134270148Y-67098148D01*
X134239703Y-67123134D01*
X134204964Y-67141702D01*
X134167277Y-67153135D01*
X134121939Y-67157600D01*
X133035261Y-67157600D01*
X132989923Y-67153135D01*
X132952236Y-67141702D01*
X132917497Y-67123134D01*
X132887052Y-67098148D01*
X132862066Y-67067703D01*
X132843498Y-67032964D01*
X132832065Y-66995277D01*
X132827600Y-66949939D01*
X132827600Y-66113261D01*
X132832065Y-66067923D01*
X132843498Y-66030236D01*
X132862066Y-65995497D01*
X132887052Y-65965052D01*
X132917497Y-65940066D01*
X132952236Y-65921498D01*
X132989923Y-65910065D01*
X133035261Y-65905600D01*
X134121939Y-65905600D01*
X134167277Y-65910065D01*
X134167277Y-65910065D01*
G37*
G36*
X124134277Y-65198865D02*
X124171964Y-65210298D01*
X124206703Y-65228866D01*
X124237148Y-65253852D01*
X124262134Y-65284297D01*
X124280702Y-65319036D01*
X124292135Y-65356723D01*
X124296600Y-65402061D01*
X124296600Y-66238739D01*
X124292135Y-66284077D01*
X124280702Y-66321764D01*
X124262134Y-66356503D01*
X124237148Y-66386948D01*
X124206703Y-66411934D01*
X124171964Y-66430502D01*
X124134277Y-66441935D01*
X124088939Y-66446400D01*
X123002261Y-66446400D01*
X122956923Y-66441935D01*
X122919236Y-66430502D01*
X122884497Y-66411934D01*
X122854052Y-66386948D01*
X122829066Y-66356503D01*
X122810498Y-66321764D01*
X122799065Y-66284077D01*
X122794600Y-66238739D01*
X122794600Y-65402061D01*
X122799065Y-65356723D01*
X122810498Y-65319036D01*
X122829066Y-65284297D01*
X122854052Y-65253852D01*
X122884497Y-65228866D01*
X122919236Y-65210298D01*
X122956923Y-65198865D01*
X123002261Y-65194400D01*
X124088939Y-65194400D01*
X124134277Y-65198865D01*
X124134277Y-65198865D01*
G37*
G36*
X134167277Y-63860065D02*
X134204964Y-63871498D01*
X134239703Y-63890066D01*
X134270148Y-63915052D01*
X134295134Y-63945497D01*
X134313702Y-63980236D01*
X134325135Y-64017923D01*
X134329600Y-64063261D01*
X134329600Y-64899939D01*
X134325135Y-64945277D01*
X134313702Y-64982964D01*
X134295134Y-65017703D01*
X134270148Y-65048148D01*
X134239703Y-65073134D01*
X134204964Y-65091702D01*
X134167277Y-65103135D01*
X134121939Y-65107600D01*
X133035261Y-65107600D01*
X132989923Y-65103135D01*
X132952236Y-65091702D01*
X132917497Y-65073134D01*
X132887052Y-65048148D01*
X132862066Y-65017703D01*
X132843498Y-64982964D01*
X132832065Y-64945277D01*
X132827600Y-64899939D01*
X132827600Y-64063261D01*
X132832065Y-64017923D01*
X132843498Y-63980236D01*
X132862066Y-63945497D01*
X132887052Y-63915052D01*
X132917497Y-63890066D01*
X132952236Y-63871498D01*
X132989923Y-63860065D01*
X133035261Y-63855600D01*
X134121939Y-63855600D01*
X134167277Y-63860065D01*
X134167277Y-63860065D01*
G37*
G36*
X124134277Y-63148865D02*
X124171964Y-63160298D01*
X124206703Y-63178866D01*
X124237148Y-63203852D01*
X124262134Y-63234297D01*
X124280702Y-63269036D01*
X124292135Y-63306723D01*
X124296600Y-63352061D01*
X124296600Y-64188739D01*
X124292135Y-64234077D01*
X124280702Y-64271764D01*
X124262134Y-64306503D01*
X124237148Y-64336948D01*
X124206703Y-64361934D01*
X124171964Y-64380502D01*
X124134277Y-64391935D01*
X124088939Y-64396400D01*
X123002261Y-64396400D01*
X122956923Y-64391935D01*
X122919236Y-64380502D01*
X122884497Y-64361934D01*
X122854052Y-64336948D01*
X122829066Y-64306503D01*
X122810498Y-64271764D01*
X122799065Y-64234077D01*
X122794600Y-64188739D01*
X122794600Y-63352061D01*
X122799065Y-63306723D01*
X122810498Y-63269036D01*
X122829066Y-63234297D01*
X122854052Y-63203852D01*
X122884497Y-63178866D01*
X122919236Y-63160298D01*
X122956923Y-63148865D01*
X123002261Y-63144400D01*
X124088939Y-63144400D01*
X124134277Y-63148865D01*
X124134277Y-63148865D01*
G37*
M02*
