%TF.GenerationSoftware,KiCad,Pcbnew,(5.0.2)-1*%
%TF.CreationDate,2021-04-08T12:32:07+02:00*%
%TF.ProjectId,trackerGPS,74726163-6b65-4724-9750-532e6b696361,rev?*%
%TF.SameCoordinates,Original*%
%TF.FileFunction,Legend,Top*%
%TF.FilePolarity,Positive*%
%FSLAX46Y46*%
G04 Gerber Fmt 4.6, Leading zero omitted, Abs format (unit mm)*
G04 Created by KiCad (PCBNEW (5.0.2)-1) date 08/04/2021 12:32:07*
%MOMM*%
%LPD*%
G01*
G04 APERTURE LIST*
%ADD10C,0.300000*%
%ADD11C,0.100000*%
%ADD12C,0.120000*%
%ADD13C,0.127000*%
%ADD14C,0.200000*%
%ADD15C,0.150000*%
%ADD16C,0.250000*%
%ADD17C,0.254000*%
%ADD18C,0.075000*%
G04 APERTURE END LIST*
D10*
X167680409Y-72675413D02*
X167683876Y-73603978D01*
X167110585Y-73106115D01*
X167111385Y-73320399D01*
X167040490Y-73463522D01*
X166969329Y-73535217D01*
X166826739Y-73607178D01*
X166469599Y-73608512D01*
X166326476Y-73537617D01*
X166254781Y-73466456D01*
X166182820Y-73323867D01*
X166181219Y-72895298D01*
X166252114Y-72752175D01*
X166323275Y-72680480D01*
X167188681Y-74891550D02*
X166188688Y-74895284D01*
X167758772Y-74532276D02*
X166686017Y-74179136D01*
X166689484Y-75107701D01*
X166263316Y-75752154D02*
X166191888Y-75752421D01*
X166048765Y-75681526D01*
X165977071Y-75610365D01*
X167695345Y-76675385D02*
X167695879Y-76818241D01*
X167624984Y-76961364D01*
X167553823Y-77033059D01*
X167411233Y-77105020D01*
X167125788Y-77177515D01*
X166768647Y-77178849D01*
X166482668Y-77108488D01*
X166339545Y-77037593D01*
X166267851Y-76966432D01*
X166195889Y-76823842D01*
X166195356Y-76680986D01*
X166266250Y-76537863D01*
X166337412Y-76466168D01*
X166480001Y-76394207D01*
X166765447Y-76321712D01*
X167122587Y-76320378D01*
X167408566Y-76390739D01*
X167551689Y-76461634D01*
X167623384Y-76532795D01*
X167695345Y-76675385D01*
X166202557Y-78609544D02*
X166199357Y-77752407D01*
X166200957Y-78180976D02*
X167700946Y-78175374D01*
X167486129Y-78033318D01*
X167342739Y-77890996D01*
X167270778Y-77748406D01*
X166207892Y-80038105D02*
X166204691Y-79180969D01*
X166206291Y-79609537D02*
X167706281Y-79603936D01*
X167491463Y-79461880D01*
X167348074Y-79319557D01*
X167276112Y-79176968D01*
X166214560Y-81823807D02*
X167214553Y-81820073D01*
X167071697Y-81820607D02*
X167143391Y-81891768D01*
X167215353Y-82034357D01*
X167216153Y-82248642D01*
X167145258Y-82391764D01*
X167002669Y-82463726D01*
X166216960Y-82466660D01*
X167002669Y-82463726D02*
X167145792Y-82534621D01*
X167217753Y-82677210D01*
X167218554Y-82891494D01*
X167147659Y-83034617D01*
X167005069Y-83106579D01*
X166219361Y-83109513D01*
X166222028Y-83823793D02*
X167222021Y-83820059D01*
X167079165Y-83820593D02*
X167150860Y-83891754D01*
X167222821Y-84034343D01*
X167223621Y-84248628D01*
X167152727Y-84391751D01*
X167010137Y-84463712D01*
X166224428Y-84466646D01*
X167010137Y-84463712D02*
X167153260Y-84534607D01*
X167225222Y-84677196D01*
X167226022Y-84891480D01*
X167155127Y-85034603D01*
X167012538Y-85106565D01*
X166226829Y-85109499D01*
X164718973Y-61966693D02*
X164845973Y-95977293D01*
X159588697Y-61985850D02*
X165305390Y-61964503D01*
X159715697Y-95996450D02*
X165432390Y-95975103D01*
X164845973Y-95977293D02*
X164255350Y-94852987D01*
X164845973Y-95977293D02*
X165428183Y-94848607D01*
X164718973Y-61966693D02*
X164136763Y-63095379D01*
X164718973Y-61966693D02*
X165309596Y-63090999D01*
D11*
X115206840Y-85608160D02*
X115206840Y-85608160D01*
X115306840Y-85608160D02*
X115306840Y-85608160D01*
X115306840Y-85608160D02*
G75*
G02X115206840Y-85608160I-50000J0D01*
G01*
X115206840Y-85608160D02*
G75*
G02X115306840Y-85608160I50000J0D01*
G01*
X158850280Y-82251040D02*
X158850280Y-81581040D01*
X158850280Y-81581040D02*
X165250280Y-81581040D01*
X165250280Y-81581040D02*
X165250280Y-90001040D01*
X165250280Y-90001040D02*
X158850280Y-90001040D01*
X158850280Y-90001040D02*
X158850280Y-89251040D01*
X157450280Y-85791040D02*
X157450280Y-85791040D01*
X157350280Y-85791040D02*
X157350280Y-85791040D01*
X157350280Y-85791040D02*
G75*
G02X157450280Y-85791040I50000J0D01*
G01*
X157450280Y-85791040D02*
G75*
G02X157350280Y-85791040I-50000J0D01*
G01*
D12*
X156558100Y-73864200D02*
X156558100Y-76549200D01*
X156558100Y-76549200D02*
X158478100Y-76549200D01*
X158478100Y-76549200D02*
X158478100Y-73864200D01*
X156782700Y-71377552D02*
X156782700Y-70855048D01*
X158202700Y-71377552D02*
X158202700Y-70855048D01*
X116473200Y-68389500D02*
G75*
G03X116473200Y-68389500I-700000J0D01*
G01*
X150001200Y-68326000D02*
G75*
G03X150001200Y-68326000I-700000J0D01*
G01*
D13*
X121165400Y-92194000D02*
X117690400Y-92194000D01*
X117690400Y-92194000D02*
X117690400Y-89469000D01*
X117690400Y-72144000D02*
X117690400Y-74869000D01*
X121165400Y-72144000D02*
X117690400Y-72144000D01*
X141440400Y-72144000D02*
X141440400Y-74869000D01*
X141440400Y-92194000D02*
X141440400Y-89469000D01*
X137965400Y-92194000D02*
X141440400Y-92194000D01*
X137965400Y-72144000D02*
X141440400Y-72144000D01*
D14*
X121165400Y-93569000D02*
G75*
G03X121165400Y-93569000I-100000J0D01*
G01*
D12*
X138422748Y-70179000D02*
X138945252Y-70179000D01*
X138422748Y-68759000D02*
X138945252Y-68759000D01*
X134511148Y-68708200D02*
X135033652Y-68708200D01*
X134511148Y-70128200D02*
X135033652Y-70128200D01*
X107041800Y-80819000D02*
X107041800Y-83519000D01*
X104321800Y-81409000D02*
X103691800Y-81409000D01*
X104321800Y-83569000D02*
X104321800Y-82929000D01*
X104321800Y-80769000D02*
X104321800Y-81409000D01*
X153950600Y-81704548D02*
X153950600Y-82227052D01*
X155370600Y-81704548D02*
X155370600Y-82227052D01*
X148715800Y-81501348D02*
X148715800Y-82023852D01*
X147295800Y-81501348D02*
X147295800Y-82023852D01*
X153559800Y-88615400D02*
X156244800Y-88615400D01*
X153559800Y-86695400D02*
X153559800Y-88615400D01*
X156244800Y-86695400D02*
X153559800Y-86695400D01*
X149672800Y-85846800D02*
X152357800Y-85846800D01*
X152357800Y-85846800D02*
X152357800Y-83926800D01*
X152357800Y-83926800D02*
X149672800Y-83926800D01*
X145229948Y-77776000D02*
X145752452Y-77776000D01*
X145229948Y-79196000D02*
X145752452Y-79196000D01*
X149810400Y-74735948D02*
X149810400Y-75258452D01*
X151230400Y-74735948D02*
X151230400Y-75258452D01*
X155937852Y-86211480D02*
X155415348Y-86211480D01*
X155937852Y-84791480D02*
X155415348Y-84791480D01*
X147727600Y-74685148D02*
X147727600Y-75207652D01*
X149147600Y-74685148D02*
X149147600Y-75207652D01*
X156547452Y-79780200D02*
X156024948Y-79780200D01*
X156547452Y-78360200D02*
X156024948Y-78360200D01*
X150411548Y-87730400D02*
X150934052Y-87730400D01*
X150411548Y-86310400D02*
X150934052Y-86310400D01*
X145229948Y-75718600D02*
X145752452Y-75718600D01*
X145229948Y-77138600D02*
X145752452Y-77138600D01*
X147196960Y-95002200D02*
X147196960Y-92602200D01*
X149596960Y-95002200D02*
X147196960Y-95002200D01*
X149596960Y-92602200D02*
X149596960Y-95002200D01*
X147196960Y-92602200D02*
X149596960Y-92602200D01*
X150316080Y-92602200D02*
X152716080Y-92602200D01*
X152716080Y-92602200D02*
X152716080Y-95002200D01*
X152716080Y-95002200D02*
X150316080Y-95002200D01*
X150316080Y-95002200D02*
X150316080Y-92602200D01*
D15*
X152956400Y-78728600D02*
X152956400Y-79228600D01*
X149706400Y-81978600D02*
X149706400Y-81478600D01*
X152956400Y-81978600D02*
X152956400Y-81478600D01*
X149706400Y-78728600D02*
X150206400Y-78728600D01*
X149706400Y-81978600D02*
X150206400Y-81978600D01*
X152956400Y-81978600D02*
X152456400Y-81978600D01*
X152956400Y-78728600D02*
X152456400Y-78728600D01*
D12*
X108205200Y-81668252D02*
X108205200Y-81145748D01*
X109625200Y-81668252D02*
X109625200Y-81145748D01*
X115264000Y-77284948D02*
X115264000Y-77807452D01*
X113844000Y-77284948D02*
X113844000Y-77807452D01*
X109729200Y-77301348D02*
X109729200Y-77823852D01*
X111149200Y-77301348D02*
X111149200Y-77823852D01*
X113206600Y-77301348D02*
X113206600Y-77823852D01*
X111786600Y-77301348D02*
X111786600Y-77823852D01*
X104621400Y-77070852D02*
X104621400Y-76548348D01*
X103201400Y-77070852D02*
X103201400Y-76548348D01*
X105402748Y-70257600D02*
X105925252Y-70257600D01*
X105402748Y-71677600D02*
X105925252Y-71677600D01*
X145625452Y-70384600D02*
X145102948Y-70384600D01*
X145625452Y-71804600D02*
X145102948Y-71804600D01*
X141377600Y-67496948D02*
X141377600Y-68019452D01*
X142797600Y-67496948D02*
X142797600Y-68019452D01*
X109786052Y-72746800D02*
X109263548Y-72746800D01*
X109786052Y-74166800D02*
X109263548Y-74166800D01*
D15*
X143689600Y-66011600D02*
X143689600Y-68811600D01*
X147089600Y-66011600D02*
X147089600Y-68811600D01*
D16*
X146489600Y-64508500D02*
G75*
G03X146489600Y-64508500I-125000J0D01*
G01*
D12*
X108713200Y-87205452D02*
X108713200Y-86682948D01*
X110133200Y-87205452D02*
X110133200Y-86682948D01*
X106636452Y-85040400D02*
X106113948Y-85040400D01*
X106636452Y-86460400D02*
X106113948Y-86460400D01*
X102668000Y-86505148D02*
X102668000Y-87027652D01*
X104088000Y-86505148D02*
X104088000Y-87027652D01*
X153383348Y-76353600D02*
X153905852Y-76353600D01*
X153383348Y-77773600D02*
X153905852Y-77773600D01*
X107919800Y-78790600D02*
X107919800Y-74705600D01*
X107919800Y-74705600D02*
X106049800Y-74705600D01*
X106049800Y-74705600D02*
X106049800Y-78790600D01*
X130844800Y-62924000D02*
X125844800Y-62924000D01*
X131844800Y-68124000D02*
X125244800Y-68124000D01*
D11*
X130344800Y-68024000D02*
X125344800Y-68024000D01*
X131344800Y-63024000D02*
X131344800Y-67024000D01*
X130344800Y-68024000D02*
X131344800Y-67024000D01*
D12*
X132868600Y-65245348D02*
X132868600Y-65767852D01*
X134288600Y-65245348D02*
X134288600Y-65767852D01*
X122835600Y-65056652D02*
X122835600Y-64534148D01*
X124255600Y-65056652D02*
X124255600Y-64534148D01*
X122858052Y-67031800D02*
X122335548Y-67031800D01*
X122858052Y-68451800D02*
X122335548Y-68451800D01*
X127415548Y-68809800D02*
X127938052Y-68809800D01*
X127415548Y-70229800D02*
X127938052Y-70229800D01*
D17*
X110873426Y-88453443D02*
X110873426Y-89360586D01*
X110812950Y-89542015D01*
X110691998Y-89662967D01*
X110510569Y-89723443D01*
X110389617Y-89723443D01*
X112143426Y-89723443D02*
X111417712Y-89723443D01*
X111780569Y-89723443D02*
X111780569Y-88453443D01*
X111659617Y-88634872D01*
X111538664Y-88755824D01*
X111417712Y-88816300D01*
X162039327Y-86758659D02*
X162099803Y-86577230D01*
X162099803Y-86274849D01*
X162039327Y-86153897D01*
X161978851Y-86093420D01*
X161857899Y-86032944D01*
X161736946Y-86032944D01*
X161615994Y-86093420D01*
X161555518Y-86153897D01*
X161495041Y-86274849D01*
X161434565Y-86516754D01*
X161374089Y-86637706D01*
X161313613Y-86698182D01*
X161192660Y-86758659D01*
X161071708Y-86758659D01*
X160950756Y-86698182D01*
X160890280Y-86637706D01*
X160829803Y-86516754D01*
X160829803Y-86214373D01*
X160890280Y-86032944D01*
X162099803Y-84823420D02*
X162099803Y-85549135D01*
X162099803Y-85186278D02*
X160829803Y-85186278D01*
X161011232Y-85307230D01*
X161132184Y-85428182D01*
X161192660Y-85549135D01*
D18*
X156309190Y-74879947D02*
X155809190Y-74879947D01*
X155809190Y-74760900D01*
X155833000Y-74689471D01*
X155880619Y-74641852D01*
X155928238Y-74618042D01*
X156023476Y-74594233D01*
X156094904Y-74594233D01*
X156190142Y-74618042D01*
X156237761Y-74641852D01*
X156285380Y-74689471D01*
X156309190Y-74760900D01*
X156309190Y-74879947D01*
X155809190Y-74427566D02*
X155809190Y-74118042D01*
X155999666Y-74284709D01*
X155999666Y-74213280D01*
X156023476Y-74165661D01*
X156047285Y-74141852D01*
X156094904Y-74118042D01*
X156213952Y-74118042D01*
X156261571Y-74141852D01*
X156285380Y-74165661D01*
X156309190Y-74213280D01*
X156309190Y-74356138D01*
X156285380Y-74403757D01*
X156261571Y-74427566D01*
X156068890Y-71199633D02*
X155830795Y-71366300D01*
X156068890Y-71485347D02*
X155568890Y-71485347D01*
X155568890Y-71294871D01*
X155592700Y-71247252D01*
X155616509Y-71223442D01*
X155664128Y-71199633D01*
X155735557Y-71199633D01*
X155783176Y-71223442D01*
X155806985Y-71247252D01*
X155830795Y-71294871D01*
X155830795Y-71485347D01*
X155568890Y-71032966D02*
X155568890Y-70699633D01*
X156068890Y-70913919D01*
X115142247Y-66667690D02*
X115427961Y-66667690D01*
X115285104Y-67167690D02*
X115285104Y-66667690D01*
X115594628Y-67167690D02*
X115594628Y-66667690D01*
X115785104Y-66667690D01*
X115832723Y-66691500D01*
X115856533Y-66715309D01*
X115880342Y-66762928D01*
X115880342Y-66834357D01*
X115856533Y-66881976D01*
X115832723Y-66905785D01*
X115785104Y-66929595D01*
X115594628Y-66929595D01*
X116308914Y-66667690D02*
X116213676Y-66667690D01*
X116166057Y-66691500D01*
X116142247Y-66715309D01*
X116094628Y-66786738D01*
X116070819Y-66881976D01*
X116070819Y-67072452D01*
X116094628Y-67120071D01*
X116118438Y-67143880D01*
X116166057Y-67167690D01*
X116261295Y-67167690D01*
X116308914Y-67143880D01*
X116332723Y-67120071D01*
X116356533Y-67072452D01*
X116356533Y-66953404D01*
X116332723Y-66905785D01*
X116308914Y-66881976D01*
X116261295Y-66858166D01*
X116166057Y-66858166D01*
X116118438Y-66881976D01*
X116094628Y-66905785D01*
X116070819Y-66953404D01*
X114594628Y-70165690D02*
X114427961Y-69927595D01*
X114308914Y-70165690D02*
X114308914Y-69665690D01*
X114499390Y-69665690D01*
X114547009Y-69689500D01*
X114570819Y-69713309D01*
X114594628Y-69760928D01*
X114594628Y-69832357D01*
X114570819Y-69879976D01*
X114547009Y-69903785D01*
X114499390Y-69927595D01*
X114308914Y-69927595D01*
X114808914Y-69903785D02*
X114975580Y-69903785D01*
X115047009Y-70165690D02*
X114808914Y-70165690D01*
X114808914Y-69665690D01*
X115047009Y-69665690D01*
X115427961Y-69903785D02*
X115261295Y-69903785D01*
X115261295Y-70165690D02*
X115261295Y-69665690D01*
X115499390Y-69665690D01*
X115570819Y-70213309D02*
X115951771Y-70213309D01*
X116356533Y-70118071D02*
X116332723Y-70141880D01*
X116261295Y-70165690D01*
X116213676Y-70165690D01*
X116142247Y-70141880D01*
X116094628Y-70094261D01*
X116070819Y-70046642D01*
X116047009Y-69951404D01*
X116047009Y-69879976D01*
X116070819Y-69784738D01*
X116094628Y-69737119D01*
X116142247Y-69689500D01*
X116213676Y-69665690D01*
X116261295Y-69665690D01*
X116332723Y-69689500D01*
X116356533Y-69713309D01*
X116808914Y-70165690D02*
X116570819Y-70165690D01*
X116570819Y-69665690D01*
X116975580Y-70165690D02*
X116975580Y-69665690D01*
X117261295Y-70165690D02*
X117047009Y-69879976D01*
X117261295Y-69665690D02*
X116975580Y-69951404D01*
X148644847Y-69614290D02*
X148930561Y-69614290D01*
X148787704Y-70114290D02*
X148787704Y-69614290D01*
X149097228Y-70114290D02*
X149097228Y-69614290D01*
X149287704Y-69614290D01*
X149335323Y-69638100D01*
X149359133Y-69661909D01*
X149382942Y-69709528D01*
X149382942Y-69780957D01*
X149359133Y-69828576D01*
X149335323Y-69852385D01*
X149287704Y-69876195D01*
X149097228Y-69876195D01*
X149549609Y-69614290D02*
X149882942Y-69614290D01*
X149668657Y-70114290D01*
X150411857Y-68026790D02*
X150578523Y-68526790D01*
X150745190Y-68026790D01*
X150911857Y-68026790D02*
X150911857Y-68431552D01*
X150935666Y-68479171D01*
X150959476Y-68502980D01*
X151007095Y-68526790D01*
X151102333Y-68526790D01*
X151149952Y-68502980D01*
X151173761Y-68479171D01*
X151197571Y-68431552D01*
X151197571Y-68026790D01*
X151411857Y-68502980D02*
X151483285Y-68526790D01*
X151602333Y-68526790D01*
X151649952Y-68502980D01*
X151673761Y-68479171D01*
X151697571Y-68431552D01*
X151697571Y-68383933D01*
X151673761Y-68336314D01*
X151649952Y-68312504D01*
X151602333Y-68288695D01*
X151507095Y-68264885D01*
X151459476Y-68241076D01*
X151435666Y-68217266D01*
X151411857Y-68169647D01*
X151411857Y-68122028D01*
X151435666Y-68074409D01*
X151459476Y-68050600D01*
X151507095Y-68026790D01*
X151626142Y-68026790D01*
X151697571Y-68050600D01*
X152078523Y-68264885D02*
X152149952Y-68288695D01*
X152173761Y-68312504D01*
X152197571Y-68360123D01*
X152197571Y-68431552D01*
X152173761Y-68479171D01*
X152149952Y-68502980D01*
X152102333Y-68526790D01*
X151911857Y-68526790D01*
X151911857Y-68026790D01*
X152078523Y-68026790D01*
X152126142Y-68050600D01*
X152149952Y-68074409D01*
X152173761Y-68122028D01*
X152173761Y-68169647D01*
X152149952Y-68217266D01*
X152126142Y-68241076D01*
X152078523Y-68264885D01*
X151911857Y-68264885D01*
X152364238Y-68026790D02*
X152673761Y-68026790D01*
X152507095Y-68217266D01*
X152578523Y-68217266D01*
X152626142Y-68241076D01*
X152649952Y-68264885D01*
X152673761Y-68312504D01*
X152673761Y-68431552D01*
X152649952Y-68479171D01*
X152626142Y-68502980D01*
X152578523Y-68526790D01*
X152435666Y-68526790D01*
X152388047Y-68502980D01*
X152364238Y-68479171D01*
X152816619Y-68026790D02*
X152983285Y-68526790D01*
X153149952Y-68026790D01*
X153269000Y-68026790D02*
X153578523Y-68026790D01*
X153411857Y-68217266D01*
X153483285Y-68217266D01*
X153530904Y-68241076D01*
X153554714Y-68264885D01*
X153578523Y-68312504D01*
X153578523Y-68431552D01*
X153554714Y-68479171D01*
X153530904Y-68502980D01*
X153483285Y-68526790D01*
X153340428Y-68526790D01*
X153292809Y-68502980D01*
X153269000Y-68479171D01*
X125603047Y-84028790D02*
X125603047Y-84433552D01*
X125626857Y-84481171D01*
X125650666Y-84504980D01*
X125698285Y-84528790D01*
X125793523Y-84528790D01*
X125841142Y-84504980D01*
X125864952Y-84481171D01*
X125888761Y-84433552D01*
X125888761Y-84028790D01*
X126364952Y-84028790D02*
X126126857Y-84028790D01*
X126103047Y-84266885D01*
X126126857Y-84243076D01*
X126174476Y-84219266D01*
X126293523Y-84219266D01*
X126341142Y-84243076D01*
X126364952Y-84266885D01*
X126388761Y-84314504D01*
X126388761Y-84433552D01*
X126364952Y-84481171D01*
X126341142Y-84504980D01*
X126293523Y-84528790D01*
X126174476Y-84528790D01*
X126126857Y-84504980D01*
X126103047Y-84481171D01*
X138362571Y-68045190D02*
X138195904Y-67807095D01*
X138076857Y-68045190D02*
X138076857Y-67545190D01*
X138267333Y-67545190D01*
X138314952Y-67569000D01*
X138338761Y-67592809D01*
X138362571Y-67640428D01*
X138362571Y-67711857D01*
X138338761Y-67759476D01*
X138314952Y-67783285D01*
X138267333Y-67807095D01*
X138076857Y-67807095D01*
X138553047Y-67592809D02*
X138576857Y-67569000D01*
X138624476Y-67545190D01*
X138743523Y-67545190D01*
X138791142Y-67569000D01*
X138814952Y-67592809D01*
X138838761Y-67640428D01*
X138838761Y-67688047D01*
X138814952Y-67759476D01*
X138529238Y-68045190D01*
X138838761Y-68045190D01*
X139314952Y-68045190D02*
X139029238Y-68045190D01*
X139172095Y-68045190D02*
X139172095Y-67545190D01*
X139124476Y-67616619D01*
X139076857Y-67664238D01*
X139029238Y-67688047D01*
X134450971Y-67994390D02*
X134284304Y-67756295D01*
X134165257Y-67994390D02*
X134165257Y-67494390D01*
X134355733Y-67494390D01*
X134403352Y-67518200D01*
X134427161Y-67542009D01*
X134450971Y-67589628D01*
X134450971Y-67661057D01*
X134427161Y-67708676D01*
X134403352Y-67732485D01*
X134355733Y-67756295D01*
X134165257Y-67756295D01*
X134641447Y-67542009D02*
X134665257Y-67518200D01*
X134712876Y-67494390D01*
X134831923Y-67494390D01*
X134879542Y-67518200D01*
X134903352Y-67542009D01*
X134927161Y-67589628D01*
X134927161Y-67637247D01*
X134903352Y-67708676D01*
X134617638Y-67994390D01*
X134927161Y-67994390D01*
X135117638Y-67542009D02*
X135141447Y-67518200D01*
X135189066Y-67494390D01*
X135308114Y-67494390D01*
X135355733Y-67518200D01*
X135379542Y-67542009D01*
X135403352Y-67589628D01*
X135403352Y-67637247D01*
X135379542Y-67708676D01*
X135093828Y-67994390D01*
X135403352Y-67994390D01*
X157581647Y-89583390D02*
X157581647Y-89083390D01*
X157581647Y-89321485D02*
X157867361Y-89321485D01*
X157867361Y-89583390D02*
X157867361Y-89083390D01*
X158367361Y-89583390D02*
X158081647Y-89583390D01*
X158224504Y-89583390D02*
X158224504Y-89083390D01*
X158176885Y-89154819D01*
X158129266Y-89202438D01*
X158081647Y-89226247D01*
X154457447Y-69161790D02*
X154457447Y-68661790D01*
X154457447Y-68899885D02*
X154743161Y-68899885D01*
X154743161Y-69161790D02*
X154743161Y-68661790D01*
X154957447Y-68709409D02*
X154981257Y-68685600D01*
X155028876Y-68661790D01*
X155147923Y-68661790D01*
X155195542Y-68685600D01*
X155219352Y-68709409D01*
X155243161Y-68757028D01*
X155243161Y-68804647D01*
X155219352Y-68876076D01*
X154933638Y-69161790D01*
X155243161Y-69161790D01*
X101803247Y-62334390D02*
X101803247Y-61834390D01*
X101803247Y-62072485D02*
X102088961Y-62072485D01*
X102088961Y-62334390D02*
X102088961Y-61834390D01*
X102279438Y-61834390D02*
X102588961Y-61834390D01*
X102422295Y-62024866D01*
X102493723Y-62024866D01*
X102541342Y-62048676D01*
X102565152Y-62072485D01*
X102588961Y-62120104D01*
X102588961Y-62239152D01*
X102565152Y-62286771D01*
X102541342Y-62310580D01*
X102493723Y-62334390D01*
X102350866Y-62334390D01*
X102303247Y-62310580D01*
X102279438Y-62286771D01*
X101803247Y-89385390D02*
X101803247Y-88885390D01*
X101803247Y-89123485D02*
X102088961Y-89123485D01*
X102088961Y-89385390D02*
X102088961Y-88885390D01*
X102541342Y-89052057D02*
X102541342Y-89385390D01*
X102422295Y-88861580D02*
X102303247Y-89218723D01*
X102612771Y-89218723D01*
X102570790Y-82894466D02*
X102927933Y-82894466D01*
X102999361Y-82918276D01*
X103046980Y-82965895D01*
X103070790Y-83037323D01*
X103070790Y-83084942D01*
X102570790Y-82418276D02*
X102570790Y-82656371D01*
X102808885Y-82680180D01*
X102785076Y-82656371D01*
X102761266Y-82608752D01*
X102761266Y-82489704D01*
X102785076Y-82442085D01*
X102808885Y-82418276D01*
X102856504Y-82394466D01*
X102975552Y-82394466D01*
X103023171Y-82418276D01*
X103046980Y-82442085D01*
X103070790Y-82489704D01*
X103070790Y-82608752D01*
X103046980Y-82656371D01*
X103023171Y-82680180D01*
X156066371Y-82144371D02*
X156042561Y-82168180D01*
X155971133Y-82191990D01*
X155923514Y-82191990D01*
X155852085Y-82168180D01*
X155804466Y-82120561D01*
X155780657Y-82072942D01*
X155756847Y-81977704D01*
X155756847Y-81906276D01*
X155780657Y-81811038D01*
X155804466Y-81763419D01*
X155852085Y-81715800D01*
X155923514Y-81691990D01*
X155971133Y-81691990D01*
X156042561Y-81715800D01*
X156066371Y-81739609D01*
X156542561Y-82191990D02*
X156256847Y-82191990D01*
X156399704Y-82191990D02*
X156399704Y-81691990D01*
X156352085Y-81763419D01*
X156304466Y-81811038D01*
X156256847Y-81834847D01*
X156971133Y-81691990D02*
X156875895Y-81691990D01*
X156828276Y-81715800D01*
X156804466Y-81739609D01*
X156756847Y-81811038D01*
X156733038Y-81906276D01*
X156733038Y-82096752D01*
X156756847Y-82144371D01*
X156780657Y-82168180D01*
X156828276Y-82191990D01*
X156923514Y-82191990D01*
X156971133Y-82168180D01*
X156994942Y-82144371D01*
X157018752Y-82096752D01*
X157018752Y-81977704D01*
X156994942Y-81930085D01*
X156971133Y-81906276D01*
X156923514Y-81882466D01*
X156828276Y-81882466D01*
X156780657Y-81906276D01*
X156756847Y-81930085D01*
X156733038Y-81977704D01*
X146838171Y-82820628D02*
X146861980Y-82844438D01*
X146885790Y-82915866D01*
X146885790Y-82963485D01*
X146861980Y-83034914D01*
X146814361Y-83082533D01*
X146766742Y-83106342D01*
X146671504Y-83130152D01*
X146600076Y-83130152D01*
X146504838Y-83106342D01*
X146457219Y-83082533D01*
X146409600Y-83034914D01*
X146385790Y-82963485D01*
X146385790Y-82915866D01*
X146409600Y-82844438D01*
X146433409Y-82820628D01*
X146885790Y-82344438D02*
X146885790Y-82630152D01*
X146885790Y-82487295D02*
X146385790Y-82487295D01*
X146457219Y-82534914D01*
X146504838Y-82582533D01*
X146528647Y-82630152D01*
X146385790Y-81892057D02*
X146385790Y-82130152D01*
X146623885Y-82153961D01*
X146600076Y-82130152D01*
X146576266Y-82082533D01*
X146576266Y-81963485D01*
X146600076Y-81915866D01*
X146623885Y-81892057D01*
X146671504Y-81868247D01*
X146790552Y-81868247D01*
X146838171Y-81892057D01*
X146861980Y-81915866D01*
X146885790Y-81963485D01*
X146885790Y-82082533D01*
X146861980Y-82130152D01*
X146838171Y-82153961D01*
X157288752Y-88643590D02*
X157288752Y-88143590D01*
X157407800Y-88143590D01*
X157479228Y-88167400D01*
X157526847Y-88215019D01*
X157550657Y-88262638D01*
X157574466Y-88357876D01*
X157574466Y-88429304D01*
X157550657Y-88524542D01*
X157526847Y-88572161D01*
X157479228Y-88619780D01*
X157407800Y-88643590D01*
X157288752Y-88643590D01*
X157764942Y-88191209D02*
X157788752Y-88167400D01*
X157836371Y-88143590D01*
X157955419Y-88143590D01*
X158003038Y-88167400D01*
X158026847Y-88191209D01*
X158050657Y-88238828D01*
X158050657Y-88286447D01*
X158026847Y-88357876D01*
X157741133Y-88643590D01*
X158050657Y-88643590D01*
X147890752Y-85697190D02*
X147890752Y-85197190D01*
X148009800Y-85197190D01*
X148081228Y-85221000D01*
X148128847Y-85268619D01*
X148152657Y-85316238D01*
X148176466Y-85411476D01*
X148176466Y-85482904D01*
X148152657Y-85578142D01*
X148128847Y-85625761D01*
X148081228Y-85673380D01*
X148009800Y-85697190D01*
X147890752Y-85697190D01*
X148652657Y-85697190D02*
X148366942Y-85697190D01*
X148509800Y-85697190D02*
X148509800Y-85197190D01*
X148462180Y-85268619D01*
X148414561Y-85316238D01*
X148366942Y-85340047D01*
X145017371Y-80185390D02*
X144850704Y-79947295D01*
X144731657Y-80185390D02*
X144731657Y-79685390D01*
X144922133Y-79685390D01*
X144969752Y-79709200D01*
X144993561Y-79733009D01*
X145017371Y-79780628D01*
X145017371Y-79852057D01*
X144993561Y-79899676D01*
X144969752Y-79923485D01*
X144922133Y-79947295D01*
X144731657Y-79947295D01*
X145493561Y-80185390D02*
X145207847Y-80185390D01*
X145350704Y-80185390D02*
X145350704Y-79685390D01*
X145303085Y-79756819D01*
X145255466Y-79804438D01*
X145207847Y-79828247D01*
X145803085Y-79685390D02*
X145850704Y-79685390D01*
X145898323Y-79709200D01*
X145922133Y-79733009D01*
X145945942Y-79780628D01*
X145969752Y-79875866D01*
X145969752Y-79994914D01*
X145945942Y-80090152D01*
X145922133Y-80137771D01*
X145898323Y-80161580D01*
X145850704Y-80185390D01*
X145803085Y-80185390D01*
X145755466Y-80161580D01*
X145731657Y-80137771D01*
X145707847Y-80090152D01*
X145684038Y-79994914D01*
X145684038Y-79875866D01*
X145707847Y-79780628D01*
X145731657Y-79733009D01*
X145755466Y-79709200D01*
X145803085Y-79685390D01*
X152092790Y-74337028D02*
X151854695Y-74503695D01*
X152092790Y-74622742D02*
X151592790Y-74622742D01*
X151592790Y-74432266D01*
X151616600Y-74384647D01*
X151640409Y-74360838D01*
X151688028Y-74337028D01*
X151759457Y-74337028D01*
X151807076Y-74360838D01*
X151830885Y-74384647D01*
X151854695Y-74432266D01*
X151854695Y-74622742D01*
X152092790Y-73860838D02*
X152092790Y-74146552D01*
X152092790Y-74003695D02*
X151592790Y-74003695D01*
X151664219Y-74051314D01*
X151711838Y-74098933D01*
X151735647Y-74146552D01*
X151592790Y-73408457D02*
X151592790Y-73646552D01*
X151830885Y-73670361D01*
X151807076Y-73646552D01*
X151783266Y-73598933D01*
X151783266Y-73479885D01*
X151807076Y-73432266D01*
X151830885Y-73408457D01*
X151878504Y-73384647D01*
X151997552Y-73384647D01*
X152045171Y-73408457D01*
X152068980Y-73432266D01*
X152092790Y-73479885D01*
X152092790Y-73598933D01*
X152068980Y-73646552D01*
X152045171Y-73670361D01*
X156828371Y-84127470D02*
X156661704Y-83889375D01*
X156542657Y-84127470D02*
X156542657Y-83627470D01*
X156733133Y-83627470D01*
X156780752Y-83651280D01*
X156804561Y-83675089D01*
X156828371Y-83722708D01*
X156828371Y-83794137D01*
X156804561Y-83841756D01*
X156780752Y-83865565D01*
X156733133Y-83889375D01*
X156542657Y-83889375D01*
X157304561Y-84127470D02*
X157018847Y-84127470D01*
X157161704Y-84127470D02*
X157161704Y-83627470D01*
X157114085Y-83698899D01*
X157066466Y-83746518D01*
X157018847Y-83770327D01*
X157733133Y-83627470D02*
X157637895Y-83627470D01*
X157590276Y-83651280D01*
X157566466Y-83675089D01*
X157518847Y-83746518D01*
X157495038Y-83841756D01*
X157495038Y-84032232D01*
X157518847Y-84079851D01*
X157542657Y-84103660D01*
X157590276Y-84127470D01*
X157685514Y-84127470D01*
X157733133Y-84103660D01*
X157756942Y-84079851D01*
X157780752Y-84032232D01*
X157780752Y-83913184D01*
X157756942Y-83865565D01*
X157733133Y-83841756D01*
X157685514Y-83817946D01*
X157590276Y-83817946D01*
X157542657Y-83841756D01*
X157518847Y-83865565D01*
X157495038Y-83913184D01*
X147317590Y-74057628D02*
X147079495Y-74224295D01*
X147317590Y-74343342D02*
X146817590Y-74343342D01*
X146817590Y-74152866D01*
X146841400Y-74105247D01*
X146865209Y-74081438D01*
X146912828Y-74057628D01*
X146984257Y-74057628D01*
X147031876Y-74081438D01*
X147055685Y-74105247D01*
X147079495Y-74152866D01*
X147079495Y-74343342D01*
X147317590Y-73581438D02*
X147317590Y-73867152D01*
X147317590Y-73724295D02*
X146817590Y-73724295D01*
X146889019Y-73771914D01*
X146936638Y-73819533D01*
X146960447Y-73867152D01*
X146984257Y-73152866D02*
X147317590Y-73152866D01*
X146793780Y-73271914D02*
X147150923Y-73390961D01*
X147150923Y-73081438D01*
X158747590Y-79239228D02*
X158509495Y-79405895D01*
X158747590Y-79524942D02*
X158247590Y-79524942D01*
X158247590Y-79334466D01*
X158271400Y-79286847D01*
X158295209Y-79263038D01*
X158342828Y-79239228D01*
X158414257Y-79239228D01*
X158461876Y-79263038D01*
X158485685Y-79286847D01*
X158509495Y-79334466D01*
X158509495Y-79524942D01*
X158747590Y-78763038D02*
X158747590Y-79048752D01*
X158747590Y-78905895D02*
X158247590Y-78905895D01*
X158319019Y-78953514D01*
X158366638Y-79001133D01*
X158390447Y-79048752D01*
X158247590Y-78596371D02*
X158247590Y-78286847D01*
X158438066Y-78453514D01*
X158438066Y-78382085D01*
X158461876Y-78334466D01*
X158485685Y-78310657D01*
X158533304Y-78286847D01*
X158652352Y-78286847D01*
X158699971Y-78310657D01*
X158723780Y-78334466D01*
X158747590Y-78382085D01*
X158747590Y-78524942D01*
X158723780Y-78572561D01*
X158699971Y-78596371D01*
X149335371Y-88846790D02*
X149168704Y-88608695D01*
X149049657Y-88846790D02*
X149049657Y-88346790D01*
X149240133Y-88346790D01*
X149287752Y-88370600D01*
X149311561Y-88394409D01*
X149335371Y-88442028D01*
X149335371Y-88513457D01*
X149311561Y-88561076D01*
X149287752Y-88584885D01*
X149240133Y-88608695D01*
X149049657Y-88608695D01*
X149811561Y-88846790D02*
X149525847Y-88846790D01*
X149668704Y-88846790D02*
X149668704Y-88346790D01*
X149621085Y-88418219D01*
X149573466Y-88465838D01*
X149525847Y-88489647D01*
X150002038Y-88394409D02*
X150025847Y-88370600D01*
X150073466Y-88346790D01*
X150192514Y-88346790D01*
X150240133Y-88370600D01*
X150263942Y-88394409D01*
X150287752Y-88442028D01*
X150287752Y-88489647D01*
X150263942Y-88561076D01*
X149978228Y-88846790D01*
X150287752Y-88846790D01*
X145499971Y-75308590D02*
X145333304Y-75070495D01*
X145214257Y-75308590D02*
X145214257Y-74808590D01*
X145404733Y-74808590D01*
X145452352Y-74832400D01*
X145476161Y-74856209D01*
X145499971Y-74903828D01*
X145499971Y-74975257D01*
X145476161Y-75022876D01*
X145452352Y-75046685D01*
X145404733Y-75070495D01*
X145214257Y-75070495D01*
X145976161Y-75308590D02*
X145690447Y-75308590D01*
X145833304Y-75308590D02*
X145833304Y-74808590D01*
X145785685Y-74880019D01*
X145738066Y-74927638D01*
X145690447Y-74951447D01*
X146452352Y-75308590D02*
X146166638Y-75308590D01*
X146309495Y-75308590D02*
X146309495Y-74808590D01*
X146261876Y-74880019D01*
X146214257Y-74927638D01*
X146166638Y-74951447D01*
X147766007Y-91530390D02*
X148051721Y-91530390D01*
X147908864Y-92030390D02*
X147908864Y-91530390D01*
X148218388Y-92030390D02*
X148218388Y-91530390D01*
X148408864Y-91530390D01*
X148456483Y-91554200D01*
X148480293Y-91578009D01*
X148504102Y-91625628D01*
X148504102Y-91697057D01*
X148480293Y-91744676D01*
X148456483Y-91768485D01*
X148408864Y-91792295D01*
X148218388Y-91792295D01*
X148980293Y-92030390D02*
X148694579Y-92030390D01*
X148837436Y-92030390D02*
X148837436Y-91530390D01*
X148789817Y-91601819D01*
X148742198Y-91649438D01*
X148694579Y-91673247D01*
X151936687Y-91638630D02*
X152222401Y-91638630D01*
X152079544Y-92138630D02*
X152079544Y-91638630D01*
X152389068Y-92138630D02*
X152389068Y-91638630D01*
X152579544Y-91638630D01*
X152627163Y-91662440D01*
X152650973Y-91686249D01*
X152674782Y-91733868D01*
X152674782Y-91805297D01*
X152650973Y-91852916D01*
X152627163Y-91876725D01*
X152579544Y-91900535D01*
X152389068Y-91900535D01*
X152865259Y-91686249D02*
X152889068Y-91662440D01*
X152936687Y-91638630D01*
X153055735Y-91638630D01*
X153103354Y-91662440D01*
X153127163Y-91686249D01*
X153150973Y-91733868D01*
X153150973Y-91781487D01*
X153127163Y-91852916D01*
X152841449Y-92138630D01*
X153150973Y-92138630D01*
X148965504Y-77975590D02*
X148965504Y-77475590D01*
X149489314Y-77927971D02*
X149465504Y-77951780D01*
X149394076Y-77975590D01*
X149346457Y-77975590D01*
X149275028Y-77951780D01*
X149227409Y-77904161D01*
X149203600Y-77856542D01*
X149179790Y-77761304D01*
X149179790Y-77689876D01*
X149203600Y-77594638D01*
X149227409Y-77547019D01*
X149275028Y-77499400D01*
X149346457Y-77475590D01*
X149394076Y-77475590D01*
X149465504Y-77499400D01*
X149489314Y-77523209D01*
X149679790Y-77523209D02*
X149703600Y-77499400D01*
X149751219Y-77475590D01*
X149870266Y-77475590D01*
X149917885Y-77499400D01*
X149941695Y-77523209D01*
X149965504Y-77570828D01*
X149965504Y-77618447D01*
X149941695Y-77689876D01*
X149655980Y-77975590D01*
X149965504Y-77975590D01*
X107820590Y-81642733D02*
X107582495Y-81809400D01*
X107820590Y-81928447D02*
X107320590Y-81928447D01*
X107320590Y-81737971D01*
X107344400Y-81690352D01*
X107368209Y-81666542D01*
X107415828Y-81642733D01*
X107487257Y-81642733D01*
X107534876Y-81666542D01*
X107558685Y-81690352D01*
X107582495Y-81737971D01*
X107582495Y-81928447D01*
X107534876Y-81357019D02*
X107511066Y-81404638D01*
X107487257Y-81428447D01*
X107439638Y-81452257D01*
X107415828Y-81452257D01*
X107368209Y-81428447D01*
X107344400Y-81404638D01*
X107320590Y-81357019D01*
X107320590Y-81261780D01*
X107344400Y-81214161D01*
X107368209Y-81190352D01*
X107415828Y-81166542D01*
X107439638Y-81166542D01*
X107487257Y-81190352D01*
X107511066Y-81214161D01*
X107534876Y-81261780D01*
X107534876Y-81357019D01*
X107558685Y-81404638D01*
X107582495Y-81428447D01*
X107630114Y-81452257D01*
X107725352Y-81452257D01*
X107772971Y-81428447D01*
X107796780Y-81404638D01*
X107820590Y-81357019D01*
X107820590Y-81261780D01*
X107796780Y-81214161D01*
X107772971Y-81190352D01*
X107725352Y-81166542D01*
X107630114Y-81166542D01*
X107582495Y-81190352D01*
X107558685Y-81214161D01*
X107534876Y-81261780D01*
X114130971Y-75464171D02*
X114107161Y-75487980D01*
X114035733Y-75511790D01*
X113988114Y-75511790D01*
X113916685Y-75487980D01*
X113869066Y-75440361D01*
X113845257Y-75392742D01*
X113821447Y-75297504D01*
X113821447Y-75226076D01*
X113845257Y-75130838D01*
X113869066Y-75083219D01*
X113916685Y-75035600D01*
X113988114Y-75011790D01*
X114035733Y-75011790D01*
X114107161Y-75035600D01*
X114130971Y-75059409D01*
X114321447Y-75059409D02*
X114345257Y-75035600D01*
X114392876Y-75011790D01*
X114511923Y-75011790D01*
X114559542Y-75035600D01*
X114583352Y-75059409D01*
X114607161Y-75107028D01*
X114607161Y-75154647D01*
X114583352Y-75226076D01*
X114297638Y-75511790D01*
X114607161Y-75511790D01*
X114845257Y-75511790D02*
X114940495Y-75511790D01*
X114988114Y-75487980D01*
X115011923Y-75464171D01*
X115059542Y-75392742D01*
X115083352Y-75297504D01*
X115083352Y-75107028D01*
X115059542Y-75059409D01*
X115035733Y-75035600D01*
X114988114Y-75011790D01*
X114892876Y-75011790D01*
X114845257Y-75035600D01*
X114821447Y-75059409D01*
X114797638Y-75107028D01*
X114797638Y-75226076D01*
X114821447Y-75273695D01*
X114845257Y-75297504D01*
X114892876Y-75321314D01*
X114988114Y-75321314D01*
X115035733Y-75297504D01*
X115059542Y-75273695D01*
X115083352Y-75226076D01*
X109965371Y-75641971D02*
X109941561Y-75665780D01*
X109870133Y-75689590D01*
X109822514Y-75689590D01*
X109751085Y-75665780D01*
X109703466Y-75618161D01*
X109679657Y-75570542D01*
X109655847Y-75475304D01*
X109655847Y-75403876D01*
X109679657Y-75308638D01*
X109703466Y-75261019D01*
X109751085Y-75213400D01*
X109822514Y-75189590D01*
X109870133Y-75189590D01*
X109941561Y-75213400D01*
X109965371Y-75237209D01*
X110155847Y-75237209D02*
X110179657Y-75213400D01*
X110227276Y-75189590D01*
X110346323Y-75189590D01*
X110393942Y-75213400D01*
X110417752Y-75237209D01*
X110441561Y-75284828D01*
X110441561Y-75332447D01*
X110417752Y-75403876D01*
X110132038Y-75689590D01*
X110441561Y-75689590D01*
X110727276Y-75403876D02*
X110679657Y-75380066D01*
X110655847Y-75356257D01*
X110632038Y-75308638D01*
X110632038Y-75284828D01*
X110655847Y-75237209D01*
X110679657Y-75213400D01*
X110727276Y-75189590D01*
X110822514Y-75189590D01*
X110870133Y-75213400D01*
X110893942Y-75237209D01*
X110917752Y-75284828D01*
X110917752Y-75308638D01*
X110893942Y-75356257D01*
X110870133Y-75380066D01*
X110822514Y-75403876D01*
X110727276Y-75403876D01*
X110679657Y-75427685D01*
X110655847Y-75451495D01*
X110632038Y-75499114D01*
X110632038Y-75594352D01*
X110655847Y-75641971D01*
X110679657Y-75665780D01*
X110727276Y-75689590D01*
X110822514Y-75689590D01*
X110870133Y-75665780D01*
X110893942Y-75641971D01*
X110917752Y-75594352D01*
X110917752Y-75499114D01*
X110893942Y-75451495D01*
X110870133Y-75427685D01*
X110822514Y-75403876D01*
X112225971Y-75480571D02*
X112202161Y-75504380D01*
X112130733Y-75528190D01*
X112083114Y-75528190D01*
X112011685Y-75504380D01*
X111964066Y-75456761D01*
X111940257Y-75409142D01*
X111916447Y-75313904D01*
X111916447Y-75242476D01*
X111940257Y-75147238D01*
X111964066Y-75099619D01*
X112011685Y-75052000D01*
X112083114Y-75028190D01*
X112130733Y-75028190D01*
X112202161Y-75052000D01*
X112225971Y-75075809D01*
X112416447Y-75075809D02*
X112440257Y-75052000D01*
X112487876Y-75028190D01*
X112606923Y-75028190D01*
X112654542Y-75052000D01*
X112678352Y-75075809D01*
X112702161Y-75123428D01*
X112702161Y-75171047D01*
X112678352Y-75242476D01*
X112392638Y-75528190D01*
X112702161Y-75528190D01*
X112868828Y-75028190D02*
X113202161Y-75028190D01*
X112987876Y-75528190D01*
X105563171Y-76766428D02*
X105586980Y-76790238D01*
X105610790Y-76861666D01*
X105610790Y-76909285D01*
X105586980Y-76980714D01*
X105539361Y-77028333D01*
X105491742Y-77052142D01*
X105396504Y-77075952D01*
X105325076Y-77075952D01*
X105229838Y-77052142D01*
X105182219Y-77028333D01*
X105134600Y-76980714D01*
X105110790Y-76909285D01*
X105110790Y-76861666D01*
X105134600Y-76790238D01*
X105158409Y-76766428D01*
X105158409Y-76575952D02*
X105134600Y-76552142D01*
X105110790Y-76504523D01*
X105110790Y-76385476D01*
X105134600Y-76337857D01*
X105158409Y-76314047D01*
X105206028Y-76290238D01*
X105253647Y-76290238D01*
X105325076Y-76314047D01*
X105610790Y-76599761D01*
X105610790Y-76290238D01*
X105110790Y-76123571D02*
X105110790Y-75814047D01*
X105301266Y-75980714D01*
X105301266Y-75909285D01*
X105325076Y-75861666D01*
X105348885Y-75837857D01*
X105396504Y-75814047D01*
X105515552Y-75814047D01*
X105563171Y-75837857D01*
X105586980Y-75861666D01*
X105610790Y-75909285D01*
X105610790Y-76052142D01*
X105586980Y-76099761D01*
X105563171Y-76123571D01*
X105809266Y-69618990D02*
X105642600Y-69380895D01*
X105523552Y-69618990D02*
X105523552Y-69118990D01*
X105714028Y-69118990D01*
X105761647Y-69142800D01*
X105785457Y-69166609D01*
X105809266Y-69214228D01*
X105809266Y-69285657D01*
X105785457Y-69333276D01*
X105761647Y-69357085D01*
X105714028Y-69380895D01*
X105523552Y-69380895D01*
X106261647Y-69118990D02*
X106023552Y-69118990D01*
X105999742Y-69357085D01*
X106023552Y-69333276D01*
X106071171Y-69309466D01*
X106190219Y-69309466D01*
X106237838Y-69333276D01*
X106261647Y-69357085D01*
X106285457Y-69404704D01*
X106285457Y-69523752D01*
X106261647Y-69571371D01*
X106237838Y-69595180D01*
X106190219Y-69618990D01*
X106071171Y-69618990D01*
X106023552Y-69595180D01*
X105999742Y-69571371D01*
X147709771Y-71298571D02*
X147685961Y-71322380D01*
X147614533Y-71346190D01*
X147566914Y-71346190D01*
X147495485Y-71322380D01*
X147447866Y-71274761D01*
X147424057Y-71227142D01*
X147400247Y-71131904D01*
X147400247Y-71060476D01*
X147424057Y-70965238D01*
X147447866Y-70917619D01*
X147495485Y-70870000D01*
X147566914Y-70846190D01*
X147614533Y-70846190D01*
X147685961Y-70870000D01*
X147709771Y-70893809D01*
X148185961Y-71346190D02*
X147900247Y-71346190D01*
X148043104Y-71346190D02*
X148043104Y-70846190D01*
X147995485Y-70917619D01*
X147947866Y-70965238D01*
X147900247Y-70989047D01*
X148352628Y-70846190D02*
X148685961Y-70846190D01*
X148471676Y-71346190D01*
X139683371Y-68012971D02*
X139659561Y-68036780D01*
X139588133Y-68060590D01*
X139540514Y-68060590D01*
X139469085Y-68036780D01*
X139421466Y-67989161D01*
X139397657Y-67941542D01*
X139373847Y-67846304D01*
X139373847Y-67774876D01*
X139397657Y-67679638D01*
X139421466Y-67632019D01*
X139469085Y-67584400D01*
X139540514Y-67560590D01*
X139588133Y-67560590D01*
X139659561Y-67584400D01*
X139683371Y-67608209D01*
X140159561Y-68060590D02*
X139873847Y-68060590D01*
X140016704Y-68060590D02*
X140016704Y-67560590D01*
X139969085Y-67632019D01*
X139921466Y-67679638D01*
X139873847Y-67703447D01*
X140635752Y-68060590D02*
X140350038Y-68060590D01*
X140492895Y-68060590D02*
X140492895Y-67560590D01*
X140445276Y-67632019D01*
X140397657Y-67679638D01*
X140350038Y-67703447D01*
X106536371Y-73279771D02*
X106512561Y-73303580D01*
X106441133Y-73327390D01*
X106393514Y-73327390D01*
X106322085Y-73303580D01*
X106274466Y-73255961D01*
X106250657Y-73208342D01*
X106226847Y-73113104D01*
X106226847Y-73041676D01*
X106250657Y-72946438D01*
X106274466Y-72898819D01*
X106322085Y-72851200D01*
X106393514Y-72827390D01*
X106441133Y-72827390D01*
X106512561Y-72851200D01*
X106536371Y-72875009D01*
X106726847Y-72875009D02*
X106750657Y-72851200D01*
X106798276Y-72827390D01*
X106917323Y-72827390D01*
X106964942Y-72851200D01*
X106988752Y-72875009D01*
X107012561Y-72922628D01*
X107012561Y-72970247D01*
X106988752Y-73041676D01*
X106703038Y-73327390D01*
X107012561Y-73327390D01*
X107203038Y-72875009D02*
X107226847Y-72851200D01*
X107274466Y-72827390D01*
X107393514Y-72827390D01*
X107441133Y-72851200D01*
X107464942Y-72875009D01*
X107488752Y-72922628D01*
X107488752Y-72970247D01*
X107464942Y-73041676D01*
X107179228Y-73327390D01*
X107488752Y-73327390D01*
X147690790Y-64640702D02*
X148095552Y-64640702D01*
X148143171Y-64616892D01*
X148166980Y-64593083D01*
X148190790Y-64545464D01*
X148190790Y-64450226D01*
X148166980Y-64402607D01*
X148143171Y-64378797D01*
X148095552Y-64354988D01*
X147690790Y-64354988D01*
X147857457Y-63902607D02*
X148190790Y-63902607D01*
X147666980Y-64021654D02*
X148024123Y-64140702D01*
X148024123Y-63831178D01*
X109568466Y-89583390D02*
X109401800Y-89345295D01*
X109282752Y-89583390D02*
X109282752Y-89083390D01*
X109473228Y-89083390D01*
X109520847Y-89107200D01*
X109544657Y-89131009D01*
X109568466Y-89178628D01*
X109568466Y-89250057D01*
X109544657Y-89297676D01*
X109520847Y-89321485D01*
X109473228Y-89345295D01*
X109282752Y-89345295D01*
X110044657Y-89583390D02*
X109758942Y-89583390D01*
X109901800Y-89583390D02*
X109901800Y-89083390D01*
X109854180Y-89154819D01*
X109806561Y-89202438D01*
X109758942Y-89226247D01*
X106495066Y-87094190D02*
X106328400Y-86856095D01*
X106209352Y-87094190D02*
X106209352Y-86594190D01*
X106399828Y-86594190D01*
X106447447Y-86618000D01*
X106471257Y-86641809D01*
X106495066Y-86689428D01*
X106495066Y-86760857D01*
X106471257Y-86808476D01*
X106447447Y-86832285D01*
X106399828Y-86856095D01*
X106209352Y-86856095D01*
X106685542Y-86641809D02*
X106709352Y-86618000D01*
X106756971Y-86594190D01*
X106876019Y-86594190D01*
X106923638Y-86618000D01*
X106947447Y-86641809D01*
X106971257Y-86689428D01*
X106971257Y-86737047D01*
X106947447Y-86808476D01*
X106661733Y-87094190D01*
X106971257Y-87094190D01*
X101719866Y-87068790D02*
X101553200Y-86830695D01*
X101434152Y-87068790D02*
X101434152Y-86568790D01*
X101624628Y-86568790D01*
X101672247Y-86592600D01*
X101696057Y-86616409D01*
X101719866Y-86664028D01*
X101719866Y-86735457D01*
X101696057Y-86783076D01*
X101672247Y-86806885D01*
X101624628Y-86830695D01*
X101434152Y-86830695D01*
X101886533Y-86568790D02*
X102196057Y-86568790D01*
X102029390Y-86759266D01*
X102100819Y-86759266D01*
X102148438Y-86783076D01*
X102172247Y-86806885D01*
X102196057Y-86854504D01*
X102196057Y-86973552D01*
X102172247Y-87021171D01*
X102148438Y-87044980D01*
X102100819Y-87068790D01*
X101957961Y-87068790D01*
X101910342Y-87044980D01*
X101886533Y-87021171D01*
X153577666Y-75438771D02*
X153553857Y-75462580D01*
X153482428Y-75486390D01*
X153434809Y-75486390D01*
X153363380Y-75462580D01*
X153315761Y-75414961D01*
X153291952Y-75367342D01*
X153268142Y-75272104D01*
X153268142Y-75200676D01*
X153291952Y-75105438D01*
X153315761Y-75057819D01*
X153363380Y-75010200D01*
X153434809Y-74986390D01*
X153482428Y-74986390D01*
X153553857Y-75010200D01*
X153577666Y-75034009D01*
X153744333Y-74986390D02*
X154077666Y-74986390D01*
X153863380Y-75486390D01*
X108400066Y-76734171D02*
X108376257Y-76757980D01*
X108304828Y-76781790D01*
X108257209Y-76781790D01*
X108185780Y-76757980D01*
X108138161Y-76710361D01*
X108114352Y-76662742D01*
X108090542Y-76567504D01*
X108090542Y-76496076D01*
X108114352Y-76400838D01*
X108138161Y-76353219D01*
X108185780Y-76305600D01*
X108257209Y-76281790D01*
X108304828Y-76281790D01*
X108376257Y-76305600D01*
X108400066Y-76329409D01*
X108852447Y-76281790D02*
X108614352Y-76281790D01*
X108590542Y-76519885D01*
X108614352Y-76496076D01*
X108661971Y-76472266D01*
X108781019Y-76472266D01*
X108828638Y-76496076D01*
X108852447Y-76519885D01*
X108876257Y-76567504D01*
X108876257Y-76686552D01*
X108852447Y-76734171D01*
X108828638Y-76757980D01*
X108781019Y-76781790D01*
X108661971Y-76781790D01*
X108614352Y-76757980D01*
X108590542Y-76734171D01*
X132257847Y-67569590D02*
X132257847Y-67974352D01*
X132281657Y-68021971D01*
X132305466Y-68045780D01*
X132353085Y-68069590D01*
X132448323Y-68069590D01*
X132495942Y-68045780D01*
X132519752Y-68021971D01*
X132543561Y-67974352D01*
X132543561Y-67569590D01*
X132734038Y-67569590D02*
X133043561Y-67569590D01*
X132876895Y-67760066D01*
X132948323Y-67760066D01*
X132995942Y-67783876D01*
X133019752Y-67807685D01*
X133043561Y-67855304D01*
X133043561Y-67974352D01*
X133019752Y-68021971D01*
X132995942Y-68045780D01*
X132948323Y-68069590D01*
X132805466Y-68069590D01*
X132757847Y-68045780D01*
X132734038Y-68021971D01*
X135374866Y-66015371D02*
X135351057Y-66039180D01*
X135279628Y-66062990D01*
X135232009Y-66062990D01*
X135160580Y-66039180D01*
X135112961Y-65991561D01*
X135089152Y-65943942D01*
X135065342Y-65848704D01*
X135065342Y-65777276D01*
X135089152Y-65682038D01*
X135112961Y-65634419D01*
X135160580Y-65586800D01*
X135232009Y-65562990D01*
X135279628Y-65562990D01*
X135351057Y-65586800D01*
X135374866Y-65610609D01*
X135803438Y-65729657D02*
X135803438Y-66062990D01*
X135684390Y-65539180D02*
X135565342Y-65896323D01*
X135874866Y-65896323D01*
X121735066Y-64948571D02*
X121711257Y-64972380D01*
X121639828Y-64996190D01*
X121592209Y-64996190D01*
X121520780Y-64972380D01*
X121473161Y-64924761D01*
X121449352Y-64877142D01*
X121425542Y-64781904D01*
X121425542Y-64710476D01*
X121449352Y-64615238D01*
X121473161Y-64567619D01*
X121520780Y-64520000D01*
X121592209Y-64496190D01*
X121639828Y-64496190D01*
X121711257Y-64520000D01*
X121735066Y-64543809D01*
X121901733Y-64496190D02*
X122211257Y-64496190D01*
X122044590Y-64686666D01*
X122116019Y-64686666D01*
X122163638Y-64710476D01*
X122187447Y-64734285D01*
X122211257Y-64781904D01*
X122211257Y-64900952D01*
X122187447Y-64948571D01*
X122163638Y-64972380D01*
X122116019Y-64996190D01*
X121973161Y-64996190D01*
X121925542Y-64972380D01*
X121901733Y-64948571D01*
X122513466Y-69342771D02*
X122489657Y-69366580D01*
X122418228Y-69390390D01*
X122370609Y-69390390D01*
X122299180Y-69366580D01*
X122251561Y-69318961D01*
X122227752Y-69271342D01*
X122203942Y-69176104D01*
X122203942Y-69104676D01*
X122227752Y-69009438D01*
X122251561Y-68961819D01*
X122299180Y-68914200D01*
X122370609Y-68890390D01*
X122418228Y-68890390D01*
X122489657Y-68914200D01*
X122513466Y-68938009D01*
X122703942Y-68938009D02*
X122727752Y-68914200D01*
X122775371Y-68890390D01*
X122894419Y-68890390D01*
X122942038Y-68914200D01*
X122965847Y-68938009D01*
X122989657Y-68985628D01*
X122989657Y-69033247D01*
X122965847Y-69104676D01*
X122680133Y-69390390D01*
X122989657Y-69390390D01*
X127542666Y-71374771D02*
X127518857Y-71398580D01*
X127447428Y-71422390D01*
X127399809Y-71422390D01*
X127328380Y-71398580D01*
X127280761Y-71350961D01*
X127256952Y-71303342D01*
X127233142Y-71208104D01*
X127233142Y-71136676D01*
X127256952Y-71041438D01*
X127280761Y-70993819D01*
X127328380Y-70946200D01*
X127399809Y-70922390D01*
X127447428Y-70922390D01*
X127518857Y-70946200D01*
X127542666Y-70970009D01*
X128018857Y-71422390D02*
X127733142Y-71422390D01*
X127876000Y-71422390D02*
X127876000Y-70922390D01*
X127828380Y-70993819D01*
X127780761Y-71041438D01*
X127733142Y-71065247D01*
M02*
