%TF.GenerationSoftware,KiCad,Pcbnew,(5.0.2)-1*%
%TF.CreationDate,2021-04-08T12:32:06+02:00*%
%TF.ProjectId,trackerGPS,74726163-6b65-4724-9750-532e6b696361,rev?*%
%TF.SameCoordinates,Original*%
%TF.FileFunction,Copper,L2,Inr*%
%TF.FilePolarity,Positive*%
%FSLAX46Y46*%
G04 Gerber Fmt 4.6, Leading zero omitted, Abs format (unit mm)*
G04 Created by KiCad (PCBNEW (5.0.2)-1) date 08/04/2021 12:32:06*
%MOMM*%
%LPD*%
G01*
G04 APERTURE LIST*
%ADD10C,1.300000*%
%ADD11C,0.800000*%
%ADD12C,5.000000*%
%ADD13C,0.600000*%
%ADD14R,1.700000X1.700000*%
%ADD15O,1.700000X1.700000*%
%ADD16C,0.254000*%
G04 APERTURE END LIST*
D10*
X158450280Y-85791040D03*
X158450280Y-83251040D03*
X158450280Y-88331040D03*
D11*
X157586625Y-90977775D03*
X156260800Y-90428600D03*
X154934975Y-90977775D03*
X154385800Y-92303600D03*
X154934975Y-93629425D03*
X156260800Y-94178600D03*
X157586625Y-93629425D03*
X158135800Y-92303600D03*
D12*
X156260800Y-92303600D03*
X156133800Y-65659000D03*
D11*
X154258800Y-65659000D03*
X154807975Y-64333175D03*
X156133800Y-63784000D03*
X157459625Y-64333175D03*
X158008800Y-65659000D03*
X157459625Y-66984825D03*
X156133800Y-67534000D03*
X154807975Y-66984825D03*
X103510025Y-64282375D03*
X102184200Y-63733200D03*
X100858375Y-64282375D03*
X100309200Y-65608200D03*
X100858375Y-66934025D03*
X102184200Y-67483200D03*
X103510025Y-66934025D03*
X104059200Y-65608200D03*
D12*
X102184200Y-65608200D03*
X102184200Y-92659200D03*
D11*
X104059200Y-92659200D03*
X103510025Y-93985025D03*
X102184200Y-94534200D03*
X100858375Y-93985025D03*
X100309200Y-92659200D03*
X100858375Y-91333375D03*
X102184200Y-90784200D03*
X103510025Y-91333375D03*
D13*
X151331400Y-80353600D03*
X150831400Y-79853600D03*
X151831400Y-79853600D03*
X151831400Y-80853600D03*
X150831400Y-80853600D03*
D14*
X100965000Y-70129400D03*
D15*
X100965000Y-72669400D03*
X100965000Y-75209400D03*
X100965000Y-77749400D03*
X100965000Y-80289400D03*
D11*
X111294753Y-80043447D03*
X120548400Y-84330775D03*
X133172200Y-74295000D03*
X144297400Y-72440800D03*
X148513800Y-72618600D03*
X150622000Y-72517000D03*
X156006800Y-77063600D03*
X157302200Y-77597000D03*
X105689400Y-82346800D03*
X103759000Y-80568800D03*
X144424400Y-75006200D03*
X135077200Y-66624200D03*
X134645400Y-67538600D03*
X133604000Y-67919600D03*
X136296400Y-78079600D03*
X119888000Y-88519000D03*
X119888000Y-86334600D03*
X119811800Y-85217000D03*
X113309400Y-82499200D03*
X108940600Y-78613000D03*
X122072400Y-89966800D03*
X122174000Y-63779400D03*
X142290800Y-70205600D03*
X145110200Y-64363600D03*
X140208000Y-64643000D03*
X130657600Y-84201000D03*
X133807200Y-88341200D03*
X133578600Y-89408000D03*
X139090400Y-88112600D03*
X121818400Y-70358000D03*
X118592600Y-68554600D03*
X121589802Y-66268600D03*
X113563400Y-65760600D03*
X105410000Y-79070200D03*
X106781600Y-82397600D03*
X129946400Y-68605400D03*
X131318000Y-68453000D03*
X119507000Y-83489800D03*
X116357400Y-83820000D03*
X129565400Y-84023200D03*
X120548400Y-74472800D03*
X123113800Y-80060800D03*
X124333000Y-75920600D03*
X113868200Y-68757800D03*
X119786400Y-81178400D03*
X118364000Y-63296800D03*
X120675400Y-63347600D03*
X118643400Y-66725800D03*
X119380000Y-74574400D03*
X149352000Y-83007200D03*
X148005800Y-84074000D03*
X150418800Y-82829400D03*
X149580600Y-81864200D03*
X152450800Y-82804000D03*
X150799800Y-77698600D03*
X102666800Y-69570600D03*
X111218903Y-67893324D03*
X108458000Y-74803000D03*
X109245400Y-84302600D03*
X112191800Y-87731600D03*
X107365800Y-92430600D03*
X156108400Y-83007208D03*
X125780800Y-86931500D03*
X99999800Y-82943700D03*
X101498400Y-82943700D03*
X100025200Y-85750400D03*
X100025200Y-88582500D03*
X100025200Y-90131900D03*
X101409500Y-85420200D03*
X101346000Y-87376000D03*
X101358700Y-89065100D03*
X104825800Y-95008700D03*
X106705400Y-95008700D03*
X105752900Y-93802200D03*
X117360700Y-93497400D03*
X117322600Y-91452700D03*
X116255800Y-89954100D03*
X139242800Y-94284800D03*
X141808198Y-94297500D03*
X144068800Y-93154500D03*
X144056100Y-90957400D03*
X144627600Y-88671400D03*
X141973300Y-92481400D03*
X144589500Y-86487000D03*
X144627600Y-83019900D03*
X143687800Y-84594700D03*
X128046480Y-83911440D03*
X121729500Y-88214200D03*
X123728480Y-82235040D03*
X126860300Y-85686900D03*
X156083000Y-75717400D03*
X119697500Y-90868500D03*
X119888000Y-93548200D03*
X123355100Y-88887300D03*
X126733300Y-89535000D03*
X127876300Y-91160600D03*
X128549400Y-93535500D03*
X130340100Y-93510100D03*
X135559800Y-94576900D03*
X137401300Y-94640400D03*
X138391900Y-92976700D03*
X140423900Y-93243400D03*
X143992600Y-94792800D03*
X107175300Y-89865200D03*
X109715300Y-89408000D03*
X110566200Y-90360500D03*
X153670000Y-94856300D03*
X158559500Y-94970600D03*
X143459200Y-80987900D03*
X145034000Y-81051400D03*
X147840700Y-79514700D03*
X149504400Y-63538100D03*
X151472900Y-63538100D03*
X153238200Y-63538100D03*
X149504400Y-65087500D03*
X151434800Y-65138300D03*
X152869900Y-64770000D03*
X152869900Y-66294000D03*
X149453600Y-66459100D03*
X150774400Y-66522600D03*
X151879300Y-67297300D03*
X151879300Y-67297300D03*
X158389320Y-68732400D03*
X154289760Y-68742560D03*
X150474680Y-69646800D03*
X153085800Y-69596000D03*
X151841200Y-68630800D03*
X155244800Y-72156320D03*
X158582360Y-77459840D03*
X158546800Y-80416400D03*
X157480000Y-80812640D03*
X103271320Y-89514680D03*
X118165880Y-89951560D03*
X142636240Y-90464640D03*
X129499360Y-89677240D03*
X127721360Y-82224880D03*
X138861800Y-71313040D03*
X138821160Y-73690480D03*
X137297160Y-74696320D03*
X125689360Y-82042000D03*
X132527040Y-80213200D03*
X148112480Y-71043800D03*
X150098760Y-70962520D03*
X152222200Y-70962520D03*
X153949400Y-71348600D03*
X153085800Y-73146920D03*
X153014680Y-74381360D03*
X105079800Y-63383160D03*
X105374440Y-64759840D03*
X105384600Y-66192400D03*
X99725480Y-68107560D03*
X99486720Y-69336920D03*
X119776240Y-65105280D03*
X110398560Y-75173840D03*
X107149909Y-73980040D03*
X112181470Y-79781400D03*
X148396960Y-91902280D03*
X147005040Y-92176600D03*
X146979640Y-90048080D03*
X148666200Y-90124280D03*
X149971760Y-91160600D03*
X137627360Y-67243960D03*
X143824960Y-63672720D03*
X142290800Y-71927720D03*
X138760200Y-82656680D03*
X133593840Y-84521040D03*
X128391920Y-86248240D03*
X125912880Y-84129880D03*
X123525280Y-85567520D03*
X121579640Y-85658960D03*
X140589000Y-74701400D03*
X139268200Y-66629280D03*
X137581640Y-64632840D03*
X135011160Y-64927480D03*
X132648960Y-78861920D03*
X133177280Y-77403960D03*
X130093720Y-74355960D03*
X135082280Y-78719680D03*
X135087360Y-81153000D03*
X102803960Y-74604880D03*
X119506999Y-79578200D03*
X119816880Y-72491600D03*
X128463040Y-72710210D03*
X113253520Y-87589360D03*
X113223040Y-85765800D03*
X111282480Y-86685120D03*
X113207800Y-83540600D03*
X111958120Y-83591400D03*
X119999760Y-77541120D03*
X128295400Y-75971400D03*
X137693400Y-75971400D03*
X122224800Y-82092800D03*
X134569200Y-74244200D03*
X128198453Y-74960053D03*
X124104400Y-80365600D03*
X109169200Y-75539600D03*
X114858800Y-64922400D03*
X104639000Y-74079100D03*
X105410000Y-75907900D03*
X111760000Y-68859400D03*
X119430800Y-67640200D03*
X131445000Y-74472800D03*
X112064802Y-70789798D03*
X110439200Y-81610200D03*
X107581700Y-88811100D03*
X119481600Y-73533000D03*
X108610400Y-77368400D03*
X118460947Y-69819947D03*
X120294400Y-69011800D03*
X147157440Y-87081360D03*
X146481800Y-64185800D03*
X142621000Y-65278000D03*
X152527000Y-75590400D03*
X146583400Y-79933800D03*
X107538520Y-68453000D03*
X142316200Y-74193400D03*
X110591600Y-72110600D03*
X127431800Y-77089000D03*
X136728200Y-77089000D03*
X129001520Y-74472800D03*
X112941100Y-68287900D03*
X156235400Y-80975200D03*
X151688800Y-88671400D03*
X141046200Y-91008200D03*
X138303000Y-89408000D03*
X114858800Y-89001600D03*
X127482600Y-88087200D03*
X107327700Y-77152500D03*
X155956000Y-70078600D03*
X154208480Y-84322920D03*
X114071400Y-67437000D03*
X106248200Y-91643200D03*
X119634000Y-82346800D03*
X104927400Y-88646000D03*
X105270300Y-72522080D03*
X107396280Y-69585840D03*
X151495760Y-91267280D03*
D16*
G36*
X158780458Y-63876486D02*
X158369680Y-63602725D01*
X156313405Y-65659000D01*
X158369680Y-67715275D01*
X158788560Y-67436114D01*
X158821742Y-82014030D01*
X158705882Y-81966040D01*
X158194678Y-81966040D01*
X157722386Y-82161669D01*
X157360909Y-82523146D01*
X157165280Y-82995438D01*
X157165280Y-83506642D01*
X157360909Y-83978934D01*
X157722386Y-84340411D01*
X158158465Y-84521040D01*
X157722386Y-84701669D01*
X157360909Y-85063146D01*
X157165280Y-85535438D01*
X157165280Y-86046642D01*
X157360909Y-86518934D01*
X157722386Y-86880411D01*
X158158465Y-87061040D01*
X157722386Y-87241669D01*
X157360909Y-87603146D01*
X157165280Y-88075438D01*
X157165280Y-88586642D01*
X157360909Y-89058934D01*
X157722386Y-89420411D01*
X158194678Y-89616040D01*
X158705882Y-89616040D01*
X158838919Y-89560934D01*
X158841004Y-90476798D01*
X158496680Y-90247325D01*
X156440405Y-92303600D01*
X158496680Y-94359875D01*
X158849308Y-94124868D01*
X158851528Y-95100123D01*
X157698827Y-95101568D01*
X158035379Y-94962164D01*
X158317075Y-94539480D01*
X156260800Y-92483205D01*
X154204525Y-94539480D01*
X154486221Y-94962164D01*
X154831912Y-95105162D01*
X104058045Y-95168816D01*
X104240475Y-94895080D01*
X102184200Y-92838805D01*
X100127925Y-94895080D01*
X100313484Y-95173510D01*
X99541000Y-95174479D01*
X99541000Y-94444018D01*
X99948320Y-94715475D01*
X102004595Y-92659200D01*
X102363805Y-92659200D01*
X104420080Y-94715475D01*
X104842764Y-94433779D01*
X105319494Y-93281308D01*
X105318938Y-92104349D01*
X105370769Y-92229480D01*
X105661920Y-92520631D01*
X106042326Y-92678200D01*
X106454074Y-92678200D01*
X106834480Y-92520631D01*
X107125631Y-92229480D01*
X107283200Y-91849074D01*
X107283200Y-91437326D01*
X107125631Y-91056920D01*
X106871037Y-90802326D01*
X140011200Y-90802326D01*
X140011200Y-91214074D01*
X140168769Y-91594480D01*
X140459920Y-91885631D01*
X140840326Y-92043200D01*
X141252074Y-92043200D01*
X141632480Y-91885631D01*
X141923631Y-91594480D01*
X142081200Y-91214074D01*
X142081200Y-91061406D01*
X150460760Y-91061406D01*
X150460760Y-91473154D01*
X150618329Y-91853560D01*
X150909480Y-92144711D01*
X151289886Y-92302280D01*
X151701634Y-92302280D01*
X152082040Y-92144711D01*
X152373191Y-91853560D01*
X152444463Y-91681492D01*
X153125506Y-91681492D01*
X153126095Y-92928672D01*
X153602236Y-94078179D01*
X154024920Y-94359875D01*
X156081195Y-92303600D01*
X154024920Y-90247325D01*
X153602236Y-90529021D01*
X153125506Y-91681492D01*
X152444463Y-91681492D01*
X152530760Y-91473154D01*
X152530760Y-91061406D01*
X152373191Y-90681000D01*
X152082040Y-90389849D01*
X151701634Y-90232280D01*
X151289886Y-90232280D01*
X150909480Y-90389849D01*
X150618329Y-90681000D01*
X150460760Y-91061406D01*
X142081200Y-91061406D01*
X142081200Y-90802326D01*
X141923631Y-90421920D01*
X141632480Y-90130769D01*
X141480266Y-90067720D01*
X154204525Y-90067720D01*
X156260800Y-92123995D01*
X158317075Y-90067720D01*
X158035379Y-89645036D01*
X156882908Y-89168306D01*
X155635728Y-89168895D01*
X154486221Y-89645036D01*
X154204525Y-90067720D01*
X141480266Y-90067720D01*
X141252074Y-89973200D01*
X140840326Y-89973200D01*
X140459920Y-90130769D01*
X140168769Y-90421920D01*
X140011200Y-90802326D01*
X106871037Y-90802326D01*
X106834480Y-90765769D01*
X106454074Y-90608200D01*
X106042326Y-90608200D01*
X105661920Y-90765769D01*
X105370769Y-91056920D01*
X105213200Y-91437326D01*
X105213200Y-91778933D01*
X104842764Y-90884621D01*
X104420080Y-90602925D01*
X102363805Y-92659200D01*
X102004595Y-92659200D01*
X99948320Y-90602925D01*
X99541000Y-90874382D01*
X99541000Y-90423320D01*
X100127925Y-90423320D01*
X102184200Y-92479595D01*
X104240475Y-90423320D01*
X103958779Y-90000636D01*
X102806308Y-89523906D01*
X101559128Y-89524495D01*
X100409621Y-90000636D01*
X100127925Y-90423320D01*
X99541000Y-90423320D01*
X99541000Y-88440126D01*
X103892400Y-88440126D01*
X103892400Y-88851874D01*
X104049969Y-89232280D01*
X104341120Y-89523431D01*
X104721526Y-89681000D01*
X105133274Y-89681000D01*
X105513680Y-89523431D01*
X105804831Y-89232280D01*
X105962400Y-88851874D01*
X105962400Y-88605226D01*
X106546700Y-88605226D01*
X106546700Y-89016974D01*
X106704269Y-89397380D01*
X106995420Y-89688531D01*
X107375826Y-89846100D01*
X107787574Y-89846100D01*
X108167980Y-89688531D01*
X108459131Y-89397380D01*
X108616700Y-89016974D01*
X108616700Y-88795726D01*
X113823800Y-88795726D01*
X113823800Y-89207474D01*
X113981369Y-89587880D01*
X114272520Y-89879031D01*
X114652926Y-90036600D01*
X115064674Y-90036600D01*
X115445080Y-89879031D01*
X115736231Y-89587880D01*
X115893800Y-89207474D01*
X115893800Y-89202126D01*
X137268000Y-89202126D01*
X137268000Y-89613874D01*
X137425569Y-89994280D01*
X137716720Y-90285431D01*
X138097126Y-90443000D01*
X138508874Y-90443000D01*
X138889280Y-90285431D01*
X139180431Y-89994280D01*
X139338000Y-89613874D01*
X139338000Y-89202126D01*
X139180431Y-88821720D01*
X138889280Y-88530569D01*
X138732252Y-88465526D01*
X150653800Y-88465526D01*
X150653800Y-88877274D01*
X150811369Y-89257680D01*
X151102520Y-89548831D01*
X151482926Y-89706400D01*
X151894674Y-89706400D01*
X152275080Y-89548831D01*
X152566231Y-89257680D01*
X152723800Y-88877274D01*
X152723800Y-88465526D01*
X152566231Y-88085120D01*
X152275080Y-87793969D01*
X151894674Y-87636400D01*
X151482926Y-87636400D01*
X151102520Y-87793969D01*
X150811369Y-88085120D01*
X150653800Y-88465526D01*
X138732252Y-88465526D01*
X138508874Y-88373000D01*
X138097126Y-88373000D01*
X137716720Y-88530569D01*
X137425569Y-88821720D01*
X137268000Y-89202126D01*
X115893800Y-89202126D01*
X115893800Y-88795726D01*
X115736231Y-88415320D01*
X115445080Y-88124169D01*
X115064674Y-87966600D01*
X114652926Y-87966600D01*
X114272520Y-88124169D01*
X113981369Y-88415320D01*
X113823800Y-88795726D01*
X108616700Y-88795726D01*
X108616700Y-88605226D01*
X108459131Y-88224820D01*
X108167980Y-87933669D01*
X108041613Y-87881326D01*
X126447600Y-87881326D01*
X126447600Y-88293074D01*
X126605169Y-88673480D01*
X126896320Y-88964631D01*
X127276726Y-89122200D01*
X127688474Y-89122200D01*
X128068880Y-88964631D01*
X128360031Y-88673480D01*
X128517600Y-88293074D01*
X128517600Y-87881326D01*
X128360031Y-87500920D01*
X128068880Y-87209769D01*
X127688474Y-87052200D01*
X127276726Y-87052200D01*
X126896320Y-87209769D01*
X126605169Y-87500920D01*
X126447600Y-87881326D01*
X108041613Y-87881326D01*
X107787574Y-87776100D01*
X107375826Y-87776100D01*
X106995420Y-87933669D01*
X106704269Y-88224820D01*
X106546700Y-88605226D01*
X105962400Y-88605226D01*
X105962400Y-88440126D01*
X105804831Y-88059720D01*
X105513680Y-87768569D01*
X105133274Y-87611000D01*
X104721526Y-87611000D01*
X104341120Y-87768569D01*
X104049969Y-88059720D01*
X103892400Y-88440126D01*
X99541000Y-88440126D01*
X99541000Y-86875486D01*
X146122440Y-86875486D01*
X146122440Y-87287234D01*
X146280009Y-87667640D01*
X146571160Y-87958791D01*
X146951566Y-88116360D01*
X147363314Y-88116360D01*
X147743720Y-87958791D01*
X148034871Y-87667640D01*
X148192440Y-87287234D01*
X148192440Y-86875486D01*
X148034871Y-86495080D01*
X147743720Y-86203929D01*
X147363314Y-86046360D01*
X146951566Y-86046360D01*
X146571160Y-86203929D01*
X146280009Y-86495080D01*
X146122440Y-86875486D01*
X99541000Y-86875486D01*
X99541000Y-84124901D01*
X119513400Y-84124901D01*
X119513400Y-84536649D01*
X119670969Y-84917055D01*
X119962120Y-85208206D01*
X120342526Y-85365775D01*
X120754274Y-85365775D01*
X121134680Y-85208206D01*
X121425831Y-84917055D01*
X121583400Y-84536649D01*
X121583400Y-84124901D01*
X121580147Y-84117046D01*
X153173480Y-84117046D01*
X153173480Y-84528794D01*
X153331049Y-84909200D01*
X153622200Y-85200351D01*
X154002606Y-85357920D01*
X154414354Y-85357920D01*
X154794760Y-85200351D01*
X155085911Y-84909200D01*
X155243480Y-84528794D01*
X155243480Y-84117046D01*
X155085911Y-83736640D01*
X154794760Y-83445489D01*
X154414354Y-83287920D01*
X154002606Y-83287920D01*
X153622200Y-83445489D01*
X153331049Y-83736640D01*
X153173480Y-84117046D01*
X121580147Y-84117046D01*
X121425831Y-83744495D01*
X121134680Y-83453344D01*
X120754274Y-83295775D01*
X120342526Y-83295775D01*
X119962120Y-83453344D01*
X119670969Y-83744495D01*
X119513400Y-84124901D01*
X99541000Y-84124901D01*
X99541000Y-80742325D01*
X99566161Y-80868818D01*
X99894375Y-81360025D01*
X100385582Y-81688239D01*
X100818744Y-81774400D01*
X101111256Y-81774400D01*
X101544418Y-81688239D01*
X101969323Y-81404326D01*
X109404200Y-81404326D01*
X109404200Y-81816074D01*
X109561769Y-82196480D01*
X109852920Y-82487631D01*
X110233326Y-82645200D01*
X110645074Y-82645200D01*
X111025480Y-82487631D01*
X111316631Y-82196480D01*
X111339642Y-82140926D01*
X118599000Y-82140926D01*
X118599000Y-82552674D01*
X118756569Y-82933080D01*
X119047720Y-83224231D01*
X119428126Y-83381800D01*
X119839874Y-83381800D01*
X120220280Y-83224231D01*
X120511431Y-82933080D01*
X120669000Y-82552674D01*
X120669000Y-82140926D01*
X120563790Y-81886926D01*
X121189800Y-81886926D01*
X121189800Y-82298674D01*
X121347369Y-82679080D01*
X121638520Y-82970231D01*
X122018926Y-83127800D01*
X122430674Y-83127800D01*
X122811080Y-82970231D01*
X123102231Y-82679080D01*
X123259800Y-82298674D01*
X123259800Y-81886926D01*
X123102231Y-81506520D01*
X122811080Y-81215369D01*
X122430674Y-81057800D01*
X122018926Y-81057800D01*
X121638520Y-81215369D01*
X121347369Y-81506520D01*
X121189800Y-81886926D01*
X120563790Y-81886926D01*
X120511431Y-81760520D01*
X120220280Y-81469369D01*
X119839874Y-81311800D01*
X119428126Y-81311800D01*
X119047720Y-81469369D01*
X118756569Y-81760520D01*
X118599000Y-82140926D01*
X111339642Y-82140926D01*
X111474200Y-81816074D01*
X111474200Y-81404326D01*
X111339217Y-81078447D01*
X111500627Y-81078447D01*
X111881033Y-80920878D01*
X112172184Y-80629727D01*
X112329753Y-80249321D01*
X112329753Y-80159726D01*
X123069400Y-80159726D01*
X123069400Y-80571474D01*
X123226969Y-80951880D01*
X123518120Y-81243031D01*
X123898526Y-81400600D01*
X124310274Y-81400600D01*
X124690680Y-81243031D01*
X124981831Y-80951880D01*
X125139400Y-80571474D01*
X125139400Y-80159726D01*
X124981831Y-79779320D01*
X124930437Y-79727926D01*
X145548400Y-79727926D01*
X145548400Y-80139674D01*
X145705969Y-80520080D01*
X145997120Y-80811231D01*
X146377526Y-80968800D01*
X146789274Y-80968800D01*
X147169680Y-80811231D01*
X147460831Y-80520080D01*
X147618400Y-80139674D01*
X147618400Y-79756527D01*
X149883037Y-79756527D01*
X149918078Y-80126839D01*
X149992375Y-80306207D01*
X150111900Y-80313708D01*
X150151792Y-80353600D01*
X150111900Y-80393492D01*
X149992375Y-80400993D01*
X149883037Y-80756527D01*
X149918078Y-81126839D01*
X149992375Y-81306207D01*
X150186976Y-81318419D01*
X150651795Y-80853600D01*
X150637653Y-80839458D01*
X150660361Y-80816749D01*
X150686976Y-80818419D01*
X150710699Y-80794696D01*
X150734327Y-80801963D01*
X150885979Y-80787613D01*
X150902491Y-80962114D01*
X150866581Y-80998024D01*
X150868251Y-81024639D01*
X150845543Y-81047348D01*
X150831400Y-81033205D01*
X150366581Y-81498024D01*
X150378793Y-81692625D01*
X150734327Y-81801963D01*
X151104639Y-81766922D01*
X151284007Y-81692625D01*
X151291508Y-81573100D01*
X151331400Y-81533208D01*
X151371292Y-81573100D01*
X151378793Y-81692625D01*
X151734327Y-81801963D01*
X152104639Y-81766922D01*
X152284007Y-81692625D01*
X152296219Y-81498024D01*
X151831400Y-81033205D01*
X151817258Y-81047348D01*
X151794549Y-81024639D01*
X151796219Y-80998024D01*
X151772496Y-80974301D01*
X151779763Y-80950673D01*
X151765413Y-80799021D01*
X151939914Y-80782509D01*
X151975824Y-80818419D01*
X152002439Y-80816749D01*
X152025148Y-80839458D01*
X152011005Y-80853600D01*
X152475824Y-81318419D01*
X152670425Y-81306207D01*
X152779763Y-80950673D01*
X152762603Y-80769326D01*
X155200400Y-80769326D01*
X155200400Y-81181074D01*
X155357969Y-81561480D01*
X155649120Y-81852631D01*
X156029526Y-82010200D01*
X156441274Y-82010200D01*
X156821680Y-81852631D01*
X157112831Y-81561480D01*
X157270400Y-81181074D01*
X157270400Y-80769326D01*
X157112831Y-80388920D01*
X156821680Y-80097769D01*
X156441274Y-79940200D01*
X156029526Y-79940200D01*
X155649120Y-80097769D01*
X155357969Y-80388920D01*
X155200400Y-80769326D01*
X152762603Y-80769326D01*
X152744722Y-80580361D01*
X152670425Y-80400993D01*
X152550900Y-80393492D01*
X152511008Y-80353600D01*
X152550900Y-80313708D01*
X152670425Y-80306207D01*
X152779763Y-79950673D01*
X152744722Y-79580361D01*
X152670425Y-79400993D01*
X152475824Y-79388781D01*
X152011005Y-79853600D01*
X152025148Y-79867743D01*
X152002439Y-79890451D01*
X151975824Y-79888781D01*
X151952101Y-79912504D01*
X151928473Y-79905237D01*
X151776821Y-79919587D01*
X151760309Y-79745086D01*
X151796219Y-79709176D01*
X151794549Y-79682561D01*
X151817258Y-79659853D01*
X151831400Y-79673995D01*
X152296219Y-79209176D01*
X152284007Y-79014575D01*
X151928473Y-78905237D01*
X151558161Y-78940278D01*
X151378793Y-79014575D01*
X151371292Y-79134100D01*
X151331400Y-79173992D01*
X151291508Y-79134100D01*
X151284007Y-79014575D01*
X150928473Y-78905237D01*
X150558161Y-78940278D01*
X150378793Y-79014575D01*
X150366581Y-79209176D01*
X150831400Y-79673995D01*
X150845543Y-79659853D01*
X150868251Y-79682561D01*
X150866581Y-79709176D01*
X150890304Y-79732899D01*
X150883037Y-79756527D01*
X150897387Y-79908179D01*
X150722886Y-79924691D01*
X150686976Y-79888781D01*
X150660361Y-79890451D01*
X150637653Y-79867743D01*
X150651795Y-79853600D01*
X150186976Y-79388781D01*
X149992375Y-79400993D01*
X149883037Y-79756527D01*
X147618400Y-79756527D01*
X147618400Y-79727926D01*
X147460831Y-79347520D01*
X147169680Y-79056369D01*
X146789274Y-78898800D01*
X146377526Y-78898800D01*
X145997120Y-79056369D01*
X145705969Y-79347520D01*
X145548400Y-79727926D01*
X124930437Y-79727926D01*
X124690680Y-79488169D01*
X124310274Y-79330600D01*
X123898526Y-79330600D01*
X123518120Y-79488169D01*
X123226969Y-79779320D01*
X123069400Y-80159726D01*
X112329753Y-80159726D01*
X112329753Y-79837573D01*
X112172184Y-79457167D01*
X111881033Y-79166016D01*
X111500627Y-79008447D01*
X111088879Y-79008447D01*
X110708473Y-79166016D01*
X110417322Y-79457167D01*
X110259753Y-79837573D01*
X110259753Y-80249321D01*
X110394736Y-80575200D01*
X110233326Y-80575200D01*
X109852920Y-80732769D01*
X109561769Y-81023920D01*
X109404200Y-81404326D01*
X101969323Y-81404326D01*
X102035625Y-81360025D01*
X102363839Y-80868818D01*
X102479092Y-80289400D01*
X102363839Y-79709982D01*
X102035625Y-79218775D01*
X101737239Y-79019400D01*
X102035625Y-78820025D01*
X102363839Y-78328818D01*
X102479092Y-77749400D01*
X102363839Y-77169982D01*
X102214598Y-76946626D01*
X106292700Y-76946626D01*
X106292700Y-77358374D01*
X106450269Y-77738780D01*
X106741420Y-78029931D01*
X107121826Y-78187500D01*
X107533574Y-78187500D01*
X107839196Y-78060907D01*
X108024120Y-78245831D01*
X108404526Y-78403400D01*
X108816274Y-78403400D01*
X109196680Y-78245831D01*
X109487831Y-77954680D01*
X109645400Y-77574274D01*
X109645400Y-77162526D01*
X109529669Y-76883126D01*
X126396800Y-76883126D01*
X126396800Y-77294874D01*
X126554369Y-77675280D01*
X126845520Y-77966431D01*
X127225926Y-78124000D01*
X127637674Y-78124000D01*
X128018080Y-77966431D01*
X128309231Y-77675280D01*
X128466800Y-77294874D01*
X128466800Y-77006400D01*
X128501274Y-77006400D01*
X128798884Y-76883126D01*
X135693200Y-76883126D01*
X135693200Y-77294874D01*
X135850769Y-77675280D01*
X136141920Y-77966431D01*
X136522326Y-78124000D01*
X136934074Y-78124000D01*
X137314480Y-77966431D01*
X137605631Y-77675280D01*
X137763200Y-77294874D01*
X137763200Y-77006400D01*
X137899274Y-77006400D01*
X138279680Y-76848831D01*
X138570831Y-76557680D01*
X138728400Y-76177274D01*
X138728400Y-75765526D01*
X138570831Y-75385120D01*
X138570237Y-75384526D01*
X151492000Y-75384526D01*
X151492000Y-75796274D01*
X151649569Y-76176680D01*
X151940720Y-76467831D01*
X152321126Y-76625400D01*
X152732874Y-76625400D01*
X153113280Y-76467831D01*
X153404431Y-76176680D01*
X153562000Y-75796274D01*
X153562000Y-75384526D01*
X153404431Y-75004120D01*
X153113280Y-74712969D01*
X152732874Y-74555400D01*
X152321126Y-74555400D01*
X151940720Y-74712969D01*
X151649569Y-75004120D01*
X151492000Y-75384526D01*
X138570237Y-75384526D01*
X138279680Y-75093969D01*
X137899274Y-74936400D01*
X137487526Y-74936400D01*
X137107120Y-75093969D01*
X136815969Y-75385120D01*
X136658400Y-75765526D01*
X136658400Y-76054000D01*
X136522326Y-76054000D01*
X136141920Y-76211569D01*
X135850769Y-76502720D01*
X135693200Y-76883126D01*
X128798884Y-76883126D01*
X128881680Y-76848831D01*
X129172831Y-76557680D01*
X129330400Y-76177274D01*
X129330400Y-75765526D01*
X129221266Y-75502054D01*
X129587800Y-75350231D01*
X129878951Y-75059080D01*
X130036520Y-74678674D01*
X130036520Y-74266926D01*
X130410000Y-74266926D01*
X130410000Y-74678674D01*
X130567569Y-75059080D01*
X130858720Y-75350231D01*
X131239126Y-75507800D01*
X131650874Y-75507800D01*
X132031280Y-75350231D01*
X132322431Y-75059080D01*
X132366405Y-74952916D01*
X132585920Y-75172431D01*
X132966326Y-75330000D01*
X133378074Y-75330000D01*
X133758480Y-75172431D01*
X133896100Y-75034811D01*
X133982920Y-75121631D01*
X134363326Y-75279200D01*
X134775074Y-75279200D01*
X135155480Y-75121631D01*
X135446631Y-74830480D01*
X135604200Y-74450074D01*
X135604200Y-74038326D01*
X135583158Y-73987526D01*
X141281200Y-73987526D01*
X141281200Y-74399274D01*
X141438769Y-74779680D01*
X141729920Y-75070831D01*
X142110326Y-75228400D01*
X142522074Y-75228400D01*
X142902480Y-75070831D01*
X143193631Y-74779680D01*
X143351200Y-74399274D01*
X143351200Y-73987526D01*
X143193631Y-73607120D01*
X142902480Y-73315969D01*
X142522074Y-73158400D01*
X142110326Y-73158400D01*
X141729920Y-73315969D01*
X141438769Y-73607120D01*
X141281200Y-73987526D01*
X135583158Y-73987526D01*
X135446631Y-73657920D01*
X135155480Y-73366769D01*
X134775074Y-73209200D01*
X134363326Y-73209200D01*
X133982920Y-73366769D01*
X133845300Y-73504389D01*
X133758480Y-73417569D01*
X133378074Y-73260000D01*
X132966326Y-73260000D01*
X132585920Y-73417569D01*
X132294769Y-73708720D01*
X132250795Y-73814884D01*
X132031280Y-73595369D01*
X131650874Y-73437800D01*
X131239126Y-73437800D01*
X130858720Y-73595369D01*
X130567569Y-73886520D01*
X130410000Y-74266926D01*
X130036520Y-74266926D01*
X129878951Y-73886520D01*
X129587800Y-73595369D01*
X129207394Y-73437800D01*
X128795646Y-73437800D01*
X128415240Y-73595369D01*
X128124089Y-73886520D01*
X128108128Y-73925053D01*
X127992579Y-73925053D01*
X127612173Y-74082622D01*
X127321022Y-74373773D01*
X127163453Y-74754179D01*
X127163453Y-75165927D01*
X127321022Y-75546333D01*
X127342356Y-75567667D01*
X127260400Y-75765526D01*
X127260400Y-76054000D01*
X127225926Y-76054000D01*
X126845520Y-76211569D01*
X126554369Y-76502720D01*
X126396800Y-76883126D01*
X109529669Y-76883126D01*
X109487831Y-76782120D01*
X109280311Y-76574600D01*
X109375074Y-76574600D01*
X109755480Y-76417031D01*
X110046631Y-76125880D01*
X110204200Y-75745474D01*
X110204200Y-75333726D01*
X110046631Y-74953320D01*
X109755480Y-74662169D01*
X109375074Y-74504600D01*
X108963326Y-74504600D01*
X108582920Y-74662169D01*
X108291769Y-74953320D01*
X108134200Y-75333726D01*
X108134200Y-75745474D01*
X108291769Y-76125880D01*
X108499289Y-76333400D01*
X108404526Y-76333400D01*
X108098904Y-76459993D01*
X107913980Y-76275069D01*
X107533574Y-76117500D01*
X107121826Y-76117500D01*
X106741420Y-76275069D01*
X106450269Y-76566220D01*
X106292700Y-76946626D01*
X102214598Y-76946626D01*
X102035625Y-76678775D01*
X101716522Y-76465557D01*
X101846358Y-76404583D01*
X102236645Y-75976324D01*
X102406476Y-75566290D01*
X102285155Y-75336400D01*
X101092000Y-75336400D01*
X101092000Y-75356400D01*
X100838000Y-75356400D01*
X100838000Y-75336400D01*
X100818000Y-75336400D01*
X100818000Y-75082400D01*
X100838000Y-75082400D01*
X100838000Y-75062400D01*
X101092000Y-75062400D01*
X101092000Y-75082400D01*
X102285155Y-75082400D01*
X102406476Y-74852510D01*
X102236645Y-74442476D01*
X101846358Y-74014217D01*
X101716522Y-73953243D01*
X101836275Y-73873226D01*
X103604000Y-73873226D01*
X103604000Y-74284974D01*
X103761569Y-74665380D01*
X104052720Y-74956531D01*
X104433126Y-75114100D01*
X104740089Y-75114100D01*
X104532569Y-75321620D01*
X104375000Y-75702026D01*
X104375000Y-76113774D01*
X104532569Y-76494180D01*
X104823720Y-76785331D01*
X105204126Y-76942900D01*
X105615874Y-76942900D01*
X105996280Y-76785331D01*
X106287431Y-76494180D01*
X106445000Y-76113774D01*
X106445000Y-75702026D01*
X106287431Y-75321620D01*
X105996280Y-75030469D01*
X105615874Y-74872900D01*
X105308911Y-74872900D01*
X105516431Y-74665380D01*
X105674000Y-74284974D01*
X105674000Y-73873226D01*
X105533255Y-73533436D01*
X105856580Y-73399511D01*
X105928965Y-73327126D01*
X118446600Y-73327126D01*
X118446600Y-73738874D01*
X118604169Y-74119280D01*
X118895320Y-74410431D01*
X119275726Y-74568000D01*
X119687474Y-74568000D01*
X120067880Y-74410431D01*
X120359031Y-74119280D01*
X120516600Y-73738874D01*
X120516600Y-73327126D01*
X120359031Y-72946720D01*
X120067880Y-72655569D01*
X119687474Y-72498000D01*
X119275726Y-72498000D01*
X118895320Y-72655569D01*
X118604169Y-72946720D01*
X118446600Y-73327126D01*
X105928965Y-73327126D01*
X106147731Y-73108360D01*
X106305300Y-72727954D01*
X106305300Y-72316206D01*
X106147731Y-71935800D01*
X106116657Y-71904726D01*
X109556600Y-71904726D01*
X109556600Y-72316474D01*
X109714169Y-72696880D01*
X110005320Y-72988031D01*
X110385726Y-73145600D01*
X110797474Y-73145600D01*
X111177880Y-72988031D01*
X111469031Y-72696880D01*
X111626600Y-72316474D01*
X111626600Y-71904726D01*
X111538520Y-71692081D01*
X111858928Y-71824798D01*
X112270676Y-71824798D01*
X112651082Y-71667229D01*
X112942233Y-71376078D01*
X113099802Y-70995672D01*
X113099802Y-70583924D01*
X112942233Y-70203518D01*
X112651082Y-69912367D01*
X112286790Y-69761473D01*
X112346280Y-69736831D01*
X112469038Y-69614073D01*
X117425947Y-69614073D01*
X117425947Y-70025821D01*
X117583516Y-70406227D01*
X117874667Y-70697378D01*
X118255073Y-70854947D01*
X118666821Y-70854947D01*
X119047227Y-70697378D01*
X119338378Y-70406227D01*
X119495947Y-70025821D01*
X119495947Y-69677058D01*
X119708120Y-69889231D01*
X120088526Y-70046800D01*
X120500274Y-70046800D01*
X120880680Y-69889231D01*
X120897185Y-69872726D01*
X154921000Y-69872726D01*
X154921000Y-70284474D01*
X155078569Y-70664880D01*
X155369720Y-70956031D01*
X155750126Y-71113600D01*
X156161874Y-71113600D01*
X156542280Y-70956031D01*
X156833431Y-70664880D01*
X156991000Y-70284474D01*
X156991000Y-69872726D01*
X156833431Y-69492320D01*
X156542280Y-69201169D01*
X156161874Y-69043600D01*
X155750126Y-69043600D01*
X155369720Y-69201169D01*
X155078569Y-69492320D01*
X154921000Y-69872726D01*
X120897185Y-69872726D01*
X121171831Y-69598080D01*
X121329400Y-69217674D01*
X121329400Y-68805926D01*
X121171831Y-68425520D01*
X120880680Y-68134369D01*
X120500274Y-67976800D01*
X120411652Y-67976800D01*
X120445584Y-67894880D01*
X154077525Y-67894880D01*
X154359221Y-68317564D01*
X155511692Y-68794294D01*
X156758872Y-68793705D01*
X157908379Y-68317564D01*
X158190075Y-67894880D01*
X156133800Y-65838605D01*
X154077525Y-67894880D01*
X120445584Y-67894880D01*
X120465800Y-67846074D01*
X120465800Y-67434326D01*
X120308231Y-67053920D01*
X120017080Y-66762769D01*
X119636674Y-66605200D01*
X119224926Y-66605200D01*
X118844520Y-66762769D01*
X118553369Y-67053920D01*
X118395800Y-67434326D01*
X118395800Y-67846074D01*
X118553369Y-68226480D01*
X118844520Y-68517631D01*
X119224926Y-68675200D01*
X119313548Y-68675200D01*
X119259400Y-68805926D01*
X119259400Y-69154689D01*
X119047227Y-68942516D01*
X118666821Y-68784947D01*
X118255073Y-68784947D01*
X117874667Y-68942516D01*
X117583516Y-69233667D01*
X117425947Y-69614073D01*
X112469038Y-69614073D01*
X112637431Y-69445680D01*
X112695162Y-69306305D01*
X112735226Y-69322900D01*
X113146974Y-69322900D01*
X113527380Y-69165331D01*
X113818531Y-68874180D01*
X113976100Y-68493774D01*
X113976100Y-68472000D01*
X114277274Y-68472000D01*
X114657680Y-68314431D01*
X114948831Y-68023280D01*
X115106400Y-67642874D01*
X115106400Y-67231126D01*
X114948831Y-66850720D01*
X114657680Y-66559569D01*
X114277274Y-66402000D01*
X113865526Y-66402000D01*
X113485120Y-66559569D01*
X113193969Y-66850720D01*
X113036400Y-67231126D01*
X113036400Y-67252900D01*
X112735226Y-67252900D01*
X112354820Y-67410469D01*
X112063669Y-67701620D01*
X112005938Y-67840995D01*
X111965874Y-67824400D01*
X111554126Y-67824400D01*
X111173720Y-67981969D01*
X110882569Y-68273120D01*
X110725000Y-68653526D01*
X110725000Y-69065274D01*
X110882569Y-69445680D01*
X111173720Y-69736831D01*
X111538012Y-69887725D01*
X111478522Y-69912367D01*
X111187371Y-70203518D01*
X111029802Y-70583924D01*
X111029802Y-70995672D01*
X111117882Y-71208317D01*
X110797474Y-71075600D01*
X110385726Y-71075600D01*
X110005320Y-71233169D01*
X109714169Y-71524320D01*
X109556600Y-71904726D01*
X106116657Y-71904726D01*
X105856580Y-71644649D01*
X105476174Y-71487080D01*
X105064426Y-71487080D01*
X104684020Y-71644649D01*
X104392869Y-71935800D01*
X104235300Y-72316206D01*
X104235300Y-72727954D01*
X104376045Y-73067744D01*
X104052720Y-73201669D01*
X103761569Y-73492820D01*
X103604000Y-73873226D01*
X101836275Y-73873226D01*
X102035625Y-73740025D01*
X102363839Y-73248818D01*
X102479092Y-72669400D01*
X102363839Y-72089982D01*
X102035625Y-71598775D01*
X102017381Y-71586584D01*
X102062765Y-71577557D01*
X102272809Y-71437209D01*
X102413157Y-71227165D01*
X102462440Y-70979400D01*
X102462440Y-69379966D01*
X106361280Y-69379966D01*
X106361280Y-69791714D01*
X106518849Y-70172120D01*
X106810000Y-70463271D01*
X107190406Y-70620840D01*
X107602154Y-70620840D01*
X107982560Y-70463271D01*
X108273711Y-70172120D01*
X108431280Y-69791714D01*
X108431280Y-69379966D01*
X108327006Y-69128225D01*
X108415951Y-69039280D01*
X108573520Y-68658874D01*
X108573520Y-68247126D01*
X108415951Y-67866720D01*
X108124800Y-67575569D01*
X107744394Y-67418000D01*
X107332646Y-67418000D01*
X106952240Y-67575569D01*
X106661089Y-67866720D01*
X106503520Y-68247126D01*
X106503520Y-68658874D01*
X106607794Y-68910615D01*
X106518849Y-68999560D01*
X106361280Y-69379966D01*
X102462440Y-69379966D01*
X102462440Y-69279400D01*
X102413157Y-69031635D01*
X102272809Y-68821591D01*
X102155510Y-68743214D01*
X102809272Y-68742905D01*
X103958779Y-68266764D01*
X104240475Y-67844080D01*
X102184200Y-65787805D01*
X100127925Y-67844080D01*
X100409621Y-68266764D01*
X101292464Y-68631960D01*
X100115000Y-68631960D01*
X99867235Y-68681243D01*
X99657191Y-68821591D01*
X99541000Y-68995482D01*
X99541000Y-67393018D01*
X99948320Y-67664475D01*
X102004595Y-65608200D01*
X102363805Y-65608200D01*
X104420080Y-67664475D01*
X104842764Y-67382779D01*
X105319494Y-66230308D01*
X105318905Y-64983128D01*
X105208475Y-64716526D01*
X113823800Y-64716526D01*
X113823800Y-65128274D01*
X113981369Y-65508680D01*
X114272520Y-65799831D01*
X114652926Y-65957400D01*
X115064674Y-65957400D01*
X115445080Y-65799831D01*
X115736231Y-65508680D01*
X115893800Y-65128274D01*
X115893800Y-65072126D01*
X141586000Y-65072126D01*
X141586000Y-65483874D01*
X141743569Y-65864280D01*
X142034720Y-66155431D01*
X142415126Y-66313000D01*
X142826874Y-66313000D01*
X143207280Y-66155431D01*
X143498431Y-65864280D01*
X143656000Y-65483874D01*
X143656000Y-65072126D01*
X143498431Y-64691720D01*
X143207280Y-64400569D01*
X142826874Y-64243000D01*
X142415126Y-64243000D01*
X142034720Y-64400569D01*
X141743569Y-64691720D01*
X141586000Y-65072126D01*
X115893800Y-65072126D01*
X115893800Y-64716526D01*
X115736231Y-64336120D01*
X115445080Y-64044969D01*
X115288052Y-63979926D01*
X145446800Y-63979926D01*
X145446800Y-64391674D01*
X145604369Y-64772080D01*
X145895520Y-65063231D01*
X146275926Y-65220800D01*
X146687674Y-65220800D01*
X147068080Y-65063231D01*
X147094419Y-65036892D01*
X152998506Y-65036892D01*
X152999095Y-66284072D01*
X153475236Y-67433579D01*
X153897920Y-67715275D01*
X155954195Y-65659000D01*
X153897920Y-63602725D01*
X153475236Y-63884421D01*
X152998506Y-65036892D01*
X147094419Y-65036892D01*
X147359231Y-64772080D01*
X147516800Y-64391674D01*
X147516800Y-63979926D01*
X147359231Y-63599520D01*
X147068080Y-63308369D01*
X146687674Y-63150800D01*
X146275926Y-63150800D01*
X145895520Y-63308369D01*
X145604369Y-63599520D01*
X145446800Y-63979926D01*
X115288052Y-63979926D01*
X115064674Y-63887400D01*
X114652926Y-63887400D01*
X114272520Y-64044969D01*
X113981369Y-64336120D01*
X113823800Y-64716526D01*
X105208475Y-64716526D01*
X104842764Y-63833621D01*
X104420080Y-63551925D01*
X102363805Y-65608200D01*
X102004595Y-65608200D01*
X99948320Y-63551925D01*
X99541000Y-63823382D01*
X99541000Y-63167278D01*
X100265180Y-63166369D01*
X100127925Y-63372320D01*
X102184200Y-65428595D01*
X104240475Y-63372320D01*
X104100012Y-63161555D01*
X154293833Y-63098550D01*
X154077525Y-63423120D01*
X156133800Y-65479395D01*
X158190075Y-63423120D01*
X157970691Y-63093935D01*
X158778674Y-63092921D01*
X158780458Y-63876486D01*
X158780458Y-63876486D01*
G37*
X158780458Y-63876486D02*
X158369680Y-63602725D01*
X156313405Y-65659000D01*
X158369680Y-67715275D01*
X158788560Y-67436114D01*
X158821742Y-82014030D01*
X158705882Y-81966040D01*
X158194678Y-81966040D01*
X157722386Y-82161669D01*
X157360909Y-82523146D01*
X157165280Y-82995438D01*
X157165280Y-83506642D01*
X157360909Y-83978934D01*
X157722386Y-84340411D01*
X158158465Y-84521040D01*
X157722386Y-84701669D01*
X157360909Y-85063146D01*
X157165280Y-85535438D01*
X157165280Y-86046642D01*
X157360909Y-86518934D01*
X157722386Y-86880411D01*
X158158465Y-87061040D01*
X157722386Y-87241669D01*
X157360909Y-87603146D01*
X157165280Y-88075438D01*
X157165280Y-88586642D01*
X157360909Y-89058934D01*
X157722386Y-89420411D01*
X158194678Y-89616040D01*
X158705882Y-89616040D01*
X158838919Y-89560934D01*
X158841004Y-90476798D01*
X158496680Y-90247325D01*
X156440405Y-92303600D01*
X158496680Y-94359875D01*
X158849308Y-94124868D01*
X158851528Y-95100123D01*
X157698827Y-95101568D01*
X158035379Y-94962164D01*
X158317075Y-94539480D01*
X156260800Y-92483205D01*
X154204525Y-94539480D01*
X154486221Y-94962164D01*
X154831912Y-95105162D01*
X104058045Y-95168816D01*
X104240475Y-94895080D01*
X102184200Y-92838805D01*
X100127925Y-94895080D01*
X100313484Y-95173510D01*
X99541000Y-95174479D01*
X99541000Y-94444018D01*
X99948320Y-94715475D01*
X102004595Y-92659200D01*
X102363805Y-92659200D01*
X104420080Y-94715475D01*
X104842764Y-94433779D01*
X105319494Y-93281308D01*
X105318938Y-92104349D01*
X105370769Y-92229480D01*
X105661920Y-92520631D01*
X106042326Y-92678200D01*
X106454074Y-92678200D01*
X106834480Y-92520631D01*
X107125631Y-92229480D01*
X107283200Y-91849074D01*
X107283200Y-91437326D01*
X107125631Y-91056920D01*
X106871037Y-90802326D01*
X140011200Y-90802326D01*
X140011200Y-91214074D01*
X140168769Y-91594480D01*
X140459920Y-91885631D01*
X140840326Y-92043200D01*
X141252074Y-92043200D01*
X141632480Y-91885631D01*
X141923631Y-91594480D01*
X142081200Y-91214074D01*
X142081200Y-91061406D01*
X150460760Y-91061406D01*
X150460760Y-91473154D01*
X150618329Y-91853560D01*
X150909480Y-92144711D01*
X151289886Y-92302280D01*
X151701634Y-92302280D01*
X152082040Y-92144711D01*
X152373191Y-91853560D01*
X152444463Y-91681492D01*
X153125506Y-91681492D01*
X153126095Y-92928672D01*
X153602236Y-94078179D01*
X154024920Y-94359875D01*
X156081195Y-92303600D01*
X154024920Y-90247325D01*
X153602236Y-90529021D01*
X153125506Y-91681492D01*
X152444463Y-91681492D01*
X152530760Y-91473154D01*
X152530760Y-91061406D01*
X152373191Y-90681000D01*
X152082040Y-90389849D01*
X151701634Y-90232280D01*
X151289886Y-90232280D01*
X150909480Y-90389849D01*
X150618329Y-90681000D01*
X150460760Y-91061406D01*
X142081200Y-91061406D01*
X142081200Y-90802326D01*
X141923631Y-90421920D01*
X141632480Y-90130769D01*
X141480266Y-90067720D01*
X154204525Y-90067720D01*
X156260800Y-92123995D01*
X158317075Y-90067720D01*
X158035379Y-89645036D01*
X156882908Y-89168306D01*
X155635728Y-89168895D01*
X154486221Y-89645036D01*
X154204525Y-90067720D01*
X141480266Y-90067720D01*
X141252074Y-89973200D01*
X140840326Y-89973200D01*
X140459920Y-90130769D01*
X140168769Y-90421920D01*
X140011200Y-90802326D01*
X106871037Y-90802326D01*
X106834480Y-90765769D01*
X106454074Y-90608200D01*
X106042326Y-90608200D01*
X105661920Y-90765769D01*
X105370769Y-91056920D01*
X105213200Y-91437326D01*
X105213200Y-91778933D01*
X104842764Y-90884621D01*
X104420080Y-90602925D01*
X102363805Y-92659200D01*
X102004595Y-92659200D01*
X99948320Y-90602925D01*
X99541000Y-90874382D01*
X99541000Y-90423320D01*
X100127925Y-90423320D01*
X102184200Y-92479595D01*
X104240475Y-90423320D01*
X103958779Y-90000636D01*
X102806308Y-89523906D01*
X101559128Y-89524495D01*
X100409621Y-90000636D01*
X100127925Y-90423320D01*
X99541000Y-90423320D01*
X99541000Y-88440126D01*
X103892400Y-88440126D01*
X103892400Y-88851874D01*
X104049969Y-89232280D01*
X104341120Y-89523431D01*
X104721526Y-89681000D01*
X105133274Y-89681000D01*
X105513680Y-89523431D01*
X105804831Y-89232280D01*
X105962400Y-88851874D01*
X105962400Y-88605226D01*
X106546700Y-88605226D01*
X106546700Y-89016974D01*
X106704269Y-89397380D01*
X106995420Y-89688531D01*
X107375826Y-89846100D01*
X107787574Y-89846100D01*
X108167980Y-89688531D01*
X108459131Y-89397380D01*
X108616700Y-89016974D01*
X108616700Y-88795726D01*
X113823800Y-88795726D01*
X113823800Y-89207474D01*
X113981369Y-89587880D01*
X114272520Y-89879031D01*
X114652926Y-90036600D01*
X115064674Y-90036600D01*
X115445080Y-89879031D01*
X115736231Y-89587880D01*
X115893800Y-89207474D01*
X115893800Y-89202126D01*
X137268000Y-89202126D01*
X137268000Y-89613874D01*
X137425569Y-89994280D01*
X137716720Y-90285431D01*
X138097126Y-90443000D01*
X138508874Y-90443000D01*
X138889280Y-90285431D01*
X139180431Y-89994280D01*
X139338000Y-89613874D01*
X139338000Y-89202126D01*
X139180431Y-88821720D01*
X138889280Y-88530569D01*
X138732252Y-88465526D01*
X150653800Y-88465526D01*
X150653800Y-88877274D01*
X150811369Y-89257680D01*
X151102520Y-89548831D01*
X151482926Y-89706400D01*
X151894674Y-89706400D01*
X152275080Y-89548831D01*
X152566231Y-89257680D01*
X152723800Y-88877274D01*
X152723800Y-88465526D01*
X152566231Y-88085120D01*
X152275080Y-87793969D01*
X151894674Y-87636400D01*
X151482926Y-87636400D01*
X151102520Y-87793969D01*
X150811369Y-88085120D01*
X150653800Y-88465526D01*
X138732252Y-88465526D01*
X138508874Y-88373000D01*
X138097126Y-88373000D01*
X137716720Y-88530569D01*
X137425569Y-88821720D01*
X137268000Y-89202126D01*
X115893800Y-89202126D01*
X115893800Y-88795726D01*
X115736231Y-88415320D01*
X115445080Y-88124169D01*
X115064674Y-87966600D01*
X114652926Y-87966600D01*
X114272520Y-88124169D01*
X113981369Y-88415320D01*
X113823800Y-88795726D01*
X108616700Y-88795726D01*
X108616700Y-88605226D01*
X108459131Y-88224820D01*
X108167980Y-87933669D01*
X108041613Y-87881326D01*
X126447600Y-87881326D01*
X126447600Y-88293074D01*
X126605169Y-88673480D01*
X126896320Y-88964631D01*
X127276726Y-89122200D01*
X127688474Y-89122200D01*
X128068880Y-88964631D01*
X128360031Y-88673480D01*
X128517600Y-88293074D01*
X128517600Y-87881326D01*
X128360031Y-87500920D01*
X128068880Y-87209769D01*
X127688474Y-87052200D01*
X127276726Y-87052200D01*
X126896320Y-87209769D01*
X126605169Y-87500920D01*
X126447600Y-87881326D01*
X108041613Y-87881326D01*
X107787574Y-87776100D01*
X107375826Y-87776100D01*
X106995420Y-87933669D01*
X106704269Y-88224820D01*
X106546700Y-88605226D01*
X105962400Y-88605226D01*
X105962400Y-88440126D01*
X105804831Y-88059720D01*
X105513680Y-87768569D01*
X105133274Y-87611000D01*
X104721526Y-87611000D01*
X104341120Y-87768569D01*
X104049969Y-88059720D01*
X103892400Y-88440126D01*
X99541000Y-88440126D01*
X99541000Y-86875486D01*
X146122440Y-86875486D01*
X146122440Y-87287234D01*
X146280009Y-87667640D01*
X146571160Y-87958791D01*
X146951566Y-88116360D01*
X147363314Y-88116360D01*
X147743720Y-87958791D01*
X148034871Y-87667640D01*
X148192440Y-87287234D01*
X148192440Y-86875486D01*
X148034871Y-86495080D01*
X147743720Y-86203929D01*
X147363314Y-86046360D01*
X146951566Y-86046360D01*
X146571160Y-86203929D01*
X146280009Y-86495080D01*
X146122440Y-86875486D01*
X99541000Y-86875486D01*
X99541000Y-84124901D01*
X119513400Y-84124901D01*
X119513400Y-84536649D01*
X119670969Y-84917055D01*
X119962120Y-85208206D01*
X120342526Y-85365775D01*
X120754274Y-85365775D01*
X121134680Y-85208206D01*
X121425831Y-84917055D01*
X121583400Y-84536649D01*
X121583400Y-84124901D01*
X121580147Y-84117046D01*
X153173480Y-84117046D01*
X153173480Y-84528794D01*
X153331049Y-84909200D01*
X153622200Y-85200351D01*
X154002606Y-85357920D01*
X154414354Y-85357920D01*
X154794760Y-85200351D01*
X155085911Y-84909200D01*
X155243480Y-84528794D01*
X155243480Y-84117046D01*
X155085911Y-83736640D01*
X154794760Y-83445489D01*
X154414354Y-83287920D01*
X154002606Y-83287920D01*
X153622200Y-83445489D01*
X153331049Y-83736640D01*
X153173480Y-84117046D01*
X121580147Y-84117046D01*
X121425831Y-83744495D01*
X121134680Y-83453344D01*
X120754274Y-83295775D01*
X120342526Y-83295775D01*
X119962120Y-83453344D01*
X119670969Y-83744495D01*
X119513400Y-84124901D01*
X99541000Y-84124901D01*
X99541000Y-80742325D01*
X99566161Y-80868818D01*
X99894375Y-81360025D01*
X100385582Y-81688239D01*
X100818744Y-81774400D01*
X101111256Y-81774400D01*
X101544418Y-81688239D01*
X101969323Y-81404326D01*
X109404200Y-81404326D01*
X109404200Y-81816074D01*
X109561769Y-82196480D01*
X109852920Y-82487631D01*
X110233326Y-82645200D01*
X110645074Y-82645200D01*
X111025480Y-82487631D01*
X111316631Y-82196480D01*
X111339642Y-82140926D01*
X118599000Y-82140926D01*
X118599000Y-82552674D01*
X118756569Y-82933080D01*
X119047720Y-83224231D01*
X119428126Y-83381800D01*
X119839874Y-83381800D01*
X120220280Y-83224231D01*
X120511431Y-82933080D01*
X120669000Y-82552674D01*
X120669000Y-82140926D01*
X120563790Y-81886926D01*
X121189800Y-81886926D01*
X121189800Y-82298674D01*
X121347369Y-82679080D01*
X121638520Y-82970231D01*
X122018926Y-83127800D01*
X122430674Y-83127800D01*
X122811080Y-82970231D01*
X123102231Y-82679080D01*
X123259800Y-82298674D01*
X123259800Y-81886926D01*
X123102231Y-81506520D01*
X122811080Y-81215369D01*
X122430674Y-81057800D01*
X122018926Y-81057800D01*
X121638520Y-81215369D01*
X121347369Y-81506520D01*
X121189800Y-81886926D01*
X120563790Y-81886926D01*
X120511431Y-81760520D01*
X120220280Y-81469369D01*
X119839874Y-81311800D01*
X119428126Y-81311800D01*
X119047720Y-81469369D01*
X118756569Y-81760520D01*
X118599000Y-82140926D01*
X111339642Y-82140926D01*
X111474200Y-81816074D01*
X111474200Y-81404326D01*
X111339217Y-81078447D01*
X111500627Y-81078447D01*
X111881033Y-80920878D01*
X112172184Y-80629727D01*
X112329753Y-80249321D01*
X112329753Y-80159726D01*
X123069400Y-80159726D01*
X123069400Y-80571474D01*
X123226969Y-80951880D01*
X123518120Y-81243031D01*
X123898526Y-81400600D01*
X124310274Y-81400600D01*
X124690680Y-81243031D01*
X124981831Y-80951880D01*
X125139400Y-80571474D01*
X125139400Y-80159726D01*
X124981831Y-79779320D01*
X124930437Y-79727926D01*
X145548400Y-79727926D01*
X145548400Y-80139674D01*
X145705969Y-80520080D01*
X145997120Y-80811231D01*
X146377526Y-80968800D01*
X146789274Y-80968800D01*
X147169680Y-80811231D01*
X147460831Y-80520080D01*
X147618400Y-80139674D01*
X147618400Y-79756527D01*
X149883037Y-79756527D01*
X149918078Y-80126839D01*
X149992375Y-80306207D01*
X150111900Y-80313708D01*
X150151792Y-80353600D01*
X150111900Y-80393492D01*
X149992375Y-80400993D01*
X149883037Y-80756527D01*
X149918078Y-81126839D01*
X149992375Y-81306207D01*
X150186976Y-81318419D01*
X150651795Y-80853600D01*
X150637653Y-80839458D01*
X150660361Y-80816749D01*
X150686976Y-80818419D01*
X150710699Y-80794696D01*
X150734327Y-80801963D01*
X150885979Y-80787613D01*
X150902491Y-80962114D01*
X150866581Y-80998024D01*
X150868251Y-81024639D01*
X150845543Y-81047348D01*
X150831400Y-81033205D01*
X150366581Y-81498024D01*
X150378793Y-81692625D01*
X150734327Y-81801963D01*
X151104639Y-81766922D01*
X151284007Y-81692625D01*
X151291508Y-81573100D01*
X151331400Y-81533208D01*
X151371292Y-81573100D01*
X151378793Y-81692625D01*
X151734327Y-81801963D01*
X152104639Y-81766922D01*
X152284007Y-81692625D01*
X152296219Y-81498024D01*
X151831400Y-81033205D01*
X151817258Y-81047348D01*
X151794549Y-81024639D01*
X151796219Y-80998024D01*
X151772496Y-80974301D01*
X151779763Y-80950673D01*
X151765413Y-80799021D01*
X151939914Y-80782509D01*
X151975824Y-80818419D01*
X152002439Y-80816749D01*
X152025148Y-80839458D01*
X152011005Y-80853600D01*
X152475824Y-81318419D01*
X152670425Y-81306207D01*
X152779763Y-80950673D01*
X152762603Y-80769326D01*
X155200400Y-80769326D01*
X155200400Y-81181074D01*
X155357969Y-81561480D01*
X155649120Y-81852631D01*
X156029526Y-82010200D01*
X156441274Y-82010200D01*
X156821680Y-81852631D01*
X157112831Y-81561480D01*
X157270400Y-81181074D01*
X157270400Y-80769326D01*
X157112831Y-80388920D01*
X156821680Y-80097769D01*
X156441274Y-79940200D01*
X156029526Y-79940200D01*
X155649120Y-80097769D01*
X155357969Y-80388920D01*
X155200400Y-80769326D01*
X152762603Y-80769326D01*
X152744722Y-80580361D01*
X152670425Y-80400993D01*
X152550900Y-80393492D01*
X152511008Y-80353600D01*
X152550900Y-80313708D01*
X152670425Y-80306207D01*
X152779763Y-79950673D01*
X152744722Y-79580361D01*
X152670425Y-79400993D01*
X152475824Y-79388781D01*
X152011005Y-79853600D01*
X152025148Y-79867743D01*
X152002439Y-79890451D01*
X151975824Y-79888781D01*
X151952101Y-79912504D01*
X151928473Y-79905237D01*
X151776821Y-79919587D01*
X151760309Y-79745086D01*
X151796219Y-79709176D01*
X151794549Y-79682561D01*
X151817258Y-79659853D01*
X151831400Y-79673995D01*
X152296219Y-79209176D01*
X152284007Y-79014575D01*
X151928473Y-78905237D01*
X151558161Y-78940278D01*
X151378793Y-79014575D01*
X151371292Y-79134100D01*
X151331400Y-79173992D01*
X151291508Y-79134100D01*
X151284007Y-79014575D01*
X150928473Y-78905237D01*
X150558161Y-78940278D01*
X150378793Y-79014575D01*
X150366581Y-79209176D01*
X150831400Y-79673995D01*
X150845543Y-79659853D01*
X150868251Y-79682561D01*
X150866581Y-79709176D01*
X150890304Y-79732899D01*
X150883037Y-79756527D01*
X150897387Y-79908179D01*
X150722886Y-79924691D01*
X150686976Y-79888781D01*
X150660361Y-79890451D01*
X150637653Y-79867743D01*
X150651795Y-79853600D01*
X150186976Y-79388781D01*
X149992375Y-79400993D01*
X149883037Y-79756527D01*
X147618400Y-79756527D01*
X147618400Y-79727926D01*
X147460831Y-79347520D01*
X147169680Y-79056369D01*
X146789274Y-78898800D01*
X146377526Y-78898800D01*
X145997120Y-79056369D01*
X145705969Y-79347520D01*
X145548400Y-79727926D01*
X124930437Y-79727926D01*
X124690680Y-79488169D01*
X124310274Y-79330600D01*
X123898526Y-79330600D01*
X123518120Y-79488169D01*
X123226969Y-79779320D01*
X123069400Y-80159726D01*
X112329753Y-80159726D01*
X112329753Y-79837573D01*
X112172184Y-79457167D01*
X111881033Y-79166016D01*
X111500627Y-79008447D01*
X111088879Y-79008447D01*
X110708473Y-79166016D01*
X110417322Y-79457167D01*
X110259753Y-79837573D01*
X110259753Y-80249321D01*
X110394736Y-80575200D01*
X110233326Y-80575200D01*
X109852920Y-80732769D01*
X109561769Y-81023920D01*
X109404200Y-81404326D01*
X101969323Y-81404326D01*
X102035625Y-81360025D01*
X102363839Y-80868818D01*
X102479092Y-80289400D01*
X102363839Y-79709982D01*
X102035625Y-79218775D01*
X101737239Y-79019400D01*
X102035625Y-78820025D01*
X102363839Y-78328818D01*
X102479092Y-77749400D01*
X102363839Y-77169982D01*
X102214598Y-76946626D01*
X106292700Y-76946626D01*
X106292700Y-77358374D01*
X106450269Y-77738780D01*
X106741420Y-78029931D01*
X107121826Y-78187500D01*
X107533574Y-78187500D01*
X107839196Y-78060907D01*
X108024120Y-78245831D01*
X108404526Y-78403400D01*
X108816274Y-78403400D01*
X109196680Y-78245831D01*
X109487831Y-77954680D01*
X109645400Y-77574274D01*
X109645400Y-77162526D01*
X109529669Y-76883126D01*
X126396800Y-76883126D01*
X126396800Y-77294874D01*
X126554369Y-77675280D01*
X126845520Y-77966431D01*
X127225926Y-78124000D01*
X127637674Y-78124000D01*
X128018080Y-77966431D01*
X128309231Y-77675280D01*
X128466800Y-77294874D01*
X128466800Y-77006400D01*
X128501274Y-77006400D01*
X128798884Y-76883126D01*
X135693200Y-76883126D01*
X135693200Y-77294874D01*
X135850769Y-77675280D01*
X136141920Y-77966431D01*
X136522326Y-78124000D01*
X136934074Y-78124000D01*
X137314480Y-77966431D01*
X137605631Y-77675280D01*
X137763200Y-77294874D01*
X137763200Y-77006400D01*
X137899274Y-77006400D01*
X138279680Y-76848831D01*
X138570831Y-76557680D01*
X138728400Y-76177274D01*
X138728400Y-75765526D01*
X138570831Y-75385120D01*
X138570237Y-75384526D01*
X151492000Y-75384526D01*
X151492000Y-75796274D01*
X151649569Y-76176680D01*
X151940720Y-76467831D01*
X152321126Y-76625400D01*
X152732874Y-76625400D01*
X153113280Y-76467831D01*
X153404431Y-76176680D01*
X153562000Y-75796274D01*
X153562000Y-75384526D01*
X153404431Y-75004120D01*
X153113280Y-74712969D01*
X152732874Y-74555400D01*
X152321126Y-74555400D01*
X151940720Y-74712969D01*
X151649569Y-75004120D01*
X151492000Y-75384526D01*
X138570237Y-75384526D01*
X138279680Y-75093969D01*
X137899274Y-74936400D01*
X137487526Y-74936400D01*
X137107120Y-75093969D01*
X136815969Y-75385120D01*
X136658400Y-75765526D01*
X136658400Y-76054000D01*
X136522326Y-76054000D01*
X136141920Y-76211569D01*
X135850769Y-76502720D01*
X135693200Y-76883126D01*
X128798884Y-76883126D01*
X128881680Y-76848831D01*
X129172831Y-76557680D01*
X129330400Y-76177274D01*
X129330400Y-75765526D01*
X129221266Y-75502054D01*
X129587800Y-75350231D01*
X129878951Y-75059080D01*
X130036520Y-74678674D01*
X130036520Y-74266926D01*
X130410000Y-74266926D01*
X130410000Y-74678674D01*
X130567569Y-75059080D01*
X130858720Y-75350231D01*
X131239126Y-75507800D01*
X131650874Y-75507800D01*
X132031280Y-75350231D01*
X132322431Y-75059080D01*
X132366405Y-74952916D01*
X132585920Y-75172431D01*
X132966326Y-75330000D01*
X133378074Y-75330000D01*
X133758480Y-75172431D01*
X133896100Y-75034811D01*
X133982920Y-75121631D01*
X134363326Y-75279200D01*
X134775074Y-75279200D01*
X135155480Y-75121631D01*
X135446631Y-74830480D01*
X135604200Y-74450074D01*
X135604200Y-74038326D01*
X135583158Y-73987526D01*
X141281200Y-73987526D01*
X141281200Y-74399274D01*
X141438769Y-74779680D01*
X141729920Y-75070831D01*
X142110326Y-75228400D01*
X142522074Y-75228400D01*
X142902480Y-75070831D01*
X143193631Y-74779680D01*
X143351200Y-74399274D01*
X143351200Y-73987526D01*
X143193631Y-73607120D01*
X142902480Y-73315969D01*
X142522074Y-73158400D01*
X142110326Y-73158400D01*
X141729920Y-73315969D01*
X141438769Y-73607120D01*
X141281200Y-73987526D01*
X135583158Y-73987526D01*
X135446631Y-73657920D01*
X135155480Y-73366769D01*
X134775074Y-73209200D01*
X134363326Y-73209200D01*
X133982920Y-73366769D01*
X133845300Y-73504389D01*
X133758480Y-73417569D01*
X133378074Y-73260000D01*
X132966326Y-73260000D01*
X132585920Y-73417569D01*
X132294769Y-73708720D01*
X132250795Y-73814884D01*
X132031280Y-73595369D01*
X131650874Y-73437800D01*
X131239126Y-73437800D01*
X130858720Y-73595369D01*
X130567569Y-73886520D01*
X130410000Y-74266926D01*
X130036520Y-74266926D01*
X129878951Y-73886520D01*
X129587800Y-73595369D01*
X129207394Y-73437800D01*
X128795646Y-73437800D01*
X128415240Y-73595369D01*
X128124089Y-73886520D01*
X128108128Y-73925053D01*
X127992579Y-73925053D01*
X127612173Y-74082622D01*
X127321022Y-74373773D01*
X127163453Y-74754179D01*
X127163453Y-75165927D01*
X127321022Y-75546333D01*
X127342356Y-75567667D01*
X127260400Y-75765526D01*
X127260400Y-76054000D01*
X127225926Y-76054000D01*
X126845520Y-76211569D01*
X126554369Y-76502720D01*
X126396800Y-76883126D01*
X109529669Y-76883126D01*
X109487831Y-76782120D01*
X109280311Y-76574600D01*
X109375074Y-76574600D01*
X109755480Y-76417031D01*
X110046631Y-76125880D01*
X110204200Y-75745474D01*
X110204200Y-75333726D01*
X110046631Y-74953320D01*
X109755480Y-74662169D01*
X109375074Y-74504600D01*
X108963326Y-74504600D01*
X108582920Y-74662169D01*
X108291769Y-74953320D01*
X108134200Y-75333726D01*
X108134200Y-75745474D01*
X108291769Y-76125880D01*
X108499289Y-76333400D01*
X108404526Y-76333400D01*
X108098904Y-76459993D01*
X107913980Y-76275069D01*
X107533574Y-76117500D01*
X107121826Y-76117500D01*
X106741420Y-76275069D01*
X106450269Y-76566220D01*
X106292700Y-76946626D01*
X102214598Y-76946626D01*
X102035625Y-76678775D01*
X101716522Y-76465557D01*
X101846358Y-76404583D01*
X102236645Y-75976324D01*
X102406476Y-75566290D01*
X102285155Y-75336400D01*
X101092000Y-75336400D01*
X101092000Y-75356400D01*
X100838000Y-75356400D01*
X100838000Y-75336400D01*
X100818000Y-75336400D01*
X100818000Y-75082400D01*
X100838000Y-75082400D01*
X100838000Y-75062400D01*
X101092000Y-75062400D01*
X101092000Y-75082400D01*
X102285155Y-75082400D01*
X102406476Y-74852510D01*
X102236645Y-74442476D01*
X101846358Y-74014217D01*
X101716522Y-73953243D01*
X101836275Y-73873226D01*
X103604000Y-73873226D01*
X103604000Y-74284974D01*
X103761569Y-74665380D01*
X104052720Y-74956531D01*
X104433126Y-75114100D01*
X104740089Y-75114100D01*
X104532569Y-75321620D01*
X104375000Y-75702026D01*
X104375000Y-76113774D01*
X104532569Y-76494180D01*
X104823720Y-76785331D01*
X105204126Y-76942900D01*
X105615874Y-76942900D01*
X105996280Y-76785331D01*
X106287431Y-76494180D01*
X106445000Y-76113774D01*
X106445000Y-75702026D01*
X106287431Y-75321620D01*
X105996280Y-75030469D01*
X105615874Y-74872900D01*
X105308911Y-74872900D01*
X105516431Y-74665380D01*
X105674000Y-74284974D01*
X105674000Y-73873226D01*
X105533255Y-73533436D01*
X105856580Y-73399511D01*
X105928965Y-73327126D01*
X118446600Y-73327126D01*
X118446600Y-73738874D01*
X118604169Y-74119280D01*
X118895320Y-74410431D01*
X119275726Y-74568000D01*
X119687474Y-74568000D01*
X120067880Y-74410431D01*
X120359031Y-74119280D01*
X120516600Y-73738874D01*
X120516600Y-73327126D01*
X120359031Y-72946720D01*
X120067880Y-72655569D01*
X119687474Y-72498000D01*
X119275726Y-72498000D01*
X118895320Y-72655569D01*
X118604169Y-72946720D01*
X118446600Y-73327126D01*
X105928965Y-73327126D01*
X106147731Y-73108360D01*
X106305300Y-72727954D01*
X106305300Y-72316206D01*
X106147731Y-71935800D01*
X106116657Y-71904726D01*
X109556600Y-71904726D01*
X109556600Y-72316474D01*
X109714169Y-72696880D01*
X110005320Y-72988031D01*
X110385726Y-73145600D01*
X110797474Y-73145600D01*
X111177880Y-72988031D01*
X111469031Y-72696880D01*
X111626600Y-72316474D01*
X111626600Y-71904726D01*
X111538520Y-71692081D01*
X111858928Y-71824798D01*
X112270676Y-71824798D01*
X112651082Y-71667229D01*
X112942233Y-71376078D01*
X113099802Y-70995672D01*
X113099802Y-70583924D01*
X112942233Y-70203518D01*
X112651082Y-69912367D01*
X112286790Y-69761473D01*
X112346280Y-69736831D01*
X112469038Y-69614073D01*
X117425947Y-69614073D01*
X117425947Y-70025821D01*
X117583516Y-70406227D01*
X117874667Y-70697378D01*
X118255073Y-70854947D01*
X118666821Y-70854947D01*
X119047227Y-70697378D01*
X119338378Y-70406227D01*
X119495947Y-70025821D01*
X119495947Y-69677058D01*
X119708120Y-69889231D01*
X120088526Y-70046800D01*
X120500274Y-70046800D01*
X120880680Y-69889231D01*
X120897185Y-69872726D01*
X154921000Y-69872726D01*
X154921000Y-70284474D01*
X155078569Y-70664880D01*
X155369720Y-70956031D01*
X155750126Y-71113600D01*
X156161874Y-71113600D01*
X156542280Y-70956031D01*
X156833431Y-70664880D01*
X156991000Y-70284474D01*
X156991000Y-69872726D01*
X156833431Y-69492320D01*
X156542280Y-69201169D01*
X156161874Y-69043600D01*
X155750126Y-69043600D01*
X155369720Y-69201169D01*
X155078569Y-69492320D01*
X154921000Y-69872726D01*
X120897185Y-69872726D01*
X121171831Y-69598080D01*
X121329400Y-69217674D01*
X121329400Y-68805926D01*
X121171831Y-68425520D01*
X120880680Y-68134369D01*
X120500274Y-67976800D01*
X120411652Y-67976800D01*
X120445584Y-67894880D01*
X154077525Y-67894880D01*
X154359221Y-68317564D01*
X155511692Y-68794294D01*
X156758872Y-68793705D01*
X157908379Y-68317564D01*
X158190075Y-67894880D01*
X156133800Y-65838605D01*
X154077525Y-67894880D01*
X120445584Y-67894880D01*
X120465800Y-67846074D01*
X120465800Y-67434326D01*
X120308231Y-67053920D01*
X120017080Y-66762769D01*
X119636674Y-66605200D01*
X119224926Y-66605200D01*
X118844520Y-66762769D01*
X118553369Y-67053920D01*
X118395800Y-67434326D01*
X118395800Y-67846074D01*
X118553369Y-68226480D01*
X118844520Y-68517631D01*
X119224926Y-68675200D01*
X119313548Y-68675200D01*
X119259400Y-68805926D01*
X119259400Y-69154689D01*
X119047227Y-68942516D01*
X118666821Y-68784947D01*
X118255073Y-68784947D01*
X117874667Y-68942516D01*
X117583516Y-69233667D01*
X117425947Y-69614073D01*
X112469038Y-69614073D01*
X112637431Y-69445680D01*
X112695162Y-69306305D01*
X112735226Y-69322900D01*
X113146974Y-69322900D01*
X113527380Y-69165331D01*
X113818531Y-68874180D01*
X113976100Y-68493774D01*
X113976100Y-68472000D01*
X114277274Y-68472000D01*
X114657680Y-68314431D01*
X114948831Y-68023280D01*
X115106400Y-67642874D01*
X115106400Y-67231126D01*
X114948831Y-66850720D01*
X114657680Y-66559569D01*
X114277274Y-66402000D01*
X113865526Y-66402000D01*
X113485120Y-66559569D01*
X113193969Y-66850720D01*
X113036400Y-67231126D01*
X113036400Y-67252900D01*
X112735226Y-67252900D01*
X112354820Y-67410469D01*
X112063669Y-67701620D01*
X112005938Y-67840995D01*
X111965874Y-67824400D01*
X111554126Y-67824400D01*
X111173720Y-67981969D01*
X110882569Y-68273120D01*
X110725000Y-68653526D01*
X110725000Y-69065274D01*
X110882569Y-69445680D01*
X111173720Y-69736831D01*
X111538012Y-69887725D01*
X111478522Y-69912367D01*
X111187371Y-70203518D01*
X111029802Y-70583924D01*
X111029802Y-70995672D01*
X111117882Y-71208317D01*
X110797474Y-71075600D01*
X110385726Y-71075600D01*
X110005320Y-71233169D01*
X109714169Y-71524320D01*
X109556600Y-71904726D01*
X106116657Y-71904726D01*
X105856580Y-71644649D01*
X105476174Y-71487080D01*
X105064426Y-71487080D01*
X104684020Y-71644649D01*
X104392869Y-71935800D01*
X104235300Y-72316206D01*
X104235300Y-72727954D01*
X104376045Y-73067744D01*
X104052720Y-73201669D01*
X103761569Y-73492820D01*
X103604000Y-73873226D01*
X101836275Y-73873226D01*
X102035625Y-73740025D01*
X102363839Y-73248818D01*
X102479092Y-72669400D01*
X102363839Y-72089982D01*
X102035625Y-71598775D01*
X102017381Y-71586584D01*
X102062765Y-71577557D01*
X102272809Y-71437209D01*
X102413157Y-71227165D01*
X102462440Y-70979400D01*
X102462440Y-69379966D01*
X106361280Y-69379966D01*
X106361280Y-69791714D01*
X106518849Y-70172120D01*
X106810000Y-70463271D01*
X107190406Y-70620840D01*
X107602154Y-70620840D01*
X107982560Y-70463271D01*
X108273711Y-70172120D01*
X108431280Y-69791714D01*
X108431280Y-69379966D01*
X108327006Y-69128225D01*
X108415951Y-69039280D01*
X108573520Y-68658874D01*
X108573520Y-68247126D01*
X108415951Y-67866720D01*
X108124800Y-67575569D01*
X107744394Y-67418000D01*
X107332646Y-67418000D01*
X106952240Y-67575569D01*
X106661089Y-67866720D01*
X106503520Y-68247126D01*
X106503520Y-68658874D01*
X106607794Y-68910615D01*
X106518849Y-68999560D01*
X106361280Y-69379966D01*
X102462440Y-69379966D01*
X102462440Y-69279400D01*
X102413157Y-69031635D01*
X102272809Y-68821591D01*
X102155510Y-68743214D01*
X102809272Y-68742905D01*
X103958779Y-68266764D01*
X104240475Y-67844080D01*
X102184200Y-65787805D01*
X100127925Y-67844080D01*
X100409621Y-68266764D01*
X101292464Y-68631960D01*
X100115000Y-68631960D01*
X99867235Y-68681243D01*
X99657191Y-68821591D01*
X99541000Y-68995482D01*
X99541000Y-67393018D01*
X99948320Y-67664475D01*
X102004595Y-65608200D01*
X102363805Y-65608200D01*
X104420080Y-67664475D01*
X104842764Y-67382779D01*
X105319494Y-66230308D01*
X105318905Y-64983128D01*
X105208475Y-64716526D01*
X113823800Y-64716526D01*
X113823800Y-65128274D01*
X113981369Y-65508680D01*
X114272520Y-65799831D01*
X114652926Y-65957400D01*
X115064674Y-65957400D01*
X115445080Y-65799831D01*
X115736231Y-65508680D01*
X115893800Y-65128274D01*
X115893800Y-65072126D01*
X141586000Y-65072126D01*
X141586000Y-65483874D01*
X141743569Y-65864280D01*
X142034720Y-66155431D01*
X142415126Y-66313000D01*
X142826874Y-66313000D01*
X143207280Y-66155431D01*
X143498431Y-65864280D01*
X143656000Y-65483874D01*
X143656000Y-65072126D01*
X143498431Y-64691720D01*
X143207280Y-64400569D01*
X142826874Y-64243000D01*
X142415126Y-64243000D01*
X142034720Y-64400569D01*
X141743569Y-64691720D01*
X141586000Y-65072126D01*
X115893800Y-65072126D01*
X115893800Y-64716526D01*
X115736231Y-64336120D01*
X115445080Y-64044969D01*
X115288052Y-63979926D01*
X145446800Y-63979926D01*
X145446800Y-64391674D01*
X145604369Y-64772080D01*
X145895520Y-65063231D01*
X146275926Y-65220800D01*
X146687674Y-65220800D01*
X147068080Y-65063231D01*
X147094419Y-65036892D01*
X152998506Y-65036892D01*
X152999095Y-66284072D01*
X153475236Y-67433579D01*
X153897920Y-67715275D01*
X155954195Y-65659000D01*
X153897920Y-63602725D01*
X153475236Y-63884421D01*
X152998506Y-65036892D01*
X147094419Y-65036892D01*
X147359231Y-64772080D01*
X147516800Y-64391674D01*
X147516800Y-63979926D01*
X147359231Y-63599520D01*
X147068080Y-63308369D01*
X146687674Y-63150800D01*
X146275926Y-63150800D01*
X145895520Y-63308369D01*
X145604369Y-63599520D01*
X145446800Y-63979926D01*
X115288052Y-63979926D01*
X115064674Y-63887400D01*
X114652926Y-63887400D01*
X114272520Y-64044969D01*
X113981369Y-64336120D01*
X113823800Y-64716526D01*
X105208475Y-64716526D01*
X104842764Y-63833621D01*
X104420080Y-63551925D01*
X102363805Y-65608200D01*
X102004595Y-65608200D01*
X99948320Y-63551925D01*
X99541000Y-63823382D01*
X99541000Y-63167278D01*
X100265180Y-63166369D01*
X100127925Y-63372320D01*
X102184200Y-65428595D01*
X104240475Y-63372320D01*
X104100012Y-63161555D01*
X154293833Y-63098550D01*
X154077525Y-63423120D01*
X156133800Y-65479395D01*
X158190075Y-63423120D01*
X157970691Y-63093935D01*
X158778674Y-63092921D01*
X158780458Y-63876486D01*
M02*
