%TF.GenerationSoftware,KiCad,Pcbnew,(5.0.2)-1*%
%TF.CreationDate,2021-04-08T12:32:07+02:00*%
%TF.ProjectId,trackerGPS,74726163-6b65-4724-9750-532e6b696361,rev?*%
%TF.SameCoordinates,Original*%
%TF.FileFunction,Other,User*%
%FSLAX46Y46*%
G04 Gerber Fmt 4.6, Leading zero omitted, Abs format (unit mm)*
G04 Created by KiCad (PCBNEW (5.0.2)-1) date 08/04/2021 12:32:07*
%MOMM*%
%LPD*%
G01*
G04 APERTURE LIST*
%ADD10C,0.050000*%
%ADD11C,0.150000*%
G04 APERTURE END LIST*
D10*
X158468100Y-76544200D02*
X156568100Y-76544200D01*
X156568100Y-76544200D02*
X156568100Y-73184200D01*
X156568100Y-73184200D02*
X158468100Y-73184200D01*
X158468100Y-73184200D02*
X158468100Y-76544200D01*
X158442700Y-72966300D02*
X156542700Y-72966300D01*
X156542700Y-72966300D02*
X156542700Y-69266300D01*
X156542700Y-69266300D02*
X158442700Y-69266300D01*
X158442700Y-69266300D02*
X158442700Y-72966300D01*
X116773200Y-68389500D02*
G75*
G03X116773200Y-68389500I-1000000J0D01*
G01*
X150301200Y-68326000D02*
G75*
G03X150301200Y-68326000I-1000000J0D01*
G01*
X113715400Y-96169000D02*
X113715400Y-68169000D01*
X113715400Y-68169000D02*
X145415400Y-68169000D01*
X145415400Y-68169000D02*
X145415400Y-96169000D01*
X145415400Y-96169000D02*
X113715400Y-96169000D01*
X140534000Y-70419000D02*
X136834000Y-70419000D01*
X140534000Y-68519000D02*
X140534000Y-70419000D01*
X136834000Y-68519000D02*
X140534000Y-68519000D01*
X136834000Y-70419000D02*
X136834000Y-68519000D01*
X132922400Y-70368200D02*
X132922400Y-68468200D01*
X132922400Y-68468200D02*
X136622400Y-68468200D01*
X136622400Y-68468200D02*
X136622400Y-70368200D01*
X136622400Y-70368200D02*
X132922400Y-70368200D01*
X159010800Y-92303600D02*
G75*
G03X159010800Y-92303600I-2750000J0D01*
G01*
X158883800Y-65659000D02*
G75*
G03X158883800Y-65659000I-2750000J0D01*
G01*
X104934200Y-65608200D02*
G75*
G03X104934200Y-65608200I-2750000J0D01*
G01*
X104934200Y-92659200D02*
G75*
G03X104934200Y-92659200I-2750000J0D01*
G01*
X103186800Y-83169000D02*
X103186800Y-81169000D01*
X103886800Y-83169000D02*
X103186800Y-83169000D01*
X107286800Y-83969000D02*
X107486800Y-83969000D01*
X107286800Y-84669000D02*
X107286800Y-83969000D01*
X107486800Y-83969000D02*
X107486800Y-80369000D01*
X103886800Y-83969000D02*
X104086800Y-83969000D01*
X104086800Y-84669000D02*
X104086800Y-83969000D01*
X107286800Y-84669000D02*
X104086800Y-84669000D01*
X107286800Y-80369000D02*
X107486800Y-80369000D01*
X107286800Y-80369000D02*
X107286800Y-79669000D01*
X103886800Y-81169000D02*
X103886800Y-80369000D01*
X107286800Y-79669000D02*
X104086800Y-79669000D01*
X104086800Y-80369000D02*
X104086800Y-79669000D01*
X103886800Y-80369000D02*
X104086800Y-80369000D01*
X103886800Y-83969000D02*
X103886800Y-83169000D01*
X103886800Y-81169000D02*
X103186800Y-81169000D01*
X153710600Y-83815800D02*
X153710600Y-80115800D01*
X155610600Y-83815800D02*
X153710600Y-83815800D01*
X155610600Y-80115800D02*
X155610600Y-83815800D01*
X153710600Y-80115800D02*
X155610600Y-80115800D01*
X147055800Y-79912600D02*
X148955800Y-79912600D01*
X148955800Y-79912600D02*
X148955800Y-83612600D01*
X148955800Y-83612600D02*
X147055800Y-83612600D01*
X147055800Y-83612600D02*
X147055800Y-79912600D01*
X156924800Y-88605400D02*
X153564800Y-88605400D01*
X156924800Y-86705400D02*
X156924800Y-88605400D01*
X153564800Y-86705400D02*
X156924800Y-86705400D01*
X153564800Y-88605400D02*
X153564800Y-86705400D01*
X152352800Y-83936800D02*
X152352800Y-85836800D01*
X152352800Y-85836800D02*
X148992800Y-85836800D01*
X148992800Y-85836800D02*
X148992800Y-83936800D01*
X148992800Y-83936800D02*
X152352800Y-83936800D01*
X143641200Y-79436000D02*
X143641200Y-77536000D01*
X143641200Y-77536000D02*
X147341200Y-77536000D01*
X147341200Y-77536000D02*
X147341200Y-79436000D01*
X147341200Y-79436000D02*
X143641200Y-79436000D01*
X149570400Y-76847200D02*
X149570400Y-73147200D01*
X151470400Y-76847200D02*
X149570400Y-76847200D01*
X151470400Y-73147200D02*
X151470400Y-76847200D01*
X149570400Y-73147200D02*
X151470400Y-73147200D01*
X157526600Y-84551480D02*
X157526600Y-86451480D01*
X157526600Y-86451480D02*
X153826600Y-86451480D01*
X153826600Y-86451480D02*
X153826600Y-84551480D01*
X153826600Y-84551480D02*
X157526600Y-84551480D01*
X147487600Y-76796400D02*
X147487600Y-73096400D01*
X149387600Y-76796400D02*
X147487600Y-76796400D01*
X149387600Y-73096400D02*
X149387600Y-76796400D01*
X147487600Y-73096400D02*
X149387600Y-73096400D01*
X158136200Y-78120200D02*
X158136200Y-80020200D01*
X158136200Y-80020200D02*
X154436200Y-80020200D01*
X154436200Y-80020200D02*
X154436200Y-78120200D01*
X154436200Y-78120200D02*
X158136200Y-78120200D01*
X152522800Y-87970400D02*
X148822800Y-87970400D01*
X152522800Y-86070400D02*
X152522800Y-87970400D01*
X148822800Y-86070400D02*
X152522800Y-86070400D01*
X148822800Y-87970400D02*
X148822800Y-86070400D01*
X143641200Y-77378600D02*
X143641200Y-75478600D01*
X143641200Y-75478600D02*
X147341200Y-75478600D01*
X147341200Y-75478600D02*
X147341200Y-77378600D01*
X147341200Y-77378600D02*
X143641200Y-77378600D01*
X149896960Y-95302200D02*
X146896960Y-95302200D01*
X149896960Y-95302200D02*
X149896960Y-92302200D01*
X146896960Y-92302200D02*
X146896960Y-95302200D01*
X146896960Y-92302200D02*
X149896960Y-92302200D01*
X150016080Y-92302200D02*
X153016080Y-92302200D01*
X150016080Y-92302200D02*
X150016080Y-95302200D01*
X153016080Y-95302200D02*
X153016080Y-92302200D01*
X153016080Y-95302200D02*
X150016080Y-95302200D01*
X149231400Y-78253600D02*
X149231400Y-82453600D01*
X153431400Y-78253600D02*
X153431400Y-82453600D01*
X149231400Y-78253600D02*
X153431400Y-78253600D01*
X149231400Y-82453600D02*
X153431400Y-82453600D01*
X109865200Y-83257000D02*
X107965200Y-83257000D01*
X107965200Y-83257000D02*
X107965200Y-79557000D01*
X107965200Y-79557000D02*
X109865200Y-79557000D01*
X109865200Y-79557000D02*
X109865200Y-83257000D01*
X113604000Y-75696200D02*
X115504000Y-75696200D01*
X115504000Y-75696200D02*
X115504000Y-79396200D01*
X115504000Y-79396200D02*
X113604000Y-79396200D01*
X113604000Y-79396200D02*
X113604000Y-75696200D01*
X109489200Y-79412600D02*
X109489200Y-75712600D01*
X111389200Y-79412600D02*
X109489200Y-79412600D01*
X111389200Y-75712600D02*
X111389200Y-79412600D01*
X109489200Y-75712600D02*
X111389200Y-75712600D01*
X111546600Y-75712600D02*
X113446600Y-75712600D01*
X113446600Y-75712600D02*
X113446600Y-79412600D01*
X113446600Y-79412600D02*
X111546600Y-79412600D01*
X111546600Y-79412600D02*
X111546600Y-75712600D01*
X104861400Y-74959600D02*
X104861400Y-78659600D01*
X102961400Y-74959600D02*
X104861400Y-74959600D01*
X102961400Y-78659600D02*
X102961400Y-74959600D01*
X104861400Y-78659600D02*
X102961400Y-78659600D01*
X103814000Y-71917600D02*
X103814000Y-70017600D01*
X103814000Y-70017600D02*
X107514000Y-70017600D01*
X107514000Y-70017600D02*
X107514000Y-71917600D01*
X107514000Y-71917600D02*
X103814000Y-71917600D01*
X143514200Y-70144600D02*
X147214200Y-70144600D01*
X143514200Y-72044600D02*
X143514200Y-70144600D01*
X147214200Y-72044600D02*
X143514200Y-72044600D01*
X147214200Y-70144600D02*
X147214200Y-72044600D01*
X141137600Y-69608200D02*
X141137600Y-65908200D01*
X143037600Y-69608200D02*
X141137600Y-69608200D01*
X143037600Y-65908200D02*
X143037600Y-69608200D01*
X141137600Y-65908200D02*
X143037600Y-65908200D01*
X107674800Y-72506800D02*
X111374800Y-72506800D01*
X107674800Y-74406800D02*
X107674800Y-72506800D01*
X111374800Y-74406800D02*
X107674800Y-74406800D01*
X111374800Y-72506800D02*
X111374800Y-74406800D01*
D11*
X147264600Y-69889701D02*
X147264600Y-69889701D01*
X147264600Y-69889701D02*
X147264600Y-64933501D01*
X147264600Y-64933501D02*
X143514600Y-64933501D01*
X143514600Y-64933501D02*
X143514600Y-69889701D01*
X143514600Y-69889701D02*
X147264600Y-69889701D01*
D10*
X110373200Y-88794200D02*
X108473200Y-88794200D01*
X108473200Y-88794200D02*
X108473200Y-85094200D01*
X108473200Y-85094200D02*
X110373200Y-85094200D01*
X110373200Y-85094200D02*
X110373200Y-88794200D01*
X104525200Y-84800400D02*
X108225200Y-84800400D01*
X104525200Y-86700400D02*
X104525200Y-84800400D01*
X108225200Y-86700400D02*
X104525200Y-86700400D01*
X108225200Y-84800400D02*
X108225200Y-86700400D01*
X102428000Y-88616400D02*
X102428000Y-84916400D01*
X104328000Y-88616400D02*
X102428000Y-88616400D01*
X104328000Y-84916400D02*
X104328000Y-88616400D01*
X102428000Y-84916400D02*
X104328000Y-84916400D01*
X151794600Y-78013600D02*
X151794600Y-76113600D01*
X151794600Y-76113600D02*
X155494600Y-76113600D01*
X155494600Y-76113600D02*
X155494600Y-78013600D01*
X155494600Y-78013600D02*
X151794600Y-78013600D01*
X105934800Y-74710600D02*
X108034800Y-74710600D01*
X108034800Y-74710600D02*
X108034800Y-79670600D01*
X108034800Y-79670600D02*
X105934800Y-79670600D01*
X105934800Y-79670600D02*
X105934800Y-74710600D01*
X132044800Y-68424000D02*
X124644800Y-68424000D01*
X124644800Y-68424000D02*
X124644800Y-62724000D01*
X124644800Y-62724000D02*
X132044800Y-62724000D01*
X132044800Y-62724000D02*
X132044800Y-68424000D01*
X132628600Y-67356600D02*
X132628600Y-63656600D01*
X134528600Y-67356600D02*
X132628600Y-67356600D01*
X134528600Y-63656600D02*
X134528600Y-67356600D01*
X132628600Y-63656600D02*
X134528600Y-63656600D01*
X124495600Y-66645400D02*
X122595600Y-66645400D01*
X122595600Y-66645400D02*
X122595600Y-62945400D01*
X122595600Y-62945400D02*
X124495600Y-62945400D01*
X124495600Y-62945400D02*
X124495600Y-66645400D01*
X120746800Y-66791800D02*
X124446800Y-66791800D01*
X120746800Y-68691800D02*
X120746800Y-66791800D01*
X124446800Y-68691800D02*
X120746800Y-68691800D01*
X124446800Y-66791800D02*
X124446800Y-68691800D01*
X125826800Y-70469800D02*
X125826800Y-68569800D01*
X125826800Y-68569800D02*
X129526800Y-68569800D01*
X129526800Y-68569800D02*
X129526800Y-70469800D01*
X129526800Y-70469800D02*
X125826800Y-70469800D01*
M02*
