M48
;DRILL file {KiCad (5.0.2)-1} date 08/04/2021 12:32:14
;FORMAT={-:-/ absolute / inch / decimal}
FMAT,2
INCH,TZ
T1C0.0118
T2C0.0157
T3C0.0197
T4C0.0315
T5C0.0394
T6C0.0984
%
G90
G05
T1
X5.9382Y-3.1438
X5.9382Y-3.1832
X5.9579Y-3.1635
X5.9776Y-3.1438
X5.9776Y-3.1832
T2
X3.9168Y-2.7298
X3.9262Y-2.6814
X3.937Y-3.2655
X3.938Y-3.376
X3.938Y-3.4875
X3.938Y-3.5485
X3.99Y-3.44
X3.9905Y-3.5065
X3.9925Y-3.363
X3.996Y-3.2655
X4.042Y-2.739
X4.0474Y-2.9372
X4.0658Y-3.5242
X4.085Y-3.172
X4.1196Y-2.9165
X4.127Y-3.7405
X4.131Y-3.49
X4.137Y-2.4954
X4.1445Y-2.8552
X4.1486Y-2.5496
X4.149Y-2.606
X4.15Y-2.9885
X4.15Y-3.113
X4.161Y-3.242
X4.1635Y-3.693
X4.183Y-3.608
X4.201Y-3.7405
X4.204Y-3.244
X4.2185Y-2.9126
X4.2195Y-3.538
X4.2255Y-3.0375
X4.227Y-3.639
X4.2282Y-2.7396
X4.2338Y-2.695
X4.2355Y-3.4965
X4.27Y-2.945
X4.276Y-3.046
X4.289Y-3.095
X4.298Y-2.974
X4.301Y-3.319
X4.3195Y-3.52
X4.3464Y-2.9596
X4.348Y-3.213
X4.353Y-3.5575
X4.354Y-2.839
X4.3787Y-2.673
X4.3812Y-3.4128
X4.3817Y-3.1513
X4.4Y-2.711
X4.4078Y-3.291
X4.412Y-2.787
X4.4166Y-3.141
X4.417Y-3.454
X4.4465Y-2.6885
X4.457Y-3.289
X4.4576Y-3.3766
X4.4588Y-3.4484
X4.461Y-3.248
X4.471Y-2.589
X4.483Y-2.707
X4.491Y-2.655
X4.522Y-2.556
X4.522Y-3.504
X4.577Y-3.5415
X4.581Y-3.3
X4.619Y-3.6005
X4.6205Y-3.681
X4.6522Y-3.5414
X4.66Y-2.492
X4.6638Y-2.7488
X4.669Y-2.699
X4.671Y-2.627
X4.7Y-2.936
X4.702Y-2.663
X4.704Y-2.895
X4.705Y-3.133
X4.705Y-3.287
X4.71Y-3.242
X4.7125Y-3.5775
X4.7156Y-2.5632
X4.716Y-3.196
X4.717Y-3.355
X4.7172Y-2.854
X4.72Y-3.399
X4.72Y-3.485
X4.72Y-3.683
X4.7244Y-3.0528
X4.736Y-2.717
X4.746Y-2.932
X4.746Y-3.3201
X4.751Y-2.494
X4.7866Y-3.3724
X4.787Y-2.609
X4.7925Y-3.473
X4.796Y-2.77
X4.806Y-3.542
X4.81Y-2.511
X4.812Y-3.232
X4.847Y-3.152
X4.8565Y-3.4995
X4.8632Y-3.3688
X4.8712Y-3.2376
X4.886Y-3.164
X4.895Y-2.989
X4.9484Y-3.23
X4.952Y-3.4225
X4.9572Y-3.3122
X4.9895Y-3.525
X4.9945Y-3.3735
X5.017Y-3.035
X5.019Y-3.468
X5.0284Y-3.2372
X5.0345Y-3.589
X5.0412Y-3.3036
X5.0472Y-2.9512
X5.051Y-2.991
X5.0548Y-3.3956
X5.0576Y-2.8626
X5.061Y-3.6825
X5.0788Y-2.932
X5.0984Y-3.5306
X5.101Y-3.308
X5.116Y-2.701
X5.1218Y-2.9274
X5.1315Y-3.6815
X5.144Y-3.315
X5.17Y-2.695
X5.175Y-2.932
X5.2176Y-3.158
X5.2224Y-3.1048
X5.243Y-2.925
X5.2432Y-3.0474
X5.259Y-3.52
X5.2596Y-3.3276
X5.26Y-2.674
X5.268Y-3.478
X5.298Y-2.923
X5.301Y-2.659
X5.3154Y-2.5562
X5.318Y-2.623
X5.3182Y-3.0992
X5.3184Y-3.195
X5.337Y-3.7235
X5.366Y-3.074
X5.383Y-3.035
X5.4054Y-2.9408
X5.4095Y-3.726
X5.4166Y-2.5446
X5.4184Y-2.6474
X5.421Y-2.991
X5.445Y-3.52
X5.4485Y-3.6605
X5.463Y-3.2542
X5.4654Y-2.9012
X5.467Y-2.8076
X5.476Y-3.469
X5.482Y-3.712
X5.483Y-2.6232
X5.52Y-2.545
X5.5285Y-3.671
X5.535Y-2.941
X5.553Y-3.583
X5.583Y-3.7125
X5.5895Y-3.641
X5.602Y-2.764
X5.602Y-2.8318
X5.603Y-2.921
X5.615Y-2.57
X5.6156Y-3.5616
X5.648Y-3.1885
X5.657Y-3.3305
X5.6624Y-2.5068
X5.669Y-3.732
X5.6715Y-3.581
X5.672Y-3.6675
X5.681Y-2.852
X5.686Y-2.953
X5.6925Y-3.405
X5.694Y-3.2685
X5.694Y-3.491
X5.71Y-3.191
X5.713Y-2.534
X5.767Y-2.527
X5.771Y-3.147
X5.7866Y-3.5452
X5.7876Y-3.629
X5.7936Y-3.4284
X5.8205Y-3.1305
X5.827Y-3.31
X5.8312Y-2.797
X5.8424Y-3.6182
X5.847Y-2.859
X5.853Y-3.5482
X5.88Y-3.268
X5.884Y-2.6165
X5.886Y-2.5015
X5.886Y-2.5625
X5.889Y-3.223
X5.9044Y-3.589
X5.9094Y-2.7938
X5.922Y-3.261
X5.9242Y-2.742
X5.93Y-2.855
X5.936Y-2.619
X5.937Y-3.059
X5.962Y-2.5645
X5.9635Y-2.5015
X5.9644Y-3.5932
X5.972Y-3.491
X5.978Y-2.702
X5.9795Y-2.6495
X5.9795Y-2.6495
X5.993Y-2.7938
X6.002Y-3.26
X6.005Y-2.976
X6.0185Y-2.55
X6.0185Y-2.61
X6.0242Y-2.9284
X6.027Y-2.74
X6.027Y-2.8798
X6.033Y-2.5015
X6.05Y-3.7345
X6.061Y-2.809
X6.0712Y-3.3198
X6.0744Y-2.7064
X6.112Y-2.8408
X6.14Y-2.759
X6.142Y-3.034
X6.145Y-2.981
X6.146Y-3.268
X6.151Y-3.188
X6.193Y-3.055
X6.2Y-3.1816
X6.2358Y-2.706
X6.242Y-3.166
X6.2425Y-3.739
X6.2434Y-3.0496
T3
X3.9492Y-2.583
X3.9708Y-2.5308
X3.9708Y-2.6352
X4.023Y-2.5092
X4.023Y-2.6568
X4.0752Y-2.5308
X4.0752Y-2.6352
X4.0968Y-2.583
X6.0782Y-3.634
X6.0998Y-3.5818
X6.0998Y-3.6862
X6.152Y-3.5602
X6.152Y-3.7078
X6.2042Y-3.5818
X6.2042Y-3.6862
X6.2258Y-3.634
X3.9492Y-3.648
X3.9708Y-3.5958
X3.9708Y-3.7002
X4.023Y-3.5742
X4.023Y-3.7218
X4.0752Y-3.5958
X4.0752Y-3.7002
X4.0968Y-3.648
X6.0732Y-2.585
X6.0948Y-2.5328
X6.0948Y-2.6372
X6.147Y-2.5112
X6.147Y-2.6588
X6.1992Y-2.5328
X6.1992Y-2.6372
X6.2208Y-2.585
T4
X6.2382Y-3.2776
X6.2382Y-3.3776
X6.2382Y-3.4776
T5
X3.975Y-2.761
X3.975Y-2.861
X3.975Y-2.961
X3.975Y-3.061
X3.975Y-3.161
T6
X4.023Y-2.583
X6.152Y-3.634
X4.023Y-3.648
X6.147Y-2.585
T0
M30
