%TF.GenerationSoftware,KiCad,Pcbnew,(5.0.2)-1*%
%TF.CreationDate,2021-04-08T12:32:07+02:00*%
%TF.ProjectId,trackerGPS,74726163-6b65-4724-9750-532e6b696361,rev?*%
%TF.SameCoordinates,Original*%
%TF.FileFunction,Soldermask,Bot*%
%TF.FilePolarity,Negative*%
%FSLAX46Y46*%
G04 Gerber Fmt 4.6, Leading zero omitted, Abs format (unit mm)*
G04 Created by KiCad (PCBNEW (5.0.2)-1) date 08/04/2021 12:32:07*
%MOMM*%
%LPD*%
G01*
G04 APERTURE LIST*
%ADD10C,0.100000*%
G04 APERTURE END LIST*
D10*
G36*
X102928296Y-90206233D02*
X102928298Y-90206234D01*
X102928299Y-90206234D01*
X103392552Y-90398533D01*
X103778139Y-90656174D01*
X103810371Y-90677711D01*
X104165689Y-91033029D01*
X104165691Y-91033032D01*
X104444867Y-91450848D01*
X104635583Y-91911280D01*
X104637167Y-91915104D01*
X104735200Y-92407947D01*
X104735200Y-92910453D01*
X104637727Y-93400482D01*
X104637166Y-93403299D01*
X104444867Y-93867552D01*
X104191525Y-94246704D01*
X104165689Y-94285371D01*
X103810371Y-94640689D01*
X103810368Y-94640691D01*
X103392552Y-94919867D01*
X102928299Y-95112166D01*
X102928298Y-95112166D01*
X102928296Y-95112167D01*
X102435453Y-95210200D01*
X101932947Y-95210200D01*
X101440104Y-95112167D01*
X101440102Y-95112166D01*
X101440101Y-95112166D01*
X100975848Y-94919867D01*
X100558032Y-94640691D01*
X100558029Y-94640689D01*
X100202711Y-94285371D01*
X100176875Y-94246704D01*
X99923533Y-93867552D01*
X99731234Y-93403299D01*
X99730674Y-93400482D01*
X99633200Y-92910453D01*
X99633200Y-92407947D01*
X99731233Y-91915104D01*
X99732817Y-91911280D01*
X99923533Y-91450848D01*
X100202709Y-91033032D01*
X100202711Y-91033029D01*
X100558029Y-90677711D01*
X100590261Y-90656174D01*
X100975848Y-90398533D01*
X101440101Y-90206234D01*
X101440102Y-90206234D01*
X101440104Y-90206233D01*
X101932947Y-90108200D01*
X102435453Y-90108200D01*
X102928296Y-90206233D01*
X102928296Y-90206233D01*
G37*
G36*
X157004896Y-89850633D02*
X157004898Y-89850634D01*
X157004899Y-89850634D01*
X157469152Y-90042933D01*
X157855907Y-90301355D01*
X157886971Y-90322111D01*
X158242289Y-90677429D01*
X158242291Y-90677432D01*
X158521467Y-91095248D01*
X158713766Y-91559501D01*
X158713767Y-91559504D01*
X158811800Y-92052347D01*
X158811800Y-92554853D01*
X158717903Y-93026904D01*
X158713766Y-93047699D01*
X158521467Y-93511952D01*
X158348112Y-93771396D01*
X158242289Y-93929771D01*
X157886971Y-94285089D01*
X157886968Y-94285091D01*
X157469152Y-94564267D01*
X157004899Y-94756566D01*
X157004898Y-94756566D01*
X157004896Y-94756567D01*
X156512053Y-94854600D01*
X156009547Y-94854600D01*
X155516704Y-94756567D01*
X155516702Y-94756566D01*
X155516701Y-94756566D01*
X155052448Y-94564267D01*
X154634632Y-94285091D01*
X154634629Y-94285089D01*
X154279311Y-93929771D01*
X154173488Y-93771396D01*
X154000133Y-93511952D01*
X153807834Y-93047699D01*
X153803698Y-93026904D01*
X153709800Y-92554853D01*
X153709800Y-92052347D01*
X153807833Y-91559504D01*
X153807834Y-91559501D01*
X154000133Y-91095248D01*
X154279309Y-90677432D01*
X154279311Y-90677429D01*
X154634629Y-90322111D01*
X154665693Y-90301355D01*
X155052448Y-90042933D01*
X155516701Y-89850634D01*
X155516702Y-89850634D01*
X155516704Y-89850633D01*
X156009547Y-89752600D01*
X156512053Y-89752600D01*
X157004896Y-89850633D01*
X157004896Y-89850633D01*
G37*
G36*
X114505153Y-91682346D02*
X114258188Y-91682346D01*
X114233802Y-91684748D01*
X114210353Y-91691861D01*
X114188742Y-91703412D01*
X114169800Y-91718958D01*
X114154254Y-91737900D01*
X114142703Y-91759511D01*
X114135590Y-91782960D01*
X114133188Y-91807346D01*
X114135590Y-91831732D01*
X114142703Y-91855181D01*
X114154254Y-91876792D01*
X114169800Y-91895734D01*
X114188742Y-91911280D01*
X114210353Y-91922831D01*
X114216194Y-91924921D01*
X114217747Y-91925074D01*
X114284730Y-91945393D01*
X114346462Y-91978389D01*
X114400571Y-92022795D01*
X114444977Y-92076904D01*
X114477973Y-92138636D01*
X114498292Y-92205619D01*
X114505153Y-92275279D01*
X114505153Y-92275281D01*
X114498292Y-92344941D01*
X114477973Y-92411924D01*
X114444977Y-92473656D01*
X114400571Y-92527765D01*
X114346462Y-92572171D01*
X114284730Y-92605167D01*
X114217747Y-92625486D01*
X114201562Y-92627080D01*
X114183551Y-92630663D01*
X114160912Y-92640040D01*
X114140538Y-92653654D01*
X114123211Y-92670981D01*
X114109597Y-92691356D01*
X114100219Y-92713995D01*
X114095439Y-92738028D01*
X114095439Y-92762532D01*
X114100220Y-92786566D01*
X114109597Y-92809205D01*
X114123211Y-92829579D01*
X114140538Y-92846906D01*
X114160913Y-92860520D01*
X114183552Y-92869898D01*
X114201560Y-92873480D01*
X114217747Y-92875074D01*
X114284730Y-92895393D01*
X114346462Y-92928389D01*
X114400571Y-92972795D01*
X114444977Y-93026904D01*
X114477973Y-93088636D01*
X114498292Y-93155619D01*
X114505153Y-93225279D01*
X114505153Y-93225281D01*
X114498292Y-93294941D01*
X114477973Y-93361924D01*
X114444977Y-93423656D01*
X114400571Y-93477765D01*
X114346462Y-93522171D01*
X114284730Y-93555167D01*
X114217747Y-93575486D01*
X114148087Y-93582347D01*
X112954983Y-93582347D01*
X112885323Y-93575486D01*
X112818340Y-93555167D01*
X112756608Y-93522171D01*
X112702499Y-93477765D01*
X112658093Y-93423656D01*
X112625097Y-93361924D01*
X112604778Y-93294941D01*
X112597917Y-93225281D01*
X112597917Y-93225279D01*
X112604778Y-93155619D01*
X112625097Y-93088636D01*
X112658093Y-93026904D01*
X112702499Y-92972795D01*
X112756608Y-92928389D01*
X112818340Y-92895393D01*
X112885323Y-92875074D01*
X112901508Y-92873480D01*
X112919519Y-92869897D01*
X112942158Y-92860520D01*
X112962532Y-92846906D01*
X112979859Y-92829579D01*
X112993473Y-92809204D01*
X113002851Y-92786565D01*
X113007631Y-92762532D01*
X113007631Y-92738028D01*
X113002850Y-92713994D01*
X112993473Y-92691355D01*
X112979859Y-92670981D01*
X112962532Y-92653654D01*
X112942157Y-92640040D01*
X112919518Y-92630662D01*
X112901510Y-92627080D01*
X112885323Y-92625486D01*
X112818340Y-92605167D01*
X112756608Y-92572171D01*
X112702499Y-92527765D01*
X112658093Y-92473656D01*
X112625097Y-92411924D01*
X112604778Y-92344941D01*
X112597917Y-92275281D01*
X112597917Y-92275279D01*
X112604778Y-92205619D01*
X112625097Y-92138636D01*
X112658093Y-92076904D01*
X112702499Y-92022795D01*
X112756608Y-91978389D01*
X112818340Y-91945393D01*
X112885323Y-91925074D01*
X112885856Y-91925021D01*
X112903806Y-91917586D01*
X112924181Y-91903973D01*
X112941508Y-91886646D01*
X112955122Y-91866271D01*
X112964499Y-91843632D01*
X112969280Y-91819599D01*
X112969280Y-91795094D01*
X112964500Y-91771061D01*
X112955122Y-91748422D01*
X112941509Y-91728047D01*
X112924182Y-91710720D01*
X112903807Y-91697106D01*
X112881168Y-91687729D01*
X112857135Y-91682948D01*
X112844882Y-91682346D01*
X112597917Y-91682346D01*
X112597917Y-90968214D01*
X114505153Y-90968214D01*
X114505153Y-91682346D01*
X114505153Y-91682346D01*
G37*
G36*
X111916783Y-92875074D02*
X111983766Y-92895393D01*
X112045498Y-92928389D01*
X112099607Y-92972795D01*
X112144013Y-93026904D01*
X112177009Y-93088636D01*
X112197328Y-93155619D01*
X112204189Y-93225279D01*
X112204189Y-93225281D01*
X112197328Y-93294941D01*
X112177009Y-93361924D01*
X112144013Y-93423656D01*
X112099607Y-93477765D01*
X112045498Y-93522171D01*
X111983766Y-93555167D01*
X111916783Y-93575486D01*
X111847123Y-93582347D01*
X110654019Y-93582347D01*
X110584359Y-93575486D01*
X110517376Y-93555167D01*
X110455644Y-93522171D01*
X110401535Y-93477765D01*
X110357129Y-93423656D01*
X110324133Y-93361924D01*
X110303814Y-93294941D01*
X110296953Y-93225281D01*
X110296953Y-93225279D01*
X110303814Y-93155619D01*
X110324133Y-93088636D01*
X110357129Y-93026904D01*
X110401535Y-92972795D01*
X110455644Y-92928389D01*
X110517376Y-92895393D01*
X110584359Y-92875074D01*
X110654019Y-92868213D01*
X111847123Y-92868213D01*
X111916783Y-92875074D01*
X111916783Y-92875074D01*
G37*
G36*
X109275277Y-92173665D02*
X109312964Y-92185098D01*
X109347703Y-92203666D01*
X109378148Y-92228652D01*
X109403134Y-92259097D01*
X109421702Y-92293836D01*
X109433135Y-92331523D01*
X109437600Y-92376861D01*
X109437600Y-93213539D01*
X109433135Y-93258877D01*
X109421702Y-93296564D01*
X109403134Y-93331303D01*
X109378148Y-93361748D01*
X109347703Y-93386734D01*
X109312964Y-93405302D01*
X109275277Y-93416735D01*
X109229939Y-93421200D01*
X108143261Y-93421200D01*
X108097923Y-93416735D01*
X108060236Y-93405302D01*
X108025497Y-93386734D01*
X107995052Y-93361748D01*
X107970066Y-93331303D01*
X107951498Y-93296564D01*
X107940065Y-93258877D01*
X107935600Y-93213539D01*
X107935600Y-92376861D01*
X107940065Y-92331523D01*
X107951498Y-92293836D01*
X107970066Y-92259097D01*
X107995052Y-92228652D01*
X108025497Y-92203666D01*
X108060236Y-92185098D01*
X108097923Y-92173665D01*
X108143261Y-92169200D01*
X109229939Y-92169200D01*
X109275277Y-92173665D01*
X109275277Y-92173665D01*
G37*
G36*
X129776921Y-90656174D02*
X129877195Y-90697709D01*
X129967445Y-90758012D01*
X130044188Y-90834755D01*
X130104491Y-90925005D01*
X130146026Y-91025279D01*
X130167200Y-91131730D01*
X130167200Y-91240270D01*
X130146026Y-91346721D01*
X130104491Y-91446995D01*
X130044188Y-91537245D01*
X129967445Y-91613988D01*
X129877195Y-91674291D01*
X129776921Y-91715826D01*
X129670470Y-91737000D01*
X129561930Y-91737000D01*
X129455479Y-91715826D01*
X129355205Y-91674291D01*
X129264955Y-91613988D01*
X129188212Y-91537245D01*
X129127909Y-91446995D01*
X129086374Y-91346721D01*
X129065200Y-91240270D01*
X129065200Y-91131730D01*
X129086374Y-91025279D01*
X129127909Y-90925005D01*
X129188212Y-90834755D01*
X129264955Y-90758012D01*
X129355205Y-90697709D01*
X129455479Y-90656174D01*
X129561930Y-90635000D01*
X129670470Y-90635000D01*
X129776921Y-90656174D01*
X129776921Y-90656174D01*
G37*
G36*
X111916783Y-90975074D02*
X111983766Y-90995393D01*
X112045498Y-91028389D01*
X112099607Y-91072795D01*
X112144013Y-91126904D01*
X112177009Y-91188636D01*
X112197328Y-91255619D01*
X112204189Y-91325279D01*
X112204189Y-91325281D01*
X112197328Y-91394941D01*
X112177009Y-91461924D01*
X112144013Y-91523656D01*
X112099607Y-91577765D01*
X112045498Y-91622171D01*
X111983766Y-91655167D01*
X111916783Y-91675486D01*
X111847123Y-91682347D01*
X110654019Y-91682347D01*
X110584359Y-91675486D01*
X110517376Y-91655167D01*
X110455644Y-91622171D01*
X110401535Y-91577765D01*
X110357129Y-91523656D01*
X110324133Y-91461924D01*
X110303814Y-91394941D01*
X110296953Y-91325281D01*
X110296953Y-91325279D01*
X110303814Y-91255619D01*
X110324133Y-91188636D01*
X110357129Y-91126904D01*
X110401535Y-91072795D01*
X110455644Y-91028389D01*
X110517376Y-90995393D01*
X110584359Y-90975074D01*
X110654019Y-90968213D01*
X111847123Y-90968213D01*
X111916783Y-90975074D01*
X111916783Y-90975074D01*
G37*
G36*
X109275277Y-90123665D02*
X109312964Y-90135098D01*
X109347703Y-90153666D01*
X109378148Y-90178652D01*
X109403134Y-90209097D01*
X109421702Y-90243836D01*
X109433135Y-90281523D01*
X109437600Y-90326861D01*
X109437600Y-91163539D01*
X109433135Y-91208877D01*
X109421702Y-91246564D01*
X109403134Y-91281303D01*
X109378148Y-91311748D01*
X109347703Y-91336734D01*
X109312964Y-91355302D01*
X109275277Y-91366735D01*
X109229939Y-91371200D01*
X108143261Y-91371200D01*
X108097923Y-91366735D01*
X108060236Y-91355302D01*
X108025497Y-91336734D01*
X107995052Y-91311748D01*
X107970066Y-91281303D01*
X107951498Y-91246564D01*
X107940065Y-91208877D01*
X107935600Y-91163539D01*
X107935600Y-90326861D01*
X107940065Y-90281523D01*
X107951498Y-90243836D01*
X107970066Y-90209097D01*
X107995052Y-90178652D01*
X108025497Y-90153666D01*
X108060236Y-90135098D01*
X108097923Y-90123665D01*
X108143261Y-90119200D01*
X109229939Y-90119200D01*
X109275277Y-90123665D01*
X109275277Y-90123665D01*
G37*
G36*
X139682921Y-90122774D02*
X139783195Y-90164309D01*
X139873445Y-90224612D01*
X139950188Y-90301355D01*
X140010491Y-90391605D01*
X140052026Y-90491879D01*
X140073200Y-90598330D01*
X140073200Y-90706870D01*
X140052026Y-90813321D01*
X140010491Y-90913595D01*
X139950188Y-91003845D01*
X139873445Y-91080588D01*
X139783195Y-91140891D01*
X139682921Y-91182426D01*
X139576470Y-91203600D01*
X139467930Y-91203600D01*
X139361479Y-91182426D01*
X139261205Y-91140891D01*
X139170955Y-91080588D01*
X139094212Y-91003845D01*
X139033909Y-90913595D01*
X138992374Y-90813321D01*
X138971200Y-90706870D01*
X138971200Y-90598330D01*
X138992374Y-90491879D01*
X139033909Y-90391605D01*
X139094212Y-90301355D01*
X139170955Y-90224612D01*
X139261205Y-90164309D01*
X139361479Y-90122774D01*
X139467930Y-90101600D01*
X139576470Y-90101600D01*
X139682921Y-90122774D01*
X139682921Y-90122774D01*
G37*
G36*
X105748521Y-89525874D02*
X105848795Y-89567409D01*
X105939045Y-89627712D01*
X106015788Y-89704455D01*
X106076091Y-89794705D01*
X106117626Y-89894979D01*
X106138800Y-90001430D01*
X106138800Y-90109970D01*
X106117626Y-90216421D01*
X106076091Y-90316695D01*
X106015788Y-90406945D01*
X105939045Y-90483688D01*
X105848795Y-90543991D01*
X105748521Y-90585526D01*
X105642070Y-90606700D01*
X105533530Y-90606700D01*
X105427079Y-90585526D01*
X105326805Y-90543991D01*
X105236555Y-90483688D01*
X105159812Y-90406945D01*
X105099509Y-90316695D01*
X105057974Y-90216421D01*
X105036800Y-90109970D01*
X105036800Y-90001430D01*
X105057974Y-89894979D01*
X105099509Y-89794705D01*
X105159812Y-89704455D01*
X105236555Y-89627712D01*
X105326805Y-89567409D01*
X105427079Y-89525874D01*
X105533530Y-89504700D01*
X105642070Y-89504700D01*
X105748521Y-89525874D01*
X105748521Y-89525874D01*
G37*
G36*
X135446677Y-88610665D02*
X135484364Y-88622098D01*
X135519103Y-88640666D01*
X135549548Y-88665652D01*
X135574534Y-88696097D01*
X135593102Y-88730836D01*
X135604535Y-88768523D01*
X135609000Y-88813861D01*
X135609000Y-89900539D01*
X135604535Y-89945877D01*
X135593102Y-89983564D01*
X135574534Y-90018303D01*
X135549548Y-90048748D01*
X135519103Y-90073734D01*
X135484364Y-90092302D01*
X135446677Y-90103735D01*
X135401339Y-90108200D01*
X134564661Y-90108200D01*
X134519323Y-90103735D01*
X134481636Y-90092302D01*
X134446897Y-90073734D01*
X134416452Y-90048748D01*
X134391466Y-90018303D01*
X134372898Y-89983564D01*
X134361465Y-89945877D01*
X134357000Y-89900539D01*
X134357000Y-88813861D01*
X134361465Y-88768523D01*
X134372898Y-88730836D01*
X134391466Y-88696097D01*
X134416452Y-88665652D01*
X134446897Y-88640666D01*
X134481636Y-88622098D01*
X134519323Y-88610665D01*
X134564661Y-88606200D01*
X135401339Y-88606200D01*
X135446677Y-88610665D01*
X135446677Y-88610665D01*
G37*
G36*
X137496677Y-88610665D02*
X137534364Y-88622098D01*
X137569103Y-88640666D01*
X137599548Y-88665652D01*
X137624534Y-88696097D01*
X137643102Y-88730836D01*
X137654535Y-88768523D01*
X137659000Y-88813861D01*
X137659000Y-89900539D01*
X137654535Y-89945877D01*
X137643102Y-89983564D01*
X137624534Y-90018303D01*
X137599548Y-90048748D01*
X137569103Y-90073734D01*
X137534364Y-90092302D01*
X137496677Y-90103735D01*
X137451339Y-90108200D01*
X136614661Y-90108200D01*
X136569323Y-90103735D01*
X136531636Y-90092302D01*
X136496897Y-90073734D01*
X136466452Y-90048748D01*
X136441466Y-90018303D01*
X136422898Y-89983564D01*
X136411465Y-89945877D01*
X136407000Y-89900539D01*
X136407000Y-88813861D01*
X136411465Y-88768523D01*
X136422898Y-88730836D01*
X136441466Y-88696097D01*
X136466452Y-88665652D01*
X136496897Y-88640666D01*
X136531636Y-88622098D01*
X136569323Y-88610665D01*
X136614661Y-88606200D01*
X137451339Y-88606200D01*
X137496677Y-88610665D01*
X137496677Y-88610665D01*
G37*
G36*
X113864330Y-88226745D02*
X113902017Y-88238178D01*
X113936756Y-88256746D01*
X113967201Y-88281732D01*
X113992187Y-88312177D01*
X114010755Y-88346916D01*
X114022188Y-88384603D01*
X114026653Y-88429941D01*
X114026653Y-89516619D01*
X114022188Y-89561957D01*
X114010755Y-89599644D01*
X113992187Y-89634383D01*
X113967201Y-89664828D01*
X113936756Y-89689814D01*
X113902017Y-89708382D01*
X113864330Y-89719815D01*
X113818992Y-89724280D01*
X112982314Y-89724280D01*
X112936976Y-89719815D01*
X112899289Y-89708382D01*
X112864550Y-89689814D01*
X112834105Y-89664828D01*
X112809119Y-89634383D01*
X112790551Y-89599644D01*
X112779118Y-89561957D01*
X112774653Y-89516619D01*
X112774653Y-88429941D01*
X112779118Y-88384603D01*
X112790551Y-88346916D01*
X112809119Y-88312177D01*
X112834105Y-88281732D01*
X112864550Y-88256746D01*
X112899289Y-88238178D01*
X112936976Y-88226745D01*
X112982314Y-88222280D01*
X113818992Y-88222280D01*
X113864330Y-88226745D01*
X113864330Y-88226745D01*
G37*
G36*
X111814330Y-88226745D02*
X111852017Y-88238178D01*
X111886756Y-88256746D01*
X111917201Y-88281732D01*
X111942187Y-88312177D01*
X111960755Y-88346916D01*
X111972188Y-88384603D01*
X111976653Y-88429941D01*
X111976653Y-89516619D01*
X111972188Y-89561957D01*
X111960755Y-89599644D01*
X111942187Y-89634383D01*
X111917201Y-89664828D01*
X111886756Y-89689814D01*
X111852017Y-89708382D01*
X111814330Y-89719815D01*
X111768992Y-89724280D01*
X110932314Y-89724280D01*
X110886976Y-89719815D01*
X110849289Y-89708382D01*
X110814550Y-89689814D01*
X110784105Y-89664828D01*
X110759119Y-89634383D01*
X110740551Y-89599644D01*
X110729118Y-89561957D01*
X110724653Y-89516619D01*
X110724653Y-88429941D01*
X110729118Y-88384603D01*
X110740551Y-88346916D01*
X110759119Y-88312177D01*
X110784105Y-88281732D01*
X110814550Y-88256746D01*
X110849289Y-88238178D01*
X110886976Y-88226745D01*
X110932314Y-88222280D01*
X111768992Y-88222280D01*
X111814330Y-88226745D01*
X111814330Y-88226745D01*
G37*
G36*
X158654752Y-87656978D02*
X158782329Y-87709822D01*
X158897145Y-87786540D01*
X158994780Y-87884175D01*
X159071498Y-87998991D01*
X159124342Y-88126568D01*
X159151280Y-88261996D01*
X159151280Y-88400084D01*
X159124342Y-88535512D01*
X159071498Y-88663089D01*
X158994780Y-88777905D01*
X158897145Y-88875540D01*
X158782329Y-88952258D01*
X158654752Y-89005102D01*
X158519324Y-89032040D01*
X158381236Y-89032040D01*
X158245808Y-89005102D01*
X158118231Y-88952258D01*
X158003415Y-88875540D01*
X157905780Y-88777905D01*
X157829062Y-88663089D01*
X157776218Y-88535512D01*
X157749280Y-88400084D01*
X157749280Y-88261996D01*
X157776218Y-88126568D01*
X157829062Y-87998991D01*
X157905780Y-87884175D01*
X158003415Y-87786540D01*
X158118231Y-87709822D01*
X158245808Y-87656978D01*
X158381236Y-87630040D01*
X158519324Y-87630040D01*
X158654752Y-87656978D01*
X158654752Y-87656978D01*
G37*
G36*
X131333477Y-87366065D02*
X131371164Y-87377498D01*
X131405903Y-87396066D01*
X131436348Y-87421052D01*
X131461334Y-87451497D01*
X131479902Y-87486236D01*
X131491335Y-87523923D01*
X131495800Y-87569261D01*
X131495800Y-88655939D01*
X131491335Y-88701277D01*
X131479902Y-88738964D01*
X131461334Y-88773703D01*
X131436348Y-88804148D01*
X131405903Y-88829134D01*
X131371164Y-88847702D01*
X131333477Y-88859135D01*
X131288139Y-88863600D01*
X130451461Y-88863600D01*
X130406123Y-88859135D01*
X130368436Y-88847702D01*
X130333697Y-88829134D01*
X130303252Y-88804148D01*
X130278266Y-88773703D01*
X130259698Y-88738964D01*
X130248265Y-88701277D01*
X130243800Y-88655939D01*
X130243800Y-87569261D01*
X130248265Y-87523923D01*
X130259698Y-87486236D01*
X130278266Y-87451497D01*
X130303252Y-87421052D01*
X130333697Y-87396066D01*
X130368436Y-87377498D01*
X130406123Y-87366065D01*
X130451461Y-87361600D01*
X131288139Y-87361600D01*
X131333477Y-87366065D01*
X131333477Y-87366065D01*
G37*
G36*
X129283477Y-87366065D02*
X129321164Y-87377498D01*
X129355903Y-87396066D01*
X129386348Y-87421052D01*
X129411334Y-87451497D01*
X129429902Y-87486236D01*
X129441335Y-87523923D01*
X129445800Y-87569261D01*
X129445800Y-88655939D01*
X129441335Y-88701277D01*
X129429902Y-88738964D01*
X129411334Y-88773703D01*
X129386348Y-88804148D01*
X129355903Y-88829134D01*
X129321164Y-88847702D01*
X129283477Y-88859135D01*
X129238139Y-88863600D01*
X128401461Y-88863600D01*
X128356123Y-88859135D01*
X128318436Y-88847702D01*
X128283697Y-88829134D01*
X128253252Y-88804148D01*
X128228266Y-88773703D01*
X128209698Y-88738964D01*
X128198265Y-88701277D01*
X128193800Y-88655939D01*
X128193800Y-87569261D01*
X128198265Y-87523923D01*
X128209698Y-87486236D01*
X128228266Y-87451497D01*
X128253252Y-87421052D01*
X128283697Y-87396066D01*
X128318436Y-87377498D01*
X128356123Y-87366065D01*
X128401461Y-87361600D01*
X129238139Y-87361600D01*
X129283477Y-87366065D01*
X129283477Y-87366065D01*
G37*
G36*
X125255721Y-87735174D02*
X125355995Y-87776709D01*
X125446245Y-87837012D01*
X125522988Y-87913755D01*
X125583291Y-88004005D01*
X125624826Y-88104279D01*
X125646000Y-88210730D01*
X125646000Y-88319270D01*
X125624826Y-88425721D01*
X125583291Y-88525995D01*
X125522988Y-88616245D01*
X125446245Y-88692988D01*
X125355995Y-88753291D01*
X125255721Y-88794826D01*
X125149270Y-88816000D01*
X125040730Y-88816000D01*
X124934279Y-88794826D01*
X124834005Y-88753291D01*
X124743755Y-88692988D01*
X124667012Y-88616245D01*
X124606709Y-88525995D01*
X124565174Y-88425721D01*
X124544000Y-88319270D01*
X124544000Y-88210730D01*
X124565174Y-88104279D01*
X124606709Y-88004005D01*
X124667012Y-87913755D01*
X124743755Y-87837012D01*
X124834005Y-87776709D01*
X124934279Y-87735174D01*
X125040730Y-87714000D01*
X125149270Y-87714000D01*
X125255721Y-87735174D01*
X125255721Y-87735174D01*
G37*
G36*
X135162061Y-85395325D02*
X135229044Y-85415644D01*
X135290776Y-85448640D01*
X135344885Y-85493046D01*
X135389291Y-85547155D01*
X135422287Y-85608887D01*
X135442606Y-85675870D01*
X135444200Y-85692055D01*
X135447783Y-85710066D01*
X135457160Y-85732705D01*
X135470774Y-85753079D01*
X135488101Y-85770406D01*
X135508476Y-85784020D01*
X135531115Y-85793398D01*
X135555148Y-85798178D01*
X135579652Y-85798178D01*
X135603686Y-85793397D01*
X135626325Y-85784020D01*
X135646699Y-85770406D01*
X135664026Y-85753079D01*
X135677640Y-85732704D01*
X135687018Y-85710065D01*
X135690600Y-85692057D01*
X135692194Y-85675870D01*
X135712513Y-85608887D01*
X135745509Y-85547155D01*
X135789915Y-85493046D01*
X135844024Y-85448640D01*
X135905756Y-85415644D01*
X135972739Y-85395325D01*
X136042399Y-85388464D01*
X136042401Y-85388464D01*
X136112061Y-85395325D01*
X136179044Y-85415644D01*
X136240776Y-85448640D01*
X136294885Y-85493046D01*
X136339291Y-85547155D01*
X136372287Y-85608887D01*
X136392606Y-85675870D01*
X136392659Y-85676403D01*
X136400094Y-85694353D01*
X136413707Y-85714728D01*
X136431034Y-85732055D01*
X136451409Y-85745669D01*
X136474048Y-85755046D01*
X136498081Y-85759827D01*
X136522586Y-85759827D01*
X136546619Y-85755047D01*
X136569258Y-85745669D01*
X136589633Y-85732056D01*
X136606960Y-85714729D01*
X136620574Y-85694354D01*
X136629951Y-85671715D01*
X136634732Y-85647682D01*
X136635334Y-85635429D01*
X136635334Y-85388464D01*
X137349466Y-85388464D01*
X137349466Y-87295700D01*
X136635334Y-87295700D01*
X136635334Y-87048735D01*
X136632932Y-87024349D01*
X136625819Y-87000900D01*
X136614268Y-86979289D01*
X136598722Y-86960347D01*
X136579780Y-86944801D01*
X136558169Y-86933250D01*
X136534720Y-86926137D01*
X136510334Y-86923735D01*
X136485948Y-86926137D01*
X136462499Y-86933250D01*
X136440888Y-86944801D01*
X136421946Y-86960347D01*
X136406400Y-86979289D01*
X136394849Y-87000900D01*
X136392759Y-87006741D01*
X136392606Y-87008294D01*
X136372287Y-87075277D01*
X136339291Y-87137009D01*
X136294885Y-87191118D01*
X136240776Y-87235524D01*
X136179044Y-87268520D01*
X136112061Y-87288839D01*
X136042401Y-87295700D01*
X136042399Y-87295700D01*
X135972739Y-87288839D01*
X135905756Y-87268520D01*
X135844024Y-87235524D01*
X135789915Y-87191118D01*
X135745509Y-87137009D01*
X135712513Y-87075277D01*
X135692194Y-87008294D01*
X135690600Y-86992109D01*
X135687017Y-86974098D01*
X135677640Y-86951459D01*
X135664026Y-86931085D01*
X135646699Y-86913758D01*
X135626324Y-86900144D01*
X135603685Y-86890766D01*
X135579652Y-86885986D01*
X135555148Y-86885986D01*
X135531114Y-86890767D01*
X135508475Y-86900144D01*
X135488101Y-86913758D01*
X135470774Y-86931085D01*
X135457160Y-86951460D01*
X135447782Y-86974099D01*
X135444200Y-86992107D01*
X135442606Y-87008294D01*
X135422287Y-87075277D01*
X135389291Y-87137009D01*
X135344885Y-87191118D01*
X135290776Y-87235524D01*
X135229044Y-87268520D01*
X135162061Y-87288839D01*
X135092401Y-87295700D01*
X135092399Y-87295700D01*
X135022739Y-87288839D01*
X134955756Y-87268520D01*
X134894024Y-87235524D01*
X134839915Y-87191118D01*
X134795509Y-87137009D01*
X134762513Y-87075277D01*
X134742194Y-87008294D01*
X134735333Y-86938634D01*
X134735333Y-85745530D01*
X134742194Y-85675870D01*
X134762513Y-85608887D01*
X134795509Y-85547155D01*
X134839915Y-85493046D01*
X134894024Y-85448640D01*
X134955756Y-85415644D01*
X135022739Y-85395325D01*
X135092399Y-85388464D01*
X135092401Y-85388464D01*
X135162061Y-85395325D01*
X135162061Y-85395325D01*
G37*
G36*
X139780677Y-86043265D02*
X139818364Y-86054698D01*
X139853103Y-86073266D01*
X139883548Y-86098252D01*
X139908534Y-86128697D01*
X139927102Y-86163436D01*
X139938535Y-86201123D01*
X139943000Y-86246461D01*
X139943000Y-87083139D01*
X139938535Y-87128477D01*
X139927102Y-87166164D01*
X139908534Y-87200903D01*
X139883548Y-87231348D01*
X139853103Y-87256334D01*
X139818364Y-87274902D01*
X139780677Y-87286335D01*
X139735339Y-87290800D01*
X138648661Y-87290800D01*
X138603323Y-87286335D01*
X138565636Y-87274902D01*
X138530897Y-87256334D01*
X138500452Y-87231348D01*
X138475466Y-87200903D01*
X138456898Y-87166164D01*
X138445465Y-87128477D01*
X138441000Y-87083139D01*
X138441000Y-86246461D01*
X138445465Y-86201123D01*
X138456898Y-86163436D01*
X138475466Y-86128697D01*
X138500452Y-86098252D01*
X138530897Y-86073266D01*
X138565636Y-86054698D01*
X138603323Y-86043265D01*
X138648661Y-86038800D01*
X139735339Y-86038800D01*
X139780677Y-86043265D01*
X139780677Y-86043265D01*
G37*
G36*
X158654752Y-85116978D02*
X158782329Y-85169822D01*
X158897145Y-85246540D01*
X158994780Y-85344175D01*
X159071498Y-85458991D01*
X159124342Y-85586568D01*
X159151280Y-85721996D01*
X159151280Y-85860084D01*
X159124342Y-85995512D01*
X159071498Y-86123089D01*
X158994780Y-86237905D01*
X158897145Y-86335540D01*
X158782329Y-86412258D01*
X158654752Y-86465102D01*
X158519324Y-86492040D01*
X158381236Y-86492040D01*
X158245808Y-86465102D01*
X158118231Y-86412258D01*
X158003415Y-86335540D01*
X157905780Y-86237905D01*
X157829062Y-86123089D01*
X157776218Y-85995512D01*
X157749280Y-85860084D01*
X157749280Y-85721996D01*
X157776218Y-85586568D01*
X157829062Y-85458991D01*
X157905780Y-85344175D01*
X158003415Y-85246540D01*
X158118231Y-85169822D01*
X158245808Y-85116978D01*
X158381236Y-85090040D01*
X158519324Y-85090040D01*
X158654752Y-85116978D01*
X158654752Y-85116978D01*
G37*
G36*
X132367721Y-84788774D02*
X132467995Y-84830309D01*
X132558245Y-84890612D01*
X132634988Y-84967355D01*
X132695291Y-85057605D01*
X132736826Y-85157879D01*
X132758000Y-85264330D01*
X132758000Y-85372870D01*
X132736826Y-85479321D01*
X132695291Y-85579595D01*
X132634988Y-85669845D01*
X132558245Y-85746588D01*
X132467995Y-85806891D01*
X132367721Y-85848426D01*
X132261270Y-85869600D01*
X132152730Y-85869600D01*
X132046279Y-85848426D01*
X131946005Y-85806891D01*
X131855755Y-85746588D01*
X131779012Y-85669845D01*
X131718709Y-85579595D01*
X131677174Y-85479321D01*
X131656000Y-85372870D01*
X131656000Y-85264330D01*
X131677174Y-85157879D01*
X131718709Y-85057605D01*
X131779012Y-84967355D01*
X131855755Y-84890612D01*
X131946005Y-84830309D01*
X132046279Y-84788774D01*
X132152730Y-84767600D01*
X132261270Y-84767600D01*
X132367721Y-84788774D01*
X132367721Y-84788774D01*
G37*
G36*
X139780677Y-83993265D02*
X139818364Y-84004698D01*
X139853103Y-84023266D01*
X139883548Y-84048252D01*
X139908534Y-84078697D01*
X139927102Y-84113436D01*
X139938535Y-84151123D01*
X139943000Y-84196461D01*
X139943000Y-85033139D01*
X139938535Y-85078477D01*
X139927102Y-85116164D01*
X139908534Y-85150903D01*
X139883548Y-85181348D01*
X139853103Y-85206334D01*
X139818364Y-85224902D01*
X139780677Y-85236335D01*
X139735339Y-85240800D01*
X138648661Y-85240800D01*
X138603323Y-85236335D01*
X138565636Y-85224902D01*
X138530897Y-85206334D01*
X138500452Y-85181348D01*
X138475466Y-85150903D01*
X138456898Y-85116164D01*
X138445465Y-85078477D01*
X138441000Y-85033139D01*
X138441000Y-84196461D01*
X138445465Y-84151123D01*
X138456898Y-84113436D01*
X138475466Y-84078697D01*
X138500452Y-84048252D01*
X138530897Y-84023266D01*
X138565636Y-84004698D01*
X138603323Y-83993265D01*
X138648661Y-83988800D01*
X139735339Y-83988800D01*
X139780677Y-83993265D01*
X139780677Y-83993265D01*
G37*
G36*
X135162061Y-83094361D02*
X135229044Y-83114680D01*
X135290776Y-83147676D01*
X135344885Y-83192082D01*
X135389291Y-83246191D01*
X135422287Y-83307923D01*
X135442606Y-83374906D01*
X135449467Y-83444566D01*
X135449467Y-84637670D01*
X135442606Y-84707330D01*
X135422287Y-84774313D01*
X135389291Y-84836045D01*
X135344885Y-84890154D01*
X135290776Y-84934560D01*
X135229044Y-84967556D01*
X135162061Y-84987875D01*
X135092401Y-84994736D01*
X135092399Y-84994736D01*
X135022739Y-84987875D01*
X134955756Y-84967556D01*
X134894024Y-84934560D01*
X134839915Y-84890154D01*
X134795509Y-84836045D01*
X134762513Y-84774313D01*
X134742194Y-84707330D01*
X134735333Y-84637670D01*
X134735333Y-83444566D01*
X134742194Y-83374906D01*
X134762513Y-83307923D01*
X134795509Y-83246191D01*
X134839915Y-83192082D01*
X134894024Y-83147676D01*
X134955756Y-83114680D01*
X135022739Y-83094361D01*
X135092399Y-83087500D01*
X135092401Y-83087500D01*
X135162061Y-83094361D01*
X135162061Y-83094361D01*
G37*
G36*
X137062061Y-83094361D02*
X137129044Y-83114680D01*
X137190776Y-83147676D01*
X137244885Y-83192082D01*
X137289291Y-83246191D01*
X137322287Y-83307923D01*
X137342606Y-83374906D01*
X137349467Y-83444566D01*
X137349467Y-84637670D01*
X137342606Y-84707330D01*
X137322287Y-84774313D01*
X137289291Y-84836045D01*
X137244885Y-84890154D01*
X137190776Y-84934560D01*
X137129044Y-84967556D01*
X137062061Y-84987875D01*
X136992401Y-84994736D01*
X136992399Y-84994736D01*
X136922739Y-84987875D01*
X136855756Y-84967556D01*
X136794024Y-84934560D01*
X136739915Y-84890154D01*
X136695509Y-84836045D01*
X136662513Y-84774313D01*
X136642194Y-84707330D01*
X136635333Y-84637670D01*
X136635333Y-83444566D01*
X136642194Y-83374906D01*
X136662513Y-83307923D01*
X136695509Y-83246191D01*
X136739915Y-83192082D01*
X136794024Y-83147676D01*
X136855756Y-83114680D01*
X136922739Y-83094361D01*
X136992399Y-83087500D01*
X136992401Y-83087500D01*
X137062061Y-83094361D01*
X137062061Y-83094361D01*
G37*
G36*
X111832800Y-84941600D02*
X111280800Y-84941600D01*
X111280800Y-84139600D01*
X111832800Y-84139600D01*
X111832800Y-84941600D01*
X111832800Y-84941600D01*
G37*
G36*
X118520877Y-82902665D02*
X118558564Y-82914098D01*
X118593303Y-82932666D01*
X118623748Y-82957652D01*
X118648734Y-82988097D01*
X118667302Y-83022836D01*
X118678735Y-83060523D01*
X118683200Y-83105861D01*
X118683200Y-83942539D01*
X118678735Y-83987877D01*
X118667302Y-84025564D01*
X118648734Y-84060303D01*
X118623748Y-84090748D01*
X118593303Y-84115734D01*
X118558564Y-84134302D01*
X118520877Y-84145735D01*
X118475539Y-84150200D01*
X117388861Y-84150200D01*
X117343523Y-84145735D01*
X117305836Y-84134302D01*
X117271097Y-84115734D01*
X117240652Y-84090748D01*
X117215666Y-84060303D01*
X117197098Y-84025564D01*
X117185665Y-83987877D01*
X117181200Y-83942539D01*
X117181200Y-83105861D01*
X117185665Y-83060523D01*
X117197098Y-83022836D01*
X117215666Y-82988097D01*
X117240652Y-82957652D01*
X117271097Y-82932666D01*
X117305836Y-82914098D01*
X117343523Y-82902665D01*
X117388861Y-82898200D01*
X118475539Y-82898200D01*
X118520877Y-82902665D01*
X118520877Y-82902665D01*
G37*
G36*
X158654752Y-82576978D02*
X158782329Y-82629822D01*
X158897145Y-82706540D01*
X158994780Y-82804175D01*
X159071498Y-82918991D01*
X159124342Y-83046568D01*
X159151280Y-83181996D01*
X159151280Y-83320084D01*
X159124342Y-83455512D01*
X159071498Y-83583089D01*
X158994780Y-83697905D01*
X158897145Y-83795540D01*
X158782329Y-83872258D01*
X158654752Y-83925102D01*
X158519324Y-83952040D01*
X158381236Y-83952040D01*
X158245808Y-83925102D01*
X158118231Y-83872258D01*
X158003415Y-83795540D01*
X157905780Y-83697905D01*
X157829062Y-83583089D01*
X157776218Y-83455512D01*
X157749280Y-83320084D01*
X157749280Y-83181996D01*
X157776218Y-83046568D01*
X157829062Y-82918991D01*
X157905780Y-82804175D01*
X158003415Y-82706540D01*
X158118231Y-82629822D01*
X158245808Y-82576978D01*
X158381236Y-82550040D01*
X158519324Y-82550040D01*
X158654752Y-82576978D01*
X158654752Y-82576978D01*
G37*
G36*
X109529277Y-82487265D02*
X109566964Y-82498698D01*
X109601703Y-82517266D01*
X109632148Y-82542252D01*
X109657134Y-82572697D01*
X109675702Y-82607436D01*
X109687135Y-82645123D01*
X109691600Y-82690461D01*
X109691600Y-83527139D01*
X109687135Y-83572477D01*
X109675702Y-83610164D01*
X109657134Y-83644903D01*
X109632148Y-83675348D01*
X109601703Y-83700334D01*
X109566964Y-83718902D01*
X109529277Y-83730335D01*
X109483939Y-83734800D01*
X108397261Y-83734800D01*
X108351923Y-83730335D01*
X108314236Y-83718902D01*
X108279497Y-83700334D01*
X108249052Y-83675348D01*
X108224066Y-83644903D01*
X108205498Y-83610164D01*
X108194065Y-83572477D01*
X108189600Y-83527139D01*
X108189600Y-82690461D01*
X108194065Y-82645123D01*
X108205498Y-82607436D01*
X108224066Y-82572697D01*
X108249052Y-82542252D01*
X108279497Y-82517266D01*
X108314236Y-82498698D01*
X108351923Y-82487265D01*
X108397261Y-82482800D01*
X109483939Y-82482800D01*
X109529277Y-82487265D01*
X109529277Y-82487265D01*
G37*
G36*
X133162277Y-82032065D02*
X133199964Y-82043498D01*
X133234703Y-82062066D01*
X133265148Y-82087052D01*
X133290134Y-82117497D01*
X133308702Y-82152236D01*
X133320135Y-82189923D01*
X133324600Y-82235261D01*
X133324600Y-83321939D01*
X133320135Y-83367277D01*
X133308702Y-83404964D01*
X133290134Y-83439703D01*
X133265148Y-83470148D01*
X133234703Y-83495134D01*
X133199964Y-83513702D01*
X133162277Y-83525135D01*
X133116939Y-83529600D01*
X132280261Y-83529600D01*
X132234923Y-83525135D01*
X132197236Y-83513702D01*
X132162497Y-83495134D01*
X132132052Y-83470148D01*
X132107066Y-83439703D01*
X132088498Y-83404964D01*
X132077065Y-83367277D01*
X132072600Y-83321939D01*
X132072600Y-82235261D01*
X132077065Y-82189923D01*
X132088498Y-82152236D01*
X132107066Y-82117497D01*
X132132052Y-82087052D01*
X132162497Y-82062066D01*
X132197236Y-82043498D01*
X132234923Y-82032065D01*
X132280261Y-82027600D01*
X133116939Y-82027600D01*
X133162277Y-82032065D01*
X133162277Y-82032065D01*
G37*
G36*
X131112277Y-82032065D02*
X131149964Y-82043498D01*
X131184703Y-82062066D01*
X131215148Y-82087052D01*
X131240134Y-82117497D01*
X131258702Y-82152236D01*
X131270135Y-82189923D01*
X131274600Y-82235261D01*
X131274600Y-83321939D01*
X131270135Y-83367277D01*
X131258702Y-83404964D01*
X131240134Y-83439703D01*
X131215148Y-83470148D01*
X131184703Y-83495134D01*
X131149964Y-83513702D01*
X131112277Y-83525135D01*
X131066939Y-83529600D01*
X130230261Y-83529600D01*
X130184923Y-83525135D01*
X130147236Y-83513702D01*
X130112497Y-83495134D01*
X130082052Y-83470148D01*
X130057066Y-83439703D01*
X130038498Y-83404964D01*
X130027065Y-83367277D01*
X130022600Y-83321939D01*
X130022600Y-82235261D01*
X130027065Y-82189923D01*
X130038498Y-82152236D01*
X130057066Y-82117497D01*
X130082052Y-82087052D01*
X130112497Y-82062066D01*
X130147236Y-82043498D01*
X130184923Y-82032065D01*
X130230261Y-82027600D01*
X131066939Y-82027600D01*
X131112277Y-82032065D01*
X131112277Y-82032065D01*
G37*
G36*
X116438077Y-81988265D02*
X116475764Y-81999698D01*
X116510503Y-82018266D01*
X116540948Y-82043252D01*
X116565934Y-82073697D01*
X116584502Y-82108436D01*
X116595935Y-82146123D01*
X116600400Y-82191461D01*
X116600400Y-83028139D01*
X116595935Y-83073477D01*
X116584502Y-83111164D01*
X116565934Y-83145903D01*
X116540948Y-83176348D01*
X116510503Y-83201334D01*
X116475764Y-83219902D01*
X116438077Y-83231335D01*
X116392739Y-83235800D01*
X115306061Y-83235800D01*
X115260723Y-83231335D01*
X115223036Y-83219902D01*
X115188297Y-83201334D01*
X115157852Y-83176348D01*
X115132866Y-83145903D01*
X115114298Y-83111164D01*
X115102865Y-83073477D01*
X115098400Y-83028139D01*
X115098400Y-82191461D01*
X115102865Y-82146123D01*
X115114298Y-82108436D01*
X115132866Y-82073697D01*
X115157852Y-82043252D01*
X115188297Y-82018266D01*
X115223036Y-81999698D01*
X115260723Y-81988265D01*
X115306061Y-81983800D01*
X116392739Y-81983800D01*
X116438077Y-81988265D01*
X116438077Y-81988265D01*
G37*
G36*
X111182800Y-82941600D02*
X110630800Y-82941600D01*
X110630800Y-82139600D01*
X111182800Y-82139600D01*
X111182800Y-82941600D01*
X111182800Y-82941600D01*
G37*
G36*
X112482800Y-82941600D02*
X111930800Y-82941600D01*
X111930800Y-82139600D01*
X112482800Y-82139600D01*
X112482800Y-82941600D01*
X112482800Y-82941600D01*
G37*
G36*
X118520877Y-80852665D02*
X118558564Y-80864098D01*
X118593303Y-80882666D01*
X118623748Y-80907652D01*
X118648734Y-80938097D01*
X118667302Y-80972836D01*
X118678735Y-81010523D01*
X118683200Y-81055861D01*
X118683200Y-81892539D01*
X118678735Y-81937877D01*
X118667302Y-81975564D01*
X118648734Y-82010303D01*
X118623748Y-82040748D01*
X118593303Y-82065734D01*
X118558564Y-82084302D01*
X118520877Y-82095735D01*
X118475539Y-82100200D01*
X117388861Y-82100200D01*
X117343523Y-82095735D01*
X117305836Y-82084302D01*
X117271097Y-82065734D01*
X117240652Y-82040748D01*
X117215666Y-82010303D01*
X117197098Y-81975564D01*
X117185665Y-81937877D01*
X117181200Y-81892539D01*
X117181200Y-81055861D01*
X117185665Y-81010523D01*
X117197098Y-80972836D01*
X117215666Y-80938097D01*
X117240652Y-80907652D01*
X117271097Y-80882666D01*
X117305836Y-80864098D01*
X117343523Y-80852665D01*
X117388861Y-80848200D01*
X118475539Y-80848200D01*
X118520877Y-80852665D01*
X118520877Y-80852665D01*
G37*
G36*
X109529277Y-80437265D02*
X109566964Y-80448698D01*
X109601703Y-80467266D01*
X109632148Y-80492252D01*
X109657134Y-80522697D01*
X109675702Y-80557436D01*
X109687135Y-80595123D01*
X109691600Y-80640461D01*
X109691600Y-81477139D01*
X109687135Y-81522477D01*
X109675702Y-81560164D01*
X109657134Y-81594903D01*
X109632148Y-81625348D01*
X109601703Y-81650334D01*
X109566964Y-81668902D01*
X109529277Y-81680335D01*
X109483939Y-81684800D01*
X108397261Y-81684800D01*
X108351923Y-81680335D01*
X108314236Y-81668902D01*
X108279497Y-81650334D01*
X108249052Y-81625348D01*
X108224066Y-81594903D01*
X108205498Y-81560164D01*
X108194065Y-81522477D01*
X108189600Y-81477139D01*
X108189600Y-80640461D01*
X108194065Y-80595123D01*
X108205498Y-80557436D01*
X108224066Y-80522697D01*
X108249052Y-80492252D01*
X108279497Y-80467266D01*
X108314236Y-80448698D01*
X108351923Y-80437265D01*
X108397261Y-80432800D01*
X109483939Y-80432800D01*
X109529277Y-80437265D01*
X109529277Y-80437265D01*
G37*
G36*
X131767400Y-81361800D02*
X130665400Y-81361800D01*
X130665400Y-78759800D01*
X131767400Y-78759800D01*
X131767400Y-81361800D01*
X131767400Y-81361800D01*
G37*
G36*
X134307400Y-81361800D02*
X133205400Y-81361800D01*
X133205400Y-78759800D01*
X134307400Y-78759800D01*
X134307400Y-81361800D01*
X134307400Y-81361800D01*
G37*
G36*
X136847400Y-81361800D02*
X135745400Y-81361800D01*
X135745400Y-78759800D01*
X136847400Y-78759800D01*
X136847400Y-81361800D01*
X136847400Y-81361800D01*
G37*
G36*
X141927400Y-81361800D02*
X140825400Y-81361800D01*
X140825400Y-78759800D01*
X141927400Y-78759800D01*
X141927400Y-81361800D01*
X141927400Y-81361800D01*
G37*
G36*
X139387400Y-81361800D02*
X138285400Y-81361800D01*
X138285400Y-78759800D01*
X139387400Y-78759800D01*
X139387400Y-81361800D01*
X139387400Y-81361800D01*
G37*
G36*
X129227400Y-81361800D02*
X128125400Y-81361800D01*
X128125400Y-78759800D01*
X129227400Y-78759800D01*
X129227400Y-81361800D01*
X129227400Y-81361800D01*
G37*
G36*
X101075443Y-79394919D02*
X101141627Y-79401437D01*
X101252171Y-79434970D01*
X101311467Y-79452957D01*
X101450087Y-79527052D01*
X101467991Y-79536622D01*
X101503729Y-79565952D01*
X101605186Y-79649214D01*
X101673917Y-79732964D01*
X101717778Y-79786409D01*
X101717779Y-79786411D01*
X101801443Y-79942933D01*
X101816707Y-79993252D01*
X101852963Y-80112773D01*
X101870359Y-80289400D01*
X101852963Y-80466027D01*
X101838860Y-80512518D01*
X101801443Y-80635867D01*
X101727348Y-80774487D01*
X101717778Y-80792391D01*
X101688448Y-80828129D01*
X101605186Y-80929586D01*
X101503729Y-81012848D01*
X101467991Y-81042178D01*
X101467989Y-81042179D01*
X101311467Y-81125843D01*
X101265024Y-81139931D01*
X101141627Y-81177363D01*
X101075442Y-81183882D01*
X101009260Y-81190400D01*
X100920740Y-81190400D01*
X100854558Y-81183882D01*
X100788373Y-81177363D01*
X100664976Y-81139931D01*
X100618533Y-81125843D01*
X100462011Y-81042179D01*
X100462009Y-81042178D01*
X100426271Y-81012848D01*
X100324814Y-80929586D01*
X100241552Y-80828129D01*
X100212222Y-80792391D01*
X100202652Y-80774487D01*
X100128557Y-80635867D01*
X100091140Y-80512518D01*
X100077037Y-80466027D01*
X100059641Y-80289400D01*
X100077037Y-80112773D01*
X100113293Y-79993252D01*
X100128557Y-79942933D01*
X100212221Y-79786411D01*
X100212222Y-79786409D01*
X100256083Y-79732964D01*
X100324814Y-79649214D01*
X100426271Y-79565952D01*
X100462009Y-79536622D01*
X100479913Y-79527052D01*
X100618533Y-79452957D01*
X100677829Y-79434970D01*
X100788373Y-79401437D01*
X100854557Y-79394919D01*
X100920740Y-79388400D01*
X101009260Y-79388400D01*
X101075443Y-79394919D01*
X101075443Y-79394919D01*
G37*
G36*
X116438077Y-79938265D02*
X116475764Y-79949698D01*
X116510503Y-79968266D01*
X116540948Y-79993252D01*
X116565934Y-80023697D01*
X116584502Y-80058436D01*
X116595935Y-80096123D01*
X116600400Y-80141461D01*
X116600400Y-80978139D01*
X116595935Y-81023477D01*
X116584502Y-81061164D01*
X116565934Y-81095903D01*
X116540948Y-81126348D01*
X116510503Y-81151334D01*
X116475764Y-81169902D01*
X116438077Y-81181335D01*
X116392739Y-81185800D01*
X115306061Y-81185800D01*
X115260723Y-81181335D01*
X115223036Y-81169902D01*
X115188297Y-81151334D01*
X115157852Y-81126348D01*
X115132866Y-81095903D01*
X115114298Y-81061164D01*
X115102865Y-81023477D01*
X115098400Y-80978139D01*
X115098400Y-80141461D01*
X115102865Y-80096123D01*
X115114298Y-80058436D01*
X115132866Y-80023697D01*
X115157852Y-79993252D01*
X115188297Y-79968266D01*
X115223036Y-79949698D01*
X115260723Y-79938265D01*
X115306061Y-79933800D01*
X116392739Y-79933800D01*
X116438077Y-79938265D01*
X116438077Y-79938265D01*
G37*
G36*
X125937677Y-78610065D02*
X125975364Y-78621498D01*
X126010103Y-78640066D01*
X126040548Y-78665052D01*
X126065534Y-78695497D01*
X126084102Y-78730236D01*
X126095535Y-78767923D01*
X126100000Y-78813261D01*
X126100000Y-79649939D01*
X126095535Y-79695277D01*
X126084102Y-79732964D01*
X126065534Y-79767703D01*
X126040548Y-79798148D01*
X126010103Y-79823134D01*
X125975364Y-79841702D01*
X125937677Y-79853135D01*
X125892339Y-79857600D01*
X124805661Y-79857600D01*
X124760323Y-79853135D01*
X124722636Y-79841702D01*
X124687897Y-79823134D01*
X124657452Y-79798148D01*
X124632466Y-79767703D01*
X124613898Y-79732964D01*
X124602465Y-79695277D01*
X124598000Y-79649939D01*
X124598000Y-78813261D01*
X124602465Y-78767923D01*
X124613898Y-78730236D01*
X124632466Y-78695497D01*
X124657452Y-78665052D01*
X124687897Y-78640066D01*
X124722636Y-78621498D01*
X124760323Y-78610065D01*
X124805661Y-78605600D01*
X125892339Y-78605600D01*
X125937677Y-78610065D01*
X125937677Y-78610065D01*
G37*
G36*
X123976477Y-77942665D02*
X124014164Y-77954098D01*
X124048903Y-77972666D01*
X124079348Y-77997652D01*
X124104334Y-78028097D01*
X124122902Y-78062836D01*
X124134335Y-78100523D01*
X124138800Y-78145861D01*
X124138800Y-79232539D01*
X124134335Y-79277877D01*
X124122902Y-79315564D01*
X124104334Y-79350303D01*
X124079348Y-79380748D01*
X124048903Y-79405734D01*
X124014164Y-79424302D01*
X123976477Y-79435735D01*
X123931139Y-79440200D01*
X123094461Y-79440200D01*
X123049123Y-79435735D01*
X123011436Y-79424302D01*
X122976697Y-79405734D01*
X122946252Y-79380748D01*
X122921266Y-79350303D01*
X122902698Y-79315564D01*
X122891265Y-79277877D01*
X122886800Y-79232539D01*
X122886800Y-78145861D01*
X122891265Y-78100523D01*
X122902698Y-78062836D01*
X122921266Y-78028097D01*
X122946252Y-77997652D01*
X122976697Y-77972666D01*
X123011436Y-77954098D01*
X123049123Y-77942665D01*
X123094461Y-77938200D01*
X123931139Y-77938200D01*
X123976477Y-77942665D01*
X123976477Y-77942665D01*
G37*
G36*
X121926477Y-77942665D02*
X121964164Y-77954098D01*
X121998903Y-77972666D01*
X122029348Y-77997652D01*
X122054334Y-78028097D01*
X122072902Y-78062836D01*
X122084335Y-78100523D01*
X122088800Y-78145861D01*
X122088800Y-79232539D01*
X122084335Y-79277877D01*
X122072902Y-79315564D01*
X122054334Y-79350303D01*
X122029348Y-79380748D01*
X121998903Y-79405734D01*
X121964164Y-79424302D01*
X121926477Y-79435735D01*
X121881139Y-79440200D01*
X121044461Y-79440200D01*
X120999123Y-79435735D01*
X120961436Y-79424302D01*
X120926697Y-79405734D01*
X120896252Y-79380748D01*
X120871266Y-79350303D01*
X120852698Y-79315564D01*
X120841265Y-79277877D01*
X120836800Y-79232539D01*
X120836800Y-78145861D01*
X120841265Y-78100523D01*
X120852698Y-78062836D01*
X120871266Y-78028097D01*
X120896252Y-77997652D01*
X120926697Y-77972666D01*
X120961436Y-77954098D01*
X120999123Y-77942665D01*
X121044461Y-77938200D01*
X121881139Y-77938200D01*
X121926477Y-77942665D01*
X121926477Y-77942665D01*
G37*
G36*
X104474677Y-77822665D02*
X104512364Y-77834098D01*
X104547103Y-77852666D01*
X104577548Y-77877652D01*
X104602534Y-77908097D01*
X104621102Y-77942836D01*
X104632535Y-77980523D01*
X104637000Y-78025861D01*
X104637000Y-78862539D01*
X104632535Y-78907877D01*
X104621102Y-78945564D01*
X104602534Y-78980303D01*
X104577548Y-79010748D01*
X104547103Y-79035734D01*
X104512364Y-79054302D01*
X104474677Y-79065735D01*
X104429339Y-79070200D01*
X103342661Y-79070200D01*
X103297323Y-79065735D01*
X103259636Y-79054302D01*
X103224897Y-79035734D01*
X103194452Y-79010748D01*
X103169466Y-78980303D01*
X103150898Y-78945564D01*
X103139465Y-78907877D01*
X103135000Y-78862539D01*
X103135000Y-78025861D01*
X103139465Y-77980523D01*
X103150898Y-77942836D01*
X103169466Y-77908097D01*
X103194452Y-77877652D01*
X103224897Y-77852666D01*
X103259636Y-77834098D01*
X103297323Y-77822665D01*
X103342661Y-77818200D01*
X104429339Y-77818200D01*
X104474677Y-77822665D01*
X104474677Y-77822665D01*
G37*
G36*
X101075442Y-76854918D02*
X101141627Y-76861437D01*
X101254129Y-76895564D01*
X101311467Y-76912957D01*
X101400876Y-76960748D01*
X101467991Y-76996622D01*
X101490348Y-77014970D01*
X101605186Y-77109214D01*
X101688448Y-77210671D01*
X101717778Y-77246409D01*
X101717779Y-77246411D01*
X101801443Y-77402933D01*
X101801443Y-77402934D01*
X101852963Y-77572773D01*
X101870359Y-77749400D01*
X101852963Y-77926027D01*
X101831236Y-77997652D01*
X101801443Y-78095867D01*
X101774720Y-78145861D01*
X101717778Y-78252391D01*
X101688448Y-78288129D01*
X101605186Y-78389586D01*
X101503729Y-78472848D01*
X101467991Y-78502178D01*
X101467989Y-78502179D01*
X101311467Y-78585843D01*
X101254853Y-78603016D01*
X101141627Y-78637363D01*
X101075442Y-78643882D01*
X101009260Y-78650400D01*
X100920740Y-78650400D01*
X100854558Y-78643882D01*
X100788373Y-78637363D01*
X100675147Y-78603016D01*
X100618533Y-78585843D01*
X100462011Y-78502179D01*
X100462009Y-78502178D01*
X100426271Y-78472848D01*
X100324814Y-78389586D01*
X100241552Y-78288129D01*
X100212222Y-78252391D01*
X100155280Y-78145861D01*
X100128557Y-78095867D01*
X100098764Y-77997652D01*
X100077037Y-77926027D01*
X100059641Y-77749400D01*
X100077037Y-77572773D01*
X100128557Y-77402934D01*
X100128557Y-77402933D01*
X100212221Y-77246411D01*
X100212222Y-77246409D01*
X100241552Y-77210671D01*
X100324814Y-77109214D01*
X100439652Y-77014970D01*
X100462009Y-76996622D01*
X100529124Y-76960748D01*
X100618533Y-76912957D01*
X100675871Y-76895564D01*
X100788373Y-76861437D01*
X100854558Y-76854918D01*
X100920740Y-76848400D01*
X101009260Y-76848400D01*
X101075442Y-76854918D01*
X101075442Y-76854918D01*
G37*
G36*
X125937677Y-76560065D02*
X125975364Y-76571498D01*
X126010103Y-76590066D01*
X126040548Y-76615052D01*
X126065534Y-76645497D01*
X126084102Y-76680236D01*
X126095535Y-76717923D01*
X126100000Y-76763261D01*
X126100000Y-77599939D01*
X126095535Y-77645277D01*
X126084102Y-77682964D01*
X126065534Y-77717703D01*
X126040548Y-77748148D01*
X126010103Y-77773134D01*
X125975364Y-77791702D01*
X125937677Y-77803135D01*
X125892339Y-77807600D01*
X124805661Y-77807600D01*
X124760323Y-77803135D01*
X124722636Y-77791702D01*
X124687897Y-77773134D01*
X124657452Y-77748148D01*
X124632466Y-77717703D01*
X124613898Y-77682964D01*
X124602465Y-77645277D01*
X124598000Y-77599939D01*
X124598000Y-76763261D01*
X124602465Y-76717923D01*
X124613898Y-76680236D01*
X124632466Y-76645497D01*
X124657452Y-76615052D01*
X124687897Y-76590066D01*
X124722636Y-76571498D01*
X124760323Y-76560065D01*
X124805661Y-76555600D01*
X125892339Y-76555600D01*
X125937677Y-76560065D01*
X125937677Y-76560065D01*
G37*
G36*
X124005200Y-77390600D02*
X122703200Y-77390600D01*
X122703200Y-75888600D01*
X124005200Y-75888600D01*
X124005200Y-77390600D01*
X124005200Y-77390600D01*
G37*
G36*
X122305200Y-77390600D02*
X121003200Y-77390600D01*
X121003200Y-75888600D01*
X122305200Y-75888600D01*
X122305200Y-77390600D01*
X122305200Y-77390600D01*
G37*
G36*
X117448801Y-71450440D02*
X117451203Y-71474826D01*
X117458316Y-71498275D01*
X117469867Y-71519886D01*
X117485413Y-71538828D01*
X117504355Y-71554374D01*
X117525966Y-71565925D01*
X117549415Y-71573038D01*
X117573801Y-71575440D01*
X118698801Y-71575440D01*
X118698801Y-75927440D01*
X117573801Y-75927440D01*
X117549415Y-75929842D01*
X117525966Y-75936955D01*
X117504355Y-75948506D01*
X117485413Y-75964052D01*
X117469867Y-75982994D01*
X117458316Y-76004605D01*
X117451203Y-76028054D01*
X117448801Y-76052440D01*
X117448801Y-77177440D01*
X113096801Y-77177440D01*
X113096801Y-76052440D01*
X113094399Y-76028054D01*
X113087286Y-76004605D01*
X113075735Y-75982994D01*
X113060189Y-75964052D01*
X113041247Y-75948506D01*
X113019636Y-75936955D01*
X112996187Y-75929842D01*
X112971801Y-75927440D01*
X111846801Y-75927440D01*
X111846801Y-71575440D01*
X112971801Y-71575440D01*
X112996187Y-71573038D01*
X113019636Y-71565925D01*
X113041247Y-71554374D01*
X113060189Y-71538828D01*
X113075735Y-71519886D01*
X113087286Y-71498275D01*
X113094399Y-71474826D01*
X113096801Y-71450440D01*
X113096801Y-70325440D01*
X117448801Y-70325440D01*
X117448801Y-71450440D01*
X117448801Y-71450440D01*
G37*
G36*
X104474677Y-75772665D02*
X104512364Y-75784098D01*
X104547103Y-75802666D01*
X104577548Y-75827652D01*
X104602534Y-75858097D01*
X104621102Y-75892836D01*
X104632535Y-75930523D01*
X104637000Y-75975861D01*
X104637000Y-76812539D01*
X104632535Y-76857877D01*
X104621102Y-76895564D01*
X104602534Y-76930303D01*
X104577548Y-76960748D01*
X104547103Y-76985734D01*
X104512364Y-77004302D01*
X104474677Y-77015735D01*
X104429339Y-77020200D01*
X103342661Y-77020200D01*
X103297323Y-77015735D01*
X103259636Y-77004302D01*
X103224897Y-76985734D01*
X103194452Y-76960748D01*
X103169466Y-76930303D01*
X103150898Y-76895564D01*
X103139465Y-76857877D01*
X103135000Y-76812539D01*
X103135000Y-75975861D01*
X103139465Y-75930523D01*
X103150898Y-75892836D01*
X103169466Y-75858097D01*
X103194452Y-75827652D01*
X103224897Y-75802666D01*
X103259636Y-75784098D01*
X103297323Y-75772665D01*
X103342661Y-75768200D01*
X104429339Y-75768200D01*
X104474677Y-75772665D01*
X104474677Y-75772665D01*
G37*
G36*
X101075442Y-74314918D02*
X101141627Y-74321437D01*
X101254853Y-74355784D01*
X101311467Y-74372957D01*
X101450087Y-74447052D01*
X101467991Y-74456622D01*
X101503729Y-74485952D01*
X101605186Y-74569214D01*
X101675520Y-74654918D01*
X101717778Y-74706409D01*
X101717779Y-74706411D01*
X101801443Y-74862933D01*
X101801443Y-74862934D01*
X101852963Y-75032773D01*
X101870359Y-75209400D01*
X101852963Y-75386027D01*
X101825840Y-75475440D01*
X101801443Y-75555867D01*
X101770355Y-75614027D01*
X101717778Y-75712391D01*
X101688448Y-75748129D01*
X101605186Y-75849586D01*
X101503729Y-75932848D01*
X101467991Y-75962178D01*
X101467989Y-75962179D01*
X101311467Y-76045843D01*
X101289719Y-76052440D01*
X101141627Y-76097363D01*
X101075443Y-76103881D01*
X101009260Y-76110400D01*
X100920740Y-76110400D01*
X100854557Y-76103881D01*
X100788373Y-76097363D01*
X100640281Y-76052440D01*
X100618533Y-76045843D01*
X100462011Y-75962179D01*
X100462009Y-75962178D01*
X100426271Y-75932848D01*
X100324814Y-75849586D01*
X100241552Y-75748129D01*
X100212222Y-75712391D01*
X100159645Y-75614027D01*
X100128557Y-75555867D01*
X100104160Y-75475440D01*
X100077037Y-75386027D01*
X100059641Y-75209400D01*
X100077037Y-75032773D01*
X100128557Y-74862934D01*
X100128557Y-74862933D01*
X100212221Y-74706411D01*
X100212222Y-74706409D01*
X100254480Y-74654918D01*
X100324814Y-74569214D01*
X100426271Y-74485952D01*
X100462009Y-74456622D01*
X100479913Y-74447052D01*
X100618533Y-74372957D01*
X100675147Y-74355784D01*
X100788373Y-74321437D01*
X100854558Y-74314918D01*
X100920740Y-74308400D01*
X101009260Y-74308400D01*
X101075442Y-74314918D01*
X101075442Y-74314918D01*
G37*
G36*
X126344077Y-74638665D02*
X126381764Y-74650098D01*
X126416503Y-74668666D01*
X126446948Y-74693652D01*
X126471934Y-74724097D01*
X126490502Y-74758836D01*
X126501935Y-74796523D01*
X126506400Y-74841861D01*
X126506400Y-75678539D01*
X126501935Y-75723877D01*
X126490502Y-75761564D01*
X126471934Y-75796303D01*
X126446948Y-75826748D01*
X126416503Y-75851734D01*
X126381764Y-75870302D01*
X126344077Y-75881735D01*
X126298739Y-75886200D01*
X125212061Y-75886200D01*
X125166723Y-75881735D01*
X125129036Y-75870302D01*
X125094297Y-75851734D01*
X125063852Y-75826748D01*
X125038866Y-75796303D01*
X125020298Y-75761564D01*
X125008865Y-75723877D01*
X125004400Y-75678539D01*
X125004400Y-74841861D01*
X125008865Y-74796523D01*
X125020298Y-74758836D01*
X125038866Y-74724097D01*
X125063852Y-74693652D01*
X125094297Y-74668666D01*
X125129036Y-74650098D01*
X125166723Y-74638665D01*
X125212061Y-74634200D01*
X126298739Y-74634200D01*
X126344077Y-74638665D01*
X126344077Y-74638665D01*
G37*
G36*
X124005200Y-75190600D02*
X122703200Y-75190600D01*
X122703200Y-73688600D01*
X124005200Y-73688600D01*
X124005200Y-75190600D01*
X124005200Y-75190600D01*
G37*
G36*
X122305200Y-75190600D02*
X121003200Y-75190600D01*
X121003200Y-73688600D01*
X122305200Y-73688600D01*
X122305200Y-75190600D01*
X122305200Y-75190600D01*
G37*
G36*
X126344077Y-72588665D02*
X126381764Y-72600098D01*
X126416503Y-72618666D01*
X126446948Y-72643652D01*
X126471934Y-72674097D01*
X126490502Y-72708836D01*
X126501935Y-72746523D01*
X126506400Y-72791861D01*
X126506400Y-73628539D01*
X126501935Y-73673877D01*
X126490502Y-73711564D01*
X126471934Y-73746303D01*
X126446948Y-73776748D01*
X126416503Y-73801734D01*
X126381764Y-73820302D01*
X126344077Y-73831735D01*
X126298739Y-73836200D01*
X125212061Y-73836200D01*
X125166723Y-73831735D01*
X125129036Y-73820302D01*
X125094297Y-73801734D01*
X125063852Y-73776748D01*
X125038866Y-73746303D01*
X125020298Y-73711564D01*
X125008865Y-73673877D01*
X125004400Y-73628539D01*
X125004400Y-72791861D01*
X125008865Y-72746523D01*
X125020298Y-72708836D01*
X125038866Y-72674097D01*
X125063852Y-72643652D01*
X125094297Y-72618666D01*
X125129036Y-72600098D01*
X125166723Y-72588665D01*
X125212061Y-72584200D01*
X126298739Y-72584200D01*
X126344077Y-72588665D01*
X126344077Y-72588665D01*
G37*
G36*
X101075443Y-71774919D02*
X101141627Y-71781437D01*
X101207182Y-71801323D01*
X101311467Y-71832957D01*
X101450087Y-71907052D01*
X101467991Y-71916622D01*
X101503729Y-71945952D01*
X101605186Y-72029214D01*
X101688448Y-72130671D01*
X101717778Y-72166409D01*
X101717779Y-72166411D01*
X101801443Y-72322933D01*
X101801443Y-72322934D01*
X101852963Y-72492773D01*
X101870359Y-72669400D01*
X101852963Y-72846027D01*
X101826477Y-72933339D01*
X101801443Y-73015867D01*
X101736944Y-73136535D01*
X101717778Y-73172391D01*
X101688448Y-73208129D01*
X101605186Y-73309586D01*
X101503729Y-73392848D01*
X101467991Y-73422178D01*
X101467989Y-73422179D01*
X101311467Y-73505843D01*
X101254853Y-73523016D01*
X101141627Y-73557363D01*
X101075443Y-73563881D01*
X101009260Y-73570400D01*
X100920740Y-73570400D01*
X100854557Y-73563881D01*
X100788373Y-73557363D01*
X100675147Y-73523016D01*
X100618533Y-73505843D01*
X100462011Y-73422179D01*
X100462009Y-73422178D01*
X100426271Y-73392848D01*
X100324814Y-73309586D01*
X100241552Y-73208129D01*
X100212222Y-73172391D01*
X100193056Y-73136535D01*
X100128557Y-73015867D01*
X100103523Y-72933339D01*
X100077037Y-72846027D01*
X100059641Y-72669400D01*
X100077037Y-72492773D01*
X100128557Y-72322934D01*
X100128557Y-72322933D01*
X100212221Y-72166411D01*
X100212222Y-72166409D01*
X100241552Y-72130671D01*
X100324814Y-72029214D01*
X100426271Y-71945952D01*
X100462009Y-71916622D01*
X100479913Y-71907052D01*
X100618533Y-71832957D01*
X100722818Y-71801323D01*
X100788373Y-71781437D01*
X100854557Y-71774919D01*
X100920740Y-71768400D01*
X101009260Y-71768400D01*
X101075443Y-71774919D01*
X101075443Y-71774919D01*
G37*
G36*
X122010077Y-71643465D02*
X122047764Y-71654898D01*
X122082503Y-71673466D01*
X122112948Y-71698452D01*
X122137934Y-71728897D01*
X122156502Y-71763636D01*
X122167935Y-71801323D01*
X122172400Y-71846661D01*
X122172400Y-72933339D01*
X122167935Y-72978677D01*
X122156502Y-73016364D01*
X122137934Y-73051103D01*
X122112948Y-73081548D01*
X122082503Y-73106534D01*
X122047764Y-73125102D01*
X122010077Y-73136535D01*
X121964739Y-73141000D01*
X121128061Y-73141000D01*
X121082723Y-73136535D01*
X121045036Y-73125102D01*
X121010297Y-73106534D01*
X120979852Y-73081548D01*
X120954866Y-73051103D01*
X120936298Y-73016364D01*
X120924865Y-72978677D01*
X120920400Y-72933339D01*
X120920400Y-71846661D01*
X120924865Y-71801323D01*
X120936298Y-71763636D01*
X120954866Y-71728897D01*
X120979852Y-71698452D01*
X121010297Y-71673466D01*
X121045036Y-71654898D01*
X121082723Y-71643465D01*
X121128061Y-71639000D01*
X121964739Y-71639000D01*
X122010077Y-71643465D01*
X122010077Y-71643465D01*
G37*
G36*
X124060077Y-71643465D02*
X124097764Y-71654898D01*
X124132503Y-71673466D01*
X124162948Y-71698452D01*
X124187934Y-71728897D01*
X124206502Y-71763636D01*
X124217935Y-71801323D01*
X124222400Y-71846661D01*
X124222400Y-72933339D01*
X124217935Y-72978677D01*
X124206502Y-73016364D01*
X124187934Y-73051103D01*
X124162948Y-73081548D01*
X124132503Y-73106534D01*
X124097764Y-73125102D01*
X124060077Y-73136535D01*
X124014739Y-73141000D01*
X123178061Y-73141000D01*
X123132723Y-73136535D01*
X123095036Y-73125102D01*
X123060297Y-73106534D01*
X123029852Y-73081548D01*
X123004866Y-73051103D01*
X122986298Y-73016364D01*
X122974865Y-72978677D01*
X122970400Y-72933339D01*
X122970400Y-71846661D01*
X122974865Y-71801323D01*
X122986298Y-71763636D01*
X123004866Y-71728897D01*
X123029852Y-71698452D01*
X123060297Y-71673466D01*
X123095036Y-71654898D01*
X123132723Y-71643465D01*
X123178061Y-71639000D01*
X124014739Y-71639000D01*
X124060077Y-71643465D01*
X124060077Y-71643465D01*
G37*
G36*
X104271477Y-71752065D02*
X104309164Y-71763498D01*
X104343903Y-71782066D01*
X104374348Y-71807052D01*
X104399334Y-71837497D01*
X104417902Y-71872236D01*
X104429335Y-71909923D01*
X104433800Y-71955261D01*
X104433800Y-72791939D01*
X104429335Y-72837277D01*
X104417902Y-72874964D01*
X104399334Y-72909703D01*
X104374348Y-72940148D01*
X104343903Y-72965134D01*
X104309164Y-72983702D01*
X104271477Y-72995135D01*
X104226139Y-72999600D01*
X103139461Y-72999600D01*
X103094123Y-72995135D01*
X103056436Y-72983702D01*
X103021697Y-72965134D01*
X102991252Y-72940148D01*
X102966266Y-72909703D01*
X102947698Y-72874964D01*
X102936265Y-72837277D01*
X102931800Y-72791939D01*
X102931800Y-71955261D01*
X102936265Y-71909923D01*
X102947698Y-71872236D01*
X102966266Y-71837497D01*
X102991252Y-71807052D01*
X103021697Y-71782066D01*
X103056436Y-71763498D01*
X103094123Y-71752065D01*
X103139461Y-71747600D01*
X104226139Y-71747600D01*
X104271477Y-71752065D01*
X104271477Y-71752065D01*
G37*
G36*
X101866000Y-71030400D02*
X100064000Y-71030400D01*
X100064000Y-69228400D01*
X101866000Y-69228400D01*
X101866000Y-71030400D01*
X101866000Y-71030400D01*
G37*
G36*
X104271477Y-69702065D02*
X104309164Y-69713498D01*
X104343903Y-69732066D01*
X104374348Y-69757052D01*
X104399334Y-69787497D01*
X104417902Y-69822236D01*
X104429335Y-69859923D01*
X104433800Y-69905261D01*
X104433800Y-70741939D01*
X104429335Y-70787277D01*
X104417902Y-70824964D01*
X104399334Y-70859703D01*
X104374348Y-70890148D01*
X104343903Y-70915134D01*
X104309164Y-70933702D01*
X104271477Y-70945135D01*
X104226139Y-70949600D01*
X103139461Y-70949600D01*
X103094123Y-70945135D01*
X103056436Y-70933702D01*
X103021697Y-70915134D01*
X102991252Y-70890148D01*
X102966266Y-70859703D01*
X102947698Y-70824964D01*
X102936265Y-70787277D01*
X102931800Y-70741939D01*
X102931800Y-69905261D01*
X102936265Y-69859923D01*
X102947698Y-69822236D01*
X102966266Y-69787497D01*
X102991252Y-69757052D01*
X103021697Y-69732066D01*
X103056436Y-69713498D01*
X103094123Y-69702065D01*
X103139461Y-69697600D01*
X104226139Y-69697600D01*
X104271477Y-69702065D01*
X104271477Y-69702065D01*
G37*
G36*
X117828278Y-68026505D02*
X117865965Y-68037938D01*
X117900704Y-68056506D01*
X117931149Y-68081492D01*
X117956135Y-68111937D01*
X117974703Y-68146676D01*
X117986136Y-68184363D01*
X117990601Y-68229701D01*
X117990601Y-69316379D01*
X117986136Y-69361717D01*
X117974703Y-69399404D01*
X117956135Y-69434143D01*
X117931149Y-69464588D01*
X117900704Y-69489574D01*
X117865965Y-69508142D01*
X117828278Y-69519575D01*
X117782940Y-69524040D01*
X116946262Y-69524040D01*
X116900924Y-69519575D01*
X116863237Y-69508142D01*
X116828498Y-69489574D01*
X116798053Y-69464588D01*
X116773067Y-69434143D01*
X116754499Y-69399404D01*
X116743066Y-69361717D01*
X116738601Y-69316379D01*
X116738601Y-68229701D01*
X116743066Y-68184363D01*
X116754499Y-68146676D01*
X116773067Y-68111937D01*
X116798053Y-68081492D01*
X116828498Y-68056506D01*
X116863237Y-68037938D01*
X116900924Y-68026505D01*
X116946262Y-68022040D01*
X117782940Y-68022040D01*
X117828278Y-68026505D01*
X117828278Y-68026505D01*
G37*
G36*
X115778278Y-68026505D02*
X115815965Y-68037938D01*
X115850704Y-68056506D01*
X115881149Y-68081492D01*
X115906135Y-68111937D01*
X115924703Y-68146676D01*
X115936136Y-68184363D01*
X115940601Y-68229701D01*
X115940601Y-69316379D01*
X115936136Y-69361717D01*
X115924703Y-69399404D01*
X115906135Y-69434143D01*
X115881149Y-69464588D01*
X115850704Y-69489574D01*
X115815965Y-69508142D01*
X115778278Y-69519575D01*
X115732940Y-69524040D01*
X114896262Y-69524040D01*
X114850924Y-69519575D01*
X114813237Y-69508142D01*
X114778498Y-69489574D01*
X114748053Y-69464588D01*
X114723067Y-69434143D01*
X114704499Y-69399404D01*
X114693066Y-69361717D01*
X114688601Y-69316379D01*
X114688601Y-68229701D01*
X114693066Y-68184363D01*
X114704499Y-68146676D01*
X114723067Y-68111937D01*
X114748053Y-68081492D01*
X114778498Y-68056506D01*
X114813237Y-68037938D01*
X114850924Y-68026505D01*
X114896262Y-68022040D01*
X115732940Y-68022040D01*
X115778278Y-68026505D01*
X115778278Y-68026505D01*
G37*
G36*
X156877896Y-63206033D02*
X156877898Y-63206034D01*
X156877899Y-63206034D01*
X157342152Y-63398333D01*
X157758084Y-63676250D01*
X157759971Y-63677511D01*
X158115289Y-64032829D01*
X158115291Y-64032832D01*
X158394467Y-64450648D01*
X158565724Y-64864101D01*
X158586767Y-64914904D01*
X158684800Y-65407747D01*
X158684800Y-65910253D01*
X158596872Y-66352296D01*
X158586766Y-66403099D01*
X158394467Y-66867352D01*
X158141125Y-67246504D01*
X158115289Y-67285171D01*
X157759971Y-67640489D01*
X157759968Y-67640491D01*
X157342152Y-67919667D01*
X156877899Y-68111966D01*
X156877898Y-68111966D01*
X156877896Y-68111967D01*
X156385053Y-68210000D01*
X155882547Y-68210000D01*
X155389704Y-68111967D01*
X155389702Y-68111966D01*
X155389701Y-68111966D01*
X154925448Y-67919667D01*
X154507632Y-67640491D01*
X154507629Y-67640489D01*
X154152311Y-67285171D01*
X154126475Y-67246504D01*
X153873133Y-66867352D01*
X153680834Y-66403099D01*
X153670729Y-66352296D01*
X153582800Y-65910253D01*
X153582800Y-65407747D01*
X153680833Y-64914904D01*
X153701876Y-64864101D01*
X153873133Y-64450648D01*
X154152309Y-64032832D01*
X154152311Y-64032829D01*
X154507629Y-63677511D01*
X154509516Y-63676250D01*
X154925448Y-63398333D01*
X155389701Y-63206034D01*
X155389702Y-63206034D01*
X155389704Y-63206033D01*
X155882547Y-63108000D01*
X156385053Y-63108000D01*
X156877896Y-63206033D01*
X156877896Y-63206033D01*
G37*
G36*
X102928296Y-63155233D02*
X102928298Y-63155234D01*
X102928299Y-63155234D01*
X103392552Y-63347533D01*
X103808484Y-63625450D01*
X103810371Y-63626711D01*
X104165689Y-63982029D01*
X104165691Y-63982032D01*
X104444867Y-64399848D01*
X104637166Y-64864101D01*
X104637167Y-64864104D01*
X104735200Y-65356947D01*
X104735200Y-65859453D01*
X104642398Y-66326000D01*
X104637166Y-66352299D01*
X104444867Y-66816552D01*
X104266832Y-67083000D01*
X104165689Y-67234371D01*
X103810371Y-67589689D01*
X103810368Y-67589691D01*
X103392552Y-67868867D01*
X102928299Y-68061166D01*
X102928298Y-68061166D01*
X102928296Y-68061167D01*
X102435453Y-68159200D01*
X101932947Y-68159200D01*
X101440104Y-68061167D01*
X101440102Y-68061166D01*
X101440101Y-68061166D01*
X100975848Y-67868867D01*
X100558032Y-67589691D01*
X100558029Y-67589689D01*
X100202711Y-67234371D01*
X100101568Y-67083000D01*
X99923533Y-66816552D01*
X99731234Y-66352299D01*
X99726003Y-66326000D01*
X99633200Y-65859453D01*
X99633200Y-65356947D01*
X99731233Y-64864104D01*
X99731234Y-64864101D01*
X99923533Y-64399848D01*
X100202709Y-63982032D01*
X100202711Y-63982029D01*
X100558029Y-63626711D01*
X100559916Y-63625450D01*
X100975848Y-63347533D01*
X101440101Y-63155234D01*
X101440102Y-63155234D01*
X101440104Y-63155233D01*
X101932947Y-63057200D01*
X102435453Y-63057200D01*
X102928296Y-63155233D01*
X102928296Y-63155233D01*
G37*
G36*
X113388600Y-67728000D02*
X112086600Y-67728000D01*
X112086600Y-66326000D01*
X113388600Y-66326000D01*
X113388600Y-67728000D01*
X113388600Y-67728000D01*
G37*
G36*
X108388600Y-67728000D02*
X107086600Y-67728000D01*
X107086600Y-66326000D01*
X108388600Y-66326000D01*
X108388600Y-67728000D01*
X108388600Y-67728000D01*
G37*
G36*
X117828278Y-65994505D02*
X117865965Y-66005938D01*
X117900704Y-66024506D01*
X117931149Y-66049492D01*
X117956135Y-66079937D01*
X117974703Y-66114676D01*
X117986136Y-66152363D01*
X117990601Y-66197701D01*
X117990601Y-67284379D01*
X117986136Y-67329717D01*
X117974703Y-67367404D01*
X117956135Y-67402143D01*
X117931149Y-67432588D01*
X117900704Y-67457574D01*
X117865965Y-67476142D01*
X117828278Y-67487575D01*
X117782940Y-67492040D01*
X116946262Y-67492040D01*
X116900924Y-67487575D01*
X116863237Y-67476142D01*
X116828498Y-67457574D01*
X116798053Y-67432588D01*
X116773067Y-67402143D01*
X116754499Y-67367404D01*
X116743066Y-67329717D01*
X116738601Y-67284379D01*
X116738601Y-66197701D01*
X116743066Y-66152363D01*
X116754499Y-66114676D01*
X116773067Y-66079937D01*
X116798053Y-66049492D01*
X116828498Y-66024506D01*
X116863237Y-66005938D01*
X116900924Y-65994505D01*
X116946262Y-65990040D01*
X117782940Y-65990040D01*
X117828278Y-65994505D01*
X117828278Y-65994505D01*
G37*
G36*
X115778278Y-65994505D02*
X115815965Y-66005938D01*
X115850704Y-66024506D01*
X115881149Y-66049492D01*
X115906135Y-66079937D01*
X115924703Y-66114676D01*
X115936136Y-66152363D01*
X115940601Y-66197701D01*
X115940601Y-67284379D01*
X115936136Y-67329717D01*
X115924703Y-67367404D01*
X115906135Y-67402143D01*
X115881149Y-67432588D01*
X115850704Y-67457574D01*
X115815965Y-67476142D01*
X115778278Y-67487575D01*
X115732940Y-67492040D01*
X114896262Y-67492040D01*
X114850924Y-67487575D01*
X114813237Y-67476142D01*
X114778498Y-67457574D01*
X114748053Y-67432588D01*
X114723067Y-67402143D01*
X114704499Y-67367404D01*
X114693066Y-67329717D01*
X114688601Y-67284379D01*
X114688601Y-66197701D01*
X114693066Y-66152363D01*
X114704499Y-66114676D01*
X114723067Y-66079937D01*
X114748053Y-66049492D01*
X114778498Y-66024506D01*
X114813237Y-66005938D01*
X114850924Y-65994505D01*
X114896262Y-65990040D01*
X115732940Y-65990040D01*
X115778278Y-65994505D01*
X115778278Y-65994505D01*
G37*
G36*
X111788600Y-67353000D02*
X108686600Y-67353000D01*
X108686600Y-65901000D01*
X111788600Y-65901000D01*
X111788600Y-67353000D01*
X111788600Y-67353000D01*
G37*
G36*
X139387400Y-65861800D02*
X138285400Y-65861800D01*
X138285400Y-63259800D01*
X139387400Y-63259800D01*
X139387400Y-65861800D01*
X139387400Y-65861800D01*
G37*
G36*
X129227400Y-65861800D02*
X128125400Y-65861800D01*
X128125400Y-63259800D01*
X129227400Y-63259800D01*
X129227400Y-65861800D01*
X129227400Y-65861800D01*
G37*
G36*
X136847400Y-65861800D02*
X135745400Y-65861800D01*
X135745400Y-63259800D01*
X136847400Y-63259800D01*
X136847400Y-65861800D01*
X136847400Y-65861800D01*
G37*
G36*
X131767400Y-65861800D02*
X130665400Y-65861800D01*
X130665400Y-63259800D01*
X131767400Y-63259800D01*
X131767400Y-65861800D01*
X131767400Y-65861800D01*
G37*
G36*
X134307400Y-65861800D02*
X133205400Y-65861800D01*
X133205400Y-63259800D01*
X134307400Y-63259800D01*
X134307400Y-65861800D01*
X134307400Y-65861800D01*
G37*
G36*
X141927400Y-65861800D02*
X140825400Y-65861800D01*
X140825400Y-63259800D01*
X141927400Y-63259800D01*
X141927400Y-65861800D01*
X141927400Y-65861800D01*
G37*
G36*
X113538600Y-65028000D02*
X111286600Y-65028000D01*
X111286600Y-63026000D01*
X113538600Y-63026000D01*
X113538600Y-65028000D01*
X113538600Y-65028000D01*
G37*
G36*
X109188600Y-65028000D02*
X106936600Y-65028000D01*
X106936600Y-63026000D01*
X109188600Y-63026000D01*
X109188600Y-65028000D01*
X109188600Y-65028000D01*
G37*
M02*
